<?xml version="1.0" encoding="UTF-8" standalone="no"?>
<!-- Created with Inkscape (http://www.inkscape.org/) -->

<svg
   width="554.35144mm"
   height="473.5799mm"
   viewBox="0 0 554.35144 473.57989"
   version="1.1"
   id="svg5"
   inkscape:version="1.3.2 (091e20e, 2023-11-25)"
   sodipodi:docname="baut endlich die geplanten radwege - text-pfade-outline.svg"
   inkscape:export-filename="../../../../baut endlich die geplanten radwege.png"
   inkscape:export-xdpi="300"
   inkscape:export-ydpi="300"
   xmlns:inkscape="http://www.inkscape.org/namespaces/inkscape"
   xmlns:sodipodi="http://sodipodi.sourceforge.net/DTD/sodipodi-0.dtd"
   xmlns="http://www.w3.org/2000/svg"
   xmlns:svg="http://www.w3.org/2000/svg">
  <sodipodi:namedview
     id="namedview7"
     pagecolor="#ffffff"
     bordercolor="#666666"
     borderopacity="1.0"
     inkscape:pageshadow="2"
     inkscape:pageopacity="1"
     inkscape:pagecheckerboard="0"
     inkscape:document-units="mm"
     showgrid="false"
     inkscape:zoom="0.23874278"
     inkscape:cx="753.9495"
     inkscape:cy="1300.5629"
     inkscape:window-width="1920"
     inkscape:window-height="1022"
     inkscape:window-x="0"
     inkscape:window-y="0"
     inkscape:window-maximized="1"
     inkscape:current-layer="g4"
     fit-margin-top="5"
     fit-margin-left="5"
     fit-margin-right="5"
     fit-margin-bottom="5"
     lock-margins="true"
     inkscape:showpageshadow="2"
     inkscape:deskcolor="#d1d1d1"
     inkscape:export-bgcolor="#ffffffff" />
  <defs
     id="defs2">
    <rect
       x="49.451988"
       y="120.58521"
       width="831.84131"
       height="694.72467"
       id="rect192609" />
    <rect
       x="110.62282"
       y="180.02924"
       width="329.91223"
       height="540.383"
       id="rect186595" />
    <rect
       x="57.993843"
       y="84.360298"
       width="481.62823"
       height="454.23532"
       id="rect179193" />
    <rect
       x="155.79047"
       y="84.55127"
       width="691.06671"
       height="243.882"
       id="rect129457" />
    <rect
       x="95.625107"
       y="1394.6455"
       width="460.03046"
       height="333.86996"
       id="rect97027" />
    <rect
       x="18.583881"
       y="56.102528"
       width="480.80923"
       height="500.99414"
       id="rect68829" />
    <rect
       x="505.48889"
       y="183.66052"
       width="1467.9661"
       height="1508.9117"
       id="rect41567" />
    <rect
       x="129.73566"
       y="276.181"
       width="1853.0997"
       height="1345.1396"
       id="rect7105" />
    <inkscape:path-effect
       effect="fill_between_many"
       method="originald"
       linkedpaths="#path2,0,1|"
       id="path-effect5" />
  </defs>
  <g
     inkscape:label="Ebene 1"
     inkscape:groupmode="layer"
     id="layer1"
     transform="translate(-5.644244,-6.5260238)">
    <g
       id="g4"
       style="fill:none;stroke:#000000;stroke-opacity:1">
      <g
         id="text22789"
         style="font-size:101.435px;line-height:1.2;font-family:'Changing Cities';-inkscape-font-specification:'Changing Cities';font-variant-ligatures:none;letter-spacing:-0.0253588px;word-spacing:-0.00253588px;stroke-width:0.26458333;fill:none;stroke:#000000;stroke-opacity:1;vector-effect:non-scaling-stroke;-inkscape-stroke:hairline;stroke-dasharray:none"
         aria-label="             BAUT&#10;        ENDLICH&#10;DIE GEPLANTEN&#10;RADWEGE !">
        <path
           style="font-weight:500;-inkscape-font-specification:'Changing Cities Medium';text-align:center;text-anchor:middle;fill:none;stroke:#000000;stroke-opacity:1;vector-effect:non-scaling-stroke;-inkscape-stroke:hairline;stroke-width:0.26458333;stroke-dasharray:none"
           d="m 315.64246,85.392654 h 19.57695 c 12.07077,0 20.59131,-6.491839 22.92431,-17.953994 2.13014,-10.447805 -3.44879,-15.21525 -5.88323,-17.24395 -1.21722,-1.01435 -1.11578,-1.62296 0.60861,-2.333005 3.7531,-1.521525 8.92628,-5.578925 10.65068,-12.882244 2.23157,-9.73776 -2.53588,-20.591305 -17.85256,-20.591305 h -12.57794 c -0.91292,0 -1.42009,0.507175 -1.62296,1.318655 l -17.34539,67.352838 c -0.3043,1.115785 0.30431,2.333005 1.52153,2.333005 z m -13.59229,24.547266 h 48.79023 c 0.91292,0 1.42009,-0.50717 1.62296,-1.31865 l 2.53588,-9.332021 c 0.3043,-1.115785 -0.30431,-1.724395 -1.31866,-1.724395 h -48.79023 c -0.91292,0 -1.42009,0.507175 -1.62296,1.318655 l -2.53588,9.332021 c -0.3043,1.11578 0.30431,1.72439 1.31866,1.72439 z m 28.09749,-35.80655 5.07175,-19.47552 h 3.44879 c 5.37606,0 6.49184,4.0574 5.27462,9.94063 -1.11578,5.47749 -3.95596,9.53489 -9.23058,9.53489 z m 8.21624,-31.44485 4.3617,-16.939644 h 3.24592 c 4.46314,0 5.7818,4.564575 4.56458,9.433455 -1.21722,4.86888 -3.44879,7.506189 -9.33202,7.506189 z m 17.11695,42.704134 h 12.88224 c 0.81148,0 1.42009,-0.20287 1.82583,-0.912915 l 7.40476,-11.665024 h 11.46215 l -3.75309,10.853544 c -0.40574,1.115785 0.3043,1.724395 1.31865,1.724395 h 11.76646 c 0.91292,0 1.42009,-0.507175 1.62296,-1.318655 l 17.54825,-67.961448 c 0.30431,-1.115785 -0.3043,-1.724395 -1.31865,-1.724395 h -11.96933 c -0.81148,0 -1.52152,0.304305 -1.92726,0.912915 l -47.67445,68.062883 c -0.71005,1.115785 -0.40574,2.0287 0.81148,2.0287 z m -8.01337,24.547266 h 52.4419 c 0.91291,0 1.42009,-0.50717 1.62296,-1.31865 l 2.53587,-9.332021 c 0.30431,-1.115785 -0.3043,-1.724395 -1.31865,-1.724395 h -52.4419 c -0.91291,0 -1.42009,0.507175 -1.62296,1.318655 l -2.53587,9.332021 c -0.30431,1.11578 0.3043,1.72439 1.31865,1.72439 z m 37.22665,-48.79023 14.80951,-24.242964 c 0.81148,-1.42009 2.84018,-0.710045 2.23157,1.01435 L 393.3161,61.14969 Z m 44.50445,25.054444 c 12.37507,0.60861 19.98269,-8.317669 23.12718,-20.489869 L 465.208,16.112551 c 0.30431,-1.115785 -0.3043,-1.724395 -1.31865,-1.724395 h -11.56359 c -0.91292,0 -1.42009,0.507175 -1.62296,1.318655 l -12.37507,48.181624 c -1.21722,4.767445 -3.14449,10.447805 -7.70906,9.94063 -4.26027,-0.507175 -4.26027,-6.0861 -2.73875,-11.76646 l 11.76646,-45.950054 c 0.30431,-1.115785 -0.3043,-1.724395 -1.31865,-1.724395 h -11.56359 c -0.91292,0 -1.42009,0.507175 -1.62296,1.318655 l -11.15785,43.515614 c -3.34736,12.882245 0.60861,26.271664 15.21525,26.981709 z m -32.1549,23.735786 h 49.39885 c 0.91291,0 1.42009,-0.50717 1.62296,-1.31865 l 2.53587,-9.332021 c 0.30431,-1.115785 -0.3043,-1.724395 -1.31865,-1.724395 h -49.39885 c -0.91291,0 -1.42009,0.507175 -1.62296,1.318655 l -2.53587,9.332021 c -0.30431,1.11578 0.3043,1.72439 1.31865,1.72439 z m 66.71883,-24.547266 h 11.56359 c 0.91292,0 1.42009,-0.507175 1.62296,-1.318655 l 15.01238,-58.020818 h 10.24494 c 0.91291,0 1.42009,-0.507175 1.62296,-1.318655 l 2.23157,-8.621975 c 0.3043,-1.115785 -0.30431,-1.724395 -1.31866,-1.724395 h -34.69077 c -0.91291,0 -1.42009,0.507175 -1.62296,1.318655 l -2.23157,8.621975 c -0.3043,1.115785 0.30431,1.724395 1.31866,1.724395 h 9.83919 l -14.91094,57.615078 c -0.30431,1.115785 0.3043,1.724395 1.31865,1.724395 z m -20.18556,24.547266 h 40.67543 c 0.91292,0 1.42009,-0.50717 1.62296,-1.31865 l 2.53588,-9.332021 c 0.3043,-1.115785 -0.30431,-1.724395 -1.31866,-1.724395 h -40.67543 c -0.91292,0 -1.42009,0.507175 -1.62296,1.318655 l -2.53588,9.332021 c -0.3043,1.11578 0.30431,1.72439 1.31866,1.72439 z"
           id="path1" />
        <path
           style="font-weight:500;-inkscape-font-specification:'Changing Cities Medium';text-align:center;text-anchor:middle;fill:none;stroke:#000000;stroke-opacity:1;vector-effect:non-scaling-stroke;-inkscape-stroke:hairline;stroke-width:0.26458333;stroke-dasharray:none"
           d="m 214.62006,207.11466 h 28.80754 c 0.91292,0 1.42009,-0.50718 1.62296,-1.31866 l 2.43444,-9.33202 c 0.30431,-1.11578 -0.3043,-1.72439 -1.31865,-1.72439 h -15.82386 l 4.76744,-18.46117 h 12.67938 c 0.91291,0 1.42009,-0.50718 1.62296,-1.31866 l 2.23157,-8.52054 c 0.3043,-1.11578 -0.30431,-1.72439 -1.31866,-1.72439 h -12.27363 l 4.26027,-16.2296 h 16.2296 c 0.91291,0 1.42009,-0.50718 1.62296,-1.31866 l 2.43444,-9.33202 c 0.3043,-1.11578 -0.30431,-1.72439 -1.31866,-1.72439 h -29.41615 c -0.91291,0 -1.42009,0.50717 -1.62296,1.31865 l -17.34538,67.45428 c -0.30431,1.31865 0.3043,2.23157 1.72439,2.23157 z m -13.79516,24.54727 h 40.97974 c 0.91292,0 1.42009,-0.50718 1.62296,-1.31866 l 2.53588,-9.33202 c 0.3043,-1.11578 -0.30431,-1.72439 -1.31866,-1.72439 h -40.97974 c -0.91291,0 -1.42009,0.50717 -1.62296,1.31865 l -2.53587,9.33202 c -0.30431,1.11579 0.3043,1.7244 1.31865,1.7244 z m 51.60501,-24.54727 h 10.24493 c 1.01435,0 1.52153,-0.60861 1.7244,-1.42009 l 4.76744,-19.37409 c 0.20287,-0.60861 0.50718,-2.13013 0.60861,-2.73874 l 1.7244,-19.06978 c 0.10143,-1.31866 1.92726,-1.62296 2.13013,0 l 4.36171,40.97974 c 0.10143,1.31865 0.60861,1.62296 1.62296,1.62296 h 9.43345 c 1.01435,0 1.7244,-0.50718 1.92727,-1.31866 l 17.54825,-67.86001 c 0.30431,-1.11579 -0.3043,-1.92727 -1.42009,-1.92727 l -10.24493,0.10144 c -1.01435,0 -1.62296,0.60861 -1.82583,1.52152 l -5.07175,20.38844 c -0.20287,0.71004 -0.20287,1.42009 -0.30431,2.0287 l -1.72439,18.5626 c -0.10144,1.62296 -2.0287,1.52153 -2.13014,0.20287 l -4.3617,-41.08117 c -0.10144,-1.01435 -0.71005,-1.62296 -1.7244,-1.62296 l -9.43345,-0.10144 c -1.01435,0 -1.62296,0.60861 -1.82583,1.52153 l -17.54826,67.65714 c -0.3043,1.11579 0.40574,1.92727 1.52153,1.92727 z m -13.49086,24.54727 h 51.93472 c 0.91292,0 1.42009,-0.50718 1.62296,-1.31866 l 2.53588,-9.33202 c 0.3043,-1.11578 -0.30431,-1.72439 -1.31866,-1.72439 h -51.93472 c -0.91291,0 -1.42009,0.50717 -1.62296,1.31865 l -2.53587,9.33202 c -0.30431,1.11579 0.3043,1.7244 1.31865,1.7244 z m 62.3571,-24.54727 h 17.54825 c 13.59229,0 24.85158,-10.44781 30.12619,-32.25633 5.7818,-23.73579 -0.50717,-38.74817 -21.40278,-38.74817 h -8.4191 c -0.91292,0 -1.42009,0.50717 -1.62296,1.31865 l -17.54826,67.96145 c -0.3043,1.11579 0.30431,1.7244 1.31866,1.7244 z m -13.28799,24.54727 h 51.02181 c 0.91291,0 1.42009,-0.50718 1.62296,-1.31866 l 2.53587,-9.33202 c 0.30431,-1.11578 -0.3043,-1.72439 -1.31865,-1.72439 h -51.02181 c -0.91291,0 -1.42009,0.50717 -1.62296,1.31865 l -2.53587,9.33202 c -0.30431,1.11579 0.3043,1.7244 1.31865,1.7244 z m 29.31472,-36.71947 12.07076,-46.6601 h 1.31866 c 6.99901,0 8.52054,8.31767 4.0574,25.25731 -4.46314,16.93965 -10.04207,21.40279 -15.51956,21.40279 z m 32.12938,12.1722 h 28.19893 c 0.91291,0 1.42009,-0.50718 1.62296,-1.31866 l 2.43444,-9.12915 c 0.3043,-1.11578 -0.30431,-1.72439 -1.31866,-1.72439 h -14.91094 l 14.70807,-57.10791 c 0.30431,-1.11578 -0.3043,-1.72439 -1.31865,-1.72439 h -11.56359 c -0.91292,0 -1.42009,0.50717 -1.62296,1.31865 l -17.54826,67.96145 c -0.3043,1.11579 0.30431,1.7244 1.31866,1.7244 z m -13.28799,24.54727 h 38.95104 c 0.91292,0 1.42009,-0.50718 1.62296,-1.31866 l 2.53588,-9.33202 c 0.3043,-1.11578 -0.30431,-1.72439 -1.31866,-1.72439 h -38.95104 c -0.91291,0 -1.42009,0.50717 -1.62296,1.31865 l -2.53587,9.33202 c -0.30431,1.11579 0.3043,1.7244 1.31865,1.7244 z m 49.88055,-24.54727 h 11.56359 c 0.91292,0 1.42009,-0.50718 1.62296,-1.31866 l 17.54826,-67.96145 c 0.3043,-1.11578 -0.30431,-1.72439 -1.31866,-1.72439 h -11.56359 c -0.91291,0 -1.42009,0.50717 -1.62296,1.31865 l -17.54825,67.96145 c -0.30431,1.11579 0.3043,1.7244 1.31865,1.7244 z m -13.79516,24.54727 h 27.38745 c 0.91292,0 1.42009,-0.50718 1.62296,-1.31866 l 2.53588,-9.33202 c 0.3043,-1.11578 -0.30431,-1.72439 -1.31866,-1.72439 h -27.38745 c -0.91291,0 -1.42009,0.50717 -1.62296,1.31865 l -2.53587,9.33202 c -0.30431,1.11579 0.3043,1.7244 1.31865,1.7244 z m 56.16951,-23.73579 c 11.66503,1.21722 20.69274,-8.01337 26.17023,-27.59032 0.40574,-1.42009 -0.10143,-2.63731 -1.62296,-2.33301 l -10.85354,1.92727 c -0.91292,0.20287 -1.31866,0.60861 -1.62296,1.52152 -2.84018,10.04207 -6.18754,14.60664 -9.43346,14.09947 -3.95596,-0.40574 -4.97031,-8.31767 0,-25.46019 4.56458,-15.31668 9.63633,-23.33005 13.69373,-22.41713 2.84018,0.50717 2.73874,5.37605 0.40574,15.51955 -0.30431,1.11579 0.3043,1.82583 1.42009,1.62296 l 11.15785,-1.72439 c 0.81148,-0.10144 1.31865,-0.60861 1.52152,-1.42009 2.0287,-8.31767 1.82583,-25.66306 -13.49085,-26.57597 -12.1722,-0.60861 -22.51857,9.83919 -28.80754,31.54628 -7.10045,24.54727 -2.33301,39.86396 11.46215,41.28405 z m -31.64772,23.73579 h 48.99311 c 0.91291,0 1.42009,-0.50718 1.62296,-1.31866 l 2.53587,-9.33202 c 0.30431,-1.11578 -0.3043,-1.72439 -1.31865,-1.72439 h -48.99311 c -0.91291,0 -1.42009,0.50717 -1.62296,1.31865 l -2.53587,9.33202 c -0.30431,1.11579 0.3043,1.7244 1.31865,1.7244 z m 84.46996,-24.54727 H 492.805 c 0.91292,0 1.42009,-0.50718 1.62296,-1.31866 l 17.54826,-67.96145 c 0.3043,-1.11578 -0.30431,-1.72439 -1.31866,-1.72439 h -11.56359 c -0.91291,0 -1.42009,0.50717 -1.62296,1.31865 l -7.50619,29.11185 -10.95498,1.92726 7.91193,-30.63337 c 0.30431,-1.11578 -0.3043,-1.72439 -1.31865,-1.72439 h -11.56359 c -0.91292,0 -1.42009,0.50717 -1.62296,1.31865 l -17.54826,67.96145 c -0.3043,1.11579 0.30431,1.7244 1.31866,1.7244 h 11.56359 c 0.91291,0 1.42009,-0.50718 1.62296,-1.31866 l 6.3904,-24.6487 10.95498,-1.92727 -6.79614,26.17023 c -0.30431,1.11579 0.3043,1.7244 1.31865,1.7244 z m -38.34243,24.54727 h 51.42755 c 0.91291,0 1.42009,-0.50718 1.62296,-1.31866 l 2.53587,-9.33202 c 0.30431,-1.11578 -0.3043,-1.72439 -1.31865,-1.72439 h -51.42755 c -0.91291,0 -1.42009,0.50717 -1.62296,1.31865 l -2.53587,9.33202 c -0.30431,1.11579 0.3043,1.7244 1.31865,1.7244 z"
           id="path2" />
        <path
           style="font-weight:500;-inkscape-font-specification:'Changing Cities Medium';text-align:center;text-anchor:middle;fill:none;stroke:#000000;stroke-opacity:1;vector-effect:non-scaling-stroke;-inkscape-stroke:hairline;stroke-width:0.26458333;stroke-dasharray:none"
           d="m 25.329488,328.83666 h 17.548254 c 13.59229,0 24.851575,-10.44781 30.126195,-32.25633 5.781795,-23.73579 -0.507175,-38.74817 -21.402785,-38.74817 h -8.419105 c -0.912914,0 -1.420089,0.50717 -1.622959,1.31865 l -17.548255,67.96145 c -0.304305,1.11579 0.304305,1.7244 1.318655,1.7244 z m -13.287985,24.54727 h 51.021804 c 0.912915,0 1.42009,-0.50718 1.62296,-1.31866 l 2.535875,-9.33202 c 0.304305,-1.11578 -0.304305,-1.72439 -1.318655,-1.72439 H 14.881683 c -0.912915,0 -1.42009,0.50717 -1.62296,1.31865 l -2.535875,9.33202 c -0.304305,1.11579 0.304305,1.7244 1.318655,1.7244 z m 29.314715,-36.71947 12.070764,-46.6601 h 1.318655 c 6.999015,0 8.52054,8.31767 4.0574,25.25731 -4.46314,16.93965 -10.042065,21.40279 -15.519555,21.40279 z m 32.636554,12.1722 h 11.563589 c 0.912915,0 1.42009,-0.50718 1.62296,-1.31866 l 17.548259,-67.96145 c 0.3043,-1.11578 -0.30431,-1.72439 -1.31866,-1.72439 H 91.845331 c -0.912915,0 -1.42009,0.50717 -1.62296,1.31865 l -17.548254,67.96145 c -0.304305,1.11579 0.304305,1.7244 1.318655,1.7244 z m -13.79516,24.54727 h 27.387449 c 0.912915,0 1.42009,-0.50718 1.62296,-1.31866 l 2.535875,-9.33202 c 0.304305,-1.11578 -0.304305,-1.72439 -1.318655,-1.72439 H 63.037792 c -0.912915,0 -1.42009,0.50717 -1.62296,1.31865 l -2.535875,9.33202 c -0.304305,1.11579 0.304305,1.7244 1.318655,1.7244 z M 98.51455,328.83666 h 28.80754 c 0.91291,0 1.42009,-0.50718 1.62296,-1.31866 l 2.43444,-9.33202 c 0.3043,-1.11578 -0.30431,-1.72439 -1.31866,-1.72439 h -15.82386 l 4.76745,-18.46117 h 12.67937 c 0.91292,0 1.42009,-0.50718 1.62296,-1.31866 l 2.23157,-8.52054 c 0.30431,-1.11578 -0.3043,-1.72439 -1.31865,-1.72439 h -12.27364 l 4.26027,-16.2296 h 16.2296 c 0.91292,0 1.42009,-0.50718 1.62296,-1.31866 l 2.43444,-9.33202 c 0.30431,-1.11578 -0.3043,-1.72439 -1.31865,-1.72439 H 115.7585 c -0.91292,0 -1.42009,0.50717 -1.62296,1.31865 l -17.345385,67.45428 c -0.304305,1.31865 0.304305,2.23157 1.724395,2.23157 z m -13.79516,24.54727 h 40.97974 c 0.91291,0 1.42009,-0.50718 1.62296,-1.31866 l 2.53587,-9.33202 c 0.30431,-1.11578 -0.3043,-1.72439 -1.31865,-1.72439 H 87.55957 c -0.912915,0 -1.42009,0.50717 -1.62296,1.31865 l -2.535875,9.33202 c -0.304305,1.11579 0.304305,1.7244 1.318655,1.7244 z m 38.11414,0 h 21.09848 c 0.91292,0 1.42009,-0.50718 1.62296,-1.31866 l 2.53588,-9.33202 c 0.3043,-1.11578 -0.30431,-1.72439 -1.31866,-1.72439 h -21.09848 c -0.91291,0 -1.42009,0.50717 -1.62296,1.31865 l -2.53587,9.33202 c -0.30431,1.11579 0.3043,1.7244 1.31865,1.7244 z m 49.77654,-23.73579 c 12.98367,1.52152 23.12717,-10.1435 29.0104,-30.53194 1.01435,-3.34735 2.13014,-6.79614 3.24592,-12.37507 0.30431,-1.31865 -0.3043,-1.82583 -1.52152,-1.62296 l -20.89561,3.24592 c -0.91291,0.10144 -1.42009,0.91292 -1.72439,1.82583 l -1.62296,8.92628 c -0.30431,1.31866 0.3043,1.82583 1.52152,1.62296 l 3.04305,-0.50717 c 0.40574,-0.10144 1.01435,-0.40574 1.42009,-0.60861 l 6.28897,-3.14449 c 1.11578,-0.60861 1.92726,0.91292 0.91291,1.7244 l -6.79614,5.57892 c -0.3043,0.30431 -0.60861,0.60861 -0.91291,1.52153 -2.53588,9.02771 -5.7818,12.1722 -9.02772,11.96933 -4.46314,-0.40574 -5.27462,-9.73776 -0.50717,-26.27167 4.0574,-14.30233 9.63632,-21.90996 13.69372,-21.60565 3.04305,0.3043 4.0574,4.3617 3.44879,10.95498 -0.30431,1.31865 0.40574,1.92726 1.62296,1.72439 l 10.24493,-1.82583 c 0.91292,-0.20287 1.62296,-0.71004 1.7244,-1.62296 1.42009,-11.96933 -5.07175,-21.40278 -16.53391,-21.70709 -12.27363,-0.40574 -22.01139,11.15785 -27.89462,30.93768 -6.69471,24.6487 -2.84018,39.96539 11.25929,41.79122 z m -31.54629,23.73579 h 51.52898 c 0.91291,0 1.42009,-0.50718 1.62296,-1.31866 l 2.53587,-9.33202 c 0.30431,-1.11578 -0.3043,-1.72439 -1.31865,-1.72439 h -51.52898 c -0.91291,0 -1.42009,0.50717 -1.62296,1.31865 l -2.53587,9.33202 c -0.30431,1.11579 0.3043,1.7244 1.31865,1.7244 z m 62.45855,-24.54727 h 28.80754 c 0.91292,0 1.42009,-0.50718 1.62296,-1.31866 l 2.43444,-9.33202 c 0.30431,-1.11578 -0.3043,-1.72439 -1.31865,-1.72439 h -15.82386 l 4.76744,-18.46117 h 12.67938 c 0.91291,0 1.42009,-0.50718 1.62296,-1.31866 l 2.23157,-8.52054 c 0.3043,-1.11578 -0.30431,-1.72439 -1.31866,-1.72439 h -12.27363 l 4.26027,-16.2296 h 16.2296 c 0.91291,0 1.42009,-0.50718 1.62296,-1.31866 l 2.43444,-9.33202 c 0.3043,-1.11578 -0.30431,-1.72439 -1.31866,-1.72439 h -29.41615 c -0.91291,0 -1.42009,0.50717 -1.62296,1.31865 l -17.34538,67.45428 c -0.30431,1.31865 0.3043,2.23157 1.72439,2.23157 z m -13.79516,24.54727 h 40.97974 c 0.91292,0 1.42009,-0.50718 1.62296,-1.31866 l 2.53588,-9.33202 c 0.3043,-1.11578 -0.30431,-1.72439 -1.31866,-1.72439 h -40.97974 c -0.91291,0 -1.42009,0.50717 -1.62296,1.31865 l -2.53587,9.33202 c -0.30431,1.11579 0.3043,1.7244 1.31865,1.7244 z m 51.40212,-24.54727 h 11.56359 c 0.91292,0 1.42009,-0.50718 1.62296,-1.31866 l 5.98467,-23.02574 h 6.18753 c 11.15785,0 20.38844,-8.31767 23.43149,-21.09848 3.65166,-15.51956 -3.85453,-25.56162 -19.06978,-25.56162 h -11.8679 c -0.91291,0 -1.42009,0.50717 -1.62296,1.31865 l -17.54825,67.96145 c -0.30431,1.11579 0.3043,1.7244 1.31865,1.7244 z m -13.28798,24.54727 h 47.16727 c 0.91292,0 1.42009,-0.50718 1.62296,-1.31866 l 2.53588,-9.33202 c 0.3043,-1.11578 -0.30431,-1.72439 -1.31866,-1.72439 h -47.16727 c -0.91292,0 -1.42009,0.50717 -1.62296,1.31865 l -2.53588,9.33202 c -0.3043,1.11579 0.30431,1.7244 1.31866,1.7244 z m 35.60368,-61.26674 5.68036,-21.90996 h 3.55023 c 4.26027,0 5.88323,4.0574 4.26027,11.05641 -1.62296,6.89758 -4.86888,10.85355 -9.02772,10.85355 z m 21.98588,36.71947 h 28.19893 c 0.91291,0 1.42009,-0.50718 1.62296,-1.31866 l 2.43444,-9.12915 c 0.3043,-1.11578 -0.30431,-1.72439 -1.31866,-1.72439 H 301.4576 l 14.70807,-57.10791 c 0.30431,-1.11578 -0.3043,-1.72439 -1.31865,-1.72439 h -11.56359 c -0.91292,0 -1.42009,0.50717 -1.62296,1.31865 l -17.54826,67.96145 c -0.3043,1.11579 0.30431,1.7244 1.31866,1.7244 z m -13.28799,24.54727 h 38.95104 c 0.91292,0 1.42009,-0.50718 1.62296,-1.31866 l 2.53588,-9.33202 c 0.3043,-1.11578 -0.30431,-1.72439 -1.31866,-1.72439 h -38.95104 c -0.91291,0 -1.42009,0.50717 -1.62296,1.31865 l -2.53587,9.33202 c -0.30431,1.11579 0.3043,1.7244 1.31865,1.7244 z m 45.62024,-24.54727 h 12.88224 c 0.81148,0 1.42009,-0.20287 1.82583,-0.91292 l 7.40476,-11.66502 h 11.46215 l -3.75309,10.85354 c -0.40574,1.11579 0.3043,1.7244 1.31865,1.7244 h 11.76646 c 0.91292,0 1.42009,-0.50718 1.62296,-1.31866 l 17.54826,-67.96145 c 0.3043,-1.11578 -0.30431,-1.72439 -1.31866,-1.72439 h -11.96933 c -0.81148,0 -1.52152,0.3043 -1.92726,0.91291 l -47.67445,68.06289 c -0.71004,1.11578 -0.40574,2.0287 0.81148,2.0287 z m -8.01336,24.54727 h 52.44189 c 0.91291,0 1.42009,-0.50718 1.62296,-1.31866 l 2.53587,-9.33202 c 0.30431,-1.11578 -0.3043,-1.72439 -1.31865,-1.72439 h -52.44189 c -0.91292,0 -1.42009,0.50717 -1.62296,1.31865 l -2.53588,9.33202 c -0.3043,1.11579 0.30431,1.7244 1.31866,1.7244 z m 37.22664,-48.79024 14.80951,-24.24296 c 0.81148,-1.42009 2.84018,-0.71005 2.23157,1.01435 l -8.41911,23.22861 z m 25.84038,24.24297 h 10.24494 c 1.01435,0 1.52152,-0.60861 1.72439,-1.42009 l 4.76745,-19.37409 c 0.20287,-0.60861 0.50717,-2.13013 0.60861,-2.73874 l 1.72439,-19.06978 c 0.10144,-1.31866 1.92727,-1.62296 2.13014,0 l 4.3617,40.97974 c 0.10144,1.31865 0.60861,1.62296 1.62296,1.62296 h 9.43346 c 1.01435,0 1.72439,-0.50718 1.92726,-1.31866 l 17.54826,-67.86001 c 0.3043,-1.11579 -0.30431,-1.92727 -1.42009,-1.92727 l -10.24494,0.10144 c -1.01435,0 -1.62296,0.60861 -1.82583,1.52152 l -5.07175,20.38844 c -0.20287,0.71004 -0.20287,1.42009 -0.3043,2.0287 l -1.7244,18.5626 c -0.10143,1.62296 -2.0287,1.52153 -2.13013,0.20287 l -4.36171,-41.08117 c -0.10143,-1.01435 -0.71004,-1.62296 -1.72439,-1.62296 l -9.43346,-0.10144 c -1.01435,0 -1.62296,0.60861 -1.82583,1.52153 l -17.54825,67.65714 c -0.30431,1.11579 0.40574,1.92727 1.52152,1.92727 z m -13.49085,24.54727 h 51.93472 c 0.91291,0 1.42009,-0.50718 1.62296,-1.31866 l 2.53587,-9.33202 c 0.30431,-1.11578 -0.3043,-1.72439 -1.31865,-1.72439 h -51.93472 c -0.91292,0 -1.42009,0.50717 -1.62296,1.31865 l -2.53588,9.33202 c -0.3043,1.11579 0.30431,1.7244 1.31866,1.7244 z m 69.25468,-24.54727 h 11.56359 c 0.91292,0 1.42009,-0.50718 1.62296,-1.31866 l 15.01238,-58.02082 h 10.24494 c 0.91291,0 1.42009,-0.50717 1.62296,-1.31865 l 2.23157,-8.62198 c 0.3043,-1.11578 -0.30431,-1.72439 -1.31866,-1.72439 h -34.69077 c -0.91291,0 -1.42009,0.50717 -1.62296,1.31865 l -2.23157,8.62198 c -0.3043,1.11578 0.30431,1.72439 1.31866,1.72439 h 9.83919 l -14.91094,57.61508 c -0.30431,1.11579 0.3043,1.7244 1.31865,1.7244 z m -20.18556,24.54727 h 40.67543 c 0.91292,0 1.42009,-0.50718 1.62296,-1.31866 l 2.53588,-9.33202 c 0.3043,-1.11578 -0.30431,-1.72439 -1.31866,-1.72439 h -40.67543 c -0.91292,0 -1.42009,0.50717 -1.62296,1.31865 l -2.53588,9.33202 c -0.3043,1.11579 0.30431,1.7244 1.31866,1.7244 z m 52.61913,-24.54727 h 28.80754 c 0.91292,0 1.42009,-0.50718 1.62296,-1.31866 l 2.43444,-9.33202 c 0.30431,-1.11578 -0.3043,-1.72439 -1.31865,-1.72439 h -15.82386 l 4.76744,-18.46117 h 12.67938 c 0.91291,0 1.42009,-0.50718 1.62296,-1.31866 l 2.23157,-8.52054 c 0.3043,-1.11578 -0.30431,-1.72439 -1.31866,-1.72439 h -12.27363 l 4.26027,-16.2296 h 16.2296 c 0.91291,0 1.42009,-0.50718 1.62296,-1.31866 l 2.43444,-9.33202 c 0.3043,-1.11578 -0.30431,-1.72439 -1.31866,-1.72439 h -29.41615 c -0.91291,0 -1.42009,0.50717 -1.62296,1.31865 l -17.34538,67.45428 c -0.30431,1.31865 0.3043,2.23157 1.72439,2.23157 z m -13.79516,24.54727 h 40.97974 c 0.91292,0 1.42009,-0.50718 1.62296,-1.31866 l 2.53588,-9.33202 c 0.3043,-1.11578 -0.30431,-1.72439 -1.31866,-1.72439 H 450.0592 c -0.91291,0 -1.42009,0.50717 -1.62296,1.31865 l -2.53587,9.33202 c -0.30431,1.11579 0.3043,1.7244 1.31865,1.7244 z m 51.60502,-24.54727 h 10.24494 c 1.01435,0 1.52152,-0.60861 1.72439,-1.42009 l 4.76745,-19.37409 c 0.20287,-0.60861 0.50717,-2.13013 0.60861,-2.73874 l 1.72439,-19.06978 c 0.10144,-1.31866 1.92727,-1.62296 2.13014,0 l 4.3617,40.97974 c 0.10144,1.31865 0.60861,1.62296 1.62296,1.62296 h 9.43346 c 1.01435,0 1.72439,-0.50718 1.92726,-1.31866 l 17.54826,-67.86001 c 0.3043,-1.11579 -0.30431,-1.92727 -1.42009,-1.92727 l -10.24494,0.10144 c -1.01435,0 -1.62296,0.60861 -1.82583,1.52152 l -5.07175,20.38844 c -0.20287,0.71004 -0.20287,1.42009 -0.3043,2.0287 l -1.7244,18.5626 c -0.10143,1.62296 -2.0287,1.52153 -2.13013,0.20287 l -4.36171,-41.08117 c -0.10143,-1.01435 -0.71004,-1.62296 -1.72439,-1.62296 l -9.43346,-0.10144 c -1.01435,0 -1.62296,0.60861 -1.82583,1.52153 l -17.54825,67.65714 c -0.30431,1.11579 0.40574,1.92727 1.52152,1.92727 z m -13.49085,24.54727 h 51.93472 c 0.91291,0 1.42009,-0.50718 1.62296,-1.31866 l 2.53587,-9.33202 c 0.30431,-1.11578 -0.3043,-1.72439 -1.31865,-1.72439 h -51.93472 c -0.91291,0 -1.42009,0.50717 -1.62296,1.31865 l -2.53587,9.33202 c -0.30431,1.11579 0.3043,1.7244 1.31865,1.7244 z"
           id="path3" />
        <path
           style="font-weight:500;-inkscape-font-specification:'Changing Cities Medium';text-align:center;text-anchor:middle;fill:none;stroke:#000000;stroke-opacity:1;vector-effect:non-scaling-stroke;-inkscape-stroke:hairline;stroke-width:0.26458333;stroke-dasharray:none"
           d="m 101.0885,450.55866 h 11.36072 c 0.91292,0 1.42009,-0.50717 1.62296,-1.31865 l 3.44879,-13.08512 c 0.20287,-0.60861 0.71005,-3.34735 0.71005,-4.0574 l 0.81148,-11.46215 c 0.10143,-1.82583 2.0287,-1.92727 2.23157,-0.20287 l 3.95596,28.7061 c 0.10144,1.01435 0.71005,1.42009 1.62296,1.42009 h 10.65068 c 0.91291,0 1.72439,-0.50717 1.52152,-1.72439 l -3.85453,-25.25732 c -0.10143,-0.71004 -0.50717,-1.31865 -1.11578,-1.72439 l -4.86888,-2.94162 c -1.42009,-0.81148 -0.50718,-2.43444 1.01435,-1.92726 l 3.34735,0.91291 c 0.91292,0.30431 1.52153,0.20287 2.23157,0 8.92628,-1.92726 12.67938,-9.53489 14.30234,-16.73677 2.53587,-11.25929 -3.65166,-21.60566 -18.46117,-21.60566 h -12.67938 c -0.91291,0 -1.42009,0.50718 -1.62296,1.31866 l -17.548251,67.86001 c -0.304305,1.11579 0.304301,1.82583 1.318651,1.82583 z m -13.287981,24.54727 h 47.674451 c 0.91291,0 1.42009,-0.50718 1.62296,-1.31866 l 2.53587,-9.33202 c 0.30431,-1.11578 -0.3043,-1.72439 -1.31865,-1.72439 H 90.640699 c -0.912915,0 -1.42009,0.50717 -1.62296,1.31865 l -2.535875,9.33202 c -0.304305,1.11579 0.304305,1.7244 1.318655,1.7244 z m 36.516601,-66.03418 4.56457,-17.85256 h 2.73875 c 4.46314,0 6.89758,3.04305 5.37605,9.53489 -1.21722,5.27462 -4.0574,8.31767 -8.92628,8.31767 z m 16.20404,41.48691 h 12.88225 c 0.81148,0 1.42009,-0.20287 1.82583,-0.91291 l 7.40475,-11.66503 h 11.46216 l -3.7531,10.85355 c -0.40574,1.11578 0.30431,1.72439 1.31866,1.72439 h 11.76646 c 0.91291,0 1.42009,-0.50717 1.62296,-1.31865 l 17.54825,-67.96145 c 0.30431,-1.11579 -0.3043,-1.7244 -1.31865,-1.7244 H 189.3114 c -0.81148,0 -1.52153,0.30431 -1.92727,0.91292 l -47.67445,68.06288 c -0.71004,1.11579 -0.40574,2.0287 0.81148,2.0287 z m -8.01336,24.54727 h 52.44189 c 0.91292,0 1.42009,-0.50718 1.62296,-1.31866 l 2.53588,-9.33202 c 0.3043,-1.11578 -0.30431,-1.72439 -1.31866,-1.72439 h -52.44189 c -0.91292,0 -1.42009,0.50717 -1.62296,1.31865 l -2.53588,9.33202 c -0.3043,1.11579 0.30431,1.7244 1.31866,1.7244 z m 37.22664,-48.79023 14.80951,-24.24297 c 0.81148,-1.42009 2.84018,-0.71004 2.23157,1.01435 l -8.4191,23.22862 z m 25.63753,24.24296 h 17.54826 c 13.59229,0 24.85157,-10.4478 30.12619,-32.25633 5.7818,-23.73579 -0.50717,-38.74817 -21.40278,-38.74817 h -8.41911 c -0.91291,0 -1.42009,0.50718 -1.62296,1.31866 l -17.54825,67.96145 c -0.30431,1.11578 0.3043,1.72439 1.31865,1.72439 z m -13.28798,24.54727 h 51.0218 c 0.91292,0 1.42009,-0.50718 1.62296,-1.31866 l 2.53588,-9.33202 c 0.3043,-1.11578 -0.30431,-1.72439 -1.31866,-1.72439 h -51.0218 c -0.91292,0 -1.42009,0.50717 -1.62296,1.31865 l -2.53588,9.33202 c -0.3043,1.11579 0.30431,1.7244 1.31866,1.7244 z m 29.31471,-36.71947 12.07077,-46.6601 h 1.31865 c 6.99902,0 8.52054,8.31767 4.0574,25.25732 -4.46314,16.93964 -10.04206,21.40278 -15.51955,21.40278 z m 36.69397,12.1722 h 10.95498 c 0.91291,0 1.31865,-0.50717 1.62296,-1.31865 l 17.04108,-42.2984 c 0.71004,-1.72439 2.53587,-1.72439 2.23157,0.30431 l -5.27462,41.58835 c -0.10144,1.11578 0.3043,1.72439 1.31865,1.72439 h 10.95498 c 0.91292,0 1.31866,-0.50717 1.62296,-1.31865 l 27.18458,-67.96145 c 0.40574,-1.11579 -0.3043,-1.7244 -1.31865,-1.7244 h -11.25929 c -0.91291,0 -1.42009,0.50718 -1.62296,1.31866 l -12.1722,40.77687 c -0.40574,1.42009 -2.43444,1.31865 -2.23157,-0.50718 l 5.37606,-39.86395 c 0.20287,-1.21722 -0.40574,-1.7244 -1.42009,-1.7244 h -11.56359 c -0.91292,0 -1.31866,0.50718 -1.62296,1.31866 l -15.41812,40.77687 c -0.50718,1.42009 -2.63731,1.21722 -2.23157,-0.50718 l 8.4191,-39.86395 c 0.20287,-1.11579 -0.3043,-1.7244 -1.31865,-1.7244 h -10.54924 c -0.91292,0 -1.52153,0.50718 -1.62296,1.31866 l -8.41911,67.96145 c -0.10143,1.11578 0.30431,1.72439 1.31866,1.72439 z m -17.85256,24.54727 h 64.00548 c 0.91292,0 1.42009,-0.50718 1.62296,-1.31866 l 2.53588,-9.33202 c 0.3043,-1.11578 -0.30431,-1.72439 -1.31866,-1.72439 h -64.00548 c -0.91292,0 -1.42009,0.50717 -1.62296,1.31865 l -2.53588,9.33202 c -0.3043,1.11579 0.30431,1.7244 1.31866,1.7244 z m 74.93498,-24.54727 h 28.80753 c 0.91292,0 1.42009,-0.50717 1.62296,-1.31865 l 2.43444,-9.33202 c 0.30431,-1.11579 -0.3043,-1.7244 -1.31865,-1.7244 h -15.82386 l 4.76745,-18.46117 h 12.67937 c 0.91291,0 1.42009,-0.50717 1.62296,-1.31865 l 2.23157,-8.52054 c 0.3043,-1.11579 -0.30431,-1.7244 -1.31866,-1.7244 h -12.27363 l 4.26027,-16.2296 h 16.2296 c 0.91291,0 1.42009,-0.50717 1.62296,-1.31865 l 2.43444,-9.33202 c 0.3043,-1.11579 -0.30431,-1.7244 -1.31866,-1.7244 h -29.41614 c -0.91292,0 -1.42009,0.50718 -1.62296,1.31866 l -17.34539,67.45427 c -0.3043,1.31866 0.30431,2.23157 1.7244,2.23157 z m -13.79516,24.54727 h 40.97974 c 0.91291,0 1.42008,-0.50718 1.62295,-1.31866 l 2.53588,-9.33202 c 0.3043,-1.11578 -0.30431,-1.72439 -1.31866,-1.72439 h -40.97973 c -0.91292,0 -1.42009,0.50717 -1.62296,1.31865 l -2.53588,9.33202 c -0.3043,1.11579 0.30431,1.7244 1.31866,1.7244 z m 68.64604,-23.73579 c 12.98368,1.52153 23.12718,-10.1435 29.01041,-30.53193 1.01435,-3.34736 2.13014,-6.79615 3.24592,-12.37507 0.30431,-1.31866 -0.3043,-1.82583 -1.52152,-1.62296 l -20.89561,3.24592 c -0.91292,0.10143 -1.42009,0.91291 -1.7244,1.82583 l -1.62296,8.92628 c -0.3043,1.31865 0.30431,1.82583 1.52153,1.62296 l 3.04305,-0.50718 c 0.40574,-0.10143 1.01435,-0.40574 1.42009,-0.60861 l 6.28897,-3.14448 c 1.11578,-0.60861 1.92726,0.91291 0.91291,1.72439 l -6.79614,5.57893 c -0.30431,0.3043 -0.60861,0.60861 -0.91292,1.52152 -2.53587,9.02772 -5.78179,12.1722 -9.02771,11.96933 -4.46314,-0.40574 -5.27462,-9.73776 -0.50718,-26.27166 4.0574,-14.30234 9.63633,-21.90996 13.69373,-21.60566 3.04305,0.30431 4.0574,4.36171 3.44879,10.95498 -0.30431,1.31866 0.40574,1.92727 1.62296,1.7244 l 10.24493,-1.82583 c 0.91292,-0.20287 1.62296,-0.71005 1.7244,-1.62296 1.42009,-11.96933 -5.07175,-21.40279 -16.53391,-21.70709 -12.27363,-0.40574 -22.01139,11.15785 -27.89462,30.93767 -6.69471,24.64871 -2.84018,39.96539 11.25928,41.79122 z m -31.54628,23.73579 h 51.52898 c 0.91291,0 1.42009,-0.50718 1.62296,-1.31866 l 2.53587,-9.33202 c 0.30431,-1.11578 -0.3043,-1.72439 -1.31865,-1.72439 h -51.52898 c -0.91292,0 -1.42009,0.50717 -1.62296,1.31865 l -2.53588,9.33202 c -0.3043,1.11579 0.30431,1.7244 1.31866,1.7244 z m 62.45855,-24.54727 h 28.80754 c 0.91291,0 1.42009,-0.50717 1.62296,-1.31865 l 2.43444,-9.33202 c 0.3043,-1.11579 -0.30431,-1.7244 -1.31866,-1.7244 h -15.82386 l 4.76745,-18.46117 h 12.67937 c 0.91292,0 1.42009,-0.50717 1.62296,-1.31865 l 2.23157,-8.52054 c 0.30431,-1.11579 -0.3043,-1.7244 -1.31865,-1.7244 h -12.27364 l 4.26027,-16.2296 h 16.2296 c 0.91292,0 1.42009,-0.50717 1.62296,-1.31865 l 2.43444,-9.33202 c 0.30431,-1.11579 -0.3043,-1.7244 -1.31865,-1.7244 h -29.41615 c -0.91292,0 -1.42009,0.50718 -1.62296,1.31866 l -17.34539,67.45427 c -0.3043,1.31866 0.30431,2.23157 1.7244,2.23157 z m -13.79516,24.54727 h 40.97974 c 0.91291,0 1.42009,-0.50718 1.62296,-1.31866 l 2.53587,-9.33202 c 0.30431,-1.11578 -0.3043,-1.72439 -1.31865,-1.72439 h -40.97974 c -0.91292,0 -1.42009,0.50717 -1.62296,1.31865 l -2.53588,9.33202 c -0.3043,1.11579 0.30431,1.7244 1.31866,1.7244 z m 38.11413,0 h 21.09848 c 0.91292,0 1.42009,-0.50718 1.62296,-1.31866 l 2.53588,-9.33202 c 0.3043,-1.11578 -0.30431,-1.72439 -1.31866,-1.72439 h -21.09848 c -0.91291,0 -1.42009,0.50717 -1.62296,1.31865 l -2.53587,9.33202 c -0.30431,1.11579 0.3043,1.7244 1.31865,1.7244 z m 38.21295,-46.25436 h 11.56359 c 0.91292,0 1.42009,-0.50717 1.62296,-1.31865 l 11.8679,-46.25436 c 0.3043,-1.11579 -0.30431,-1.7244 -1.31866,-1.7244 h -11.56359 c -0.91291,0 -1.42009,0.50718 -1.62296,1.31866 l -11.86789,46.25436 c -0.30431,1.11578 0.3043,1.72439 1.31865,1.72439 z m -6.18753,21.70709 H 459.962 c 0.91292,0 1.42009,-0.50717 1.62296,-1.31865 l 3.24592,-12.57794 c 0.30431,-1.11579 -0.3043,-1.7244 -1.31865,-1.7244 h -12.67938 c -0.91291,0 -1.42009,0.50718 -1.62296,1.31866 l -3.24592,12.57794 c -0.3043,1.11578 0.30431,1.72439 1.31866,1.72439 z m -13.79516,24.54727 h 27.99606 c 0.91291,0 1.42009,-0.50718 1.62296,-1.31866 l 2.53587,-9.33202 c 0.30431,-1.11578 -0.3043,-1.72439 -1.31865,-1.72439 h -27.99606 c -0.91292,0 -1.42009,0.50717 -1.62296,1.31865 l -2.53588,9.33202 c -0.3043,1.11579 0.30431,1.7244 1.31866,1.7244 z"
           id="path4" />
      </g>
      <path
         d="m 88.399105,183.22356 9.285486,-5.74012 0.33765,-0.16883 1.26621,7.93487 -10.382865,15.53208 c -2.954473,-1.43503 -6.162185,-2.27916 -9.791966,-2.27916 -11.986716,0 -21.356614,9.28548 -21.356614,21.18778 0,11.81789 9.454312,21.10338 21.441028,21.10338 11.986717,0 21.356616,-9.28549 21.356616,-21.18779 v -0.59089 l 7.09073,-0.84414 c 1.18179,-0.16883 1.77269,-0.50648 2.27916,-1.01296 l 21.44103,-22.5384 1.43503,5.31805 c -7.93487,3.03888 -13.42174,10.6361 -13.42174,19.75275 0,11.81789 9.45431,21.10338 21.44103,21.10338 11.98671,0 21.35661,-9.28549 21.35661,-21.18779 0,-11.81789 -9.45431,-21.10337 -21.44103,-21.10337 l -1.60385,0.0844 -4.38951,-17.22036 c -0.25324,-1.09737 -1.01296,-1.43503 -2.02592,-1.2662 l -26.59025,4.13626 -1.43503,-9.28548 0.16882,-0.0844 25.07081,-1.01296 c 1.09738,-0.0844 1.60386,-0.84414 1.09738,-1.8571 l -25.6617,-47.86245 c -0.5909,-1.09737 -1.43503,-1.18179 -2.02593,0 l -14.687945,28.27852 -12.662024,7.76604 c -0.759722,0.50648 -1.012962,1.18179 -0.590895,2.02593 l 10.889341,20.51247 c 0.422068,0.84414 1.266203,1.01297 2.110338,0.50649 z m 58.751785,-16.03857 3.29213,1.77268 c 0.84414,0.50649 1.60386,0.33766 2.11034,-0.50647 l 7.34397,-12.74644 c 0.5909,-1.09738 0.16883,-1.94151 -1.09737,-1.77269 l -22.5384,2.87006 c -1.01297,0.16883 -1.43503,0.67531 -1.35062,1.68827 l 0.50648,3.7142 c 0.0844,1.01296 0.67531,1.51944 1.68827,1.35061 l 11.56465,-1.68827 -2.11034,3.20772 c -0.59089,0.92854 -0.25324,1.60385 0.59089,2.11033 z m -29.71354,-37.22635 3.88302,1.18179 c 0.92855,0.25324 1.60385,-0.0844 1.85709,-1.01296 l 6.58426,-20.93455 c 0.33765,-1.18179 -0.33766,-1.94151 -1.51945,-1.43502 l -13.59057,5.40246 c -0.92855,0.33765 -1.18179,1.09737 -0.84413,2.02592 l 1.2662,3.20771 c 0.33765,0.92855 1.18179,1.35062 2.02592,0.92855 l 2.70123,-1.2662 -3.37654,10.04521 c -0.33765,0.92854 0,1.51944 1.01297,1.85709 z m 9.36989,16.8827 23.72019,-4.3895 c 0.92856,-0.16883 1.43503,-0.84413 1.26621,-1.77269 l -0.75972,-3.62978 c -0.16883,-1.01296 -0.92855,-1.35061 -1.8571,-1.18179 l -6.41542,1.43503 17.81124,-18.06448 c 1.01296,-1.09738 0.50649,-2.02593 -0.92854,-1.68827 l -21.94751,4.98039 c -0.92856,0.25325 -1.43503,0.84414 -1.18179,1.8571 l 0.84413,3.46096 c 0.25324,1.01295 0.92855,1.43502 1.8571,1.18178 l 3.54537,-1.09737 -16.8827,17.22035 c -1.01297,1.09738 -0.50649,1.94151 0.92854,1.68827 z m 13.92823,87.03032 c -8.18811,0 -13.92823,-5.74013 -13.92823,-14.01265 0,-6.16218 3.03889,-10.88934 7.85046,-13.1685 l 3.37654,12.32437 c 0.25324,0.92855 0.84413,1.43503 1.8571,1.18179 l 3.03888,-0.84414 c 1.01296,-0.25324 1.35062,-0.75972 1.09738,-1.85709 l -3.1233,-12.07113 c 8.27252,0.25324 13.84381,5.90894 13.84381,14.09705 0,8.44135 -5.74012,14.3503 -14.01264,14.3503 z M 78.016245,221.46287 93.126261,219.7746 c -0.16883,8.27252 -5.824532,14.09706 -14.012641,14.09706 -8.188108,0 -13.928226,-5.74013 -13.928226,-14.01265 0,-8.52576 5.740118,-14.4347 13.928226,-14.4347 2.194751,0 4.220675,0.42206 5.993358,1.18179 l -8.356936,12.57761 c -0.844135,1.35061 0,2.44799 1.266203,2.27916 z m 6.162185,-57.73883 6.077774,-3.79861 5.486877,10.38286 -6.077771,3.71419 z m 2.447991,51.07016 3.292124,-4.64274 c 0.844135,1.09737 1.603856,2.36358 2.110336,3.79861 z m 7.42839,-10.38286 6.753079,-9.79196 2.70123,17.13594 -4.220669,0.67531 c -1.09738,-3.1233 -2.95448,-5.82453 -5.23364,-8.01929 z m 1.51944,-49.55071 8.947829,-17.30478 15.95415,29.96679 -17.72683,0.75973 z m 11.649059,35.79131 22.70723,-4.05184 -20.006,21.01896 z"
         id="text192607"
         style="font-weight:bold;font-size:133.333px;line-height:1.25;font-family:'Changing Cities';-inkscape-font-specification:'Changing Cities Bold';font-variant-ligatures:none;letter-spacing:-0.1px;word-spacing:-0.01px;white-space:pre;stroke-width:0.26458333;fill:none;stroke:#000000;stroke-opacity:1;vector-effect:non-scaling-stroke;-inkscape-stroke:hairline;stroke-dasharray:none"
         aria-label="&#10;&#10;W&#10;" />
      <path
         d="m 153.017,59.020737 5.76178,-0.373449 c 0.42679,-0.05335 0.69354,-0.266749 0.85359,-0.693547 l 3.62779,-9.923063 0.16005,-0.640197 1.067,-9.389565 c 0.0533,-0.586848 0.69354,-0.480148 0.69354,0.05335 l 0.2134,19.365977 c 0,0.533498 0.26675,0.800247 0.80025,0.746897 l 5.38833,-0.320099 c 0.4268,0 0.7469,-0.266749 0.90695,-0.640197 l 13.2841,-33.343625 c 0.21339,-0.533498 -0.1067,-0.960297 -0.69355,-0.906947 l -5.65508,0.426798 c -0.4268,0.05335 -0.7469,0.266749 -0.90695,0.640198 l -5.54838,13.924298 c -0.1067,0.320099 -0.16005,0.640198 -0.2134,0.960296 l -1.22704,9.229516 c -0.1067,0.640197 -0.69355,0.693547 -0.69355,0 l 0.1067,-23.367213 c 0,-0.533498 -0.26675,-0.853597 -0.80025,-0.800247 l -4.69478,0.266749 c -0.4268,0 -0.69355,0.266749 -0.8536,0.693548 L 152.3768,58.11379 c -0.2134,0.533498 0.0533,0.960297 0.6402,0.906947 z M 40.982418,66.809808 c 5.708428,0.320099 10.029762,-4.588083 12.003705,-13.764249 0.213399,-0.960296 -0.1067,-1.600494 -0.853597,-1.440444 l -5.014881,1.173695 c -0.426799,0.1067 -0.640198,0.373449 -0.746897,0.853597 -1.013647,4.854832 -2.77419,7.308923 -4.428034,7.202223 -1.920593,-0.106699 -2.61414,-3.894535 -0.640197,-12.270454 1.760543,-7.415622 4.001235,-11.363507 5.975177,-11.043408 1.333745,0.213399 1.600494,2.56079 0.693548,7.308922 -0.1067,0.640198 0.213399,0.960297 0.800247,0.853597 l 5.12158,-1.066996 c 0.426799,-0.1067 0.693548,-0.373449 0.800247,-0.853597 0.800247,-4.001235 0.266749,-12.270454 -7.255572,-12.270454 -5.868478,0 -10.563261,5.28163 -13.017352,15.791541 -2.774189,11.950355 -0.106699,19.152578 6.562026,19.526027 z m 12.430503,-1.280395 5.33498,-0.373449 c 0.426799,-0.05335 0.746897,-0.320099 0.853597,-0.746897 l 2.400741,-11.736956 5.068231,-1.173696 -2.507441,12.377154 c -0.106699,0.533498 0.2134,0.906946 0.746898,0.853597 l 5.33498,-0.373449 c 0.426798,-0.05335 0.746897,-0.320099 0.853596,-0.746897 l 6.668725,-32.756777 c 0.1067,-0.533498 -0.213399,-0.906947 -0.746897,-0.853597 l -5.33498,0.320099 c -0.480148,0.05335 -0.746897,0.320098 -0.853597,0.746897 l -2.880889,14.191047 -5.068231,1.120345 2.987589,-14.777894 c 0.1067,-0.533498 -0.213399,-0.906947 -0.746897,-0.853597 l -5.33498,0.373449 c -0.426799,0.05335 -0.746897,0.320098 -0.853597,0.746897 l -6.668725,32.810127 c -0.1067,0.533498 0.213399,0.906946 0.746897,0.853597 z m 49.455269,34.730717 c 5.70842,0.3201 10.02976,-4.58808 12.0037,-13.710896 0.2134,-1.013646 -0.1067,-1.653844 -0.8536,-1.493795 l -5.01488,1.173696 c -0.4268,0.1067 -0.64019,0.373449 -0.74689,0.853597 -1.01365,4.854832 -2.77419,7.308922 -4.42804,7.202223 -1.92059,-0.1067 -2.61414,-3.894536 -0.6402,-12.217104 1.76055,-7.468972 4.00124,-11.416858 5.97518,-11.096759 1.33375,0.213399 1.6005,2.560791 0.69355,7.308923 -0.1067,0.640197 0.2134,0.960296 0.80025,0.853597 l 5.12158,-1.066996 c 0.4268,-0.1067 0.69354,-0.373449 0.80024,-0.800247 0.80025,-4.054585 0.26675,-12.323804 -7.25557,-12.323804 -5.86848,0 -10.563259,5.28163 -13.017349,15.84489 -2.77419,11.897006 -0.1067,19.099229 6.562029,19.472675 z M 73.205697,64.195668 78.967475,63.822219 c 0.426799,-0.05335 0.693548,-0.213399 0.906947,-0.586848 l 3.094288,-4.748132 5.761779,-0.480148 c -0.05335,0.160049 -0.05335,0.320099 -0.1067,0.480148 l -0.800247,3.894535 c -0.106699,0.533498 0.213399,0.906947 0.746897,0.853597 l 5.174931,-0.373448 c 0.426799,-0.05335 0.746897,-0.320099 0.853597,-0.746898 l 6.668723,-32.756777 c 0.1067,-0.533498 -0.2134,-0.906947 -0.7469,-0.853597 l -5.708424,0.320099 c -0.426798,0 -0.693547,0.266749 -0.906946,0.586848 L 72.618849,63.288721 c -0.320099,0.533498 -0.05335,0.960296 0.586848,0.906947 z M 86.383098,52.618761 92.891773,40.721756 c 0.320099,-0.640198 0.906947,-0.373449 0.693548,0.320098 l -3.094289,11.256808 z m 29.075642,46.360976 5.54838,-0.373448 c 0.48015,-0.05335 0.7469,-0.320099 0.85359,-0.746898 l 6.66873,-32.810127 c 0.1067,-0.533498 -0.2134,-0.906946 -0.7469,-0.853596 l -5.54838,0.373448 c -0.48014,0.05335 -0.74689,0.320099 -0.85359,0.746897 l -6.66873,32.810127 c -0.1067,0.533498 0.2134,0.906947 0.7469,0.853597 z m 9.92306,-0.640197 5.65508,-0.373449 c 0.4268,-0.05335 0.69355,-0.266749 0.8536,-0.693547 l 10.72331,-28.435444 3.89453,-0.266749 c 0.4268,-0.05335 0.69355,-0.266749 0.8536,-0.693547 l 1.49379,-4.107935 c 0.2134,-0.533498 -0.0533,-0.960296 -0.64019,-0.906946 l -15.25805,1.013646 c -0.4268,0.05335 -0.69354,0.266749 -0.85359,0.693547 l -1.4938,4.107935 c -0.2134,0.533498 0.1067,0.960296 0.69355,0.906946 l 3.94788,-0.266749 -10.50991,28.115345 c -0.2134,0.533498 0.0533,0.960296 0.6402,0.906947 z M 98.706902,62.541824 104.09523,62.221725 c 0.48015,-0.05335 0.69355,-0.320099 0.80025,-0.746897 l 1.70719,-9.069466 c 0.0533,-0.320099 0.1067,-0.640198 0.1067,-0.960297 l -0.26675,-9.709663 c 0,-0.426799 0.48015,-0.533498 0.58685,-0.05335 l 3.30769,19.365977 c 0.1067,0.533498 0.37345,0.746898 0.85359,0.693548 l 5.65508,-0.373449 c 0.48015,-0.05335 0.7469,-0.320099 0.8536,-0.746897 l 6.66873,-32.810127 c 0.10669,-0.533498 -0.2134,-0.906947 -0.7469,-0.853597 l -5.33498,0.373449 c -0.48015,0.05335 -0.69355,0.320098 -0.80025,0.746897 l -2.18734,11.790306 c -0.0533,0.320099 -0.1067,0.640197 -0.1067,0.960296 l 0.1067,10.883359 c 0,0.640198 -0.5335,0.640198 -0.6402,0.1067 l -3.62778,-23.260513 c -0.0533,-0.480148 -0.37345,-0.746897 -0.8536,-0.693547 l -4.69478,0.266749 c -0.48015,0.05335 -0.7469,0.320098 -0.8536,0.746897 l -6.668726,32.810127 c -0.106699,0.533498 0.2134,0.906947 0.746898,0.853597 z m 40.279098,34.890769 5.76178,-0.373449 c 0.4268,-0.05335 0.69355,-0.266749 0.8536,-0.693547 l 12.48385,-33.183576 c 0.2134,-0.533498 -0.0533,-0.960296 -0.6402,-0.906946 l -5.76178,0.373448 c -0.4268,0.05335 -0.69354,0.266749 -0.85359,0.693548 L 138.3458,96.525646 c -0.2134,0.533498 0.0533,0.960297 0.6402,0.906947 z M 130.28998,60.88798 c 6.29528,0.426798 10.83001,-5.38833 13.23075,-15.364742 0.37345,-1.600494 0.80025,-3.307688 1.22705,-5.921828 0.1067,-0.640198 -0.2134,-0.906947 -0.80025,-0.800247 l -10.24316,2.187342 c -0.4268,0.106699 -0.69355,0.426798 -0.7469,0.853596 l -0.58684,4.321334 c -0.1067,0.640198 0.21339,0.906947 0.80024,0.746897 l 1.3871,-0.373448 c 0.2134,-0.05335 0.37345,-0.1067 0.58684,-0.213399 l 3.09429,-1.600494 c 0.3201,-0.16005 0.58685,0.213399 0.3201,0.480148 l -2.45409,2.080642 c -0.2134,0.160049 -0.3201,0.373449 -0.37345,0.640198 -1.01364,4.748132 -2.50744,6.988823 -4.32133,6.935474 -2.13399,-0.05335 -2.77419,-4.481384 -0.90695,-12.537203 1.6005,-6.935474 4.10794,-10.77666 6.02853,-10.66996 1.44044,0.05335 2.08064,2.66749 1.81389,6.135227 -0.0533,0.586847 0.26675,0.906946 0.8536,0.746897 l 4.90818,-1.120346 c 0.4268,-0.1067 0.7469,-0.373449 0.7469,-0.853597 0.4268,-6.722075 -2.88089,-11.043409 -8.37592,-10.936709 -5.92183,0.1067 -10.29651,5.921828 -12.59055,15.578142 -2.66749,11.897005 -0.37345,19.205928 6.40197,19.686076 z m 24.22081,35.477617 12.7506,-0.800247 c 0.48015,-0.05335 0.7469,-0.320099 0.8536,-0.746897 l 0.8536,-4.321334 c 0.1067,-0.533498 -0.2134,-0.906947 -0.7469,-0.853597 l -6.24193,0.426799 1.8139,-8.856067 5.97518,-0.373449 c 0.48014,-0.05335 0.74689,-0.320099 0.85359,-0.746897 l 0.8536,-4.321334 c 0.1067,-0.533498 -0.16005,-0.906946 -0.69355,-0.853597 l -5.81513,0.373449 1.6005,-7.735721 6.45532,-0.426798 c 0.48015,-0.05335 0.7469,-0.320099 0.8536,-0.746898 l 0.8536,-4.374683 c 0.1067,-0.533498 -0.16005,-0.906947 -0.69355,-0.853597 l -12.7506,0.853597 c -0.48015,0.05335 -0.7469,0.320099 -0.8536,0.746897 L 153.7639,95.512 c -0.1067,0.533498 0.21339,0.906947 0.74689,0.853597 z m -10.56326,-36.758012 5.54838,-0.373449 c 0.4268,-0.05335 0.7469,-0.320099 0.8536,-0.746897 l 4.85483,-23.794011 c 0.1067,-0.533498 -0.2134,-0.906946 -0.7469,-0.853597 l -5.54838,0.320099 c -0.48014,0.05335 -0.74689,0.320099 -0.85359,0.746897 l -4.85484,23.847361 c -0.10669,0.533498 0.2134,0.906947 0.7469,0.853597 z m 36.11782,35.584316 c 5.60173,0.16005 8.74936,-4.214634 9.22951,-9.336215 0.5335,-5.495029 -2.61414,-8.589317 -4.85483,-11.363507 -1.70719,-2.133992 -2.88089,-3.414387 -2.61414,-5.975178 0.16005,-1.707193 1.33375,-2.347391 2.13399,-2.294041 1.2804,0.05335 2.66749,1.813893 2.66749,6.348626 0,0.586848 0.37345,0.853597 0.90695,0.746897 l 3.94788,-0.853596 c 0.4268,-0.1067 0.69355,-0.373449 0.7469,-0.853597 0.2134,-5.815128 -2.34739,-11.470207 -8.21587,-11.470207 -3.73448,0 -7.84242,2.080642 -8.64267,8.375918 -0.53349,4.481384 1.4938,7.575672 3.41439,9.976413 2.13399,2.66749 3.84119,4.534733 3.68114,7.682371 -0.1067,2.133992 -0.9603,2.934239 -2.02729,2.880889 -1.7072,-0.106699 -3.04094,-2.720839 -2.5608,-7.522321 0.0534,-0.640198 -0.32009,-0.906947 -0.85359,-0.800247 l -4.53473,0.960296 c -0.4268,0.1067 -0.69355,0.373449 -0.7469,0.853597 -0.48015,7.682371 3.36104,12.483853 8.32257,12.643902 z m -31.58308,-63.006113 7.52232,-0.480149 c 0.4268,-0.05335 0.74689,-0.320098 0.85359,-0.746897 l 1.44045,-6.828774 c 0.1067,-0.586848 -0.2134,-0.906947 -0.80025,-0.746898 l -7.89577,2.080643 c -0.4268,0.106699 -0.6402,0.320098 -0.7469,0.800247 l -1.06699,5.068231 c -0.1067,0.533498 0.16005,0.906946 0.69355,0.853597 z m 41.18604,24.861006 c 6.29528,0.426799 10.83001,-5.388329 13.23075,-15.364742 0.37345,-1.600494 0.80025,-3.307688 1.22705,-5.921828 0.1067,-0.640197 -0.2134,-0.906946 -0.80025,-0.800247 l -10.24316,2.187342 c -0.4268,0.1067 -0.69355,0.426798 -0.7469,0.853597 l -0.58685,4.321334 c -0.1067,0.640197 0.2134,0.906946 0.80025,0.746897 l 1.38709,-0.373449 c 0.2134,-0.05335 0.37345,-0.106699 0.58685,-0.213399 l 3.09429,-1.600494 c 0.3201,-0.160049 0.58685,0.213399 0.3201,0.480148 l -2.45409,2.080642 c -0.2134,0.16005 -0.3201,0.373449 -0.37345,0.640198 -1.01365,4.748132 -2.50744,6.988824 -4.32133,6.935474 -2.134,-0.05335 -2.77419,-4.481383 -0.90695,-12.537203 1.60049,-6.935474 4.10793,-10.77666 6.02853,-10.66996 1.44044,0.05335 2.08064,2.66749 1.81389,6.135227 -0.0533,0.586848 0.26675,0.906947 0.8536,0.746897 l 4.90818,-1.120346 c 0.4268,-0.106699 0.7469,-0.373448 0.7469,-0.853596 0.42679,-6.722075 -2.88089,-11.043409 -8.37592,-10.93671 -5.92183,0.1067 -10.29651,5.921828 -12.59056,15.578142 -2.66749,11.897006 -0.37344,19.205928 6.40198,19.686076 z"
         id="text2"
         style="font-weight:bold;font-size:53.3498px;line-height:1.25;font-family:'Changing Cities';-inkscape-font-specification:'Changing Cities Bold';font-variant-ligatures:none;letter-spacing:0px;word-spacing:-0.00800243px;stroke-width:0.26458333;fill:none;stroke:#000000;stroke-opacity:1;stroke-dasharray:none;vector-effect:non-scaling-stroke;-inkscape-stroke:hairline"
         aria-label="0" />
    </g>
  </g>
</svg>
