<?xml version="1.0" encoding="UTF-8" standalone="no"?>
<!-- Created with Inkscape (http://www.inkscape.org/) -->

<svg
   width="1002.6876mm"
   height="460.71777mm"
   viewBox="0 0 1002.6876 460.71777"
   version="1.1"
   id="svg5"
   inkscape:version="1.3.2 (091e20e, 2023-11-25)"
   sodipodi:docname="baut endlich die geplanten radwege und radschnellverbindungen - ohne CC-Logo - textpfade.svg"
   inkscape:export-filename="../../../../baut endlich die geplanten radwege.png"
   inkscape:export-xdpi="300"
   inkscape:export-ydpi="300"
   xmlns:inkscape="http://www.inkscape.org/namespaces/inkscape"
   xmlns:sodipodi="http://sodipodi.sourceforge.net/DTD/sodipodi-0.dtd"
   xmlns="http://www.w3.org/2000/svg"
   xmlns:svg="http://www.w3.org/2000/svg">
  <sodipodi:namedview
     id="namedview7"
     pagecolor="#ffffff"
     bordercolor="#666666"
     borderopacity="1.0"
     inkscape:pageshadow="2"
     inkscape:pageopacity="1"
     inkscape:pagecheckerboard="0"
     inkscape:document-units="mm"
     showgrid="false"
     inkscape:zoom="0.33763328"
     inkscape:cx="1771.1524"
     inkscape:cy="712.3113"
     inkscape:window-width="1920"
     inkscape:window-height="1022"
     inkscape:window-x="0"
     inkscape:window-y="0"
     inkscape:window-maximized="1"
     inkscape:current-layer="layer1"
     fit-margin-top="5"
     fit-margin-left="5"
     fit-margin-right="5"
     fit-margin-bottom="5"
     lock-margins="true"
     inkscape:showpageshadow="2"
     inkscape:deskcolor="#d1d1d1"
     inkscape:export-bgcolor="#ffffffff" />
  <defs
     id="defs2">
    <rect
       x="49.451988"
       y="120.58521"
       width="831.84131"
       height="694.72467"
       id="rect192609" />
    <rect
       x="110.62282"
       y="180.02924"
       width="329.91223"
       height="540.383"
       id="rect186595" />
    <rect
       x="57.993843"
       y="84.360298"
       width="481.62823"
       height="454.23532"
       id="rect179193" />
    <rect
       x="155.79047"
       y="84.55127"
       width="691.06671"
       height="243.882"
       id="rect129457" />
    <rect
       x="95.625107"
       y="1394.6455"
       width="460.03046"
       height="333.86996"
       id="rect97027" />
    <rect
       x="18.583881"
       y="56.102528"
       width="480.80923"
       height="500.99414"
       id="rect68829" />
    <rect
       x="505.48889"
       y="183.66052"
       width="1467.9661"
       height="1508.9117"
       id="rect41567" />
    <rect
       x="129.73566"
       y="276.181"
       width="1853.0997"
       height="1345.1396"
       id="rect7105" />
  </defs>
  <g
     inkscape:label="Ebene 1"
     inkscape:groupmode="layer"
     id="layer1"
     transform="translate(218.84056,-14.388156)">
    <text
       xml:space="preserve"
       transform="scale(0.26458333)"
       id="text7103"
       style="font-weight:bold;font-size:533.333px;line-height:1.25;font-family:'DM Sans 24pt';-inkscape-font-specification:'DM Sans 24pt Bold';font-variant-ligatures:none;letter-spacing:-0.1px;word-spacing:-0.01px;white-space:pre;shape-inside:url(#rect7105);display:inline" />
    <text
       xml:space="preserve"
       style="font-weight:bold;font-size:141.111px;line-height:1.25;font-family:'Changing Cities';-inkscape-font-specification:'Changing Cities Bold';font-variant-ligatures:none;letter-spacing:-0.0264583px;word-spacing:-0.00264583px;stroke-width:0.264583"
       x="127.72257"
       y="162.75287"
       id="text19111"><tspan
         sodipodi:role="line"
         id="tspan19109"
         style="stroke-width:0.264583"
         x="127.72257"
         y="162.75287" /></text>
    <g
       id="text22789"
       style="font-size:101.435px;line-height:1.2;font-family:'Changing Cities';-inkscape-font-specification:'Changing Cities';font-variant-ligatures:none;letter-spacing:-0.0253588px;word-spacing:-0.00253588px;stroke-width:0.253588"
       aria-label="BAUT &#10;ENDLICH &#10;DIE RADWEGE  &amp;&#10;RADSCHNELLVERBINDUNGEN!">
      <path
         style="font-weight:500;-inkscape-font-specification:'Changing Cities Medium';text-align:center;text-anchor:middle"
         d="m 188.03076,85.392654 h 19.57696 c 12.07076,0 20.5913,-6.491839 22.92431,-17.953994 2.13013,-10.447805 -3.44879,-15.21525 -5.88323,-17.24395 -1.21722,-1.01435 -1.11579,-1.62296 0.60861,-2.333005 3.75309,-1.521525 8.92628,-5.578925 10.65067,-12.882244 2.23157,-9.73776 -2.53587,-20.591305 -17.85256,-20.591305 h -12.57794 c -0.91291,0 -1.42009,0.507175 -1.62296,1.318655 l -17.34538,67.352838 c -0.30431,1.115785 0.3043,2.333005 1.52152,2.333005 z m -13.59229,24.547266 h 48.79024 c 0.91291,0 1.42009,-0.50717 1.62296,-1.31865 l 2.53587,-9.332021 c 0.30431,-1.115785 -0.3043,-1.724395 -1.31865,-1.724395 h -48.79024 c -0.91291,0 -1.42009,0.507175 -1.62296,1.318655 l -2.53587,9.332021 c -0.30431,1.11578 0.3043,1.72439 1.31865,1.72439 z m 28.0975,-35.80655 5.07175,-19.47552 h 3.44879 c 5.37605,0 6.49184,4.0574 5.27462,9.94063 -1.11579,5.47749 -3.95597,9.53489 -9.23059,9.53489 z m 8.21623,-31.44485 4.36171,-16.939644 h 3.24592 c 4.46314,0 5.78179,4.564575 4.56457,9.433455 -1.21722,4.86888 -3.44879,7.506189 -9.33202,7.506189 z m 17.11696,42.704134 h 12.88224 c 0.81148,0 1.42009,-0.20287 1.82583,-0.912915 l 7.40476,-11.665024 h 11.46215 l -3.75309,10.853544 c -0.40574,1.115785 0.3043,1.724395 1.31865,1.724395 h 11.76646 c 0.91292,0 1.42009,-0.507175 1.62296,-1.318655 l 17.54826,-67.961448 c 0.3043,-1.115785 -0.30431,-1.724395 -1.31866,-1.724395 h -11.96933 c -0.81148,0 -1.52152,0.304305 -1.92726,0.912915 l -47.67445,68.062883 c -0.71005,1.115785 -0.40574,2.0287 0.81148,2.0287 z m -8.01337,24.547266 h 52.4419 c 0.91291,0 1.42009,-0.50717 1.62296,-1.31865 l 2.53587,-9.332021 c 0.30431,-1.115785 -0.3043,-1.724395 -1.31865,-1.724395 h -52.4419 c -0.91291,0 -1.42009,0.507175 -1.62296,1.318655 l -2.53587,9.332021 c -0.30431,1.11578 0.3043,1.72439 1.31865,1.72439 z m 37.22665,-48.79023 14.80951,-24.242964 c 0.81148,-1.42009 2.84018,-0.710045 2.23157,1.01435 l -8.41911,23.228614 z m 44.50444,25.054444 c 12.37507,0.60861 19.9827,-8.317669 23.12718,-20.489869 l 12.88225,-49.601714 c 0.3043,-1.115785 -0.30431,-1.724395 -1.31866,-1.724395 h -11.56359 c -0.91291,0 -1.42009,0.507175 -1.62296,1.318655 l -12.37507,48.181624 c -1.21722,4.767445 -3.14448,10.447805 -7.70906,9.94063 -4.26027,-0.507175 -4.26027,-6.0861 -2.73874,-11.76646 l 11.76646,-45.950054 c 0.3043,-1.115785 -0.30431,-1.724395 -1.31866,-1.724395 h -11.56359 c -0.91291,0 -1.42009,0.507175 -1.62296,1.318655 l -11.15785,43.515614 c -3.34735,12.882245 0.60861,26.271664 15.21525,26.981709 z m -32.15489,23.735786 h 49.39884 c 0.91292,0 1.42009,-0.50717 1.62296,-1.31865 l 2.53588,-9.332021 c 0.3043,-1.115785 -0.30431,-1.724395 -1.31866,-1.724395 h -49.39884 c -0.91292,0 -1.42009,0.507175 -1.62296,1.318655 l -2.53588,9.332021 c -0.3043,1.11578 0.30431,1.72439 1.31866,1.72439 z m 66.71883,-24.547266 h 11.56359 c 0.91291,0 1.42009,-0.507175 1.62296,-1.318655 l 15.01238,-58.020818 h 10.24493 c 0.91292,0 1.42009,-0.507175 1.62296,-1.318655 l 2.23157,-8.621975 c 0.30431,-1.115785 -0.3043,-1.724395 -1.31865,-1.724395 h -34.69077 c -0.91292,0 -1.42009,0.507175 -1.62296,1.318655 l -2.23157,8.621975 c -0.30431,1.115785 0.3043,1.724395 1.31865,1.724395 h 9.8392 l -14.91095,57.615078 c -0.3043,1.115785 0.30431,1.724395 1.31866,1.724395 z m -20.18557,24.547266 h 40.67544 c 0.91291,0 1.42009,-0.50717 1.62296,-1.31865 l 2.53587,-9.332021 c 0.30431,-1.115785 -0.3043,-1.724395 -1.31865,-1.724395 h -40.67544 c -0.91291,0 -1.42009,0.507175 -1.62296,1.318655 l -2.53587,9.332021 c -0.30431,1.11578 0.3043,1.72439 1.31865,1.72439 z m 37.80982,0 h 21.09848 c 0.91291,0 1.42009,-0.50717 1.62296,-1.31865 l 2.53587,-9.332021 c 0.30431,-1.115785 -0.3043,-1.724395 -1.31865,-1.724395 h -21.09848 c -0.91292,0 -1.42009,0.507175 -1.62296,1.318655 l -2.53588,9.332021 c -0.3043,1.11578 0.30431,1.72439 1.31866,1.72439 z"
         id="path1" />
      <path
         style="font-weight:500;-inkscape-font-specification:'Changing Cities Medium';text-align:center;text-anchor:middle"
         d="m 132.58398,207.11466 h 28.80754 c 0.91291,0 1.42009,-0.50718 1.62296,-1.31866 l 2.43444,-9.33202 c 0.3043,-1.11578 -0.30431,-1.72439 -1.31866,-1.72439 H 148.3064 l 4.76745,-18.46117 h 12.67937 c 0.91292,0 1.42009,-0.50718 1.62296,-1.31866 l 2.23157,-8.52054 c 0.30431,-1.11578 -0.3043,-1.72439 -1.31865,-1.72439 h -12.27364 l 4.26027,-16.2296 h 16.2296 c 0.91292,0 1.42009,-0.50718 1.62296,-1.31866 l 2.43444,-9.33202 c 0.30431,-1.11578 -0.3043,-1.72439 -1.31865,-1.72439 h -29.41615 c -0.91292,0 -1.42009,0.50717 -1.62296,1.31865 l -17.34539,67.45428 c -0.3043,1.31865 0.30431,2.23157 1.7244,2.23157 z m -13.79516,24.54727 h 40.97974 c 0.91291,0 1.42009,-0.50718 1.62296,-1.31866 l 2.53587,-9.33202 c 0.30431,-1.11578 -0.3043,-1.72439 -1.31865,-1.72439 H 121.629 c -0.91292,0 -1.42009,0.50717 -1.62296,1.31865 l -2.53588,9.33202 c -0.3043,1.11579 0.30431,1.7244 1.31866,1.7244 z m 51.605,-24.54727 h 10.24493 c 1.01435,0 1.52153,-0.60861 1.7244,-1.42009 l 4.76744,-19.37409 c 0.20287,-0.60861 0.50718,-2.13013 0.60861,-2.73874 l 1.72439,-19.06978 c 0.10144,-1.31866 1.92727,-1.62296 2.13014,0 l 4.3617,40.97974 c 0.10144,1.31865 0.60861,1.62296 1.62296,1.62296 h 9.43346 c 1.01435,0 1.72439,-0.50718 1.92726,-1.31866 l 17.54826,-67.86001 c 0.3043,-1.11579 -0.30431,-1.92727 -1.42009,-1.92727 l -10.24494,0.10144 c -1.01435,0 -1.62296,0.60861 -1.82583,1.52152 l -5.07175,20.38844 c -0.20287,0.71004 -0.20287,1.42009 -0.3043,2.0287 l -1.7244,18.5626 c -0.10143,1.62296 -2.0287,1.52153 -2.13013,0.20287 l -4.36171,-41.08117 c -0.10143,-1.01435 -0.71004,-1.62296 -1.72439,-1.62296 l -9.43346,-0.10144 c -1.01434,0 -1.62295,0.60861 -1.82582,1.52153 l -17.54826,67.65714 c -0.3043,1.11579 0.40574,1.92727 1.52153,1.92727 z m -13.49086,24.54727 h 51.93472 c 0.91291,0 1.42009,-0.50718 1.62296,-1.31866 l 2.53587,-9.33202 c 0.30431,-1.11578 -0.3043,-1.72439 -1.31865,-1.72439 h -51.93472 c -0.91291,0 -1.42009,0.50717 -1.62296,1.31865 l -2.53587,9.33202 c -0.30431,1.11579 0.3043,1.7244 1.31865,1.7244 z m 62.35709,-24.54727 h 17.54826 c 13.59229,0 24.85157,-10.44781 30.12619,-32.25633 5.7818,-23.73579 -0.50717,-38.74817 -21.40278,-38.74817 h -8.41911 c -0.91291,0 -1.42009,0.50717 -1.62296,1.31865 l -17.54825,67.96145 c -0.30431,1.11579 0.3043,1.7244 1.31865,1.7244 z m -13.28798,24.54727 h 51.0218 c 0.91292,0 1.42009,-0.50718 1.62296,-1.31866 l 2.53588,-9.33202 c 0.3043,-1.11578 -0.30431,-1.72439 -1.31866,-1.72439 h -51.0218 c -0.91292,0 -1.42009,0.50717 -1.62296,1.31865 l -2.53588,9.33202 c -0.3043,1.11579 0.30431,1.7244 1.31866,1.7244 z m 29.31471,-36.71947 12.07077,-46.6601 h 1.31865 c 6.99902,0 8.52054,8.31767 4.0574,25.25731 -4.46314,16.93965 -10.04206,21.40279 -15.51955,21.40279 z m 32.12938,12.1722 h 28.19893 c 0.91291,0 1.42009,-0.50718 1.62296,-1.31866 l 2.43444,-9.12915 c 0.3043,-1.11578 -0.30431,-1.72439 -1.31866,-1.72439 h -14.91094 l 14.70807,-57.10791 c 0.30431,-1.11578 -0.3043,-1.72439 -1.31865,-1.72439 h -11.56359 c -0.91292,0 -1.42009,0.50717 -1.62296,1.31865 l -17.54826,67.96145 c -0.3043,1.11579 0.30431,1.7244 1.31866,1.7244 z m -13.28799,24.54727 h 38.95104 c 0.91292,0 1.42009,-0.50718 1.62296,-1.31866 l 2.53588,-9.33202 c 0.3043,-1.11578 -0.30431,-1.72439 -1.31866,-1.72439 h -38.95104 c -0.91291,0 -1.42009,0.50717 -1.62296,1.31865 l -2.53587,9.33202 c -0.30431,1.11579 0.3043,1.7244 1.31865,1.7244 z m 49.88057,-24.54727 h 11.56359 c 0.91291,0 1.42009,-0.50718 1.62296,-1.31866 l 17.54825,-67.96145 c 0.30431,-1.11578 -0.3043,-1.72439 -1.31865,-1.72439 H 321.8613 c -0.91292,0 -1.42009,0.50717 -1.62296,1.31865 l -17.54826,67.96145 c -0.3043,1.11579 0.30431,1.7244 1.31866,1.7244 z m -13.79516,24.54727 h 27.38745 c 0.91291,0 1.42009,-0.50718 1.62296,-1.31866 l 2.53587,-9.33202 c 0.30431,-1.11578 -0.3043,-1.72439 -1.31865,-1.72439 h -27.38745 c -0.91292,0 -1.42009,0.50717 -1.62296,1.31865 l -2.53588,9.33202 c -0.3043,1.11579 0.30431,1.7244 1.31866,1.7244 z m 56.16949,-23.73579 c 11.66502,1.21722 20.69274,-8.01337 26.17023,-27.59032 0.40574,-1.42009 -0.10144,-2.63731 -1.62296,-2.33301 l -10.85355,1.92727 c -0.91291,0.20287 -1.31865,0.60861 -1.62296,1.52152 -2.84018,10.04207 -6.18753,14.60664 -9.43345,14.09947 -3.95597,-0.40574 -4.97032,-8.31767 0,-25.46019 4.56457,-15.31668 9.63632,-23.33005 13.69372,-22.41713 2.84018,0.50717 2.73875,5.37605 0.40574,15.51955 -0.3043,1.11579 0.30431,1.82583 1.42009,1.62296 l 11.15785,-1.72439 c 0.81148,-0.10144 1.31866,-0.60861 1.52153,-1.42009 2.0287,-8.31767 1.82583,-25.66306 -13.49086,-26.57597 -12.1722,-0.60861 -22.51857,9.83919 -28.80753,31.54628 -7.10045,24.54727 -2.33301,39.86396 11.46215,41.28405 z m -31.64772,23.73579 h 48.9931 c 0.91292,0 1.42009,-0.50718 1.62296,-1.31866 l 2.53588,-9.33202 c 0.3043,-1.11578 -0.30431,-1.72439 -1.31866,-1.72439 h -48.9931 c -0.91291,0 -1.42009,0.50717 -1.62296,1.31865 l -2.53587,9.33202 c -0.30431,1.11579 0.3043,1.7244 1.31865,1.7244 z m 84.46999,-24.54727 h 11.56359 c 0.91292,0 1.42009,-0.50718 1.62296,-1.31866 l 17.54826,-67.96145 c 0.3043,-1.11578 -0.30431,-1.72439 -1.31866,-1.72439 H 417.0579 c -0.91291,0 -1.42009,0.50717 -1.62296,1.31865 l -7.50619,29.11185 -10.95498,1.92726 7.91193,-30.63337 c 0.30431,-1.11578 -0.3043,-1.72439 -1.31865,-1.72439 h -11.56359 c -0.91292,0 -1.42009,0.50717 -1.62296,1.31865 l -17.54826,67.96145 c -0.3043,1.11579 0.30431,1.7244 1.31866,1.7244 h 11.56359 c 0.91291,0 1.42009,-0.50718 1.62296,-1.31866 l 6.3904,-24.6487 10.95498,-1.92727 -6.79614,26.17023 c -0.30431,1.11579 0.3043,1.7244 1.31865,1.7244 z m -38.34243,24.54727 h 51.42755 c 0.91291,0 1.42009,-0.50718 1.62296,-1.31866 l 2.53587,-9.33202 c 0.30431,-1.11578 -0.3043,-1.72439 -1.31865,-1.72439 h -51.42755 c -0.91291,0 -1.42009,0.50717 -1.62296,1.31865 l -2.53587,9.33202 c -0.30431,1.11579 0.3043,1.7244 1.31865,1.7244 z m 48.56183,0 h 21.09848 c 0.91292,0 1.42009,-0.50718 1.62296,-1.31866 l 2.53588,-9.33202 c 0.3043,-1.11578 -0.30431,-1.72439 -1.31866,-1.72439 h -21.09848 c -0.91291,0 -1.42009,0.50717 -1.62296,1.31865 l -2.53587,9.33202 c -0.30431,1.11579 0.3043,1.7244 1.31865,1.7244 z"
         id="path2" />
      <path
         style="font-weight:500;-inkscape-font-specification:'Changing Cities Medium';text-align:center;text-anchor:middle"
         d="m 13.578322,328.83666 h 17.548255 c 13.59229,0 24.851574,-10.44781 30.126194,-32.25633 5.781795,-23.73579 -0.507175,-38.74817 -21.402784,-38.74817 h -8.419105 c -0.912915,0 -1.42009,0.50717 -1.62296,1.31865 l -17.548255,67.96145 c -0.304305,1.11579 0.304305,1.7244 1.318655,1.7244 z M 0.29033773,353.38393 H 51.312142 c 0.912914,0 1.420089,-0.50718 1.622959,-1.31866 l 2.535875,-9.33202 c 0.304305,-1.11578 -0.304305,-1.72439 -1.318655,-1.72439 H 3.1305177 c -0.912915,0 -1.42009,0.50717 -1.62296,1.31865 l -2.5358749,9.33202 c -0.304305,1.11579 0.30430496,1.7244 1.31865493,1.7244 z M 29.605052,316.66446 41.675817,270.00436 h 1.318655 c 6.999015,0 8.52054,8.31767 4.0574,25.25731 -4.46314,16.93965 -10.042065,21.40279 -15.519555,21.40279 z m 32.636554,12.1722 h 11.56359 c 0.912915,0 1.42009,-0.50718 1.62296,-1.31866 l 17.548255,-67.96145 c 0.304305,-1.11578 -0.304305,-1.72439 -1.318655,-1.72439 h -11.56359 c -0.912915,0 -1.42009,0.50717 -1.62296,1.31865 l -17.548255,67.96145 c -0.304305,1.11579 0.304305,1.7244 1.318655,1.7244 z m -13.795159,24.54727 h 27.387449 c 0.912915,0 1.42009,-0.50718 1.62296,-1.31866 l 2.535875,-9.33202 c 0.304305,-1.11578 -0.304305,-1.72439 -1.318655,-1.72439 H 51.286627 c -0.912915,0 -1.42009,0.50717 -1.62296,1.31865 l -2.535875,9.33202 c -0.304305,1.11579 0.304305,1.7244 1.318655,1.7244 z m 38.316937,-24.54727 h 28.807536 c 0.91292,0 1.42009,-0.50718 1.62296,-1.31866 l 2.43444,-9.33202 c 0.30431,-1.11578 -0.3043,-1.72439 -1.31865,-1.72439 h -15.82386 l 4.76744,-18.46117 h 12.67938 c 0.91291,0 1.42009,-0.50718 1.62296,-1.31866 l 2.23157,-8.52054 c 0.3043,-1.11578 -0.30431,-1.72439 -1.31866,-1.72439 h -12.27363 l 4.26027,-16.2296 h 16.2296 c 0.91291,0 1.42009,-0.50718 1.62296,-1.31866 l 2.43444,-9.33202 c 0.3043,-1.11578 -0.30431,-1.72439 -1.31866,-1.72439 h -29.41615 c -0.91291,0 -1.42009,0.50717 -1.62296,1.31865 l -17.345381,67.45428 c -0.304305,1.31865 0.304305,2.23157 1.724395,2.23157 z m -13.795159,24.54727 h 40.979735 c 0.91292,0 1.42009,-0.50718 1.62296,-1.31866 l 2.53588,-9.33202 c 0.3043,-1.11578 -0.30431,-1.72439 -1.31866,-1.72439 H 75.808405 c -0.912915,0 -1.42009,0.50717 -1.62296,1.31865 l -2.535875,9.33202 c -0.304305,1.11579 0.304305,1.7244 1.318655,1.7244 z m 38.114145,0 h 21.09848 c 0.91291,0 1.42009,-0.50718 1.62296,-1.31866 l 2.53587,-9.33202 c 0.30431,-1.11578 -0.3043,-1.72439 -1.31865,-1.72439 h -21.09848 c -0.91292,0 -1.42009,0.50717 -1.62296,1.31865 l -2.53588,9.33202 c -0.3043,1.11579 0.30431,1.7244 1.31866,1.7244 z m 31.51823,-24.54727 h 11.36072 c 0.91291,0 1.42009,-0.50718 1.62296,-1.31866 l 3.44879,-13.08511 c 0.20287,-0.60861 0.71004,-3.34736 0.71004,-4.0574 l 0.81148,-11.46216 c 0.10144,-1.82583 2.0287,-1.92726 2.23157,-0.20287 l 3.95597,28.70611 c 0.10143,1.01435 0.71004,1.42009 1.62296,1.42009 h 10.65067 c 0.91292,0 1.7244,-0.50718 1.52153,-1.7244 l -3.85453,-25.25731 c -0.10144,-0.71005 -0.50718,-1.31866 -1.11579,-1.7244 l -4.86888,-2.94161 c -1.42009,-0.81148 -0.50717,-2.43444 1.01435,-1.92727 l 3.34736,0.91292 c 0.91291,0.3043 1.52152,0.20287 2.23157,0 8.92628,-1.92727 12.67937,-9.53489 14.30233,-16.73678 2.53588,-11.25928 -3.65166,-21.60565 -18.46117,-21.60565 h -12.67937 c -0.91292,0 -1.42009,0.50717 -1.62296,1.31865 l -17.54825,67.86002 c -0.30431,1.11578 0.3043,1.82583 1.31865,1.82583 z m -13.28798,24.54727 h 47.67444 c 0.91292,0 1.42009,-0.50718 1.62296,-1.31866 l 2.53588,-9.33202 c 0.3043,-1.11578 -0.30431,-1.72439 -1.31866,-1.72439 H 132.1528 c -0.91292,0 -1.42009,0.50717 -1.62296,1.31865 l -2.53588,9.33202 c -0.3043,1.11579 0.30431,1.7244 1.31866,1.7244 z m 36.51659,-66.03419 4.56458,-17.85256 h 2.73874 c 4.46314,0 6.89758,3.04305 5.37606,9.53489 -1.21722,5.27462 -4.0574,8.31767 -8.92628,8.31767 z m 16.20405,41.48692 h 12.88224 c 0.81148,0 1.42009,-0.20287 1.82583,-0.91292 l 7.40476,-11.66502 h 11.46215 l -3.75309,10.85354 c -0.40574,1.11579 0.3043,1.7244 1.31865,1.7244 h 11.76646 c 0.91291,0 1.42009,-0.50718 1.62296,-1.31866 l 17.54825,-67.96145 c 0.30431,-1.11578 -0.3043,-1.72439 -1.31865,-1.72439 h -11.96933 c -0.81148,0 -1.52153,0.3043 -1.92727,0.91291 l -47.67444,68.06289 c -0.71005,1.11578 -0.40574,2.0287 0.81148,2.0287 z m -8.01337,24.54727 h 52.44189 c 0.91292,0 1.42009,-0.50718 1.62296,-1.31866 l 2.53588,-9.33202 c 0.3043,-1.11578 -0.30431,-1.72439 -1.31866,-1.72439 h -52.44189 c -0.91291,0 -1.42009,0.50717 -1.62296,1.31865 l -2.53587,9.33202 c -0.30431,1.11579 0.3043,1.7244 1.31865,1.7244 z m 37.22665,-48.79024 14.8095,-24.24296 c 0.81148,-1.42009 2.84018,-0.71005 2.23157,1.01435 l -8.4191,23.22861 z m 25.63752,24.24297 h 17.54826 c 13.59229,0 24.85157,-10.44781 30.12619,-32.25633 5.7818,-23.73579 -0.50717,-38.74817 -21.40278,-38.74817 h -8.41911 c -0.91291,0 -1.42009,0.50717 -1.62296,1.31865 l -17.54825,67.96145 c -0.30431,1.11579 0.3043,1.7244 1.31865,1.7244 z m -13.28798,24.54727 h 51.0218 c 0.91292,0 1.42009,-0.50718 1.62296,-1.31866 l 2.53588,-9.33202 c 0.3043,-1.11578 -0.30431,-1.72439 -1.31866,-1.72439 h -51.0218 c -0.91292,0 -1.42009,0.50717 -1.62296,1.31865 l -2.53588,9.33202 c -0.3043,1.11579 0.30431,1.7244 1.31866,1.7244 z m 29.31471,-36.71947 12.07077,-46.6601 h 1.31865 c 6.99902,0 8.52054,8.31767 4.0574,25.25731 -4.46314,16.93965 -10.04206,21.40279 -15.51955,21.40279 z m 36.69396,12.1722 h 10.95498 c 0.91292,0 1.31866,-0.50718 1.62296,-1.31866 l 17.04108,-42.29839 c 0.71004,-1.7244 2.53587,-1.7244 2.23157,0.3043 l -5.27462,41.58835 c -0.10144,1.11579 0.3043,1.7244 1.31865,1.7244 h 10.95498 c 0.91292,0 1.31866,-0.50718 1.62296,-1.31866 l 27.18458,-67.96145 c 0.40574,-1.11578 -0.3043,-1.72439 -1.31865,-1.72439 h -11.25929 c -0.91291,0 -1.42009,0.50717 -1.62296,1.31865 l -12.1722,40.77687 c -0.40574,1.42009 -2.43444,1.31866 -2.23157,-0.50717 l 5.37606,-39.86396 c 0.20287,-1.21722 -0.40574,-1.72439 -1.42009,-1.72439 H 321.0496 c -0.91292,0 -1.31866,0.50717 -1.62296,1.31865 l -15.41812,40.77687 c -0.50718,1.42009 -2.63731,1.21722 -2.23157,-0.50717 l 8.4191,-39.86396 c 0.20287,-1.11578 -0.3043,-1.72439 -1.31865,-1.72439 h -10.54924 c -0.91291,0 -1.52152,0.50717 -1.62296,1.31865 l -8.4191,67.96145 c -0.10144,1.11579 0.3043,1.7244 1.31865,1.7244 z m -17.85256,24.54727 h 64.00548 c 0.91292,0 1.42009,-0.50718 1.62296,-1.31866 l 2.53588,-9.33202 c 0.3043,-1.11578 -0.30431,-1.72439 -1.31866,-1.72439 h -64.00548 c -0.91291,0 -1.42009,0.50717 -1.62296,1.31865 l -2.53587,9.33202 c -0.30431,1.11579 0.3043,1.7244 1.31865,1.7244 z m 74.93499,-24.54727 h 28.80754 c 0.91292,0 1.42009,-0.50718 1.62296,-1.31866 l 2.43444,-9.33202 c 0.30431,-1.11578 -0.3043,-1.72439 -1.31865,-1.72439 h -15.82386 l 4.76744,-18.46117 h 12.67938 c 0.91291,0 1.42009,-0.50718 1.62296,-1.31866 l 2.23157,-8.52054 c 0.3043,-1.11578 -0.30431,-1.72439 -1.31866,-1.72439 h -12.27363 l 4.26027,-16.2296 h 16.2296 c 0.91291,0 1.42009,-0.50718 1.62296,-1.31866 l 2.43444,-9.33202 c 0.3043,-1.11578 -0.30431,-1.72439 -1.31866,-1.72439 h -29.41615 c -0.91291,0 -1.42009,0.50717 -1.62296,1.31865 l -17.34538,67.45428 c -0.30431,1.31865 0.3043,2.23157 1.72439,2.23157 z m -13.79516,24.54727 h 40.97974 c 0.91292,0 1.42009,-0.50718 1.62296,-1.31866 l 2.53588,-9.33202 c 0.3043,-1.11578 -0.30431,-1.72439 -1.31866,-1.72439 H 335.7322 c -0.91291,0 -1.42009,0.50717 -1.62296,1.31865 l -2.53587,9.33202 c -0.30431,1.11579 0.3043,1.7244 1.31865,1.7244 z m 68.64605,-23.73579 c 12.98368,1.52152 23.12718,-10.1435 29.01041,-30.53194 1.01435,-3.34735 2.13013,-6.79614 3.24592,-12.37507 0.3043,-1.31865 -0.30431,-1.82583 -1.52153,-1.62296 l -20.89561,3.24592 c -0.91291,0.10144 -1.42009,0.91292 -1.72439,1.82583 l -1.62296,8.92628 c -0.30431,1.31866 0.3043,1.82583 1.52152,1.62296 l 3.04305,-0.50717 c 0.40574,-0.10144 1.01435,-0.40574 1.42009,-0.60861 l 6.28897,-3.14449 c 1.11579,-0.60861 1.92727,0.91292 0.91292,1.7244 l -6.79615,5.57892 c -0.3043,0.30431 -0.60861,0.60861 -0.91291,1.52153 -2.53588,9.02771 -5.7818,12.1722 -9.02772,11.96933 -4.46314,-0.40574 -5.27462,-9.73776 -0.50717,-26.27167 4.0574,-14.30233 9.63632,-21.90996 13.69372,-21.60565 3.04305,0.3043 4.0574,4.3617 3.44879,10.95498 -0.3043,1.31865 0.40574,1.92726 1.62296,1.72439 l 10.24494,-1.82583 c 0.91291,-0.20287 1.62296,-0.71004 1.72439,-1.62296 1.42009,-11.96933 -5.07175,-21.40278 -16.5339,-21.70709 -12.27364,-0.40574 -22.0114,11.15785 -27.89463,30.93768 -6.69471,24.6487 -2.84018,39.96539 11.25929,41.79122 z m -31.54629,23.73579 h 51.52898 c 0.91292,0 1.42009,-0.50718 1.62296,-1.31866 l 2.53588,-9.33202 c 0.3043,-1.11578 -0.30431,-1.72439 -1.31866,-1.72439 h -51.52898 c -0.91291,0 -1.42009,0.50717 -1.62296,1.31865 l -2.53587,9.33202 c -0.30431,1.11579 0.3043,1.7244 1.31865,1.7244 z m 62.45856,-24.54727 h 28.80753 c 0.91292,0 1.42009,-0.50718 1.62296,-1.31866 l 2.43444,-9.33202 c 0.30431,-1.11578 -0.3043,-1.72439 -1.31865,-1.72439 h -15.82386 l 4.76744,-18.46117 h 12.67938 c 0.91291,0 1.42009,-0.50718 1.62296,-1.31866 l 2.23157,-8.52054 c 0.3043,-1.11578 -0.30431,-1.72439 -1.31866,-1.72439 h -12.27363 l 4.26027,-16.2296 h 16.2296 c 0.91291,0 1.42009,-0.50718 1.62296,-1.31866 l 2.43444,-9.33202 c 0.3043,-1.11578 -0.30431,-1.72439 -1.31866,-1.72439 h -29.41615 c -0.91291,0 -1.42009,0.50717 -1.62296,1.31865 l -17.34538,67.45428 c -0.3043,1.31865 0.30431,2.23157 1.7244,2.23157 z m -13.79516,24.54727 h 40.97973 c 0.91292,0 1.42009,-0.50718 1.62296,-1.31866 l 2.53588,-9.33202 c 0.3043,-1.11578 -0.30431,-1.72439 -1.31866,-1.72439 h -40.97973 c -0.91292,0 -1.42009,0.50717 -1.62296,1.31865 l -2.53588,9.33202 c -0.3043,1.11579 0.30431,1.7244 1.31866,1.7244 z m 38.11413,0 h 21.09848 c 0.91292,0 1.42009,-0.50718 1.62296,-1.31866 l 2.53588,-9.33202 c 0.3043,-1.11578 -0.30431,-1.72439 -1.31866,-1.72439 h -21.09848 c -0.91291,0 -1.42009,0.50717 -1.62296,1.31865 l -2.53587,9.33202 c -0.30431,1.11579 0.3043,1.7244 1.31865,1.7244 z m 18.23026,0 h 21.09848 c 0.91291,0 1.42009,-0.50718 1.62296,-1.31866 l 2.53587,-9.33202 c 0.30431,-1.11578 -0.3043,-1.72439 -1.31865,-1.72439 h -21.09848 c -0.91292,0 -1.42009,0.50717 -1.62296,1.31865 l -2.53588,9.33202 c -0.3043,1.11579 0.30431,1.7244 1.31866,1.7244 z m 49.1679,-23.73579 c 5.37605,0 10.24493,-1.7244 14.8095,-5.27462 l 1.62296,3.34735 c 0.30431,0.71005 0.91292,1.11579 1.7244,1.11579 h 9.83919 c 1.21722,0 1.7244,-0.81148 1.21722,-1.82583 l -4.86888,-11.15785 c 4.66601,-5.7818 8.62198,-12.98368 11.25929,-20.79418 0.3043,-0.91291 0,-1.62296 -1.01435,-1.92726 l -6.99902,-2.23157 c -0.91291,-0.30431 -1.62296,0.10143 -1.92726,1.01435 -1.42009,4.15883 -3.85453,8.52054 -6.89758,12.67937 l -3.95597,-9.63632 -3.14448,-4.26027 c -1.42009,-2.0287 0,-3.14449 1.62296,-1.52153 l 2.53587,2.53588 c 5.47749,-3.85453 10.1435,-9.12915 12.1722,-16.2296 2.73875,-10.34637 -4.0574,-18.56261 -15.41812,-18.56261 -8.21623,0 -14.5052,4.76745 -16.8382,12.57794 -2.0287,6.89758 0,13.79516 3.75309,18.05543 1.01435,1.21722 1.11579,1.62296 -0.60861,2.33301 -7.30332,2.84018 -13.59229,8.52054 -15.82386,17.44682 -3.04305,12.57794 4.15884,22.3157 16.93965,22.3157 z m 1.11578,-11.56359 c -4.56457,0 -7.30332,-3.34736 -5.88323,-9.33202 0.91292,-3.55023 2.73875,-6.0861 8.1148,-9.53489 l 6.18753,14.91094 c -3.14448,2.63731 -5.57892,3.95597 -8.4191,3.95597 z m 8.72341,-35.70512 -0.50718,-1.21722 c -1.72439,-3.7531 -2.0287,-6.18754 -1.42009,-8.62198 0.81148,-2.84018 2.53588,-4.46314 4.97032,-4.46314 3.34735,0 4.76744,2.84018 3.34735,7.20189 -0.91291,2.84018 -2.333,4.66601 -6.3904,7.10045 z m -40.77687,71.0045 h 55.78925 c 0.91291,0 1.42009,-0.50718 1.62296,-1.31866 l 2.53587,-9.33202 c 0.30431,-1.11578 -0.3043,-1.72439 -1.31865,-1.72439 h -55.78925 c -0.91291,0 -1.42009,0.50717 -1.62296,1.31865 l -2.53587,9.33202 c -0.30431,1.11579 0.3043,1.7244 1.31865,1.7244 z"
         id="path3" />
      <path
         style="font-weight:500;-inkscape-font-specification:'Changing Cities Medium';text-align:center;text-anchor:middle"
         d="m -204.15532,450.55866 h 11.36072 c 0.91291,0 1.42009,-0.50717 1.62296,-1.31865 l 3.44879,-13.08512 c 0.20287,-0.60861 0.71004,-3.34735 0.71004,-4.0574 l 0.81148,-11.46215 c 0.10144,-1.82583 2.0287,-1.92727 2.23157,-0.20287 l 3.95597,28.7061 c 0.10143,1.01435 0.71004,1.42009 1.62296,1.42009 h 10.65067 c 0.91292,0 1.7244,-0.50717 1.52153,-1.72439 l -3.85453,-25.25732 c -0.10144,-0.71004 -0.50718,-1.31865 -1.11579,-1.72439 l -4.86888,-2.94162 c -1.42009,-0.81148 -0.50717,-2.43444 1.01435,-1.92726 l 3.34736,0.91291 c 0.91291,0.30431 1.52152,0.20287 2.23157,0 8.92628,-1.92726 12.67937,-9.53489 14.30233,-16.73677 2.53588,-11.25929 -3.65166,-21.60566 -18.46117,-21.60566 h -12.67937 c -0.91292,0 -1.42009,0.50718 -1.62296,1.31866 l -17.54826,67.86001 c -0.3043,1.11579 0.30431,1.82583 1.31866,1.82583 z m -13.28799,24.54727 h 47.67445 c 0.91292,0 1.42009,-0.50718 1.62296,-1.31866 l 2.53588,-9.33202 c 0.3043,-1.11578 -0.30431,-1.72439 -1.31866,-1.72439 h -47.67445 c -0.91291,0 -1.42009,0.50717 -1.62296,1.31865 l -2.53587,9.33202 c -0.30431,1.11579 0.3043,1.7244 1.31865,1.7244 z m 36.5166,-66.03418 4.56458,-17.85256 h 2.73874 c 4.46314,0 6.89758,3.04305 5.37606,9.53489 -1.21722,5.27462 -4.0574,8.31767 -8.92628,8.31767 z m 16.20405,41.48691 h 12.88224 c 0.81148,0 1.42009,-0.20287 1.82583,-0.91291 l 7.40476,-11.66503 h 11.46215 l -3.75309,10.85355 c -0.40574,1.11578 0.3043,1.72439 1.31865,1.72439 h 11.76646 c 0.91292,0 1.42009,-0.50717 1.62296,-1.31865 l 17.54826,-67.96145 c 0.3043,-1.11579 -0.30431,-1.7244 -1.31866,-1.7244 h -11.96933 c -0.81148,0 -1.52152,0.30431 -1.92726,0.91292 l -47.67445,68.06288 c -0.71005,1.11579 -0.40574,2.0287 0.81148,2.0287 z m -8.01337,24.54727 h 52.4419 c 0.91291,0 1.42009,-0.50718 1.62296,-1.31866 l 2.53587,-9.33202 c 0.30431,-1.11578 -0.3043,-1.72439 -1.31865,-1.72439 h -52.4419 c -0.91291,0 -1.42009,0.50717 -1.62296,1.31865 l -2.53587,9.33202 c -0.30431,1.11579 0.3043,1.7244 1.31865,1.7244 z m 37.22665,-48.79023 14.80951,-24.24297 c 0.81148,-1.42009 2.84018,-0.71004 2.23157,1.01435 l -8.41911,23.22862 z m 25.63753,24.24296 h 17.548254 c 13.59229,0 24.851575,-10.4478 30.126195,-32.25633 5.781794,-23.73579 -0.507175,-38.74817 -21.402785,-38.74817 h -8.419105 c -0.912915,0 -1.42009,0.50718 -1.62296,1.31866 l -17.548259,67.96145 c -0.3043,1.11578 0.30431,1.72439 1.31866,1.72439 z m -13.28798,24.54727 h 51.021799 c 0.912915,0 1.42009,-0.50718 1.62296,-1.31866 l 2.535875,-9.33202 c 0.304305,-1.11578 -0.304305,-1.72439 -1.318655,-1.72439 h -51.021799 c -0.91292,0 -1.42009,0.50717 -1.62296,1.31865 l -2.53588,9.33202 c -0.3043,1.11579 0.30431,1.7244 1.31866,1.7244 z m 29.314709,-36.71947 12.070765,-46.6601 h 1.318655 c 6.999015,0 8.52054,8.31767 4.0574,25.25732 -4.46314,16.93964 -10.042065,21.40278 -15.519555,21.40278 z m 49.271906,12.98368 c 11.766459,1.01435 18.765474,-7.81049 20.286999,-18.35973 1.82583,-11.46216 -4.46314,-18.2583 -8.824845,-24.24297 -3.347355,-4.56457 -5.680359,-7.40475 -4.767445,-12.67937 0.507175,-3.55023 3.04305,-4.86888 4.66601,-4.56458 2.738745,0.20287 4.970315,4.15884 4.66601,12.1722 0,1.11579 0.60861,1.7244 1.62296,1.52153 l 8.92628,-1.31866 c 0.81148,-0.10143 1.42009,-0.60861 1.521525,-1.52152 0.81148,-10.65068 -3.753095,-23.02575 -15.925295,-23.63436 -7.810494,-0.40574 -16.635339,3.44879 -18.968344,16.53391 -1.62296,9.33202 2.23157,16.02673 6.0861,21.19991 4.0574,5.7818 7.404754,9.8392 6.796145,16.43247 -0.507175,4.46314 -2.333005,6.0861 -4.564575,5.7818 -3.24592,-0.50718 -5.578925,-5.68036 -4.66601,-15.21525 0.101435,-1.11579 -0.507175,-1.7244 -1.521525,-1.52153 l -9.94063,1.62296 c -0.81148,0.10144 -1.42009,0.60861 -1.521525,1.52153 -1.42009,15.31668 5.88323,25.35875 16.128165,26.27166 z m -30.4305,23.73579 h 44.022789 c 0.912915,0 1.42009,-0.50718 1.62296,-1.31866 l 2.535875,-9.33202 c 0.304305,-1.11578 -0.304305,-1.72439 -1.318655,-1.72439 h -44.022789 c -0.912915,0 -1.42009,0.50717 -1.62296,1.31865 l -2.535875,9.33202 c -0.304305,1.11579 0.304305,1.7244 1.318655,1.7244 z m 72.2974999,-23.73579 c 11.6650247,1.21722 20.6927391,-8.01336 26.1702291,-27.59032 0.40574,-1.42009 -0.101435,-2.63731 -1.62296,-2.333 l -10.853544,1.92726 c -0.912915,0.20287 -1.3186554,0.60861 -1.6229604,1.52153 -2.8401799,10.04206 -6.1875348,14.60664 -9.43345477,14.09946 -3.95596493,-0.40574 -4.97031483,-8.31767 0,-25.46018 C 4.4956697,398.2182 9.5674196,390.20484 13.62482,391.11775 c 2.840179,0.50718 2.738744,5.37606 0.405739,15.51956 -0.304304,1.11578 0.304305,1.82583 1.42009,1.62296 l 11.15785,-1.7244 c 0.81148,-0.10143 1.318655,-0.60861 1.521525,-1.42009 2.0287,-8.31767 1.82583,-25.66305 -13.490855,-26.57597 -12.1721992,-0.60861 -22.518569,9.8392 -28.807539,31.54629 -7.10045,24.54727 -2.333005,39.86395 11.4621549,41.28404 z m -31.6477189,23.73579 h 48.993103 c 0.912915,0 1.42009,-0.50718 1.62296,-1.31866 l 2.535875,-9.33202 c 0.304305,-1.11578 -0.304305,-1.72439 -1.318655,-1.72439 h -48.993103 c -0.912915,0 -1.42009,0.50717 -1.62296,1.31865 l -2.535875,9.33202 c -0.304305,1.11579 0.304305,1.7244 1.318655,1.7244 z m 84.469992,-24.54727 h 11.56359 c 0.912915,0 1.42009,-0.50717 1.62296,-1.31865 l 17.548254,-67.96145 c 0.304305,-1.11579 -0.304305,-1.7244 -1.318654,-1.7244 h -11.56359 c -0.912915,0 -1.42009,0.50718 -1.62296,1.31866 l -7.50619,29.11184 -10.95498,1.92727 7.91193,-30.63337 c 0.304305,-1.11579 -0.304305,-1.7244 -1.318655,-1.7244 h -11.56359 c -0.912915,0 -1.42009,0.50718 -1.62296,1.31866 l -17.548254,67.96145 c -0.304305,1.11578 0.304305,1.72439 1.318655,1.72439 h 11.56359 c 0.912915,0 1.42009,-0.50717 1.622959,-1.31865 l 6.390405,-24.64871 10.95498,-1.92726 -6.796145,26.17023 c -0.304305,1.11578 0.304305,1.72439 1.318655,1.72439 z m -38.342429,24.54727 h 51.427544 c 0.912915,0 1.42009,-0.50718 1.62296,-1.31866 l 2.535875,-9.33202 c 0.304305,-1.11578 -0.304305,-1.72439 -1.318655,-1.72439 H 14.613809 c -0.912915,0 -1.42009,0.50717 -1.62296,1.31865 l -2.535875,9.33202 c -0.304305,1.11579 0.304305,1.7244 1.318655,1.7244 z m 62.052668,-24.54727 h 10.244935 c 1.01435,0 1.521525,-0.60861 1.724395,-1.42009 l 4.767445,-19.37408 c 0.20287,-0.60861 0.507175,-2.13014 0.60861,-2.73875 l 1.724395,-19.06978 c 0.101435,-1.31865 1.927265,-1.62296 2.130135,0 l 4.361705,40.97974 c 0.101435,1.31866 0.60861,1.62296 1.622963,1.62296 h 9.43345 c 1.01435,0 1.7244,-0.50717 1.92727,-1.31865 l 17.54825,-67.86002 c 0.30431,-1.11578 -0.3043,-1.92726 -1.42009,-1.92726 l -10.24493,0.10143 c -1.01435,0 -1.62296,0.60861 -1.82583,1.52153 l -5.07175,20.38843 c -0.20287,0.71005 -0.20287,1.42009 -0.30431,2.0287 l -1.72439,18.56261 c -0.10144,1.62296 -2.0287,1.52152 -2.13014,0.20287 l -4.3617,-41.08118 c -0.10144,-1.01435 -0.71005,-1.62296 -1.7244,-1.62296 l -9.433453,-0.10143 c -1.01435,0 -1.62296,0.60861 -1.82583,1.52152 L 72.304772,448.6314 c -0.304305,1.11578 0.40574,1.92726 1.521525,1.92726 z m -13.490855,24.54727 h 51.934718 c 0.91292,0 1.42009,-0.50718 1.62296,-1.31866 l 2.53588,-9.33202 c 0.3043,-1.11578 -0.30431,-1.72439 -1.31866,-1.72439 H 63.175622 c -0.912915,0 -1.42009,0.50717 -1.62296,1.31865 l -2.535874,9.33202 c -0.304305,1.11579 0.304305,1.7244 1.318654,1.7244 z m 62.864278,-24.54727 h 28.80754 c 0.91292,0 1.42009,-0.50717 1.62296,-1.31865 l 2.43444,-9.33202 c 0.30431,-1.11579 -0.3043,-1.7244 -1.31865,-1.7244 h -15.82386 l 4.76744,-18.46117 h 12.67938 c 0.91291,0 1.42009,-0.50717 1.62296,-1.31865 l 2.23157,-8.52054 c 0.3043,-1.11579 -0.30431,-1.7244 -1.31866,-1.7244 h -12.27363 l 4.26027,-16.2296 h 16.2296 c 0.91291,0 1.42009,-0.50717 1.62296,-1.31865 l 2.43444,-9.33202 c 0.3043,-1.11579 -0.30431,-1.7244 -1.31866,-1.7244 h -29.41615 c -0.91291,0 -1.42009,0.50718 -1.62296,1.31866 l -17.34538,67.45427 c -0.30431,1.31866 0.3043,2.23157 1.72439,2.23157 z m -13.79516,24.54727 h 40.97974 c 0.91292,0 1.42009,-0.50718 1.62296,-1.31866 l 2.53588,-9.33202 c 0.3043,-1.11578 -0.30431,-1.72439 -1.31866,-1.72439 h -40.97974 c -0.91291,0 -1.42009,0.50717 -1.62296,1.31865 l -2.53587,9.33202 c -0.30431,1.11579 0.3043,1.7244 1.31865,1.7244 z m 51.40213,-24.54727 h 28.19892 c 0.91292,0 1.42009,-0.50717 1.62296,-1.31865 l 2.43444,-9.12915 c 0.30431,-1.11579 -0.3043,-1.7244 -1.31865,-1.7244 h -14.91095 l 14.70808,-57.1079 c 0.3043,-1.11579 -0.30431,-1.7244 -1.31866,-1.7244 h -11.56359 c -0.91291,0 -1.42009,0.50718 -1.62296,1.31866 l -17.54825,67.96145 c -0.3043,1.11578 0.30431,1.72439 1.31866,1.72439 z m -13.28799,24.54727 h 38.95104 c 0.91291,0 1.42009,-0.50718 1.62296,-1.31866 l 2.53587,-9.33202 c 0.30431,-1.11578 -0.3043,-1.72439 -1.31865,-1.72439 h -38.95104 c -0.91291,0 -1.42009,0.50717 -1.62296,1.31865 l -2.53587,9.33202 c -0.30431,1.11579 0.3043,1.7244 1.31865,1.7244 z m 49.37337,-24.54727 H 225.091 c 0.91292,0 1.42009,-0.50717 1.62296,-1.31865 l 2.43444,-9.12915 c 0.30431,-1.11579 -0.3043,-1.7244 -1.31865,-1.7244 H 212.9188 l 14.70808,-57.1079 c 0.3043,-1.11579 -0.30431,-1.7244 -1.31866,-1.7244 h -11.56359 c -0.91291,0 -1.42009,0.50718 -1.62296,1.31866 l -17.54825,67.96145 c -0.30431,1.11578 0.3043,1.72439 1.31865,1.72439 z m -13.28798,24.54727 h 38.95104 c 0.91291,0 1.42009,-0.50718 1.62296,-1.31866 l 2.53587,-9.33202 c 0.30431,-1.11578 -0.3043,-1.72439 -1.31865,-1.72439 h -38.95104 c -0.91292,0 -1.42009,0.50717 -1.62296,1.31865 l -2.53588,9.33202 c -0.3043,1.11579 0.30431,1.7244 1.31866,1.7244 z m 54.3436,-24.54727 h 11.96933 c 0.91291,0 1.31865,-0.50717 1.62296,-1.31865 l 29.21328,-67.96145 c 0.50717,-1.11579 -0.30431,-1.7244 -1.31866,-1.7244 h -11.86789 c -0.91292,0 -1.31866,0.50718 -1.62296,1.31866 l -15.82386,45.64575 c -0.60861,1.82583 -2.63731,1.31865 -2.43444,-0.30431 l 5.78179,-44.9357 c 0.10144,-1.11579 -0.3043,-1.7244 -1.31865,-1.7244 H 240.585 c -0.91292,0 -1.62296,0.50718 -1.62296,1.31866 l -2.33301,67.96145 c 0,1.11578 0.30431,1.72439 1.31866,1.72439 z m -23.33005,24.54727 h 44.9357 c 0.91292,0 1.42009,-0.50718 1.62296,-1.31866 l 2.53588,-9.33202 c 0.3043,-1.11578 -0.30431,-1.72439 -1.31866,-1.72439 h -44.9357 c -0.91292,0 -1.42009,0.50717 -1.62296,1.31865 l -2.53588,9.33202 c -0.3043,1.11579 0.30431,1.7244 1.31866,1.7244 z m 55.8652,-24.54727 h 28.80754 c 0.91291,0 1.42009,-0.50717 1.62296,-1.31865 l 2.43444,-9.33202 c 0.3043,-1.11579 -0.30431,-1.7244 -1.31866,-1.7244 h -15.82386 l 4.76745,-18.46117 h 12.67937 c 0.91292,0 1.42009,-0.50717 1.62296,-1.31865 l 2.23157,-8.52054 c 0.30431,-1.11579 -0.3043,-1.7244 -1.31865,-1.7244 h -12.27364 l 4.26027,-16.2296 h 16.2296 c 0.91291,0 1.42009,-0.50717 1.62296,-1.31865 l 2.43444,-9.33202 c 0.3043,-1.11579 -0.30431,-1.7244 -1.31866,-1.7244 h -29.41614 c -0.91292,0 -1.42009,0.50718 -1.62296,1.31866 l -17.34539,67.45427 c -0.3043,1.31866 0.30431,2.23157 1.7244,2.23157 z m -13.79516,24.54727 h 40.97974 c 0.91291,0 1.42009,-0.50718 1.62296,-1.31866 l 2.53587,-9.33202 c 0.30431,-1.11578 -0.3043,-1.72439 -1.31865,-1.72439 h -40.97974 c -0.91292,0 -1.42009,0.50717 -1.62296,1.31865 l -2.53588,9.33202 c -0.3043,1.11579 0.30431,1.7244 1.31866,1.7244 z m 51.40212,-24.54727 h 11.36072 c 0.91291,0 1.42009,-0.50717 1.62296,-1.31865 l 3.44879,-13.08512 c 0.20287,-0.60861 0.71004,-3.34735 0.71004,-4.0574 l 0.81148,-11.46215 c 0.10144,-1.82583 2.0287,-1.92727 2.23157,-0.20287 l 3.95597,28.7061 c 0.10143,1.01435 0.71004,1.42009 1.62296,1.42009 h 10.65067 c 0.91292,0 1.7244,-0.50717 1.52153,-1.72439 l -3.85453,-25.25732 c -0.10144,-0.71004 -0.50718,-1.31865 -1.11579,-1.72439 l -4.86888,-2.94162 c -1.42009,-0.81148 -0.50717,-2.43444 1.01435,-1.92726 l 3.34736,0.91291 c 0.91291,0.30431 1.52152,0.20287 2.23157,0 8.92628,-1.92726 12.67937,-9.53489 14.30233,-16.73677 2.53588,-11.25929 -3.65166,-21.60566 -18.46117,-21.60566 h -12.67937 c -0.91292,0 -1.42009,0.50718 -1.62296,1.31866 l -17.54826,67.86001 c -0.3043,1.11579 0.30431,1.82583 1.31866,1.82583 z m -13.28799,24.54727 h 47.67445 c 0.91292,0 1.42009,-0.50718 1.62296,-1.31866 l 2.53588,-9.33202 c 0.3043,-1.11578 -0.30431,-1.72439 -1.31866,-1.72439 h -47.67445 c -0.91291,0 -1.42009,0.50717 -1.62296,1.31865 l -2.53587,9.33202 c -0.30431,1.11579 0.3043,1.7244 1.31865,1.7244 z m 36.5166,-66.03418 4.56458,-17.85256 h 2.73874 c 4.46314,0 6.89758,3.04305 5.37606,9.53489 -1.21722,5.27462 -4.0574,8.31767 -8.92628,8.31767 z m 21.88459,41.48691 h 19.57696 c 12.07076,0 20.5913,-6.49184 22.9243,-17.95399 2.13014,-10.44781 -3.44879,-15.21525 -5.88323,-17.24395 -1.21722,-1.01435 -1.11578,-1.62296 0.60861,-2.33301 3.7531,-1.52152 8.92628,-5.57892 10.65068,-12.88224 2.23157,-9.73776 -2.53588,-20.59131 -17.85256,-20.59131 h -12.57794 c -0.91291,0 -1.42009,0.50718 -1.62296,1.31866 l -17.34538,67.35284 c -0.30431,1.11578 0.3043,2.333 1.52152,2.333 z m -13.59229,24.54727 h 48.79023 c 0.91292,0 1.42009,-0.50718 1.62296,-1.31866 l 2.53588,-9.33202 c 0.3043,-1.11578 -0.30431,-1.72439 -1.31866,-1.72439 h -48.79023 c -0.91291,0 -1.42009,0.50717 -1.62296,1.31865 l -2.53587,9.33202 c -0.30431,1.11579 0.3043,1.7244 1.31865,1.7244 z m 28.0975,-35.80655 5.07175,-19.47552 h 3.44879 c 5.37605,0 6.49184,4.0574 5.27462,9.94063 -1.11579,5.47749 -3.95597,9.53489 -9.23059,9.53489 z m 8.21623,-31.44485 4.36171,-16.93965 h 3.24591 c 4.46314,0 5.7818,4.56458 4.56458,9.43346 -1.21722,4.86888 -3.44879,7.50619 -9.33202,7.50619 z m 23.40599,42.70413 h 11.56359 c 0.91292,0 1.42009,-0.50717 1.62296,-1.31865 l 17.54826,-67.96145 c 0.3043,-1.11579 -0.30431,-1.7244 -1.31866,-1.7244 h -11.56359 c -0.91291,0 -1.42009,0.50718 -1.62296,1.31866 l -17.54825,67.96145 c -0.30431,1.11578 0.3043,1.72439 1.31865,1.72439 z m -13.79516,24.54727 h 27.38745 c 0.91292,0 1.42009,-0.50718 1.62296,-1.31866 l 2.53588,-9.33202 c 0.3043,-1.11578 -0.30431,-1.72439 -1.31866,-1.72439 h -27.38745 c -0.91291,0 -1.42009,0.50717 -1.62296,1.31865 l -2.53587,9.33202 c -0.30431,1.11579 0.3043,1.7244 1.31865,1.7244 z m 38.01265,-24.54727 h 10.24493 c 1.01435,0 1.52153,-0.60861 1.7244,-1.42009 l 4.76744,-19.37408 c 0.20287,-0.60861 0.50718,-2.13014 0.60861,-2.73875 l 1.7244,-19.06978 c 0.10143,-1.31865 1.92726,-1.62296 2.13013,0 l 4.36171,40.97974 c 0.10143,1.31866 0.60861,1.62296 1.62296,1.62296 h 9.43345 c 1.01435,0 1.72439,-0.50717 1.92726,-1.31865 l 17.54826,-67.86002 c 0.3043,-1.11578 -0.30431,-1.92726 -1.42009,-1.92726 l -10.24494,0.10143 c -1.01435,0 -1.62296,0.60861 -1.82583,1.52153 l -5.07175,20.38843 c -0.20287,0.71005 -0.20287,1.42009 -0.3043,2.0287 l -1.7244,18.56261 c -0.10143,1.62296 -2.02869,1.52152 -2.13013,0.20287 l -4.3617,-41.08118 c -0.10144,-1.01435 -0.71005,-1.62296 -1.7244,-1.62296 l -9.43345,-0.10143 c -1.01435,0 -1.62296,0.60861 -1.82583,1.52152 l -17.54826,67.65715 c -0.3043,1.11578 0.40574,1.92726 1.52153,1.92726 z m -13.49086,24.54727 h 51.93472 c 0.91291,0 1.42009,-0.50718 1.62296,-1.31866 l 2.53587,-9.33202 c 0.30431,-1.11578 -0.3043,-1.72439 -1.31865,-1.72439 h -51.93472 c -0.91291,0 -1.42009,0.50717 -1.62296,1.31865 l -2.53587,9.33202 c -0.30431,1.11579 0.3043,1.7244 1.31865,1.7244 z m 62.35708,-24.54727 h 17.54825 c 13.59229,0 24.85158,-10.4478 30.1262,-32.25633 5.78179,-23.73579 -0.50718,-38.74817 -21.40279,-38.74817 h -8.4191 c -0.91292,0 -1.42009,0.50718 -1.62296,1.31866 l -17.54826,67.96145 c -0.3043,1.11578 0.30431,1.72439 1.31866,1.72439 z m -13.28799,24.54727 h 51.02181 c 0.91291,0 1.42009,-0.50718 1.62296,-1.31866 l 2.53587,-9.33202 c 0.30431,-1.11578 -0.3043,-1.72439 -1.31865,-1.72439 h -51.02181 c -0.91291,0 -1.42009,0.50717 -1.62296,1.31865 l -2.53587,9.33202 c -0.30431,1.11579 0.3043,1.7244 1.31865,1.7244 z m 29.31472,-36.71947 12.07076,-46.6601 h 1.31866 c 6.99901,0 8.52054,8.31767 4.0574,25.25732 -4.46314,16.93964 -10.04207,21.40278 -15.51956,21.40278 z m 50.99631,12.98368 c 12.37506,0.60861 19.98269,-8.31767 23.12717,-20.48987 l 12.88225,-49.60171 c 0.3043,-1.11579 -0.30431,-1.7244 -1.31866,-1.7244 h -11.56359 c -0.91291,0 -1.42009,0.50718 -1.62296,1.31866 l -12.37507,48.18162 c -1.21722,4.76745 -3.14448,10.44781 -7.70905,9.94063 -4.26027,-0.50717 -4.26027,-6.0861 -2.73875,-11.76646 l 11.76646,-45.95005 c 0.3043,-1.11579 -0.30431,-1.7244 -1.31866,-1.7244 h -11.56358 c -0.91292,0 -1.42009,0.50718 -1.62296,1.31866 l -11.15785,43.51561 c -3.34736,12.88225 0.60861,26.27167 15.21525,26.98171 z m -32.1549,23.73579 h 49.39884 c 0.91292,0 1.42009,-0.50718 1.62296,-1.31866 l 2.53588,-9.33202 c 0.3043,-1.11578 -0.30431,-1.72439 -1.31866,-1.72439 h -49.39884 c -0.91291,0 -1.42009,0.50717 -1.62296,1.31865 l -2.53587,9.33202 c -0.30431,1.11579 0.3043,1.7244 1.31865,1.7244 z m 60.02412,-24.54727 h 10.24493 c 1.01435,0 1.52153,-0.60861 1.7244,-1.42009 l 4.76744,-19.37408 c 0.20287,-0.60861 0.50718,-2.13014 0.60861,-2.73875 l 1.7244,-19.06978 c 0.10143,-1.31865 1.92726,-1.62296 2.13013,0 l 4.36171,40.97974 c 0.10143,1.31866 0.60861,1.62296 1.62296,1.62296 h 9.43345 c 1.01435,0 1.7244,-0.50717 1.92727,-1.31865 l 17.54825,-67.86002 c 0.30431,-1.11578 -0.3043,-1.92726 -1.42009,-1.92726 l -10.24493,0.10143 c -1.01435,0 -1.62296,0.60861 -1.82583,1.52153 l -5.07175,20.38843 c -0.20287,0.71005 -0.20287,1.42009 -0.30431,2.0287 l -1.72439,18.56261 c -0.10144,1.62296 -2.0287,1.52152 -2.13014,0.20287 l -4.3617,-41.08118 c -0.10144,-1.01435 -0.71005,-1.62296 -1.7244,-1.62296 l -9.43345,-0.10143 c -1.01435,0 -1.62296,0.60861 -1.82583,1.52152 l -17.54826,67.65715 c -0.3043,1.11578 0.40574,1.92726 1.52153,1.92726 z m -13.49085,24.54727 h 51.93471 c 0.91292,0 1.42009,-0.50718 1.62296,-1.31866 l 2.53588,-9.33202 c 0.3043,-1.11578 -0.30431,-1.72439 -1.31866,-1.72439 h -51.93472 c -0.91291,0 -1.42009,0.50717 -1.62296,1.31865 l -2.53587,9.33202 c -0.3043,1.11579 0.30431,1.7244 1.31866,1.7244 z m 80.61537,-23.73579 c 12.98368,1.52153 23.12718,-10.1435 29.01041,-30.53193 1.01435,-3.34736 2.13014,-6.79615 3.24592,-12.37507 0.30431,-1.31866 -0.3043,-1.82583 -1.52152,-1.62296 l -20.89561,3.24592 c -0.91292,0.10143 -1.42009,0.91291 -1.7244,1.82583 l -1.62296,8.92628 c -0.3043,1.31865 0.30431,1.82583 1.52153,1.62296 l 3.04305,-0.50718 c 0.40574,-0.10143 1.01435,-0.40574 1.42009,-0.60861 l 6.28897,-3.14448 c 1.11578,-0.60861 1.92726,0.91291 0.91291,1.72439 l -6.79614,5.57893 c -0.30431,0.3043 -0.60861,0.60861 -0.91292,1.52152 -2.53587,9.02772 -5.78179,12.1722 -9.02771,11.96933 -4.46314,-0.40574 -5.27462,-9.73776 -0.50718,-26.27166 4.0574,-14.30234 9.63633,-21.90996 13.69373,-21.60566 3.04305,0.30431 4.0574,4.36171 3.44879,10.95498 -0.30431,1.31866 0.40574,1.92727 1.62296,1.7244 l 10.24493,-1.82583 c 0.91292,-0.20287 1.62296,-0.71005 1.7244,-1.62296 1.42009,-11.96933 -5.07175,-21.40279 -16.53391,-21.70709 -12.27363,-0.40574 -22.01139,11.15785 -27.89462,30.93767 -6.69471,24.64871 -2.84018,39.96539 11.25928,41.79122 z m -31.54628,23.73579 h 51.52898 c 0.91291,0 1.42009,-0.50718 1.62296,-1.31866 l 2.53587,-9.33202 c 0.30431,-1.11578 -0.3043,-1.72439 -1.31865,-1.72439 h -51.52898 c -0.91292,0 -1.42009,0.50717 -1.62296,1.31865 l -2.53588,9.33202 c -0.3043,1.11579 0.30431,1.7244 1.31866,1.7244 z m 62.45855,-24.54727 h 28.80754 c 0.91291,0 1.42009,-0.50717 1.62296,-1.31865 l 2.43444,-9.33202 c 0.3043,-1.11579 -0.30431,-1.7244 -1.31866,-1.7244 h -15.82386 l 4.76745,-18.46117 h 12.67937 c 0.91292,0 1.42009,-0.50717 1.62296,-1.31865 l 2.23157,-8.52054 c 0.30431,-1.11579 -0.3043,-1.7244 -1.31865,-1.7244 h -12.27364 l 4.26027,-16.2296 h 16.2296 c 0.91292,0 1.42009,-0.50717 1.62296,-1.31865 l 2.43444,-9.33202 c 0.30431,-1.11579 -0.3043,-1.7244 -1.31865,-1.7244 h -29.41615 c -0.91292,0 -1.42009,0.50718 -1.62296,1.31866 l -17.34539,67.45427 c -0.3043,1.31866 0.30431,2.23157 1.7244,2.23157 z m -13.79516,24.54727 h 40.97974 c 0.91291,0 1.42009,-0.50718 1.62296,-1.31866 l 2.53587,-9.33202 c 0.30431,-1.11578 -0.3043,-1.72439 -1.31865,-1.72439 h -40.97974 c -0.91292,0 -1.42009,0.50717 -1.62296,1.31865 l -2.53588,9.33202 c -0.3043,1.11579 0.30431,1.7244 1.31866,1.7244 z m 51.60505,-24.54727 h 10.24493 c 1.01435,0 1.52153,-0.60861 1.7244,-1.42009 l 4.76744,-19.37408 c 0.20287,-0.60861 0.50718,-2.13014 0.60861,-2.73875 l 1.7244,-19.06978 c 0.10143,-1.31865 1.92726,-1.62296 2.13013,0 l 4.36171,40.97974 c 0.10143,1.31866 0.60861,1.62296 1.62296,1.62296 h 9.43345 c 1.01435,0 1.7244,-0.50717 1.92727,-1.31865 l 17.54825,-67.86002 c 0.30431,-1.11578 -0.3043,-1.92726 -1.42009,-1.92726 l -10.24493,0.10143 c -1.01435,0 -1.62296,0.60861 -1.82583,1.52153 l -5.07175,20.38843 c -0.20287,0.71005 -0.20287,1.42009 -0.30431,2.0287 l -1.72439,18.56261 c -0.10144,1.62296 -2.0287,1.52152 -2.13014,0.20287 l -4.3617,-41.08118 c -0.10144,-1.01435 -0.71005,-1.62296 -1.7244,-1.62296 l -9.43345,-0.10143 c -1.01435,0 -1.62296,0.60861 -1.82583,1.52152 l -17.54826,67.65715 c -0.3043,1.11578 0.40574,1.92726 1.52153,1.92726 z m -13.49086,24.54727 h 51.93472 c 0.91292,0 1.42009,-0.50718 1.62296,-1.31866 l 2.53588,-9.33202 c 0.3043,-1.11578 -0.30431,-1.72439 -1.31866,-1.72439 H 692.5024 c -0.91291,0 -1.42009,0.50717 -1.62296,1.31865 l -2.53587,9.33202 c -0.30431,1.11579 0.3043,1.7244 1.31865,1.7244 z m 69.05179,-46.25436 h 11.56359 c 0.91292,0 1.42009,-0.50717 1.62296,-1.31865 l 11.8679,-46.25436 c 0.3043,-1.11579 -0.30431,-1.7244 -1.31866,-1.7244 h -11.56359 c -0.91291,0 -1.42009,0.50718 -1.62296,1.31866 l -11.86789,46.25436 c -0.30431,1.11578 0.3043,1.72439 1.31865,1.72439 z m -6.18753,21.70709 h 12.67937 c 0.91292,0 1.42009,-0.50717 1.62296,-1.31865 l 3.24592,-12.57794 c 0.30431,-1.11579 -0.3043,-1.7244 -1.31865,-1.7244 H 756.0767 c -0.91291,0 -1.42009,0.50718 -1.62296,1.31866 l -3.24592,12.57794 c -0.3043,1.11578 0.30431,1.72439 1.31866,1.72439 z m -13.79516,24.54727 h 27.99606 c 0.91291,0 1.42009,-0.50718 1.62296,-1.31866 l 2.53587,-9.33202 c 0.30431,-1.11578 -0.3043,-1.72439 -1.31865,-1.72439 H 741.5715 c -0.91292,0 -1.42009,0.50717 -1.62296,1.31865 l -2.53588,9.33202 c -0.3043,1.11579 0.30431,1.7244 1.31866,1.7244 z"
         id="path4" />
    </g>
    <text
       xml:space="preserve"
       transform="scale(0.26458333)"
       id="text41565"
       style="font-size:133.333px;line-height:1.25;font-family:'Changing Cities';-inkscape-font-specification:'Changing Cities';font-variant-ligatures:none;text-align:center;letter-spacing:-0.1px;word-spacing:-0.01px;white-space:pre;shape-inside:url(#rect41567);display:inline" />
    <text
       xml:space="preserve"
       style="font-size:35.2777px;line-height:1.25;font-family:'Changing Cities';-inkscape-font-specification:'Changing Cities';font-variant-ligatures:none;letter-spacing:-0.0264583px;word-spacing:-0.00264583px;stroke-width:0.264583"
       x="157.89894"
       y="69.872978"
       id="text48081"><tspan
         sodipodi:role="line"
         id="tspan48079"
         style="stroke-width:0.264583"
         x="157.89894"
         y="69.872978" /></text>
    <text
       xml:space="preserve"
       transform="matrix(0.97342949,0,0,0.97342949,-150.0918,-91.08739)"
       id="text129455"
       style="font-style:normal;font-variant:normal;font-weight:bold;font-stretch:normal;font-size:133.333px;line-height:1.25;font-family:'Changing Cities';-inkscape-font-specification:'Changing Cities Bold';font-variant-ligatures:none;letter-spacing:-0.1px;word-spacing:-0.01px;white-space:pre;shape-inside:url(#rect129457);display:inline" />
    <text
       xml:space="preserve"
       transform="matrix(0.26458333,0,0,0.26458333,10.644244,6.9076414)"
       id="text186593"
       style="font-size:133.333px;line-height:1.25;font-family:'Changing Cities';-inkscape-font-specification:'Changing Cities';font-variant-ligatures:none;letter-spacing:-0.1px;word-spacing:-0.01px;white-space:pre;shape-inside:url(#rect186595);display:inline" />
    <text
       xml:space="preserve"
       style="font-size:35.2777px;line-height:1.25;font-family:'Changing Cities';-inkscape-font-specification:'Changing Cities';font-variant-ligatures:none;letter-spacing:-0.0264583px;word-spacing:-0.00264583px;stroke-width:0.264583"
       x="79.004761"
       y="138.19255"
       id="text187377"><tspan
         sodipodi:role="line"
         style="stroke-width:0.264583"
         id="tspan187379"
         x="79.004761"
         y="138.19255" /></text>
    <path
       d="m 98.38438,515.1183 14.66663,-9.06664 0.53333,-0.26667 2,12.5333 -16.399962,24.53327 c -4.666655,-2.26666 -9.733308,-3.59999 -15.466627,-3.59999 -18.933285,0 -33.733247,14.66663 -33.733247,33.46658 0,18.66662 14.933295,33.33325 33.86658,33.33325 18.933286,0 33.733246,-14.66663 33.733246,-33.46658 v -0.93333 l 11.19997,-1.33333 c 1.86666,-0.26667 2.8,-0.8 3.59999,-1.6 l 33.86658,-35.59991 2.26666,8.39998 c -12.5333,4.79999 -21.19994,16.79996 -21.19994,31.19992 0,18.66662 14.93329,33.33325 33.86658,33.33325 18.93328,0 33.73325,-14.66663 33.73325,-33.46658 0,-18.66662 -14.9333,-33.33325 -33.86658,-33.33325 l -2.53333,0.13334 -6.93332,-27.19994 c -0.4,-1.73332 -1.59999,-2.26666 -3.19999,-1.99999 l -41.99989,6.53332 -2.26666,-14.66663 0.26666,-0.13334 39.5999,-1.59999 c 1.73333,-0.13333 2.53333,-1.33333 1.73333,-2.93333 l -40.53323,-75.5998 c -0.93333,-1.73333 -2.26666,-1.86667 -3.19999,0 L 98.784379,466.45176 78.78443,478.71839 c -1.199997,0.8 -1.599996,1.86667 -0.933331,3.2 l 17.199956,32.39991 c 0.666665,1.33333 1.999995,1.6 3.333325,0.8 z m 92.79976,-25.33327 5.19999,2.79999 c 1.33333,0.8 2.53333,0.53334 3.33332,-0.79999 l 11.59997,-20.13328 c 0.93334,-1.73333 0.26667,-3.06666 -1.73332,-2.8 l -35.59991,4.53332 c -1.6,0.26667 -2.26666,1.06667 -2.13333,2.66666 l 0.8,5.86666 c 0.13333,1.59999 1.06666,2.39999 2.66666,2.13332 l 18.26662,-2.66666 -3.33333,5.06666 c -0.93333,1.46666 -0.4,2.53332 0.93333,3.33332 z m -46.93321,-58.79985 6.13332,1.86666 c 1.46666,0.4 2.53332,-0.13333 2.93332,-1.59999 l 10.39998,-33.06658 c 0.53333,-1.86667 -0.53334,-3.06666 -2.4,-2.26666 l -21.46661,8.53331 c -1.46666,0.53333 -1.86666,1.73333 -1.33333,3.19999 l 2,5.06665 c 0.53333,1.46667 1.86666,2.13333 3.19999,1.46667 l 4.26665,-2 -5.33332,15.86663 c -0.53333,1.46666 0,2.39999 1.6,2.93332 z m 14.79996,26.6666 37.46657,-6.93331 c 1.46667,-0.26667 2.26666,-1.33333 2,-2.8 l -1.2,-5.73332 c -0.26667,-1.59999 -1.46666,-2.13332 -2.93333,-1.86666 l -10.1333,2.26666 28.13326,-28.53326 c 1.59999,-1.73333 0.8,-3.19999 -1.46666,-2.66666 l -34.66658,7.86665 c -1.46667,0.4 -2.26666,1.33333 -1.86666,2.93332 l 1.33333,5.46666 c 0.39999,1.59999 1.46666,2.26666 2.93332,1.86666 l 5.59999,-1.73333 -26.6666,27.19993 c -1.6,1.73333 -0.8,3.06666 1.46666,2.66666 z m 21.99995,137.46632 c -12.9333,0 -21.99995,-9.06665 -21.99995,-22.13328 0,-9.73331 4.79999,-17.19996 12.39997,-20.79995 l 5.33332,19.46662 c 0.4,1.46666 1.33333,2.26666 2.93333,1.86666 l 4.79998,-1.33333 c 1.6,-0.4 2.13333,-1.2 1.73333,-2.93332 l -4.93332,-19.06662 c 13.06663,0.4 21.86661,9.33331 21.86661,22.26661 0,13.3333 -9.06664,22.66661 -22.13327,22.66661 z m -99.066418,-19.59995 23.866608,-2.66666 c -0.26667,13.06663 -9.199979,22.26661 -22.133279,22.26661 -12.9333,0 -21.999944,-9.06665 -21.999944,-22.13328 0,-13.46663 9.066644,-22.79994 21.999944,-22.79994 3.466658,0 6.66665,0.66666 9.466642,1.86666 l -13.199966,19.86662 c -1.33333,2.13332 0,3.86665 1.999995,3.59999 z m 9.733309,-91.19977 9.599979,-5.99999 8.66664,16.39996 -9.59997,5.86665 z m 3.866656,80.66646 5.199983,-7.33331 c 1.33333,1.73332 2.53333,3.73332 3.33333,5.99998 z m 11.733303,-16.39996 10.66664,-15.46663 4.26666,27.0666 -6.66665,1.06667 c -1.73333,-4.93332 -4.66666,-9.19998 -8.26665,-12.66664 z m 2.39999,-78.26646 14.1333,-27.33327 25.19994,47.33321 -27.99993,1.2 z m 18.39996,56.53318 35.86657,-6.39998 -31.59992,33.19992 z"
       id="text192607"
       style="font-weight:bold;font-size:133.333px;line-height:1.25;font-family:'Changing Cities';-inkscape-font-specification:'Changing Cities Bold';font-variant-ligatures:none;letter-spacing:-0.1px;word-spacing:-0.01px;white-space:pre"
       transform="matrix(0.85377592,0,0,0.85377592,-232.11631,-172.66913)"
       aria-label="&#10;&#10;W&#10;" />
  </g>
</svg>
