<svg xmlns="http://www.w3.org/2000/svg" xmlns:xlink="http://www.w3.org/1999/xlink" width="1122" zoomAndPan="magnify" viewBox="0 0 841.92 595.499987" height="793" preserveAspectRatio="xMidYMid meet" version="1.0"><defs><g/><clipPath id="d7a3f6fc92"><path d="M 0.3125 0 L 841.527344 0 L 841.527344 595 L 0.3125 595 Z M 0.3125 0 " clip-rule="nonzero"/></clipPath><clipPath id="cae5065560"><path d="M 637.300781 484.609375 L 814.902344 484.609375 L 814.902344 564.789062 L 637.300781 564.789062 Z M 637.300781 484.609375 " clip-rule="nonzero"/></clipPath></defs><g clip-path="url(#d7a3f6fc92)"><path fill="#ffffff" d="M 0.3125 0 L 841.855469 0 L 841.855469 595 L 0.3125 595 Z M 0.3125 0 " fill-opacity="1" fill-rule="nonzero"/><path fill="#ffffff" d="M 0.3125 0 L 841.855469 0 L 841.855469 595 L 0.3125 595 Z M 0.3125 0 " fill-opacity="1" fill-rule="nonzero"/></g><g clip-path="url(#cae5065560)"><path fill="#000000" d="M 800.261719 519.960938 C 806.566406 520.386719 811.109375 514.558594 813.515625 504.558594 C 813.890625 502.953125 814.316406 501.242188 814.742188 498.621094 C 814.851562 497.980469 814.53125 497.710938 813.941406 497.820312 L 803.84375 500.011719 C 803.414062 500.121094 803.148438 500.441406 803.09375 500.867188 L 802.507812 505.199219 C 802.398438 505.839844 802.71875 506.109375 803.308594 505.949219 L 804.539062 505.574219 C 804.75 505.519531 804.910156 505.46875 805.125 505.359375 L 808.332031 503.59375 C 809.238281 503.113281 809.773438 504.238281 809.078125 504.824219 L 805.980469 507.285156 C 805.714844 507.5 805.605469 507.714844 805.5 508.085938 C 804.484375 512.207031 802.988281 513.96875 801.382812 513.917969 C 799.246094 513.863281 798.605469 509.425781 800.476562 501.347656 C 802.078125 494.398438 804.589844 490.546875 806.515625 490.652344 C 807.902344 490.707031 808.492188 492.953125 808.332031 496.160156 C 808.277344 496.75 808.597656 497.070312 809.1875 496.910156 L 814.101562 495.789062 C 814.53125 495.679688 814.796875 495.414062 814.851562 494.933594 C 815.277344 488.886719 811.910156 484.503906 806.460938 484.609375 C 800.53125 484.71875 796.148438 490.546875 793.851562 500.226562 C 791.179688 512.152344 793.476562 519.480469 800.261719 519.960938 Z M 757.460938 494.933594 L 764.992188 494.449219 C 765.421875 494.398438 765.742188 494.128906 765.847656 493.703125 L 767.292969 486.855469 C 767.398438 486.269531 767.078125 485.945312 766.492188 486.109375 L 758.582031 488.195312 C 758.152344 488.300781 757.941406 488.515625 757.832031 488.996094 L 756.765625 494.074219 C 756.65625 494.609375 756.925781 494.984375 757.460938 494.933594 Z M 790.214844 559.429688 C 795.828125 559.589844 798.980469 555.203125 799.460938 550.070312 C 799.996094 544.5625 796.84375 541.460938 794.597656 538.679688 C 792.886719 536.539062 791.710938 535.253906 791.980469 532.6875 C 792.140625 530.976562 793.316406 530.335938 794.117188 530.390625 C 795.398438 530.441406 796.789062 532.207031 796.789062 536.753906 C 796.789062 537.339844 797.164062 537.609375 797.699219 537.5 L 801.652344 536.644531 C 802.078125 536.539062 802.347656 536.273438 802.398438 535.789062 C 802.613281 529.960938 800.046875 524.292969 794.171875 524.292969 C 790.429688 524.292969 786.316406 526.378906 785.515625 532.6875 C 784.980469 537.179688 787.011719 540.28125 788.933594 542.6875 C 791.070312 545.363281 792.78125 547.234375 792.621094 550.390625 C 792.515625 552.53125 791.660156 553.332031 790.589844 553.277344 C 788.878906 553.171875 787.542969 550.550781 788.023438 545.738281 C 788.078125 545.097656 787.703125 544.828125 787.171875 544.933594 L 782.628906 545.898438 C 782.199219 546.003906 781.933594 546.273438 781.878906 546.753906 C 781.398438 554.453125 785.246094 559.269531 790.214844 559.429688 Z M 752.863281 522.582031 L 758.421875 522.207031 C 758.847656 522.152344 759.167969 521.886719 759.277344 521.457031 L 764.03125 498.085938 C 764.140625 497.550781 763.820312 497.179688 763.285156 497.230469 L 757.726562 497.550781 C 757.246094 497.605469 756.976562 497.875 756.871094 498.300781 L 752.117188 521.726562 C 752.007812 522.261719 752.328125 522.632812 752.863281 522.582031 Z M 764.351562 560.605469 L 777.125 559.804688 C 777.605469 559.75 777.871094 559.480469 777.980469 559.054688 L 778.835938 554.722656 C 778.941406 554.1875 778.621094 553.8125 778.085938 553.867188 L 771.832031 554.292969 L 773.652344 545.417969 L 779.636719 545.042969 C 780.117188 544.988281 780.382812 544.722656 780.492188 544.292969 L 781.347656 539.960938 C 781.453125 539.425781 781.183594 539.050781 780.652344 539.105469 L 774.828125 539.480469 L 776.429688 531.726562 L 782.894531 531.296875 C 783.375 531.246094 783.644531 530.976562 783.75 530.550781 L 784.605469 526.164062 C 784.710938 525.628906 784.445312 525.253906 783.910156 525.308594 L 771.140625 526.164062 C 770.660156 526.21875 770.390625 526.484375 770.285156 526.914062 L 763.605469 559.75 C 763.496094 560.285156 763.820312 560.660156 764.351562 560.605469 Z M 738.222656 523.917969 C 744.527344 524.34375 749.070312 518.515625 751.472656 508.515625 C 751.847656 506.910156 752.277344 505.199219 752.703125 502.578125 C 752.808594 501.9375 752.488281 501.671875 751.902344 501.777344 L 741.800781 503.917969 C 741.375 504.023438 741.109375 504.34375 741.054688 504.773438 L 740.464844 509.105469 C 740.359375 509.746094 740.679688 510.011719 741.269531 509.851562 L 742.496094 509.53125 C 742.710938 509.476562 742.871094 509.425781 743.085938 509.316406 L 746.34375 507.554688 C 747.253906 507.070312 747.734375 508.25 747.039062 508.78125 L 743.992188 511.136719 C 743.671875 511.351562 743.511719 511.671875 743.40625 512.046875 C 742.445312 516.164062 740.949219 517.929688 739.34375 517.875 C 737.207031 517.820312 736.566406 513.382812 738.4375 505.308594 C 740.039062 498.355469 742.550781 494.503906 744.472656 494.609375 C 745.863281 494.664062 746.453125 496.910156 746.292969 500.121094 C 746.238281 500.707031 746.558594 501.027344 747.144531 500.867188 L 752.0625 499.746094 C 752.488281 499.636719 752.757812 499.371094 752.808594 498.890625 C 753.238281 492.847656 749.871094 488.460938 744.421875 488.566406 C 738.488281 488.675781 734.109375 494.503906 731.808594 504.183594 C 729.136719 516.109375 731.4375 523.4375 738.222656 523.917969 Z M 748.375 561.726562 L 754.144531 561.355469 C 754.574219 561.300781 754.839844 561.085938 755 560.660156 L 767.503906 527.394531 C 767.71875 526.859375 767.453125 526.429688 766.863281 526.484375 L 761.09375 526.859375 C 760.664062 526.914062 760.398438 527.125 760.238281 527.554688 L 747.734375 560.820312 C 747.519531 561.355469 747.789062 561.78125 748.375 561.726562 Z M 705.304688 525.683594 L 710.703125 525.363281 C 711.183594 525.308594 711.398438 525.039062 711.503906 524.613281 L 712.519531 519.320312 C 712.574219 518.996094 712.625 518.675781 712.625 518.355469 L 713.054688 504.878906 C 713.054688 504.078125 714.015625 503.96875 714.121094 504.773438 L 716.953125 524.183594 C 717.007812 524.71875 717.328125 524.933594 717.808594 524.878906 L 723.472656 524.507812 C 723.953125 524.453125 724.222656 524.183594 724.328125 523.757812 L 731.007812 490.867188 C 731.113281 490.332031 730.792969 489.957031 730.261719 490.011719 L 724.917969 490.386719 C 724.433594 490.441406 724.222656 490.707031 724.113281 491.136719 L 722.726562 498.460938 C 722.671875 498.78125 722.617188 499.101562 722.617188 499.425781 L 722.246094 514.664062 C 722.246094 515.46875 721.230469 515.574219 721.121094 514.878906 L 717.648438 491.617188 C 717.59375 491.136719 717.273438 490.867188 716.792969 490.921875 L 712.089844 491.1875 C 711.609375 491.242188 711.34375 491.507812 711.238281 491.9375 L 704.558594 524.828125 C 704.449219 525.363281 704.769531 525.734375 705.304688 525.683594 Z M 733.785156 562.742188 L 739.449219 562.371094 C 739.878906 562.316406 740.144531 562.101562 740.304688 561.675781 L 751.046875 533.167969 L 754.949219 532.902344 C 755.375 532.847656 755.640625 532.636719 755.804688 532.207031 L 757.300781 528.089844 C 757.511719 527.554688 757.246094 527.125 756.65625 527.179688 L 741.375 528.195312 C 740.949219 528.25 740.679688 528.464844 740.519531 528.890625 L 739.023438 533.007812 C 738.808594 533.542969 739.128906 533.972656 739.71875 533.917969 L 743.671875 533.652344 L 733.144531 561.835938 C 732.933594 562.371094 733.199219 562.796875 733.785156 562.742188 Z M 722.992188 563.4375 L 728.550781 563.066406 C 729.03125 563.011719 729.296875 562.742188 729.40625 562.316406 L 736.085938 529.425781 C 736.191406 528.890625 735.871094 528.515625 735.335938 528.570312 L 729.777344 528.945312 C 729.296875 529 729.03125 529.265625 728.925781 529.695312 L 722.246094 562.582031 C 722.136719 563.117188 722.457031 563.492188 722.992188 563.4375 Z M 691.519531 515.84375 L 698.25 502.3125 C 698.679688 501.457031 699.800781 501.722656 699.535156 502.6875 L 695.632812 515.523438 Z M 678.320312 527.449219 L 684.089844 527.074219 C 684.519531 527.019531 684.785156 526.859375 685 526.484375 L 688.097656 521.726562 L 693.871094 521.242188 C 693.816406 521.40625 693.816406 521.566406 693.761719 521.726562 L 692.960938 525.628906 C 692.855469 526.164062 693.175781 526.539062 693.710938 526.484375 L 698.890625 526.109375 C 699.320312 526.058594 699.640625 525.789062 699.746094 525.363281 L 706.425781 492.523438 C 706.535156 491.992188 706.214844 491.617188 705.679688 491.667969 L 699.960938 491.992188 C 699.535156 491.992188 699.265625 492.257812 699.054688 492.578125 L 677.730469 526.539062 C 677.410156 527.074219 677.679688 527.5 678.320312 527.449219 Z M 709.6875 564.777344 C 715.351562 565.097656 719.574219 560.175781 721.550781 551.03125 C 721.761719 550.015625 721.441406 549.375 720.589844 549.589844 L 715.671875 550.710938 C 715.246094 550.816406 715.03125 551.085938 714.921875 551.566406 C 713.910156 556.433594 712.25 558.894531 710.648438 558.785156 C 708.726562 558.679688 708.03125 554.882812 710.007812 546.539062 C 711.769531 539.050781 714.015625 535.09375 715.992188 535.414062 C 717.328125 535.628906 717.59375 537.984375 716.6875 542.742188 C 716.582031 543.382812 716.902344 543.707031 717.433594 543.597656 L 722.617188 542.527344 C 723.046875 542.421875 723.3125 542.15625 723.421875 541.726562 C 724.222656 537.664062 723.6875 529.371094 716.152344 529.371094 C 710.273438 529.371094 705.570312 534.667969 703.113281 545.257812 C 700.335938 557.183594 703.007812 564.402344 709.6875 564.777344 Z M 658.386719 528.785156 L 663.730469 528.410156 C 664.160156 528.355469 664.480469 528.089844 664.585938 527.660156 L 666.992188 515.894531 L 672.066406 514.71875 L 669.554688 527.125 C 669.449219 527.660156 669.769531 528.035156 670.304688 527.980469 L 675.648438 527.609375 C 676.074219 527.554688 676.394531 527.285156 676.503906 526.859375 L 683.183594 494.023438 C 683.289062 493.488281 682.96875 493.113281 682.433594 493.167969 L 677.089844 493.488281 C 676.609375 493.542969 676.34375 493.808594 676.234375 494.238281 L 673.351562 508.460938 L 668.273438 509.585938 L 671.265625 494.769531 C 671.371094 494.238281 671.050781 493.863281 670.515625 493.914062 L 665.171875 494.289062 C 664.746094 494.34375 664.425781 494.609375 664.320312 495.039062 L 657.640625 527.929688 C 657.53125 528.464844 657.851562 528.839844 658.386719 528.785156 Z M 644.972656 530.015625 C 650.640625 530.335938 654.859375 525.414062 656.890625 515.949219 C 657.050781 515.253906 656.730469 514.613281 655.929688 514.773438 L 650.960938 515.949219 C 650.53125 516.054688 650.316406 516.324219 650.265625 516.484375 C 649.195312 521.671875 647.539062 524.132812 645.9375 524.023438 C 644.011719 523.917969 643.316406 520.121094 645.296875 511.777344 C 647.058594 504.289062 649.304688 500.332031 651.28125 500.652344 C 652.617188 500.867188 652.882812 503.222656 651.976562 507.980469 C 651.867188 508.621094 652.1875 508.945312 652.777344 508.835938 L 657.90625 507.765625 C 658.332031 507.660156 658.601562 507.394531 658.707031 506.964844 C 659.507812 502.898438 658.976562 494.609375 651.441406 494.609375 C 645.5625 494.609375 640.859375 499.90625 638.402344 510.496094 C 635.625 522.421875 638.296875 529.640625 644.972656 530.015625 Z M 762.644531 521.992188 L 768.414062 521.617188 C 768.839844 521.566406 769.109375 521.351562 769.269531 520.921875 L 771.566406 514.558594 C 771.726562 514.183594 771.78125 514.023438 771.832031 513.757812 L 773.863281 501.457031 C 774.023438 500.492188 775.09375 500.492188 775.09375 501.457031 L 775.039062 520.386719 C 775.039062 520.921875 775.308594 521.191406 775.839844 521.136719 L 781.238281 520.816406 C 781.667969 520.816406 781.988281 520.546875 782.148438 520.175781 L 795.453125 486.75 C 795.667969 486.214844 795.347656 485.785156 794.757812 485.839844 L 789.09375 486.269531 C 788.667969 486.320312 788.347656 486.535156 788.1875 486.910156 L 784.125 497.230469 C 783.910156 497.765625 783.75 498.195312 783.644531 498.835938 L 781.558594 509.476562 C 781.398438 510.28125 780.382812 510.226562 780.382812 509.425781 L 780.597656 487.660156 C 780.597656 487.125 780.332031 486.804688 779.796875 486.855469 L 775.09375 487.125 C 774.667969 487.125 774.398438 487.390625 774.238281 487.820312 L 762 521.082031 C 761.789062 521.617188 762.054688 522.046875 762.644531 521.992188 Z M 762.644531 521.992188 " fill-opacity="1" fill-rule="nonzero"/></g><g fill="#000000" fill-opacity="1"><g transform="translate(113.346449, 193.358381)"><g><path d="M -0.53125 0 C -2.113281 0 -2.6875 -0.796875 -2.25 -2.390625 L 20.65625 -91 C 20.925781 -92.144531 21.632812 -92.71875 22.78125 -92.71875 L 39.34375 -92.71875 C 45.78125 -92.71875 50.960938 -91.390625 54.890625 -88.734375 C 58.828125 -86.085938 61.523438 -82.625 62.984375 -78.34375 C 64.441406 -74.0625 64.59375 -69.445312 63.4375 -64.5 C 62.738281 -61.414062 61.679688 -58.347656 60.265625 -55.296875 C 58.847656 -52.253906 56.878906 -49.601562 54.359375 -47.34375 C 51.847656 -45.09375 48.648438 -43.53125 44.765625 -42.65625 C 44.328125 -42.5625 43.882812 -42.492188 43.4375 -42.453125 C 43 -42.410156 42.472656 -42.476562 41.859375 -42.65625 L 37.484375 -43.84375 C 36.515625 -44.195312 35.828125 -44 35.421875 -43.25 C 35.023438 -42.5 35.269531 -41.859375 36.15625 -41.328125 L 42.515625 -37.484375 C 43.304688 -36.953125 43.789062 -36.203125 43.96875 -35.234375 L 49 -2.25 C 49.175781 -1.457031 49.046875 -0.882812 48.609375 -0.53125 C 48.171875 -0.175781 47.640625 0 47.015625 0 L 33.109375 0 C 31.785156 0 31.082031 -0.617188 31 -1.859375 L 25.828125 -39.34375 C 25.742188 -40.488281 25.257812 -41.035156 24.375 -40.984375 C 23.488281 -40.941406 23.003906 -40.304688 22.921875 -39.078125 L 21.859375 -24.109375 C 21.859375 -23.660156 21.742188 -22.773438 21.515625 -21.453125 C 21.296875 -20.128906 21.097656 -19.25 20.921875 -18.8125 L 16.421875 -1.71875 C 16.160156 -0.570312 15.457031 0 14.3125 0 Z M -17.875 32.046875 C -19.46875 32.046875 -20.046875 31.296875 -19.609375 29.796875 L -16.296875 17.609375 C -16.023438 16.460938 -15.316406 15.890625 -14.171875 15.890625 L 48.078125 15.890625 C 49.671875 15.890625 50.242188 16.640625 49.796875 18.140625 L 46.484375 30.328125 C 46.222656 31.472656 45.519531 32.046875 44.375 32.046875 Z M 29.796875 -54.171875 L 34.703125 -54.171875 C 37.878906 -54.171875 40.414062 -55.117188 42.3125 -57.015625 C 44.21875 -58.921875 45.566406 -61.59375 46.359375 -65.03125 C 47.328125 -69.269531 47.125 -72.40625 45.75 -74.4375 C 44.382812 -76.46875 42.25 -77.484375 39.34375 -77.484375 L 35.765625 -77.484375 Z M 29.796875 -54.171875 "/></g></g></g><g fill="#000000" fill-opacity="1"><g transform="translate(171.889896, 193.358381)"><g><path d="M -7.421875 0 C -8.210938 0 -8.695312 -0.265625 -8.875 -0.796875 C -9.050781 -1.328125 -8.921875 -1.945312 -8.484375 -2.65625 L 53.78125 -91.53125 C 54.3125 -92.320312 55.148438 -92.71875 56.296875 -92.71875 L 71.921875 -92.71875 C 73.515625 -92.71875 74.085938 -91.96875 73.640625 -90.46875 L 50.734375 -1.71875 C 50.460938 -0.570312 49.753906 0 48.609375 0 L 33.25 0 C 32.625 0 32.113281 -0.195312 31.71875 -0.59375 C 31.320312 -0.988281 31.257812 -1.539062 31.53125 -2.25 L 36.421875 -16.421875 L 21.453125 -16.421875 L 11.78125 -1.1875 C 11.34375 -0.394531 10.550781 0 9.40625 0 Z M -17.875 32.046875 C -19.46875 32.046875 -20.046875 31.296875 -19.609375 29.796875 L -16.296875 17.609375 C -16.023438 16.460938 -15.316406 15.890625 -14.171875 15.890625 L 54.3125 15.890625 C 55.894531 15.890625 56.46875 16.640625 56.03125 18.140625 L 52.71875 30.328125 C 52.445312 31.472656 51.738281 32.046875 50.59375 32.046875 Z M 30.734375 -31.65625 L 41.984375 -31.65625 L 52.984375 -61.984375 C 53.421875 -63.128906 53.175781 -63.878906 52.25 -64.234375 C 51.320312 -64.585938 50.59375 -64.28125 50.0625 -63.3125 Z M 30.734375 -31.65625 "/></g></g></g><g fill="#000000" fill-opacity="1"><g transform="translate(236.658554, 193.358381)"><g><path d="M -0.53125 0 C -2.113281 0 -2.6875 -0.75 -2.25 -2.25 L 20.65625 -91 C 20.925781 -92.144531 21.632812 -92.71875 22.78125 -92.71875 L 33.78125 -92.71875 C 42.875 -92.71875 49.890625 -90.664062 54.828125 -86.5625 C 59.773438 -82.457031 62.800781 -76.601562 63.90625 -69 C 65.007812 -61.40625 64.28125 -52.445312 61.71875 -42.125 C 58.28125 -27.90625 53.09375 -17.328125 46.15625 -10.390625 C 39.226562 -3.460938 31.304688 0 22.390625 0 Z M -17.875 32.046875 C -19.46875 32.046875 -20.046875 31.296875 -19.609375 29.796875 L -16.296875 17.609375 C -16.023438 16.460938 -15.316406 15.890625 -14.171875 15.890625 L 52.453125 15.890625 C 54.035156 15.890625 54.609375 16.640625 54.171875 18.140625 L 50.859375 30.328125 C 50.597656 31.472656 49.894531 32.046875 48.75 32.046875 Z M 20.390625 -15.890625 L 22.921875 -15.890625 C 25.296875 -15.890625 27.675781 -16.679688 30.0625 -18.265625 C 32.445312 -19.859375 34.742188 -22.664062 36.953125 -26.6875 C 39.160156 -30.707031 41.238281 -36.425781 43.1875 -43.84375 C 49.007812 -65.832031 47.238281 -76.828125 37.875 -76.828125 L 36.15625 -76.828125 Z M 20.390625 -15.890625 "/></g></g></g><g fill="#000000" fill-opacity="1"><g transform="translate(299.572892, 193.358381)"><g><path d="M 21.859375 1.0625 C 17.441406 0.613281 13.53125 -1.039062 10.125 -3.90625 C 6.726562 -6.78125 4.171875 -10.734375 2.453125 -15.765625 C 0.734375 -20.796875 0.179688 -26.625 0.796875 -33.25 C 0.878906 -34.394531 1.539062 -35.054688 2.78125 -35.234375 L 15.765625 -37.359375 C 17.265625 -37.617188 17.925781 -36.953125 17.75 -35.359375 C 17.132812 -29.179688 17.460938 -24.414062 18.734375 -21.0625 C 20.015625 -17.707031 21.71875 -15.851562 23.84375 -15.5 C 25.34375 -15.320312 26.617188 -15.804688 27.671875 -16.953125 C 28.734375 -18.097656 29.441406 -20.128906 29.796875 -23.046875 C 30.242188 -27.367188 29.539062 -31.078125 27.6875 -34.171875 C 25.832031 -37.265625 23.578125 -40.707031 20.921875 -44.5 C 19.242188 -46.800781 17.675781 -49.296875 16.21875 -51.984375 C 14.769531 -54.679688 13.691406 -57.707031 12.984375 -61.0625 C 12.273438 -64.414062 12.273438 -68.125 12.984375 -72.1875 C 14.035156 -77.925781 15.863281 -82.382812 18.46875 -85.5625 C 21.082031 -88.738281 24.085938 -90.945312 27.484375 -92.1875 C 30.878906 -93.425781 34.300781 -93.957031 37.75 -93.78125 C 41.71875 -93.601562 45.09375 -92.5625 47.875 -90.65625 C 50.65625 -88.757812 52.863281 -86.3125 54.5 -83.3125 C 56.132812 -80.3125 57.28125 -77.019531 57.9375 -73.4375 C 58.601562 -69.863281 58.804688 -66.359375 58.546875 -62.921875 C 58.453125 -61.765625 57.789062 -61.097656 56.5625 -60.921875 L 44.90625 -59.203125 C 43.488281 -58.941406 42.78125 -59.601562 42.78125 -61.1875 C 42.957031 -66.40625 42.425781 -70.335938 41.1875 -72.984375 C 39.957031 -75.628906 38.457031 -77 36.6875 -77.09375 C 35.625 -77.269531 34.429688 -76.894531 33.109375 -75.96875 C 31.785156 -75.039062 30.945312 -73.425781 30.59375 -71.125 C 29.976562 -67.6875 30.3125 -64.816406 31.59375 -62.515625 C 32.875 -60.222656 34.617188 -57.578125 36.828125 -54.578125 C 38.765625 -52.015625 40.769531 -49.226562 42.84375 -46.21875 C 44.925781 -43.21875 46.5625 -39.84375 47.75 -36.09375 C 48.9375 -32.34375 49.132812 -27.953125 48.34375 -22.921875 C 47.726562 -18.328125 46.289062 -14.128906 44.03125 -10.328125 C 41.78125 -6.535156 38.800781 -3.578125 35.09375 -1.453125 C 31.382812 0.660156 26.972656 1.5 21.859375 1.0625 Z M -17.875 32.046875 C -19.46875 32.046875 -20.046875 31.296875 -19.609375 29.796875 L -16.296875 17.609375 C -16.023438 16.460938 -15.316406 15.890625 -14.171875 15.890625 L 43.3125 15.890625 C 44.90625 15.890625 45.476562 16.640625 45.03125 18.140625 L 41.71875 30.328125 C 41.457031 31.472656 40.753906 32.046875 39.609375 32.046875 Z M -17.875 32.046875 "/></g></g></g><g fill="#000000" fill-opacity="1"><g transform="translate(353.3481, 193.358381)"><g><path d="M 23.4375 1.0625 C 14.4375 0.09375 8.546875 -5.132812 5.765625 -14.625 C 2.984375 -24.125 3.890625 -36.863281 8.484375 -52.84375 C 12.628906 -67.0625 17.945312 -77.59375 24.4375 -84.4375 C 30.925781 -91.28125 38.144531 -94.484375 46.09375 -94.046875 C 50.0625 -93.773438 53.328125 -92.78125 55.890625 -91.0625 C 58.453125 -89.34375 60.394531 -87.132812 61.71875 -84.4375 C 63.039062 -81.75 63.921875 -78.878906 64.359375 -75.828125 C 64.804688 -72.785156 64.941406 -69.828125 64.765625 -66.953125 C 64.585938 -64.085938 64.234375 -61.550781 63.703125 -59.34375 C 63.441406 -58.1875 62.78125 -57.566406 61.71875 -57.484375 L 47.15625 -55.234375 C 46.445312 -55.140625 45.914062 -55.289062 45.5625 -55.6875 C 45.207031 -56.09375 45.117188 -56.648438 45.296875 -57.359375 C 46.796875 -63.972656 47.546875 -68.914062 47.546875 -72.1875 C 47.546875 -75.457031 46.617188 -77.269531 44.765625 -77.625 C 42.117188 -78.238281 39.226562 -76.003906 36.09375 -70.921875 C 32.957031 -65.847656 29.890625 -58.320312 26.890625 -48.34375 C 23.617188 -37.132812 22.160156 -28.859375 22.515625 -23.515625 C 22.867188 -18.171875 24.328125 -15.363281 26.890625 -15.09375 C 29.003906 -14.738281 31.117188 -16.082031 33.234375 -19.125 C 35.359375 -22.175781 37.347656 -26.972656 39.203125 -33.515625 C 39.554688 -34.566406 40.265625 -35.226562 41.328125 -35.5 L 55.5 -38.015625 C 56.46875 -38.191406 57.128906 -37.96875 57.484375 -37.34375 C 57.835938 -36.726562 57.878906 -35.9375 57.609375 -34.96875 C 54.078125 -22.164062 49.394531 -12.757812 43.5625 -6.75 C 37.738281 -0.75 31.03125 1.851562 23.4375 1.0625 Z M -17.875 32.046875 C -19.46875 32.046875 -20.046875 31.296875 -19.609375 29.796875 L -16.296875 17.609375 C -16.023438 16.460938 -15.316406 15.890625 -14.171875 15.890625 L 49.796875 15.890625 C 51.390625 15.890625 51.96875 16.640625 51.53125 18.140625 L 48.21875 30.328125 C 47.945312 31.472656 47.238281 32.046875 46.09375 32.046875 Z M -17.875 32.046875 "/></g></g></g><g fill="#000000" fill-opacity="1"><g transform="translate(413.613421, 193.358381)"><g><path d="M 32.1875 0 C 30.59375 0 30.019531 -0.75 30.46875 -2.25 L 39.34375 -36.421875 L 25.03125 -33.90625 L 16.6875 -1.71875 C 16.425781 -0.570312 15.71875 0 14.5625 0 L -0.53125 0 C -2.113281 0 -2.6875 -0.75 -2.25 -2.25 L 20.65625 -91 C 20.925781 -92.144531 21.632812 -92.71875 22.78125 -92.71875 L 37.875 -92.71875 C 39.46875 -92.71875 40.046875 -91.96875 39.609375 -90.46875 L 29.265625 -50.46875 L 43.578125 -52.984375 L 53.375 -91 C 53.644531 -92.144531 54.351562 -92.71875 55.5 -92.71875 L 70.59375 -92.71875 C 72.1875 -92.71875 72.757812 -91.96875 72.3125 -90.46875 L 49.40625 -1.71875 C 49.132812 -0.570312 48.425781 0 47.28125 0 Z M -17.875 32.046875 C -19.46875 32.046875 -20.046875 31.296875 -19.609375 29.796875 L -16.296875 17.609375 C -16.023438 16.460938 -15.316406 15.890625 -14.171875 15.890625 L 52.984375 15.890625 C 54.566406 15.890625 55.140625 16.640625 54.703125 18.140625 L 51.390625 30.328125 C 51.128906 31.472656 50.421875 32.046875 49.265625 32.046875 Z M -17.875 32.046875 "/></g></g></g><g fill="#000000" fill-opacity="1"><g transform="translate(477.057553, 193.358381)"><g><path d="M -0.265625 0 C -0.972656 0 -1.523438 -0.238281 -1.921875 -0.71875 C -2.316406 -1.207031 -2.425781 -1.804688 -2.25 -2.515625 L 20.65625 -90.859375 C 20.925781 -92.179688 21.722656 -92.84375 23.046875 -92.84375 L 35.359375 -92.71875 C 36.691406 -92.71875 37.441406 -92.007812 37.609375 -90.59375 L 43.3125 -36.953125 C 43.394531 -36.066406 43.859375 -35.625 44.703125 -35.625 C 45.546875 -35.625 46.007812 -36.15625 46.09375 -37.21875 L 48.34375 -61.453125 C 48.4375 -61.898438 48.503906 -62.34375 48.546875 -62.78125 C 48.585938 -63.21875 48.65625 -63.660156 48.75 -64.109375 L 55.359375 -90.734375 C 55.628906 -92.054688 56.425781 -92.71875 57.75 -92.71875 L 71.125 -92.84375 C 71.832031 -92.84375 72.363281 -92.597656 72.71875 -92.109375 C 73.070312 -91.628906 73.160156 -91.035156 72.984375 -90.328125 L 50.0625 -1.71875 C 49.800781 -0.570312 48.960938 0 47.546875 0 L 35.234375 0 C 34.617188 0 34.132812 -0.128906 33.78125 -0.390625 C 33.425781 -0.660156 33.203125 -1.238281 33.109375 -2.125 L 27.421875 -55.625 C 27.328125 -56.6875 26.859375 -57.171875 26.015625 -57.078125 C 25.179688 -56.992188 24.722656 -56.507812 24.640625 -55.625 L 22.390625 -30.734375 C 22.296875 -30.378906 22.179688 -29.800781 22.046875 -29 C 21.921875 -28.207031 21.769531 -27.59375 21.59375 -27.15625 L 15.359375 -1.859375 C 15.097656 -0.617188 14.347656 0 13.109375 0 Z M -17.875 32.046875 C -19.46875 32.046875 -20.046875 31.296875 -19.609375 29.796875 L -16.296875 17.609375 C -16.023438 16.460938 -15.316406 15.890625 -14.171875 15.890625 L 53.640625 15.890625 C 55.234375 15.890625 55.804688 16.640625 55.359375 18.140625 L 52.046875 30.328125 C 51.785156 31.472656 51.082031 32.046875 49.9375 32.046875 Z M -17.875 32.046875 "/></g></g></g><g fill="#000000" fill-opacity="1"><g transform="translate(541.163971, 193.358381)"><g><path d="M 0.125 0 C -1.8125 0 -2.5625 -0.96875 -2.125 -2.90625 L 20.53125 -91 C 20.789062 -92.144531 21.5 -92.71875 22.65625 -92.71875 L 61.0625 -92.71875 C 62.644531 -92.71875 63.21875 -91.96875 62.78125 -90.46875 L 59.609375 -78.28125 C 59.335938 -77.132812 58.628906 -76.5625 57.484375 -76.5625 L 36.296875 -76.5625 L 30.734375 -55.359375 L 46.75 -55.359375 C 48.34375 -55.359375 48.921875 -54.609375 48.484375 -53.109375 L 45.5625 -41.984375 C 45.300781 -40.835938 44.59375 -40.265625 43.4375 -40.265625 L 26.890625 -40.265625 L 20.65625 -16.15625 L 41.328125 -16.15625 C 42.910156 -16.15625 43.484375 -15.40625 43.046875 -13.90625 L 39.875 -1.71875 C 39.601562 -0.570312 38.894531 0 37.75 0 Z M -17.875 32.046875 C -19.46875 32.046875 -20.046875 31.296875 -19.609375 29.796875 L -16.296875 17.609375 C -16.023438 16.460938 -15.316406 15.890625 -14.171875 15.890625 L 39.34375 15.890625 C 40.925781 15.890625 41.5 16.640625 41.0625 18.140625 L 37.75 30.328125 C 37.488281 31.472656 36.78125 32.046875 35.625 32.046875 Z M -17.875 32.046875 "/></g></g></g><g fill="#000000" fill-opacity="1"><g transform="translate(590.965659, 193.358381)"><g><path d="M -0.53125 0 C -2.113281 0 -2.6875 -0.75 -2.25 -2.25 L 20.65625 -91 C 20.925781 -92.144531 21.632812 -92.71875 22.78125 -92.71875 L 37.875 -92.71875 C 39.46875 -92.71875 40.046875 -91.96875 39.609375 -90.46875 L 20.390625 -15.890625 L 39.875 -15.890625 C 41.457031 -15.890625 42.03125 -15.140625 41.59375 -13.640625 L 38.40625 -1.71875 C 38.144531 -0.570312 37.441406 0 36.296875 0 Z M -17.875 32.046875 C -19.46875 32.046875 -20.046875 31.296875 -19.609375 29.796875 L -16.296875 17.609375 C -16.023438 16.460938 -15.316406 15.890625 -14.171875 15.890625 L 36.6875 15.890625 C 38.28125 15.890625 38.851562 16.640625 38.40625 18.140625 L 35.09375 30.328125 C 34.832031 31.472656 34.128906 32.046875 32.984375 32.046875 Z M -17.875 32.046875 "/></g></g></g><g fill="#000000" fill-opacity="1"><g transform="translate(638.118296, 193.358381)"><g><path d="M -0.53125 0 C -2.113281 0 -2.6875 -0.75 -2.25 -2.25 L 20.65625 -91 C 20.925781 -92.144531 21.632812 -92.71875 22.78125 -92.71875 L 37.875 -92.71875 C 39.46875 -92.71875 40.046875 -91.96875 39.609375 -90.46875 L 20.390625 -15.890625 L 39.875 -15.890625 C 41.457031 -15.890625 42.03125 -15.140625 41.59375 -13.640625 L 38.40625 -1.71875 C 38.144531 -0.570312 37.441406 0 36.296875 0 Z M -17.875 32.046875 C -19.46875 32.046875 -20.046875 31.296875 -19.609375 29.796875 L -16.296875 17.609375 C -16.023438 16.460938 -15.316406 15.890625 -14.171875 15.890625 L 36.6875 15.890625 C 38.28125 15.890625 38.851562 16.640625 38.40625 18.140625 L 35.09375 30.328125 C 34.832031 31.472656 34.128906 32.046875 32.984375 32.046875 Z M -17.875 32.046875 "/></g></g></g><g fill="#000000" fill-opacity="1"><g transform="translate(685.270933, 193.358381)"><g><path d="M 6.890625 -38.140625 C 5.296875 -38.140625 4.722656 -38.890625 5.171875 -40.390625 L 8.484375 -52.578125 C 8.742188 -53.734375 9.445312 -54.3125 10.59375 -54.3125 L 42.921875 -54.3125 C 44.503906 -54.3125 45.078125 -53.554688 44.640625 -52.046875 L 41.328125 -39.875 C 41.054688 -38.71875 40.347656 -38.140625 39.203125 -38.140625 Z M -17.875 32.046875 C -19.46875 32.046875 -20.046875 31.296875 -19.609375 29.796875 L -16.296875 17.609375 C -16.023438 16.460938 -15.316406 15.890625 -14.171875 15.890625 L 32.71875 15.890625 C 34.300781 15.890625 34.875 16.640625 34.4375 18.140625 L 31.125 30.328125 C 30.863281 31.472656 30.15625 32.046875 29 32.046875 Z M -17.875 32.046875 "/></g></g></g><g fill="#000000" fill-opacity="1"><g transform="translate(78.512418, 343.981904)"><g><path d="M 12.578125 0 C 11.429688 0 10.859375 -0.75 10.859375 -2.25 L 13.90625 -91 C 13.90625 -92.144531 14.613281 -92.71875 16.03125 -92.71875 L 31.125 -92.71875 C 32.445312 -92.71875 33.019531 -91.96875 32.84375 -90.46875 L 25.296875 -31.78125 C 25.210938 -30.726562 25.632812 -30.113281 26.5625 -29.9375 C 27.488281 -29.757812 28.128906 -30.242188 28.484375 -31.390625 L 49.140625 -91 C 49.578125 -92.144531 50.285156 -92.71875 51.265625 -92.71875 L 66.75 -92.71875 C 67.457031 -92.71875 68.007812 -92.519531 68.40625 -92.125 C 68.8125 -91.726562 68.835938 -91.175781 68.484375 -90.46875 L 30.328125 -1.71875 C 29.890625 -0.570312 29.1875 0 28.21875 0 Z M -17.875 32.046875 C -19.46875 32.046875 -20.046875 31.296875 -19.609375 29.796875 L -16.296875 17.609375 C -16.023438 16.460938 -15.316406 15.890625 -14.171875 15.890625 L 44.5 15.890625 C 46.09375 15.890625 46.664062 16.640625 46.21875 18.140625 L 42.921875 30.328125 C 42.648438 31.472656 41.941406 32.046875 40.796875 32.046875 Z M -17.875 32.046875 "/></g></g></g><g fill="#000000" fill-opacity="1"><g transform="translate(133.479682, 343.981904)"><g><path d="M 0.125 0 C -1.8125 0 -2.5625 -0.96875 -2.125 -2.90625 L 20.53125 -91 C 20.789062 -92.144531 21.5 -92.71875 22.65625 -92.71875 L 61.0625 -92.71875 C 62.644531 -92.71875 63.21875 -91.96875 62.78125 -90.46875 L 59.609375 -78.28125 C 59.335938 -77.132812 58.628906 -76.5625 57.484375 -76.5625 L 36.296875 -76.5625 L 30.734375 -55.359375 L 46.75 -55.359375 C 48.34375 -55.359375 48.921875 -54.609375 48.484375 -53.109375 L 45.5625 -41.984375 C 45.300781 -40.835938 44.59375 -40.265625 43.4375 -40.265625 L 26.890625 -40.265625 L 20.65625 -16.15625 L 41.328125 -16.15625 C 42.910156 -16.15625 43.484375 -15.40625 43.046875 -13.90625 L 39.875 -1.71875 C 39.601562 -0.570312 38.894531 0 37.75 0 Z M -17.875 32.046875 C -19.46875 32.046875 -20.046875 31.296875 -19.609375 29.796875 L -16.296875 17.609375 C -16.023438 16.460938 -15.316406 15.890625 -14.171875 15.890625 L 39.34375 15.890625 C 40.925781 15.890625 41.5 16.640625 41.0625 18.140625 L 37.75 30.328125 C 37.488281 31.472656 36.78125 32.046875 35.625 32.046875 Z M -17.875 32.046875 "/></g></g></g><g fill="#000000" fill-opacity="1"><g transform="translate(183.281347, 343.981904)"><g><path d="M -0.53125 0 C -2.113281 0 -2.6875 -0.796875 -2.25 -2.390625 L 20.65625 -91 C 20.925781 -92.144531 21.632812 -92.71875 22.78125 -92.71875 L 39.34375 -92.71875 C 45.78125 -92.71875 50.960938 -91.390625 54.890625 -88.734375 C 58.828125 -86.085938 61.523438 -82.625 62.984375 -78.34375 C 64.441406 -74.0625 64.59375 -69.445312 63.4375 -64.5 C 62.738281 -61.414062 61.679688 -58.347656 60.265625 -55.296875 C 58.847656 -52.253906 56.878906 -49.601562 54.359375 -47.34375 C 51.847656 -45.09375 48.648438 -43.53125 44.765625 -42.65625 C 44.328125 -42.5625 43.882812 -42.492188 43.4375 -42.453125 C 43 -42.410156 42.472656 -42.476562 41.859375 -42.65625 L 37.484375 -43.84375 C 36.515625 -44.195312 35.828125 -44 35.421875 -43.25 C 35.023438 -42.5 35.269531 -41.859375 36.15625 -41.328125 L 42.515625 -37.484375 C 43.304688 -36.953125 43.789062 -36.203125 43.96875 -35.234375 L 49 -2.25 C 49.175781 -1.457031 49.046875 -0.882812 48.609375 -0.53125 C 48.171875 -0.175781 47.640625 0 47.015625 0 L 33.109375 0 C 31.785156 0 31.082031 -0.617188 31 -1.859375 L 25.828125 -39.34375 C 25.742188 -40.488281 25.257812 -41.035156 24.375 -40.984375 C 23.488281 -40.941406 23.003906 -40.304688 22.921875 -39.078125 L 21.859375 -24.109375 C 21.859375 -23.660156 21.742188 -22.773438 21.515625 -21.453125 C 21.296875 -20.128906 21.097656 -19.25 20.921875 -18.8125 L 16.421875 -1.71875 C 16.160156 -0.570312 15.457031 0 14.3125 0 Z M -17.875 32.046875 C -19.46875 32.046875 -20.046875 31.296875 -19.609375 29.796875 L -16.296875 17.609375 C -16.023438 16.460938 -15.316406 15.890625 -14.171875 15.890625 L 48.078125 15.890625 C 49.671875 15.890625 50.242188 16.640625 49.796875 18.140625 L 46.484375 30.328125 C 46.222656 31.472656 45.519531 32.046875 44.375 32.046875 Z M 29.796875 -54.171875 L 34.703125 -54.171875 C 37.878906 -54.171875 40.414062 -55.117188 42.3125 -57.015625 C 44.21875 -58.921875 45.566406 -61.59375 46.359375 -65.03125 C 47.328125 -69.269531 47.125 -72.40625 45.75 -74.4375 C 44.382812 -76.46875 42.25 -77.484375 39.34375 -77.484375 L 35.765625 -77.484375 Z M 29.796875 -54.171875 "/></g></g></g><g fill="#000000" fill-opacity="1"><g transform="translate(241.824794, 343.981904)"><g><path d="M -0.125 0 C -0.925781 0 -1.503906 -0.328125 -1.859375 -0.984375 C -2.210938 -1.648438 -2.300781 -2.335938 -2.125 -3.046875 L 20.53125 -91 C 20.789062 -92.144531 21.5 -92.71875 22.65625 -92.71875 L 39.078125 -92.71875 C 45.785156 -92.71875 50.992188 -91.367188 54.703125 -88.671875 C 58.410156 -85.984375 60.859375 -82.5625 62.046875 -78.40625 C 63.242188 -74.257812 63.359375 -70.066406 62.390625 -65.828125 C 61.234375 -61.054688 59.242188 -57.300781 56.421875 -54.5625 C 53.597656 -51.832031 50.953125 -49.976562 48.484375 -49 C 47.328125 -48.5625 46.703125 -48.117188 46.609375 -47.671875 C 46.523438 -47.234375 46.882812 -46.664062 47.6875 -45.96875 C 48.738281 -45.082031 50.0625 -43.753906 51.65625 -41.984375 C 53.25 -40.222656 54.507812 -37.835938 55.4375 -34.828125 C 56.363281 -31.828125 56.335938 -28.03125 55.359375 -23.4375 C 53.859375 -15.9375 50.457031 -10.15625 45.15625 -6.09375 C 39.863281 -2.03125 33.289062 0 25.4375 0 Z M -17.875 32.046875 C -19.46875 32.046875 -20.046875 31.296875 -19.609375 29.796875 L -16.296875 17.609375 C -16.023438 16.460938 -15.316406 15.890625 -14.171875 15.890625 L 49.53125 15.890625 C 51.125 15.890625 51.703125 16.640625 51.265625 18.140625 L 47.953125 30.328125 C 47.679688 31.472656 46.972656 32.046875 45.828125 32.046875 Z M 18.8125 -14.703125 L 24.765625 -14.703125 C 28.210938 -14.703125 30.90625 -15.894531 32.84375 -18.28125 C 34.789062 -20.664062 36.117188 -23.625 36.828125 -27.15625 C 37.617188 -31.039062 37.550781 -34.175781 36.625 -36.5625 C 35.695312 -38.945312 33.46875 -40.140625 29.9375 -40.140625 L 25.4375 -40.140625 Z M 29.53125 -55.765625 L 33.25 -55.765625 C 37.132812 -55.765625 39.9375 -56.601562 41.65625 -58.28125 C 43.375 -59.957031 44.632812 -62.382812 45.4375 -65.5625 C 46.226562 -68.738281 46.160156 -71.582031 45.234375 -74.09375 C 44.304688 -76.613281 42.382812 -77.875 39.46875 -77.875 L 35.234375 -77.875 Z M 29.53125 -55.765625 "/></g></g></g><g fill="#000000" fill-opacity="1"><g transform="translate(301.825201, 343.981904)"><g><path d="M 0.125 0 C -1.457031 0 -2.03125 -0.75 -1.59375 -2.25 L 21.328125 -91 C 21.585938 -92.144531 22.289062 -92.71875 23.4375 -92.71875 L 38.546875 -92.71875 C 40.128906 -92.71875 40.703125 -91.96875 40.265625 -90.46875 L 17.34375 -1.71875 C 17.082031 -0.570312 16.378906 0 15.234375 0 Z M -17.875 32.046875 C -19.46875 32.046875 -20.046875 31.296875 -19.609375 29.796875 L -16.296875 17.609375 C -16.023438 16.460938 -15.316406 15.890625 -14.171875 15.890625 L 21.59375 15.890625 C 23.175781 15.890625 23.75 16.640625 23.3125 18.140625 L 20 30.328125 C 19.738281 31.472656 19.03125 32.046875 17.875 32.046875 Z M -17.875 32.046875 "/></g></g></g><g fill="#000000" fill-opacity="1"><g transform="translate(333.878387, 343.981904)"><g><path d="M -0.265625 0 C -0.972656 0 -1.523438 -0.238281 -1.921875 -0.71875 C -2.316406 -1.207031 -2.425781 -1.804688 -2.25 -2.515625 L 20.65625 -90.859375 C 20.925781 -92.179688 21.722656 -92.84375 23.046875 -92.84375 L 35.359375 -92.71875 C 36.691406 -92.71875 37.441406 -92.007812 37.609375 -90.59375 L 43.3125 -36.953125 C 43.394531 -36.066406 43.859375 -35.625 44.703125 -35.625 C 45.546875 -35.625 46.007812 -36.15625 46.09375 -37.21875 L 48.34375 -61.453125 C 48.4375 -61.898438 48.503906 -62.34375 48.546875 -62.78125 C 48.585938 -63.21875 48.65625 -63.660156 48.75 -64.109375 L 55.359375 -90.734375 C 55.628906 -92.054688 56.425781 -92.71875 57.75 -92.71875 L 71.125 -92.84375 C 71.832031 -92.84375 72.363281 -92.597656 72.71875 -92.109375 C 73.070312 -91.628906 73.160156 -91.035156 72.984375 -90.328125 L 50.0625 -1.71875 C 49.800781 -0.570312 48.960938 0 47.546875 0 L 35.234375 0 C 34.617188 0 34.132812 -0.128906 33.78125 -0.390625 C 33.425781 -0.660156 33.203125 -1.238281 33.109375 -2.125 L 27.421875 -55.625 C 27.328125 -56.6875 26.859375 -57.171875 26.015625 -57.078125 C 25.179688 -56.992188 24.722656 -56.507812 24.640625 -55.625 L 22.390625 -30.734375 C 22.296875 -30.378906 22.179688 -29.800781 22.046875 -29 C 21.921875 -28.207031 21.769531 -27.59375 21.59375 -27.15625 L 15.359375 -1.859375 C 15.097656 -0.617188 14.347656 0 13.109375 0 Z M -17.875 32.046875 C -19.46875 32.046875 -20.046875 31.296875 -19.609375 29.796875 L -16.296875 17.609375 C -16.023438 16.460938 -15.316406 15.890625 -14.171875 15.890625 L 53.640625 15.890625 C 55.234375 15.890625 55.804688 16.640625 55.359375 18.140625 L 52.046875 30.328125 C 51.785156 31.472656 51.082031 32.046875 49.9375 32.046875 Z M -17.875 32.046875 "/></g></g></g><g fill="#000000" fill-opacity="1"><g transform="translate(397.984783, 343.981904)"><g><path d="M -0.53125 0 C -2.113281 0 -2.6875 -0.75 -2.25 -2.25 L 20.65625 -91 C 20.925781 -92.144531 21.632812 -92.71875 22.78125 -92.71875 L 33.78125 -92.71875 C 42.875 -92.71875 49.890625 -90.664062 54.828125 -86.5625 C 59.773438 -82.457031 62.800781 -76.601562 63.90625 -69 C 65.007812 -61.40625 64.28125 -52.445312 61.71875 -42.125 C 58.28125 -27.90625 53.09375 -17.328125 46.15625 -10.390625 C 39.226562 -3.460938 31.304688 0 22.390625 0 Z M -17.875 32.046875 C -19.46875 32.046875 -20.046875 31.296875 -19.609375 29.796875 L -16.296875 17.609375 C -16.023438 16.460938 -15.316406 15.890625 -14.171875 15.890625 L 52.453125 15.890625 C 54.035156 15.890625 54.609375 16.640625 54.171875 18.140625 L 50.859375 30.328125 C 50.597656 31.472656 49.894531 32.046875 48.75 32.046875 Z M 20.390625 -15.890625 L 22.921875 -15.890625 C 25.296875 -15.890625 27.675781 -16.679688 30.0625 -18.265625 C 32.445312 -19.859375 34.742188 -22.664062 36.953125 -26.6875 C 39.160156 -30.707031 41.238281 -36.425781 43.1875 -43.84375 C 49.007812 -65.832031 47.238281 -76.828125 37.875 -76.828125 L 36.15625 -76.828125 Z M 20.390625 -15.890625 "/></g></g></g><g fill="#000000" fill-opacity="1"><g transform="translate(460.899109, 343.981904)"><g><path d="M 24.109375 1.0625 C 19.335938 0.789062 15.40625 -0.378906 12.3125 -2.453125 C 9.226562 -4.523438 6.910156 -7.238281 5.359375 -10.59375 C 3.816406 -13.945312 2.976562 -17.65625 2.84375 -21.71875 C 2.71875 -25.78125 3.179688 -29.929688 4.234375 -34.171875 L 18.8125 -91 C 19.070312 -92.144531 19.773438 -92.71875 20.921875 -92.71875 L 36.03125 -92.71875 C 37.613281 -92.71875 38.1875 -91.96875 37.75 -90.46875 L 22.390625 -30.46875 C 21.765625 -27.988281 21.382812 -25.625 21.25 -23.375 C 21.125 -21.125 21.410156 -19.25 22.109375 -17.75 C 22.816406 -16.25 24.097656 -15.363281 25.953125 -15.09375 C 27.984375 -14.914062 29.640625 -15.46875 30.921875 -16.75 C 32.203125 -18.03125 33.238281 -19.726562 34.03125 -21.84375 C 34.832031 -23.96875 35.5 -26.046875 36.03125 -28.078125 L 52.1875 -91 C 52.445312 -92.144531 53.15625 -92.71875 54.3125 -92.71875 L 69.40625 -92.71875 C 71 -92.71875 71.570312 -91.96875 71.125 -90.46875 L 54.3125 -25.703125 C 52.976562 -20.398438 50.960938 -15.671875 48.265625 -11.515625 C 45.578125 -7.367188 42.222656 -4.171875 38.203125 -1.921875 C 34.191406 0.328125 29.492188 1.320312 24.109375 1.0625 Z M -17.875 32.046875 C -19.46875 32.046875 -20.046875 31.296875 -19.609375 29.796875 L -16.296875 17.609375 C -16.023438 16.460938 -15.316406 15.890625 -14.171875 15.890625 L 50.328125 15.890625 C 51.921875 15.890625 52.492188 16.640625 52.046875 18.140625 L 48.75 30.328125 C 48.476562 31.472656 47.769531 32.046875 46.625 32.046875 Z M -17.875 32.046875 "/></g></g></g><g fill="#000000" fill-opacity="1"><g transform="translate(521.694236, 343.981904)"><g><path d="M -0.265625 0 C -0.972656 0 -1.523438 -0.238281 -1.921875 -0.71875 C -2.316406 -1.207031 -2.425781 -1.804688 -2.25 -2.515625 L 20.65625 -90.859375 C 20.925781 -92.179688 21.722656 -92.84375 23.046875 -92.84375 L 35.359375 -92.71875 C 36.691406 -92.71875 37.441406 -92.007812 37.609375 -90.59375 L 43.3125 -36.953125 C 43.394531 -36.066406 43.859375 -35.625 44.703125 -35.625 C 45.546875 -35.625 46.007812 -36.15625 46.09375 -37.21875 L 48.34375 -61.453125 C 48.4375 -61.898438 48.503906 -62.34375 48.546875 -62.78125 C 48.585938 -63.21875 48.65625 -63.660156 48.75 -64.109375 L 55.359375 -90.734375 C 55.628906 -92.054688 56.425781 -92.71875 57.75 -92.71875 L 71.125 -92.84375 C 71.832031 -92.84375 72.363281 -92.597656 72.71875 -92.109375 C 73.070312 -91.628906 73.160156 -91.035156 72.984375 -90.328125 L 50.0625 -1.71875 C 49.800781 -0.570312 48.960938 0 47.546875 0 L 35.234375 0 C 34.617188 0 34.132812 -0.128906 33.78125 -0.390625 C 33.425781 -0.660156 33.203125 -1.238281 33.109375 -2.125 L 27.421875 -55.625 C 27.328125 -56.6875 26.859375 -57.171875 26.015625 -57.078125 C 25.179688 -56.992188 24.722656 -56.507812 24.640625 -55.625 L 22.390625 -30.734375 C 22.296875 -30.378906 22.179688 -29.800781 22.046875 -29 C 21.921875 -28.207031 21.769531 -27.59375 21.59375 -27.15625 L 15.359375 -1.859375 C 15.097656 -0.617188 14.347656 0 13.109375 0 Z M -17.875 32.046875 C -19.46875 32.046875 -20.046875 31.296875 -19.609375 29.796875 L -16.296875 17.609375 C -16.023438 16.460938 -15.316406 15.890625 -14.171875 15.890625 L 53.640625 15.890625 C 55.234375 15.890625 55.804688 16.640625 55.359375 18.140625 L 52.046875 30.328125 C 51.785156 31.472656 51.082031 32.046875 49.9375 32.046875 Z M -17.875 32.046875 "/></g></g></g><g fill="#000000" fill-opacity="1"><g transform="translate(585.800654, 343.981904)"><g><path d="M 23.3125 1.0625 C 14.125 -0.175781 8.296875 -5.5625 5.828125 -15.09375 C 3.359375 -24.632812 4.285156 -37.441406 8.609375 -53.515625 C 12.492188 -66.398438 17.523438 -76.421875 23.703125 -83.578125 C 29.890625 -90.734375 37 -94.175781 45.03125 -93.90625 C 50.0625 -93.820312 54.273438 -92.5 57.671875 -89.9375 C 61.078125 -87.375 63.570312 -83.972656 65.15625 -79.734375 C 66.75 -75.492188 67.238281 -70.769531 66.625 -65.5625 C 66.53125 -64.414062 65.78125 -63.707031 64.375 -63.4375 L 51 -61.0625 C 49.144531 -60.789062 48.4375 -61.539062 48.875 -63.3125 C 49.3125 -67.632812 49.175781 -71.054688 48.46875 -73.578125 C 47.769531 -76.097656 46.40625 -77.445312 44.375 -77.625 C 41.71875 -77.789062 38.734375 -75.46875 35.421875 -70.65625 C 32.117188 -65.84375 29.140625 -58.757812 26.484375 -49.40625 C 23.398438 -38.632812 22.007812 -30.289062 22.3125 -24.375 C 22.625 -18.457031 24.238281 -15.363281 27.15625 -15.09375 C 29.269531 -15.007812 31.34375 -16.113281 33.375 -18.40625 C 35.40625 -20.707031 37.257812 -24.816406 38.9375 -30.734375 C 39.113281 -31.347656 39.3125 -31.785156 39.53125 -32.046875 C 39.757812 -32.316406 39.960938 -32.539062 40.140625 -32.71875 L 49 -40 C 49.707031 -40.53125 49.863281 -41.148438 49.46875 -41.859375 C 49.070312 -42.566406 48.519531 -42.695312 47.8125 -42.25 L 39.609375 -38.140625 C 39.335938 -38.054688 39.023438 -37.925781 38.671875 -37.75 C 38.316406 -37.570312 38.007812 -37.441406 37.75 -37.359375 L 33.78125 -36.6875 C 32.101562 -36.425781 31.4375 -37.132812 31.78125 -38.8125 L 33.90625 -50.46875 C 34.082031 -51.082031 34.347656 -51.609375 34.703125 -52.046875 C 35.054688 -52.492188 35.539062 -52.757812 36.15625 -52.84375 L 63.4375 -57.09375 C 65.125 -57.351562 65.789062 -56.644531 65.4375 -54.96875 C 64.726562 -51.34375 64.019531 -48.296875 63.3125 -45.828125 C 62.601562 -43.359375 61.894531 -41.019531 61.1875 -38.8125 C 57.394531 -25.476562 52.253906 -15.253906 45.765625 -8.140625 C 39.273438 -1.035156 31.789062 2.03125 23.3125 1.0625 Z M -17.875 32.046875 C -19.46875 32.046875 -20.046875 31.296875 -19.609375 29.796875 L -16.296875 17.609375 C -16.023438 16.460938 -15.316406 15.890625 -14.171875 15.890625 L 53.109375 15.890625 C 54.703125 15.890625 55.273438 16.640625 54.828125 18.140625 L 51.53125 30.328125 C 51.257812 31.472656 50.550781 32.046875 49.40625 32.046875 Z M -17.875 32.046875 "/></g></g></g><g fill="#000000" fill-opacity="1"><g transform="translate(649.377244, 343.981904)"><g><path d="M 0.125 0 C -1.8125 0 -2.5625 -0.96875 -2.125 -2.90625 L 20.53125 -91 C 20.789062 -92.144531 21.5 -92.71875 22.65625 -92.71875 L 61.0625 -92.71875 C 62.644531 -92.71875 63.21875 -91.96875 62.78125 -90.46875 L 59.609375 -78.28125 C 59.335938 -77.132812 58.628906 -76.5625 57.484375 -76.5625 L 36.296875 -76.5625 L 30.734375 -55.359375 L 46.75 -55.359375 C 48.34375 -55.359375 48.921875 -54.609375 48.484375 -53.109375 L 45.5625 -41.984375 C 45.300781 -40.835938 44.59375 -40.265625 43.4375 -40.265625 L 26.890625 -40.265625 L 20.65625 -16.15625 L 41.328125 -16.15625 C 42.910156 -16.15625 43.484375 -15.40625 43.046875 -13.90625 L 39.875 -1.71875 C 39.601562 -0.570312 38.894531 0 37.75 0 Z M -17.875 32.046875 C -19.46875 32.046875 -20.046875 31.296875 -19.609375 29.796875 L -16.296875 17.609375 C -16.023438 16.460938 -15.316406 15.890625 -14.171875 15.890625 L 39.34375 15.890625 C 40.925781 15.890625 41.5 16.640625 41.0625 18.140625 L 37.75 30.328125 C 37.488281 31.472656 36.78125 32.046875 35.625 32.046875 Z M -17.875 32.046875 "/></g></g></g><g fill="#000000" fill-opacity="1"><g transform="translate(699.178932, 343.981904)"><g><path d="M -0.265625 0 C -0.972656 0 -1.523438 -0.238281 -1.921875 -0.71875 C -2.316406 -1.207031 -2.425781 -1.804688 -2.25 -2.515625 L 20.65625 -90.859375 C 20.925781 -92.179688 21.722656 -92.84375 23.046875 -92.84375 L 35.359375 -92.71875 C 36.691406 -92.71875 37.441406 -92.007812 37.609375 -90.59375 L 43.3125 -36.953125 C 43.394531 -36.066406 43.859375 -35.625 44.703125 -35.625 C 45.546875 -35.625 46.007812 -36.15625 46.09375 -37.21875 L 48.34375 -61.453125 C 48.4375 -61.898438 48.503906 -62.34375 48.546875 -62.78125 C 48.585938 -63.21875 48.65625 -63.660156 48.75 -64.109375 L 55.359375 -90.734375 C 55.628906 -92.054688 56.425781 -92.71875 57.75 -92.71875 L 71.125 -92.84375 C 71.832031 -92.84375 72.363281 -92.597656 72.71875 -92.109375 C 73.070312 -91.628906 73.160156 -91.035156 72.984375 -90.328125 L 50.0625 -1.71875 C 49.800781 -0.570312 48.960938 0 47.546875 0 L 35.234375 0 C 34.617188 0 34.132812 -0.128906 33.78125 -0.390625 C 33.425781 -0.660156 33.203125 -1.238281 33.109375 -2.125 L 27.421875 -55.625 C 27.328125 -56.6875 26.859375 -57.171875 26.015625 -57.078125 C 25.179688 -56.992188 24.722656 -56.507812 24.640625 -55.625 L 22.390625 -30.734375 C 22.296875 -30.378906 22.179688 -29.800781 22.046875 -29 C 21.921875 -28.207031 21.769531 -27.59375 21.59375 -27.15625 L 15.359375 -1.859375 C 15.097656 -0.617188 14.347656 0 13.109375 0 Z M -17.875 32.046875 C -19.46875 32.046875 -20.046875 31.296875 -19.609375 29.796875 L -16.296875 17.609375 C -16.023438 16.460938 -15.316406 15.890625 -14.171875 15.890625 L 53.640625 15.890625 C 55.234375 15.890625 55.804688 16.640625 55.359375 18.140625 L 52.046875 30.328125 C 51.785156 31.472656 51.082031 32.046875 49.9375 32.046875 Z M -17.875 32.046875 "/></g></g></g><g fill="#000000" fill-opacity="1"><g transform="translate(280.432714, 494.605426)"><g><path d="M 17.609375 1.59375 C 12.671875 1.5 8.519531 0.109375 5.15625 -2.578125 C 1.800781 -5.273438 -0.421875 -8.984375 -1.515625 -13.703125 C -2.617188 -18.429688 -2.378906 -23.882812 -0.796875 -30.0625 C -0.523438 -31.207031 0.179688 -31.828125 1.328125 -31.921875 L 15.625 -34.171875 C 16.332031 -34.347656 16.835938 -34.210938 17.140625 -33.765625 C 17.453125 -33.328125 17.519531 -32.753906 17.34375 -32.046875 C 15.84375 -26.046875 15.160156 -21.765625 15.296875 -19.203125 C 15.429688 -16.640625 16.425781 -15.269531 18.28125 -15.09375 C 20.3125 -14.914062 21.988281 -16.304688 23.3125 -19.265625 C 24.632812 -22.222656 26.132812 -26.882812 27.8125 -33.25 L 36.6875 -67.953125 C 36.957031 -68.921875 37.441406 -69.625 38.140625 -70.0625 L 46.890625 -76.421875 C 47.421875 -76.867188 47.570312 -77.421875 47.34375 -78.078125 C 47.125 -78.742188 46.617188 -78.898438 45.828125 -78.546875 L 22.921875 -69.671875 C 22.472656 -69.492188 21.9375 -69.335938 21.3125 -69.203125 C 20.695312 -69.078125 20.128906 -68.96875 19.609375 -68.875 L 16.296875 -68.34375 C 14.523438 -67.988281 13.863281 -68.648438 14.3125 -70.328125 L 18.140625 -86.09375 C 18.410156 -87.332031 19.078125 -87.992188 20.140625 -88.078125 L 60 -93.90625 C 61.675781 -94.175781 62.296875 -93.425781 61.859375 -91.65625 L 45.828125 -29.40625 C 43.359375 -19.863281 39.78125 -12.289062 35.09375 -6.6875 C 30.414062 -1.082031 24.585938 1.675781 17.609375 1.59375 Z M -17.875 32.046875 C -19.46875 32.046875 -20.046875 31.296875 -19.609375 29.796875 L -16.296875 17.609375 C -16.023438 16.460938 -15.316406 15.890625 -14.171875 15.890625 L 41.1875 15.890625 C 42.78125 15.890625 43.359375 16.640625 42.921875 18.140625 L 39.609375 30.328125 C 39.335938 31.472656 38.628906 32.046875 37.484375 32.046875 Z M -17.875 32.046875 "/></g></g></g><g fill="#000000" fill-opacity="1"><g transform="translate(332.088699, 494.605426)"><g><path d="M 0.125 0 C -1.8125 0 -2.5625 -0.96875 -2.125 -2.90625 L 20.53125 -91 C 20.789062 -92.144531 21.5 -92.71875 22.65625 -92.71875 L 61.0625 -92.71875 C 62.644531 -92.71875 63.21875 -91.96875 62.78125 -90.46875 L 59.609375 -78.28125 C 59.335938 -77.132812 58.628906 -76.5625 57.484375 -76.5625 L 36.296875 -76.5625 L 30.734375 -55.359375 L 46.75 -55.359375 C 48.34375 -55.359375 48.921875 -54.609375 48.484375 -53.109375 L 45.5625 -41.984375 C 45.300781 -40.835938 44.59375 -40.265625 43.4375 -40.265625 L 26.890625 -40.265625 L 20.65625 -16.15625 L 41.328125 -16.15625 C 42.910156 -16.15625 43.484375 -15.40625 43.046875 -13.90625 L 39.875 -1.71875 C 39.601562 -0.570312 38.894531 0 37.75 0 Z M -17.875 32.046875 C -19.46875 32.046875 -20.046875 31.296875 -19.609375 29.796875 L -16.296875 17.609375 C -16.023438 16.460938 -15.316406 15.890625 -14.171875 15.890625 L 39.34375 15.890625 C 40.925781 15.890625 41.5 16.640625 41.0625 18.140625 L 37.75 30.328125 C 37.488281 31.472656 36.78125 32.046875 35.625 32.046875 Z M -17.875 32.046875 "/></g></g></g><g fill="#000000" fill-opacity="1"><g transform="translate(381.890363, 494.605426)"><g><path d="M 8.484375 0 C 6.890625 0 6.3125 -0.75 6.75 -2.25 L 26.21875 -77.484375 L 13.375 -77.484375 C 11.789062 -77.484375 11.21875 -78.234375 11.65625 -79.734375 L 14.5625 -91 C 14.832031 -92.144531 15.539062 -92.71875 16.6875 -92.71875 L 61.984375 -92.71875 C 63.578125 -92.71875 64.148438 -91.96875 63.703125 -90.46875 L 60.796875 -79.203125 C 60.535156 -78.054688 59.828125 -77.484375 58.671875 -77.484375 L 45.296875 -77.484375 L 25.703125 -1.71875 C 25.429688 -0.570312 24.722656 0 23.578125 0 Z M -17.875 32.046875 C -19.46875 32.046875 -20.046875 31.296875 -19.609375 29.796875 L -16.296875 17.609375 C -16.023438 16.460938 -15.316406 15.890625 -14.171875 15.890625 L 38.9375 15.890625 C 40.53125 15.890625 41.101562 16.640625 40.65625 18.140625 L 37.359375 30.328125 C 37.085938 31.472656 36.378906 32.046875 35.234375 32.046875 Z M -17.875 32.046875 "/></g></g></g><g fill="#000000" fill-opacity="1"><g transform="translate(431.294679, 494.605426)"><g><path d="M -4.234375 0 C -5.828125 0 -6.398438 -0.75 -5.953125 -2.25 L -2.78125 -14.171875 C -2.601562 -14.609375 -2.46875 -15.003906 -2.375 -15.359375 C -2.289062 -15.710938 -2.117188 -16.066406 -1.859375 -16.421875 L 33.25 -72.453125 C 33.863281 -73.421875 34.566406 -74.257812 35.359375 -74.96875 L 39.734375 -77.875 C 40.265625 -78.226562 40.460938 -78.710938 40.328125 -79.328125 C 40.203125 -79.953125 39.695312 -80.175781 38.8125 -80 L 14.4375 -74.4375 C 13.550781 -74.257812 12.910156 -74.367188 12.515625 -74.765625 C 12.117188 -75.160156 12.007812 -75.800781 12.1875 -76.6875 L 16.03125 -91.125 C 16.289062 -92.1875 17.039062 -92.71875 18.28125 -92.71875 L 58.40625 -92.71875 C 60 -92.71875 60.578125 -91.96875 60.140625 -90.46875 L 57.09375 -78.9375 C 57 -78.582031 56.882812 -78.226562 56.75 -77.875 C 56.625 -77.53125 56.425781 -77.132812 56.15625 -76.6875 L 20.921875 -19.34375 C 20.660156 -18.894531 20.351562 -18.445312 20 -18 C 19.644531 -17.5625 19.25 -17.171875 18.8125 -16.828125 L 14.5625 -13.90625 C 13.863281 -13.46875 13.664062 -12.9375 13.96875 -12.3125 C 14.28125 -11.695312 14.789062 -11.476562 15.5 -11.65625 L 39.609375 -18.28125 C 40.578125 -18.539062 41.257812 -18.445312 41.65625 -18 C 42.050781 -17.5625 42.160156 -16.90625 41.984375 -16.03125 L 38.140625 -1.59375 C 37.878906 -0.53125 37.128906 0 35.890625 0 Z M -17.875 32.046875 C -19.46875 32.046875 -20.046875 31.296875 -19.609375 29.796875 L -16.296875 17.609375 C -16.023438 16.460938 -15.316406 15.890625 -14.171875 15.890625 L 37.359375 15.890625 C 38.941406 15.890625 39.515625 16.640625 39.078125 18.140625 L 35.765625 30.328125 C 35.492188 31.472656 34.785156 32.046875 33.640625 32.046875 Z M -17.875 32.046875 "/></g></g></g><g fill="#000000" fill-opacity="1"><g transform="translate(479.10959, 494.605426)"><g><path d="M 8.484375 0 C 6.890625 0 6.3125 -0.75 6.75 -2.25 L 26.21875 -77.484375 L 13.375 -77.484375 C 11.789062 -77.484375 11.21875 -78.234375 11.65625 -79.734375 L 14.5625 -91 C 14.832031 -92.144531 15.539062 -92.71875 16.6875 -92.71875 L 61.984375 -92.71875 C 63.578125 -92.71875 64.148438 -91.96875 63.703125 -90.46875 L 60.796875 -79.203125 C 60.535156 -78.054688 59.828125 -77.484375 58.671875 -77.484375 L 45.296875 -77.484375 L 25.703125 -1.71875 C 25.429688 -0.570312 24.722656 0 23.578125 0 Z M -17.875 32.046875 C -19.46875 32.046875 -20.046875 31.296875 -19.609375 29.796875 L -16.296875 17.609375 C -16.023438 16.460938 -15.316406 15.890625 -14.171875 15.890625 L 38.9375 15.890625 C 40.53125 15.890625 41.101562 16.640625 40.65625 18.140625 L 37.359375 30.328125 C 37.085938 31.472656 36.378906 32.046875 35.234375 32.046875 Z M -17.875 32.046875 "/></g></g></g><g fill="#000000" fill-opacity="1"><g transform="translate(528.513906, 494.605426)"><g><path d="M 8.21875 -28.34375 C 6.625 -28.34375 6.046875 -29.09375 6.484375 -30.59375 L 21.984375 -91 C 22.253906 -92.144531 22.960938 -92.71875 24.109375 -92.71875 L 39.203125 -92.71875 C 40.796875 -92.71875 41.367188 -91.96875 40.921875 -90.46875 L 25.4375 -30.0625 C 25.164062 -28.914062 24.457031 -28.34375 23.3125 -28.34375 Z M 0.125 0 C -1.457031 0 -2.03125 -0.75 -1.59375 -2.25 L 2.65625 -18.671875 C 2.914062 -19.816406 3.617188 -20.390625 4.765625 -20.390625 L 21.328125 -20.390625 C 22.910156 -20.390625 23.484375 -19.640625 23.046875 -18.140625 L 18.8125 -1.71875 C 18.539062 -0.570312 17.832031 0 16.6875 0 Z M -17.875 32.046875 C -19.46875 32.046875 -20.046875 31.296875 -19.609375 29.796875 L -16.296875 17.609375 C -16.023438 16.460938 -15.316406 15.890625 -14.171875 15.890625 L 22.390625 15.890625 C 23.972656 15.890625 24.546875 16.640625 24.109375 18.140625 L 20.796875 30.328125 C 20.523438 31.472656 19.816406 32.046875 18.671875 32.046875 Z M -17.875 32.046875 "/></g></g></g></svg>