<svg xmlns="http://www.w3.org/2000/svg" xmlns:xlink="http://www.w3.org/1999/xlink" width="1122" zoomAndPan="magnify" viewBox="0 0 841.92 595.499987" height="793" preserveAspectRatio="xMidYMid meet" version="1.0"><defs><g/><clipPath id="5c231263ff"><path d="M 0.3125 0 L 841.527344 0 L 841.527344 595 L 0.3125 595 Z M 0.3125 0 " clip-rule="nonzero"/></clipPath><clipPath id="8cba11385e"><path d="M 637.300781 484.609375 L 814.902344 484.609375 L 814.902344 564.789062 L 637.300781 564.789062 Z M 637.300781 484.609375 " clip-rule="nonzero"/></clipPath></defs><g clip-path="url(#5c231263ff)"><path fill="#ffffff" d="M 0.3125 0 L 841.855469 0 L 841.855469 595 L 0.3125 595 Z M 0.3125 0 " fill-opacity="1" fill-rule="nonzero"/><path fill="#ffffff" d="M 0.3125 0 L 841.855469 0 L 841.855469 595 L 0.3125 595 Z M 0.3125 0 " fill-opacity="1" fill-rule="nonzero"/></g><g clip-path="url(#8cba11385e)"><path fill="#000000" d="M 800.261719 519.960938 C 806.566406 520.386719 811.109375 514.558594 813.515625 504.558594 C 813.890625 502.953125 814.316406 501.242188 814.742188 498.621094 C 814.851562 497.980469 814.53125 497.710938 813.941406 497.820312 L 803.84375 500.011719 C 803.414062 500.121094 803.148438 500.441406 803.09375 500.867188 L 802.507812 505.199219 C 802.398438 505.839844 802.71875 506.109375 803.308594 505.949219 L 804.539062 505.574219 C 804.75 505.519531 804.910156 505.46875 805.125 505.359375 L 808.332031 503.59375 C 809.238281 503.113281 809.773438 504.238281 809.078125 504.824219 L 805.980469 507.285156 C 805.714844 507.5 805.605469 507.714844 805.5 508.085938 C 804.484375 512.207031 802.988281 513.96875 801.382812 513.917969 C 799.246094 513.863281 798.605469 509.425781 800.476562 501.347656 C 802.078125 494.398438 804.589844 490.546875 806.515625 490.652344 C 807.902344 490.707031 808.492188 492.953125 808.332031 496.160156 C 808.277344 496.75 808.597656 497.070312 809.1875 496.910156 L 814.101562 495.789062 C 814.53125 495.679688 814.796875 495.414062 814.851562 494.933594 C 815.277344 488.886719 811.910156 484.503906 806.460938 484.609375 C 800.53125 484.71875 796.148438 490.546875 793.851562 500.226562 C 791.179688 512.152344 793.476562 519.480469 800.261719 519.960938 Z M 757.460938 494.933594 L 764.992188 494.449219 C 765.421875 494.398438 765.742188 494.128906 765.847656 493.703125 L 767.292969 486.855469 C 767.398438 486.269531 767.078125 485.945312 766.492188 486.109375 L 758.582031 488.195312 C 758.152344 488.300781 757.941406 488.515625 757.832031 488.996094 L 756.765625 494.074219 C 756.65625 494.609375 756.925781 494.984375 757.460938 494.933594 Z M 790.214844 559.429688 C 795.828125 559.589844 798.980469 555.203125 799.460938 550.070312 C 799.996094 544.5625 796.84375 541.460938 794.597656 538.679688 C 792.886719 536.539062 791.710938 535.253906 791.980469 532.6875 C 792.140625 530.976562 793.316406 530.335938 794.117188 530.390625 C 795.398438 530.441406 796.789062 532.207031 796.789062 536.753906 C 796.789062 537.339844 797.164062 537.609375 797.699219 537.5 L 801.652344 536.644531 C 802.078125 536.539062 802.347656 536.273438 802.398438 535.789062 C 802.613281 529.960938 800.046875 524.292969 794.171875 524.292969 C 790.429688 524.292969 786.316406 526.378906 785.515625 532.6875 C 784.980469 537.179688 787.011719 540.28125 788.933594 542.6875 C 791.070312 545.363281 792.78125 547.234375 792.621094 550.390625 C 792.515625 552.53125 791.660156 553.332031 790.589844 553.277344 C 788.878906 553.171875 787.542969 550.550781 788.023438 545.738281 C 788.078125 545.097656 787.703125 544.828125 787.171875 544.933594 L 782.628906 545.898438 C 782.199219 546.003906 781.933594 546.273438 781.878906 546.753906 C 781.398438 554.453125 785.246094 559.269531 790.214844 559.429688 Z M 752.863281 522.582031 L 758.421875 522.207031 C 758.847656 522.152344 759.167969 521.886719 759.277344 521.457031 L 764.03125 498.085938 C 764.140625 497.550781 763.820312 497.179688 763.285156 497.230469 L 757.726562 497.550781 C 757.246094 497.605469 756.976562 497.875 756.871094 498.300781 L 752.117188 521.726562 C 752.007812 522.261719 752.328125 522.632812 752.863281 522.582031 Z M 764.351562 560.605469 L 777.125 559.804688 C 777.605469 559.75 777.871094 559.480469 777.980469 559.054688 L 778.835938 554.722656 C 778.941406 554.1875 778.621094 553.8125 778.085938 553.867188 L 771.832031 554.292969 L 773.652344 545.417969 L 779.636719 545.042969 C 780.117188 544.988281 780.382812 544.722656 780.492188 544.292969 L 781.347656 539.960938 C 781.453125 539.425781 781.183594 539.050781 780.652344 539.105469 L 774.828125 539.480469 L 776.429688 531.726562 L 782.894531 531.296875 C 783.375 531.246094 783.644531 530.976562 783.75 530.550781 L 784.605469 526.164062 C 784.710938 525.628906 784.445312 525.253906 783.910156 525.308594 L 771.140625 526.164062 C 770.660156 526.21875 770.390625 526.484375 770.285156 526.914062 L 763.605469 559.75 C 763.496094 560.285156 763.820312 560.660156 764.351562 560.605469 Z M 738.222656 523.917969 C 744.527344 524.34375 749.070312 518.515625 751.472656 508.515625 C 751.847656 506.910156 752.277344 505.199219 752.703125 502.578125 C 752.808594 501.9375 752.488281 501.671875 751.902344 501.777344 L 741.800781 503.917969 C 741.375 504.023438 741.109375 504.34375 741.054688 504.773438 L 740.464844 509.105469 C 740.359375 509.746094 740.679688 510.011719 741.269531 509.851562 L 742.496094 509.53125 C 742.710938 509.476562 742.871094 509.425781 743.085938 509.316406 L 746.34375 507.554688 C 747.253906 507.070312 747.734375 508.25 747.039062 508.78125 L 743.992188 511.136719 C 743.671875 511.351562 743.511719 511.671875 743.40625 512.046875 C 742.445312 516.164062 740.949219 517.929688 739.34375 517.875 C 737.207031 517.820312 736.566406 513.382812 738.4375 505.308594 C 740.039062 498.355469 742.550781 494.503906 744.472656 494.609375 C 745.863281 494.664062 746.453125 496.910156 746.292969 500.121094 C 746.238281 500.707031 746.558594 501.027344 747.144531 500.867188 L 752.0625 499.746094 C 752.488281 499.636719 752.757812 499.371094 752.808594 498.890625 C 753.238281 492.847656 749.871094 488.460938 744.421875 488.566406 C 738.488281 488.675781 734.109375 494.503906 731.808594 504.183594 C 729.136719 516.109375 731.4375 523.4375 738.222656 523.917969 Z M 748.375 561.726562 L 754.144531 561.355469 C 754.574219 561.300781 754.839844 561.085938 755 560.660156 L 767.503906 527.394531 C 767.71875 526.859375 767.453125 526.429688 766.863281 526.484375 L 761.09375 526.859375 C 760.664062 526.914062 760.398438 527.125 760.238281 527.554688 L 747.734375 560.820312 C 747.519531 561.355469 747.789062 561.78125 748.375 561.726562 Z M 705.304688 525.683594 L 710.703125 525.363281 C 711.183594 525.308594 711.398438 525.039062 711.503906 524.613281 L 712.519531 519.320312 C 712.574219 518.996094 712.625 518.675781 712.625 518.355469 L 713.054688 504.878906 C 713.054688 504.078125 714.015625 503.96875 714.121094 504.773438 L 716.953125 524.183594 C 717.007812 524.71875 717.328125 524.933594 717.808594 524.878906 L 723.472656 524.507812 C 723.953125 524.453125 724.222656 524.183594 724.328125 523.757812 L 731.007812 490.867188 C 731.113281 490.332031 730.792969 489.957031 730.261719 490.011719 L 724.917969 490.386719 C 724.433594 490.441406 724.222656 490.707031 724.113281 491.136719 L 722.726562 498.460938 C 722.671875 498.78125 722.617188 499.101562 722.617188 499.425781 L 722.246094 514.664062 C 722.246094 515.46875 721.230469 515.574219 721.121094 514.878906 L 717.648438 491.617188 C 717.59375 491.136719 717.273438 490.867188 716.792969 490.921875 L 712.089844 491.1875 C 711.609375 491.242188 711.34375 491.507812 711.238281 491.9375 L 704.558594 524.828125 C 704.449219 525.363281 704.769531 525.734375 705.304688 525.683594 Z M 733.785156 562.742188 L 739.449219 562.371094 C 739.878906 562.316406 740.144531 562.101562 740.304688 561.675781 L 751.046875 533.167969 L 754.949219 532.902344 C 755.375 532.847656 755.640625 532.636719 755.804688 532.207031 L 757.300781 528.089844 C 757.511719 527.554688 757.246094 527.125 756.65625 527.179688 L 741.375 528.195312 C 740.949219 528.25 740.679688 528.464844 740.519531 528.890625 L 739.023438 533.007812 C 738.808594 533.542969 739.128906 533.972656 739.71875 533.917969 L 743.671875 533.652344 L 733.144531 561.835938 C 732.933594 562.371094 733.199219 562.796875 733.785156 562.742188 Z M 722.992188 563.4375 L 728.550781 563.066406 C 729.03125 563.011719 729.296875 562.742188 729.40625 562.316406 L 736.085938 529.425781 C 736.191406 528.890625 735.871094 528.515625 735.335938 528.570312 L 729.777344 528.945312 C 729.296875 529 729.03125 529.265625 728.925781 529.695312 L 722.246094 562.582031 C 722.136719 563.117188 722.457031 563.492188 722.992188 563.4375 Z M 691.519531 515.84375 L 698.25 502.3125 C 698.679688 501.457031 699.800781 501.722656 699.535156 502.6875 L 695.632812 515.523438 Z M 678.320312 527.449219 L 684.089844 527.074219 C 684.519531 527.019531 684.785156 526.859375 685 526.484375 L 688.097656 521.726562 L 693.871094 521.242188 C 693.816406 521.40625 693.816406 521.566406 693.761719 521.726562 L 692.960938 525.628906 C 692.855469 526.164062 693.175781 526.539062 693.710938 526.484375 L 698.890625 526.109375 C 699.320312 526.058594 699.640625 525.789062 699.746094 525.363281 L 706.425781 492.523438 C 706.535156 491.992188 706.214844 491.617188 705.679688 491.667969 L 699.960938 491.992188 C 699.535156 491.992188 699.265625 492.257812 699.054688 492.578125 L 677.730469 526.539062 C 677.410156 527.074219 677.679688 527.5 678.320312 527.449219 Z M 709.6875 564.777344 C 715.351562 565.097656 719.574219 560.175781 721.550781 551.03125 C 721.761719 550.015625 721.441406 549.375 720.589844 549.589844 L 715.671875 550.710938 C 715.246094 550.816406 715.03125 551.085938 714.921875 551.566406 C 713.910156 556.433594 712.25 558.894531 710.648438 558.785156 C 708.726562 558.679688 708.03125 554.882812 710.007812 546.539062 C 711.769531 539.050781 714.015625 535.09375 715.992188 535.414062 C 717.328125 535.628906 717.59375 537.984375 716.6875 542.742188 C 716.582031 543.382812 716.902344 543.707031 717.433594 543.597656 L 722.617188 542.527344 C 723.046875 542.421875 723.3125 542.15625 723.421875 541.726562 C 724.222656 537.664062 723.6875 529.371094 716.152344 529.371094 C 710.273438 529.371094 705.570312 534.667969 703.113281 545.257812 C 700.335938 557.183594 703.007812 564.402344 709.6875 564.777344 Z M 658.386719 528.785156 L 663.730469 528.410156 C 664.160156 528.355469 664.480469 528.089844 664.585938 527.660156 L 666.992188 515.894531 L 672.066406 514.71875 L 669.554688 527.125 C 669.449219 527.660156 669.769531 528.035156 670.304688 527.980469 L 675.648438 527.609375 C 676.074219 527.554688 676.394531 527.285156 676.503906 526.859375 L 683.183594 494.023438 C 683.289062 493.488281 682.96875 493.113281 682.433594 493.167969 L 677.089844 493.488281 C 676.609375 493.542969 676.34375 493.808594 676.234375 494.238281 L 673.351562 508.460938 L 668.273438 509.585938 L 671.265625 494.769531 C 671.371094 494.238281 671.050781 493.863281 670.515625 493.914062 L 665.171875 494.289062 C 664.746094 494.34375 664.425781 494.609375 664.320312 495.039062 L 657.640625 527.929688 C 657.53125 528.464844 657.851562 528.839844 658.386719 528.785156 Z M 644.972656 530.015625 C 650.640625 530.335938 654.859375 525.414062 656.890625 515.949219 C 657.050781 515.253906 656.730469 514.613281 655.929688 514.773438 L 650.960938 515.949219 C 650.53125 516.054688 650.316406 516.324219 650.265625 516.484375 C 649.195312 521.671875 647.539062 524.132812 645.9375 524.023438 C 644.011719 523.917969 643.316406 520.121094 645.296875 511.777344 C 647.058594 504.289062 649.304688 500.332031 651.28125 500.652344 C 652.617188 500.867188 652.882812 503.222656 651.976562 507.980469 C 651.867188 508.621094 652.1875 508.945312 652.777344 508.835938 L 657.90625 507.765625 C 658.332031 507.660156 658.601562 507.394531 658.707031 506.964844 C 659.507812 502.898438 658.976562 494.609375 651.441406 494.609375 C 645.5625 494.609375 640.859375 499.90625 638.402344 510.496094 C 635.625 522.421875 638.296875 529.640625 644.972656 530.015625 Z M 762.644531 521.992188 L 768.414062 521.617188 C 768.839844 521.566406 769.109375 521.351562 769.269531 520.921875 L 771.566406 514.558594 C 771.726562 514.183594 771.78125 514.023438 771.832031 513.757812 L 773.863281 501.457031 C 774.023438 500.492188 775.09375 500.492188 775.09375 501.457031 L 775.039062 520.386719 C 775.039062 520.921875 775.308594 521.191406 775.839844 521.136719 L 781.238281 520.816406 C 781.667969 520.816406 781.988281 520.546875 782.148438 520.175781 L 795.453125 486.75 C 795.667969 486.214844 795.347656 485.785156 794.757812 485.839844 L 789.09375 486.269531 C 788.667969 486.320312 788.347656 486.535156 788.1875 486.910156 L 784.125 497.230469 C 783.910156 497.765625 783.75 498.195312 783.644531 498.835938 L 781.558594 509.476562 C 781.398438 510.28125 780.382812 510.226562 780.382812 509.425781 L 780.597656 487.660156 C 780.597656 487.125 780.332031 486.804688 779.796875 486.855469 L 775.09375 487.125 C 774.667969 487.125 774.398438 487.390625 774.238281 487.820312 L 762 521.082031 C 761.789062 521.617188 762.054688 522.046875 762.644531 521.992188 Z M 762.644531 521.992188 " fill-opacity="1" fill-rule="nonzero"/></g><g fill="#000000" fill-opacity="1"><g transform="translate(70.359037, 256.869837)"><g><path d="M -0.46875 0 C -1.882812 0 -2.394531 -0.707031 -2 -2.125 L 18.40625 -81.09375 C 18.644531 -82.113281 19.273438 -82.625 20.296875 -82.625 L 35.0625 -82.625 C 40.800781 -82.625 45.421875 -81.441406 48.921875 -79.078125 C 52.421875 -76.722656 54.820312 -73.632812 56.125 -69.8125 C 57.425781 -66 57.5625 -61.890625 56.53125 -57.484375 C 55.90625 -54.722656 54.960938 -51.984375 53.703125 -49.265625 C 52.441406 -46.554688 50.691406 -44.195312 48.453125 -42.1875 C 46.210938 -40.1875 43.359375 -38.789062 39.890625 -38 C 39.492188 -37.925781 39.097656 -37.867188 38.703125 -37.828125 C 38.316406 -37.785156 37.847656 -37.84375 37.296875 -38 L 33.40625 -39.0625 C 32.539062 -39.382812 31.929688 -39.207031 31.578125 -38.53125 C 31.222656 -37.863281 31.4375 -37.296875 32.21875 -36.828125 L 37.890625 -33.40625 C 38.597656 -32.925781 39.03125 -32.253906 39.1875 -31.390625 L 43.671875 -2 C 43.828125 -1.289062 43.707031 -0.78125 43.3125 -0.46875 C 42.925781 -0.15625 42.457031 0 41.90625 0 L 29.515625 0 C 28.328125 0 27.695312 -0.550781 27.625 -1.65625 L 23.015625 -35.0625 C 22.929688 -36.082031 22.492188 -36.570312 21.703125 -36.53125 C 20.921875 -36.488281 20.492188 -35.914062 20.421875 -34.8125 L 19.46875 -21.484375 C 19.46875 -21.085938 19.367188 -20.296875 19.171875 -19.109375 C 18.984375 -17.929688 18.8125 -17.148438 18.65625 -16.765625 L 14.640625 -1.53125 C 14.398438 -0.507812 13.769531 0 12.75 0 Z M 26.5625 -48.28125 L 30.921875 -48.28125 C 33.753906 -48.28125 36.015625 -49.125 37.703125 -50.8125 C 39.398438 -52.5 40.601562 -54.878906 41.3125 -57.953125 C 42.175781 -61.734375 42 -64.523438 40.78125 -66.328125 C 39.5625 -68.140625 37.65625 -69.046875 35.0625 -69.046875 L 31.875 -69.046875 Z M 26.5625 -48.28125 "/></g></g></g><g fill="#000000" fill-opacity="1"><g transform="translate(122.526913, 256.869837)"><g><path d="M -6.609375 0 C -7.316406 0 -7.75 -0.234375 -7.90625 -0.703125 C -8.0625 -1.179688 -7.941406 -1.734375 -7.546875 -2.359375 L 47.921875 -81.5625 C 48.390625 -82.269531 49.132812 -82.625 50.15625 -82.625 L 64.09375 -82.625 C 65.507812 -82.625 66.019531 -81.953125 65.625 -80.609375 L 45.203125 -1.53125 C 44.972656 -0.507812 44.34375 0 43.3125 0 L 29.625 0 C 29.070312 0 28.617188 -0.175781 28.265625 -0.53125 C 27.910156 -0.882812 27.851562 -1.375 28.09375 -2 L 32.453125 -14.640625 L 19.125 -14.640625 L 10.5 -1.0625 C 10.113281 -0.351562 9.40625 0 8.375 0 Z M 27.390625 -28.203125 L 37.421875 -28.203125 L 47.21875 -55.234375 C 47.601562 -56.253906 47.382812 -56.921875 46.5625 -57.234375 C 45.738281 -57.554688 45.085938 -57.285156 44.609375 -56.421875 Z M 27.390625 -28.203125 "/></g></g></g><g fill="#000000" fill-opacity="1"><g transform="translate(180.24206, 256.869837)"><g><path d="M -0.46875 0 C -1.882812 0 -2.394531 -0.664062 -2 -2 L 18.40625 -81.09375 C 18.644531 -82.113281 19.273438 -82.625 20.296875 -82.625 L 30.09375 -82.625 C 38.195312 -82.625 44.453125 -80.789062 48.859375 -77.125 C 53.265625 -73.46875 55.957031 -68.253906 56.9375 -61.484375 C 57.925781 -54.722656 57.28125 -46.738281 55 -37.53125 C 51.9375 -24.863281 47.316406 -15.441406 41.140625 -9.265625 C 34.960938 -3.085938 27.898438 0 19.953125 0 Z M 18.171875 -14.15625 L 20.421875 -14.15625 C 22.546875 -14.15625 24.671875 -14.863281 26.796875 -16.28125 C 28.921875 -17.695312 30.960938 -20.195312 32.921875 -23.78125 C 34.890625 -27.363281 36.742188 -32.457031 38.484375 -39.0625 C 43.671875 -58.65625 42.09375 -68.453125 33.75 -68.453125 L 32.21875 -68.453125 Z M 18.171875 -14.15625 "/></g></g></g><g fill="#000000" fill-opacity="1"><g transform="translate(236.304841, 256.869837)"><g><path d="M 4.84375 0 C 3.65625 0 3.144531 -0.664062 3.3125 -2 L 13.09375 -81.09375 C 13.257812 -82.113281 13.890625 -82.625 14.984375 -82.625 L 27.265625 -82.625 C 28.523438 -82.625 29.035156 -81.953125 28.796875 -80.609375 L 19 -34.234375 C 18.769531 -33.203125 19.066406 -32.644531 19.890625 -32.5625 C 20.710938 -32.488281 21.28125 -32.847656 21.59375 -33.640625 L 39.546875 -81.09375 C 39.929688 -82.113281 40.554688 -82.625 41.421875 -82.625 L 54.890625 -82.625 C 56.222656 -82.625 56.769531 -81.953125 56.53125 -80.609375 L 50.28125 -34.234375 C 50.195312 -33.203125 50.550781 -32.644531 51.34375 -32.5625 C 52.132812 -32.488281 52.644531 -32.847656 52.875 -33.640625 L 67.046875 -81.09375 C 67.273438 -82.113281 67.90625 -82.625 68.9375 -82.625 L 82.03125 -82.625 C 82.65625 -82.625 83.125 -82.445312 83.4375 -82.09375 C 83.757812 -81.738281 83.800781 -81.242188 83.5625 -80.609375 L 51.9375 -1.53125 C 51.539062 -0.507812 50.910156 0 50.046875 0 L 37.296875 0 C 36.117188 0 35.609375 -0.664062 35.765625 -2 L 41.90625 -50.40625 C 42.0625 -51.582031 41.765625 -52.1875 41.015625 -52.21875 C 40.265625 -52.257812 39.691406 -51.769531 39.296875 -50.75 L 19.46875 -1.53125 C 19.082031 -0.507812 18.457031 0 17.59375 0 Z M 4.84375 0 "/></g></g></g><g fill="#000000" fill-opacity="1"><g transform="translate(307.475063, 256.869837)"><g><path d="M 0.125 0 C -1.613281 0 -2.285156 -0.863281 -1.890625 -2.59375 L 18.296875 -81.09375 C 18.535156 -82.113281 19.164062 -82.625 20.1875 -82.625 L 54.40625 -82.625 C 55.820312 -82.625 56.335938 -81.953125 55.953125 -80.609375 L 53.109375 -69.75 C 52.878906 -68.726562 52.25 -68.21875 51.21875 -68.21875 L 32.34375 -68.21875 L 27.390625 -49.34375 L 41.671875 -49.34375 C 43.085938 -49.34375 43.597656 -48.671875 43.203125 -47.328125 L 40.609375 -37.421875 C 40.367188 -36.390625 39.738281 -35.875 38.71875 -35.875 L 23.953125 -35.875 L 18.40625 -14.40625 L 36.828125 -14.40625 C 38.242188 -14.40625 38.753906 -13.734375 38.359375 -12.390625 L 35.53125 -1.53125 C 35.289062 -0.507812 34.660156 0 33.640625 0 Z M 0.125 0 "/></g></g></g><g fill="#000000" fill-opacity="1"><g transform="translate(351.853179, 256.869837)"><g><path d="M 20.78125 0.9375 C 12.59375 -0.15625 7.394531 -4.953125 5.1875 -13.453125 C 2.988281 -21.953125 3.816406 -33.363281 7.671875 -47.6875 C 11.128906 -59.175781 15.613281 -68.101562 21.125 -74.46875 C 26.632812 -80.84375 32.96875 -83.914062 40.125 -83.6875 C 44.613281 -83.601562 48.375 -82.421875 51.40625 -80.140625 C 54.4375 -77.859375 56.660156 -74.828125 58.078125 -71.046875 C 59.492188 -67.273438 59.925781 -63.066406 59.375 -58.421875 C 59.289062 -57.398438 58.617188 -56.769531 57.359375 -56.53125 L 45.4375 -54.40625 C 43.789062 -54.175781 43.160156 -54.847656 43.546875 -56.421875 C 43.941406 -60.273438 43.820312 -63.320312 43.1875 -65.5625 C 42.5625 -67.8125 41.347656 -69.015625 39.546875 -69.171875 C 37.179688 -69.328125 34.519531 -67.257812 31.5625 -62.96875 C 28.613281 -58.675781 25.960938 -52.363281 23.609375 -44.03125 C 20.847656 -34.425781 19.601562 -26.988281 19.875 -21.71875 C 20.15625 -16.445312 21.597656 -13.691406 24.203125 -13.453125 C 26.085938 -13.378906 27.929688 -14.363281 29.734375 -16.40625 C 31.546875 -18.445312 33.203125 -22.109375 34.703125 -27.390625 C 34.859375 -27.929688 35.035156 -28.320312 35.234375 -28.5625 C 35.429688 -28.800781 35.609375 -29 35.765625 -29.15625 L 43.671875 -35.640625 C 44.296875 -36.117188 44.429688 -36.671875 44.078125 -37.296875 C 43.722656 -37.921875 43.234375 -38.039062 42.609375 -37.65625 L 35.296875 -34 C 35.054688 -33.914062 34.78125 -33.796875 34.46875 -33.640625 C 34.15625 -33.484375 33.878906 -33.363281 33.640625 -33.28125 L 30.09375 -32.6875 C 28.601562 -32.457031 28.015625 -33.085938 28.328125 -34.578125 L 30.21875 -44.96875 C 30.375 -45.519531 30.609375 -45.988281 30.921875 -46.375 C 31.234375 -46.769531 31.664062 -47.007812 32.21875 -47.09375 L 56.53125 -50.875 C 58.03125 -51.101562 58.625 -50.472656 58.3125 -48.984375 C 57.675781 -45.753906 57.039062 -43.035156 56.40625 -40.828125 C 55.78125 -38.628906 55.15625 -36.546875 54.53125 -34.578125 C 51.144531 -22.703125 46.5625 -13.59375 40.78125 -7.25 C 35 -0.914062 28.332031 1.8125 20.78125 0.9375 Z M 20.78125 0.9375 "/></g></g></g><g fill="#000000" fill-opacity="1"><g transform="translate(408.506109, 256.869837)"><g><path d="M 0.125 0 C -1.613281 0 -2.285156 -0.863281 -1.890625 -2.59375 L 18.296875 -81.09375 C 18.535156 -82.113281 19.164062 -82.625 20.1875 -82.625 L 54.40625 -82.625 C 55.820312 -82.625 56.335938 -81.953125 55.953125 -80.609375 L 53.109375 -69.75 C 52.878906 -68.726562 52.25 -68.21875 51.21875 -68.21875 L 32.34375 -68.21875 L 27.390625 -49.34375 L 41.671875 -49.34375 C 43.085938 -49.34375 43.597656 -48.671875 43.203125 -47.328125 L 40.609375 -37.421875 C 40.367188 -36.390625 39.738281 -35.875 38.71875 -35.875 L 23.953125 -35.875 L 18.40625 -14.40625 L 36.828125 -14.40625 C 38.242188 -14.40625 38.753906 -13.734375 38.359375 -12.390625 L 35.53125 -1.53125 C 35.289062 -0.507812 34.660156 0 33.640625 0 Z M 0.125 0 "/></g></g></g><g fill="#000000" fill-opacity="1"><g transform="translate(452.884225, 256.869837)"><g><path d="M 19.46875 0.9375 C 15.539062 0.550781 12.0625 -0.914062 9.03125 -3.46875 C 6 -6.03125 3.710938 -9.554688 2.171875 -14.046875 C 0.640625 -18.535156 0.148438 -23.726562 0.703125 -29.625 C 0.785156 -30.644531 1.378906 -31.234375 2.484375 -31.390625 L 14.046875 -33.28125 C 15.378906 -33.519531 15.96875 -32.929688 15.8125 -31.515625 C 15.257812 -26.003906 15.550781 -21.753906 16.6875 -18.765625 C 17.832031 -15.773438 19.351562 -14.125 21.25 -13.8125 C 22.582031 -13.65625 23.71875 -14.085938 24.65625 -15.109375 C 25.601562 -16.128906 26.238281 -17.9375 26.5625 -20.53125 C 26.945312 -24.394531 26.3125 -27.703125 24.65625 -30.453125 C 23.007812 -33.203125 21.007812 -36.269531 18.65625 -39.65625 C 17.15625 -41.707031 15.753906 -43.929688 14.453125 -46.328125 C 13.160156 -48.722656 12.195312 -51.414062 11.5625 -54.40625 C 10.9375 -57.394531 10.9375 -60.703125 11.5625 -64.328125 C 12.507812 -69.441406 14.144531 -73.414062 16.46875 -76.25 C 18.789062 -79.082031 21.460938 -81.046875 24.484375 -82.140625 C 27.515625 -83.242188 30.566406 -83.71875 33.640625 -83.5625 C 37.179688 -83.40625 40.191406 -82.476562 42.671875 -80.78125 C 45.148438 -79.09375 47.113281 -76.910156 48.5625 -74.234375 C 50.019531 -71.566406 51.046875 -68.640625 51.640625 -65.453125 C 52.234375 -62.265625 52.410156 -59.132812 52.171875 -56.0625 C 52.085938 -55.039062 51.5 -54.453125 50.40625 -54.296875 L 40.015625 -52.765625 C 38.753906 -52.523438 38.125 -53.113281 38.125 -54.53125 C 38.28125 -59.175781 37.804688 -62.675781 36.703125 -65.03125 C 35.609375 -67.394531 34.269531 -68.613281 32.6875 -68.6875 C 31.75 -68.851562 30.6875 -68.519531 29.5 -67.6875 C 28.320312 -66.863281 27.578125 -65.425781 27.265625 -63.375 C 26.710938 -60.3125 27.003906 -57.753906 28.140625 -55.703125 C 29.285156 -53.660156 30.84375 -51.300781 32.8125 -48.625 C 34.539062 -46.34375 36.328125 -43.863281 38.171875 -41.1875 C 40.023438 -38.519531 41.484375 -35.507812 42.546875 -32.15625 C 43.609375 -28.8125 43.785156 -24.898438 43.078125 -20.421875 C 42.523438 -16.328125 41.242188 -12.585938 39.234375 -9.203125 C 37.234375 -5.816406 34.582031 -3.179688 31.28125 -1.296875 C 27.976562 0.585938 24.039062 1.332031 19.46875 0.9375 Z M 19.46875 0.9375 "/></g></g></g><g fill="#000000" fill-opacity="1"><g transform="translate(500.803157, 256.869837)"><g><path d="M 7.546875 0 C 6.128906 0 5.617188 -0.664062 6.015625 -2 L 23.375 -69.046875 L 11.921875 -69.046875 C 10.503906 -69.046875 9.992188 -69.71875 10.390625 -71.0625 L 12.984375 -81.09375 C 13.222656 -82.113281 13.851562 -82.625 14.875 -82.625 L 55.234375 -82.625 C 56.648438 -82.625 57.160156 -81.953125 56.765625 -80.609375 L 54.171875 -70.578125 C 53.941406 -69.554688 53.3125 -69.046875 52.28125 -69.046875 L 40.359375 -69.046875 L 22.890625 -1.53125 C 22.660156 -0.507812 22.035156 0 21.015625 0 Z M 7.546875 0 "/></g></g></g><g fill="#000000" fill-opacity="1"><g transform="translate(544.827171, 256.869837)"><g><path d="M 22.078125 0.9375 C 15.859375 0.550781 11.234375 -1.644531 8.203125 -5.65625 C 5.171875 -9.675781 3.613281 -15.207031 3.53125 -22.25 C 3.457031 -29.289062 4.796875 -37.570312 7.546875 -47.09375 C 11.242188 -59.757812 15.804688 -69.125 21.234375 -75.1875 C 26.671875 -81.25 33.242188 -84.039062 40.953125 -83.5625 C 47.085938 -83.25 51.671875 -81.085938 54.703125 -77.078125 C 57.734375 -73.066406 59.285156 -67.519531 59.359375 -60.4375 C 59.441406 -53.351562 58.109375 -45.050781 55.359375 -35.53125 C 48.035156 -10.269531 36.941406 1.882812 22.078125 0.9375 Z M 23.484375 -13.453125 C 26.242188 -12.898438 28.84375 -14.882812 31.28125 -19.40625 C 33.71875 -23.9375 36.273438 -30.648438 38.953125 -39.546875 C 41.859375 -49.535156 43.234375 -56.847656 43.078125 -61.484375 C 42.921875 -66.128906 41.703125 -68.691406 39.421875 -69.171875 C 36.742188 -69.722656 34.164062 -67.734375 31.6875 -63.203125 C 29.207031 -58.679688 26.628906 -51.972656 23.953125 -43.078125 C 21.046875 -33.085938 19.671875 -25.769531 19.828125 -21.125 C 19.984375 -16.476562 21.203125 -13.921875 23.484375 -13.453125 Z M 23.484375 -13.453125 "/></g></g></g><g fill="#000000" fill-opacity="1"><g transform="translate(601.834127, 256.869837)"><g><path d="M -0.46875 0 C -1.882812 0 -2.394531 -0.664062 -2 -2 L 18.40625 -81.09375 C 18.644531 -82.113281 19.273438 -82.625 20.296875 -82.625 L 34.109375 -82.625 C 40.015625 -82.625 44.875 -81.398438 48.6875 -78.953125 C 52.5 -76.515625 55.070312 -73.070312 56.40625 -68.625 C 57.75 -64.1875 57.710938 -58.9375 56.296875 -52.875 C 55.117188 -47.914062 53.210938 -43.609375 50.578125 -39.953125 C 47.941406 -36.296875 44.773438 -33.441406 41.078125 -31.390625 C 37.378906 -29.347656 33.363281 -28.328125 29.03125 -28.328125 L 21.828125 -28.328125 L 14.875 -1.53125 C 14.632812 -0.507812 14.003906 0 12.984375 0 Z M 25.5 -42.734375 L 30.6875 -42.734375 C 33.125 -42.734375 35.25 -43.832031 37.0625 -46.03125 C 38.875 -48.238281 40.25 -51.347656 41.1875 -55.359375 C 42.132812 -59.453125 42.175781 -62.617188 41.3125 -64.859375 C 40.445312 -67.097656 38.753906 -68.21875 36.234375 -68.21875 L 32.109375 -68.21875 Z M 25.5 -42.734375 "/></g></g></g><g fill="#000000" fill-opacity="1"><g transform="translate(653.411892, 256.869837)"><g><path d="M -0.46875 0 C -1.882812 0 -2.394531 -0.664062 -2 -2 L 18.40625 -81.09375 C 18.644531 -82.113281 19.273438 -82.625 20.296875 -82.625 L 34.109375 -82.625 C 40.015625 -82.625 44.875 -81.398438 48.6875 -78.953125 C 52.5 -76.515625 55.070312 -73.070312 56.40625 -68.625 C 57.75 -64.1875 57.710938 -58.9375 56.296875 -52.875 C 55.117188 -47.914062 53.210938 -43.609375 50.578125 -39.953125 C 47.941406 -36.296875 44.773438 -33.441406 41.078125 -31.390625 C 37.378906 -29.347656 33.363281 -28.328125 29.03125 -28.328125 L 21.828125 -28.328125 L 14.875 -1.53125 C 14.632812 -0.507812 14.003906 0 12.984375 0 Z M 25.5 -42.734375 L 30.6875 -42.734375 C 33.125 -42.734375 35.25 -43.832031 37.0625 -46.03125 C 38.875 -48.238281 40.25 -51.347656 41.1875 -55.359375 C 42.132812 -59.453125 42.175781 -62.617188 41.3125 -64.859375 C 40.445312 -67.097656 38.753906 -68.21875 36.234375 -68.21875 L 32.109375 -68.21875 Z M 25.5 -42.734375 "/></g></g></g><g fill="#000000" fill-opacity="1"><g transform="translate(704.989658, 256.869837)"><g><path d="M 12.390625 -25.265625 C 10.972656 -25.265625 10.460938 -25.929688 10.859375 -27.265625 L 13.8125 -38.59375 C 14.125 -39.769531 14.753906 -40.675781 15.703125 -41.3125 C 18.210938 -43.039062 20.742188 -44.769531 23.296875 -46.5 C 25.859375 -48.226562 28.363281 -50.117188 30.8125 -52.171875 C 33.09375 -54.210938 34.664062 -56.15625 35.53125 -58 C 36.394531 -59.851562 36.828125 -61.609375 36.828125 -63.265625 C 36.828125 -64.835938 36.410156 -66.234375 35.578125 -67.453125 C 34.753906 -68.671875 33.554688 -69.320312 31.984375 -69.40625 C 30.335938 -69.476562 28.722656 -68.765625 27.140625 -67.265625 C 25.566406 -65.773438 24.585938 -63.144531 24.203125 -59.375 C 24.117188 -58.425781 23.523438 -57.832031 22.421875 -57.59375 L 10.03125 -55.234375 C 8.613281 -54.921875 7.984375 -55.515625 8.140625 -57.015625 C 8.847656 -63.617188 10.441406 -68.90625 12.921875 -72.875 C 15.398438 -76.851562 18.429688 -79.726562 22.015625 -81.5 C 25.597656 -83.269531 29.273438 -84.078125 33.046875 -83.921875 C 36.984375 -83.765625 40.328125 -82.738281 43.078125 -80.84375 C 45.835938 -78.957031 47.941406 -76.519531 49.390625 -73.53125 C 50.847656 -70.539062 51.578125 -67.316406 51.578125 -63.859375 C 51.578125 -60.234375 50.710938 -56.53125 48.984375 -52.75 C 47.253906 -48.976562 44.460938 -45.519531 40.609375 -42.375 C 39.109375 -41.113281 37.507812 -39.972656 35.8125 -38.953125 C 34.125 -37.929688 32.492188 -36.867188 30.921875 -35.765625 C 30.210938 -35.367188 29.742188 -34.738281 29.515625 -33.875 L 27.734375 -26.796875 C 27.503906 -25.773438 26.875 -25.265625 25.84375 -25.265625 Z M 5.1875 0 C 3.769531 0 3.257812 -0.664062 3.65625 -2 L 7.4375 -16.640625 C 7.675781 -17.660156 8.304688 -18.171875 9.328125 -18.171875 L 24.078125 -18.171875 C 25.492188 -18.171875 26.003906 -17.503906 25.609375 -16.171875 L 21.828125 -1.53125 C 21.597656 -0.507812 20.972656 0 19.953125 0 Z M 5.1875 0 "/></g></g></g><g fill="#000000" fill-opacity="1"><g transform="translate(750.195736, 256.869837)"><g/></g></g><g fill="#000000" fill-opacity="1"><g transform="translate(329.782238, 365.224778)"><g><path d="M 4.84375 0 C 3.65625 0 3.144531 -0.664062 3.3125 -2 L 13.09375 -81.09375 C 13.257812 -82.113281 13.890625 -82.625 14.984375 -82.625 L 27.265625 -82.625 C 28.523438 -82.625 29.035156 -81.953125 28.796875 -80.609375 L 19 -34.234375 C 18.769531 -33.203125 19.066406 -32.644531 19.890625 -32.5625 C 20.710938 -32.488281 21.28125 -32.847656 21.59375 -33.640625 L 39.546875 -81.09375 C 39.929688 -82.113281 40.554688 -82.625 41.421875 -82.625 L 54.890625 -82.625 C 56.222656 -82.625 56.769531 -81.953125 56.53125 -80.609375 L 50.28125 -34.234375 C 50.195312 -33.203125 50.550781 -32.644531 51.34375 -32.5625 C 52.132812 -32.488281 52.644531 -32.847656 52.875 -33.640625 L 67.046875 -81.09375 C 67.273438 -82.113281 67.90625 -82.625 68.9375 -82.625 L 82.03125 -82.625 C 82.65625 -82.625 83.125 -82.445312 83.4375 -82.09375 C 83.757812 -81.738281 83.800781 -81.242188 83.5625 -80.609375 L 51.9375 -1.53125 C 51.539062 -0.507812 50.910156 0 50.046875 0 L 37.296875 0 C 36.117188 0 35.609375 -0.664062 35.765625 -2 L 41.90625 -50.40625 C 42.0625 -51.582031 41.765625 -52.1875 41.015625 -52.21875 C 40.265625 -52.257812 39.691406 -51.769531 39.296875 -50.75 L 19.46875 -1.53125 C 19.082031 -0.507812 18.457031 0 17.59375 0 Z M 4.84375 0 "/></g></g></g><g fill="#000000" fill-opacity="1"><g transform="translate(400.952452, 365.224778)"><g><path d="M 7.546875 0 C 6.128906 0 5.617188 -0.664062 6.015625 -2 L 23.375 -69.046875 L 11.921875 -69.046875 C 10.503906 -69.046875 9.992188 -69.71875 10.390625 -71.0625 L 12.984375 -81.09375 C 13.222656 -82.113281 13.851562 -82.625 14.875 -82.625 L 55.234375 -82.625 C 56.648438 -82.625 57.160156 -81.953125 56.765625 -80.609375 L 54.171875 -70.578125 C 53.941406 -69.554688 53.3125 -69.046875 52.28125 -69.046875 L 40.359375 -69.046875 L 22.890625 -1.53125 C 22.660156 -0.507812 22.035156 0 21.015625 0 Z M 7.546875 0 "/></g></g></g><g fill="#000000" fill-opacity="1"><g transform="translate(444.976485, 365.224778)"><g><path d="M -0.46875 0 C -1.882812 0 -2.394531 -0.664062 -2 -2 L 18.40625 -81.09375 C 18.644531 -82.113281 19.273438 -82.625 20.296875 -82.625 L 54.171875 -82.625 C 55.585938 -82.625 56.097656 -81.953125 55.703125 -80.609375 L 52.875 -69.75 C 52.644531 -68.726562 52.015625 -68.21875 50.984375 -68.21875 L 32.34375 -68.21875 L 27.03125 -47.453125 L 41.671875 -47.453125 C 43.085938 -47.453125 43.597656 -46.78125 43.203125 -45.4375 L 40.359375 -34.8125 C 40.128906 -33.789062 39.503906 -33.28125 38.484375 -33.28125 L 23.375 -33.28125 L 15.109375 -1.53125 C 14.867188 -0.507812 14.238281 0 13.21875 0 Z M -0.46875 0 "/></g></g></g><g fill="#000000" fill-opacity="1"><g transform="translate(488.174342, 365.224778)"><g><path d="M -2.59375 0 C -4.007812 0 -4.519531 -0.664062 -4.125 -2 L -0.359375 -16.640625 C -0.117188 -17.660156 0.507812 -18.171875 1.53125 -18.171875 L 16.28125 -18.171875 C 17.695312 -18.171875 18.210938 -17.503906 17.828125 -16.171875 L 14.046875 -1.53125 C 13.804688 -0.507812 13.175781 0 12.15625 0 Z M -2.59375 0 "/></g></g></g></svg>