<svg xmlns="http://www.w3.org/2000/svg" xmlns:xlink="http://www.w3.org/1999/xlink" width="1122" zoomAndPan="magnify" viewBox="0 0 841.92 595.499987" height="793" preserveAspectRatio="xMidYMid meet" version="1.0"><defs><g/><clipPath id="231e17f783"><path d="M 0.3125 0 L 841.527344 0 L 841.527344 595 L 0.3125 595 Z M 0.3125 0 " clip-rule="nonzero"/></clipPath><clipPath id="f089a5b201"><path d="M 655.695312 492.90625 L 815.3125 492.90625 L 815.3125 564.84375 L 655.695312 564.84375 Z M 655.695312 492.90625 " clip-rule="nonzero"/></clipPath></defs><g clip-path="url(#231e17f783)"><path fill="#ffffff" d="M 0.3125 0 L 841.855469 0 L 841.855469 595 L 0.3125 595 Z M 0.3125 0 " fill-opacity="1" fill-rule="nonzero"/><path fill="#ffffff" d="M 0.3125 0 L 841.855469 0 L 841.855469 595 L 0.3125 595 Z M 0.3125 0 " fill-opacity="1" fill-rule="nonzero"/></g><g clip-path="url(#f089a5b201)"><path fill="#000000" d="M 802.152344 524.625 C 807.816406 525.007812 811.898438 519.777344 814.0625 510.804688 C 814.398438 509.367188 814.78125 507.832031 815.164062 505.480469 C 815.261719 504.902344 814.972656 504.664062 814.445312 504.757812 L 805.367188 506.726562 C 804.984375 506.824219 804.746094 507.109375 804.695312 507.496094 L 804.167969 511.382812 C 804.074219 511.957031 804.359375 512.195312 804.890625 512.050781 L 805.992188 511.714844 C 806.183594 511.667969 806.328125 511.621094 806.523438 511.523438 L 809.402344 509.941406 C 810.21875 509.507812 810.699219 510.515625 810.074219 511.046875 L 807.289062 513.253906 C 807.050781 513.445312 806.953125 513.636719 806.859375 513.972656 C 805.945312 517.667969 804.601562 519.25 803.160156 519.203125 C 801.238281 519.152344 800.664062 515.171875 802.34375 507.925781 C 803.785156 501.6875 806.042969 498.234375 807.769531 498.328125 C 809.019531 498.378906 809.546875 500.394531 809.402344 503.273438 C 809.355469 503.800781 809.644531 504.085938 810.171875 503.945312 L 814.589844 502.9375 C 814.972656 502.839844 815.214844 502.601562 815.261719 502.167969 C 815.644531 496.746094 812.621094 492.8125 807.722656 492.90625 C 802.390625 493.003906 798.453125 498.234375 796.390625 506.917969 C 793.988281 517.617188 796.050781 524.191406 802.152344 524.625 Z M 763.683594 502.167969 L 770.457031 501.738281 C 770.839844 501.6875 771.128906 501.449219 771.222656 501.066406 L 772.519531 494.921875 C 772.617188 494.394531 772.328125 494.109375 771.800781 494.25 L 764.691406 496.121094 C 764.308594 496.21875 764.117188 496.410156 764.019531 496.84375 L 763.0625 501.402344 C 762.964844 501.878906 763.203125 502.214844 763.683594 502.167969 Z M 793.125 560.035156 C 798.164062 560.179688 801 556.242188 801.429688 551.636719 C 801.910156 546.695312 799.078125 543.914062 797.0625 541.417969 C 795.523438 539.5 794.46875 538.347656 794.707031 536.042969 C 794.851562 534.507812 795.910156 533.933594 796.628906 533.980469 C 797.78125 534.027344 799.03125 535.613281 799.03125 539.691406 C 799.03125 540.21875 799.367188 540.457031 799.847656 540.363281 L 803.398438 539.59375 C 803.785156 539.5 804.023438 539.257812 804.074219 538.828125 C 804.265625 533.597656 801.960938 528.511719 796.675781 528.511719 C 793.316406 528.511719 789.617188 530.382812 788.898438 536.042969 C 788.417969 540.074219 790.242188 542.855469 791.96875 545.015625 C 793.890625 547.414062 795.429688 549.09375 795.285156 551.925781 C 795.1875 553.84375 794.417969 554.566406 793.460938 554.515625 C 791.921875 554.421875 790.722656 552.070312 791.152344 547.75 C 791.203125 547.175781 790.867188 546.933594 790.386719 547.03125 L 786.304688 547.894531 C 785.917969 547.992188 785.679688 548.230469 785.632812 548.664062 C 785.199219 555.570312 788.65625 559.890625 793.125 560.035156 Z M 759.554688 526.976562 L 764.550781 526.640625 C 764.933594 526.589844 765.222656 526.351562 765.316406 525.96875 L 769.589844 505 C 769.6875 504.519531 769.398438 504.183594 768.917969 504.230469 L 763.925781 504.519531 C 763.492188 504.566406 763.253906 504.808594 763.15625 505.191406 L 758.882812 526.207031 C 758.785156 526.6875 759.074219 527.023438 759.554688 526.976562 Z M 769.878906 561.089844 L 781.359375 560.371094 C 781.789062 560.324219 782.03125 560.082031 782.125 559.699219 L 782.894531 555.8125 C 782.988281 555.332031 782.703125 554.996094 782.222656 555.042969 L 776.601562 555.429688 L 778.234375 547.464844 L 783.613281 547.128906 C 784.046875 547.078125 784.285156 546.839844 784.382812 546.457031 L 785.152344 542.570312 C 785.246094 542.089844 785.007812 541.753906 784.527344 541.800781 L 779.292969 542.136719 L 780.734375 535.179688 L 786.542969 534.796875 C 786.976562 534.746094 787.214844 534.507812 787.3125 534.125 L 788.082031 530.191406 C 788.175781 529.710938 787.9375 529.375 787.457031 529.421875 L 775.980469 530.191406 C 775.546875 530.238281 775.304688 530.476562 775.210938 530.863281 L 769.207031 560.324219 C 769.113281 560.800781 769.398438 561.136719 769.878906 561.089844 Z M 746.394531 528.175781 C 752.0625 528.558594 756.144531 523.328125 758.304688 514.355469 C 758.640625 512.917969 759.027344 511.382812 759.410156 509.03125 C 759.507812 508.453125 759.21875 508.214844 758.691406 508.308594 L 749.613281 510.230469 C 749.230469 510.324219 748.988281 510.613281 748.941406 510.996094 L 748.414062 514.882812 C 748.316406 515.460938 748.605469 515.699219 749.132812 515.554688 L 750.238281 515.265625 C 750.429688 515.21875 750.574219 515.171875 750.765625 515.074219 L 753.695312 513.492188 C 754.511719 513.058594 754.945312 514.117188 754.320312 514.59375 L 751.582031 516.707031 C 751.292969 516.898438 751.152344 517.1875 751.054688 517.523438 C 750.191406 521.21875 748.84375 522.800781 747.40625 522.753906 C 745.484375 522.703125 744.90625 518.722656 746.589844 511.476562 C 748.027344 505.238281 750.285156 501.785156 752.015625 501.878906 C 753.265625 501.929688 753.792969 503.945312 753.648438 506.824219 C 753.601562 507.351562 753.886719 507.636719 754.417969 507.496094 L 758.835938 506.488281 C 759.21875 506.390625 759.457031 506.152344 759.507812 505.71875 C 759.890625 500.296875 756.867188 496.363281 751.96875 496.457031 C 746.636719 496.554688 742.699219 501.785156 740.632812 510.46875 C 738.234375 521.167969 740.296875 527.742188 746.394531 528.175781 Z M 755.519531 562.097656 L 760.707031 561.761719 C 761.089844 561.714844 761.332031 561.523438 761.476562 561.136719 L 772.714844 531.292969 C 772.90625 530.8125 772.664062 530.429688 772.136719 530.476562 L 766.949219 530.8125 C 766.566406 530.863281 766.324219 531.054688 766.183594 531.4375 L 754.945312 561.28125 C 754.753906 561.761719 754.992188 562.144531 755.519531 562.097656 Z M 716.8125 529.757812 L 721.664062 529.46875 C 722.097656 529.421875 722.289062 529.183594 722.386719 528.796875 L 723.296875 524.046875 C 723.34375 523.761719 723.394531 523.472656 723.394531 523.183594 L 723.777344 511.09375 C 723.777344 510.375 724.640625 510.277344 724.738281 510.996094 L 727.28125 528.414062 C 727.332031 528.894531 727.621094 529.085938 728.050781 529.039062 L 733.140625 528.703125 C 733.574219 528.65625 733.8125 528.414062 733.910156 528.03125 L 739.914062 498.523438 C 740.007812 498.042969 739.722656 497.707031 739.242188 497.753906 L 734.4375 498.089844 C 734.007812 498.136719 733.8125 498.378906 733.71875 498.761719 L 732.46875 505.335938 C 732.421875 505.625 732.375 505.910156 732.375 506.199219 L 732.039062 519.875 C 732.039062 520.59375 731.125 520.6875 731.027344 520.066406 L 727.90625 499.195312 C 727.859375 498.761719 727.570312 498.523438 727.140625 498.570312 L 722.914062 498.808594 C 722.480469 498.859375 722.242188 499.097656 722.144531 499.480469 L 716.140625 528.988281 C 716.046875 529.46875 716.332031 529.804688 716.8125 529.757812 Z M 742.410156 563.007812 L 747.5 562.671875 C 747.886719 562.625 748.125 562.433594 748.269531 562.050781 L 757.921875 536.476562 L 761.429688 536.234375 C 761.8125 536.1875 762.050781 535.996094 762.195312 535.613281 L 763.539062 531.917969 C 763.734375 531.4375 763.492188 531.054688 762.964844 531.101562 L 749.230469 532.011719 C 748.84375 532.0625 748.605469 532.253906 748.460938 532.636719 L 747.117188 536.332031 C 746.925781 536.8125 747.210938 537.195312 747.742188 537.148438 L 751.292969 536.90625 L 741.835938 562.195312 C 741.640625 562.671875 741.882812 563.058594 742.410156 563.007812 Z M 732.710938 563.632812 L 737.703125 563.296875 C 738.136719 563.25 738.375 563.007812 738.472656 562.625 L 744.476562 533.117188 C 744.570312 532.636719 744.285156 532.300781 743.804688 532.347656 L 738.808594 532.683594 C 738.375 532.734375 738.136719 532.972656 738.039062 533.355469 L 732.039062 562.867188 C 731.941406 563.34375 732.230469 563.679688 732.710938 563.632812 Z M 704.425781 520.929688 L 710.476562 508.789062 C 710.859375 508.023438 711.867188 508.261719 711.628906 509.125 L 708.121094 520.640625 Z M 692.5625 531.339844 L 697.75 531.003906 C 698.132812 530.957031 698.375 530.8125 698.566406 530.476562 L 701.351562 526.207031 L 706.539062 525.777344 C 706.488281 525.917969 706.488281 526.0625 706.441406 526.207031 L 705.722656 529.710938 C 705.625 530.191406 705.914062 530.527344 706.394531 530.476562 L 711.050781 530.140625 C 711.433594 530.09375 711.722656 529.855469 711.820312 529.46875 L 717.824219 500.007812 C 717.917969 499.53125 717.628906 499.195312 717.148438 499.242188 L 712.011719 499.53125 C 711.628906 499.53125 711.386719 499.769531 711.195312 500.058594 L 692.035156 530.527344 C 691.746094 531.003906 691.984375 531.390625 692.5625 531.339844 Z M 720.753906 564.832031 C 725.84375 565.121094 729.636719 560.707031 731.414062 552.5 C 731.605469 551.589844 731.316406 551.015625 730.546875 551.207031 L 726.128906 552.214844 C 725.746094 552.308594 725.554688 552.550781 725.457031 552.980469 C 724.546875 557.347656 723.058594 559.554688 721.617188 559.457031 C 719.886719 559.363281 719.261719 555.957031 721.039062 548.472656 C 722.625 541.753906 724.640625 538.203125 726.417969 538.492188 C 727.621094 538.683594 727.859375 540.792969 727.042969 545.0625 C 726.945312 545.640625 727.234375 545.929688 727.714844 545.832031 L 732.375 544.871094 C 732.757812 544.777344 732.996094 544.535156 733.09375 544.152344 C 733.8125 540.503906 733.335938 533.070312 726.5625 533.070312 C 721.28125 533.070312 717.054688 537.820312 714.84375 547.320312 C 712.347656 558.019531 714.75 564.496094 720.753906 564.832031 Z M 674.648438 532.539062 L 679.453125 532.203125 C 679.835938 532.15625 680.125 531.917969 680.21875 531.535156 L 682.382812 520.976562 L 686.945312 519.921875 L 684.6875 531.054688 C 684.589844 531.535156 684.878906 531.867188 685.359375 531.820312 L 690.160156 531.484375 C 690.546875 531.4375 690.832031 531.199219 690.929688 530.8125 L 696.933594 501.351562 C 697.027344 500.871094 696.742188 500.535156 696.261719 500.585938 L 691.457031 500.871094 C 691.027344 500.921875 690.785156 501.160156 690.6875 501.542969 L 688.097656 514.308594 L 683.535156 515.316406 L 686.222656 502.023438 C 686.320312 501.542969 686.03125 501.207031 685.550781 501.257812 L 680.75 501.59375 C 680.363281 501.640625 680.078125 501.878906 679.980469 502.265625 L 673.976562 531.773438 C 673.882812 532.253906 674.167969 532.589844 674.648438 532.539062 Z M 662.597656 533.644531 C 667.6875 533.933594 671.480469 529.519531 673.304688 521.023438 C 673.449219 520.402344 673.160156 519.824219 672.441406 519.96875 L 667.972656 521.023438 C 667.589844 521.121094 667.398438 521.359375 667.351562 521.503906 C 666.390625 526.160156 664.902344 528.367188 663.460938 528.269531 C 661.730469 528.175781 661.105469 524.769531 662.882812 517.28125 C 664.46875 510.566406 666.484375 507.015625 668.261719 507.300781 C 669.464844 507.496094 669.703125 509.605469 668.886719 513.875 C 668.789062 514.453125 669.078125 514.738281 669.605469 514.644531 L 674.21875 513.683594 C 674.601562 513.589844 674.839844 513.347656 674.9375 512.964844 C 675.65625 509.316406 675.179688 501.878906 668.40625 501.878906 C 663.125 501.878906 658.898438 506.628906 656.6875 516.132812 C 654.191406 526.832031 656.59375 533.308594 662.597656 533.644531 Z M 768.34375 526.445312 L 773.53125 526.109375 C 773.914062 526.0625 774.152344 525.871094 774.296875 525.488281 L 776.363281 519.777344 C 776.507812 519.441406 776.554688 519.296875 776.601562 519.058594 L 778.429688 508.023438 C 778.570312 507.160156 779.53125 507.160156 779.53125 508.023438 L 779.484375 525.007812 C 779.484375 525.488281 779.726562 525.726562 780.203125 525.679688 L 785.054688 525.390625 C 785.4375 525.390625 785.726562 525.152344 785.871094 524.816406 L 797.828125 494.828125 C 798.023438 494.347656 797.734375 493.964844 797.207031 494.011719 L 792.113281 494.394531 C 791.730469 494.441406 791.441406 494.636719 791.296875 494.972656 L 787.648438 504.230469 C 787.457031 504.710938 787.3125 505.09375 787.214844 505.671875 L 785.34375 515.21875 C 785.199219 515.9375 784.285156 515.890625 784.285156 515.171875 L 784.480469 495.644531 C 784.480469 495.164062 784.238281 494.875 783.757812 494.921875 L 779.53125 495.164062 C 779.148438 495.164062 778.910156 495.402344 778.765625 495.785156 L 767.765625 525.632812 C 767.574219 526.109375 767.816406 526.496094 768.34375 526.445312 Z M 768.34375 526.445312 " fill-opacity="1" fill-rule="nonzero"/></g><g fill="#000000" fill-opacity="1"><g transform="translate(94.057376, 226.454069)"><g><path d="M -0.5 0 C -2.007812 0 -2.554688 -0.753906 -2.140625 -2.265625 L 19.65625 -86.59375 C 19.914062 -87.6875 20.59375 -88.234375 21.6875 -88.234375 L 37.4375 -88.234375 C 43.570312 -88.234375 48.507812 -86.972656 52.25 -84.453125 C 55.988281 -81.929688 58.550781 -78.628906 59.9375 -74.546875 C 61.320312 -70.472656 61.46875 -66.085938 60.375 -61.390625 C 59.707031 -58.441406 58.695312 -55.519531 57.34375 -52.625 C 56 -49.726562 54.128906 -47.207031 51.734375 -45.0625 C 49.347656 -42.914062 46.304688 -41.425781 42.609375 -40.59375 C 42.179688 -40.507812 41.757812 -40.441406 41.34375 -40.390625 C 40.925781 -40.347656 40.421875 -40.414062 39.828125 -40.59375 L 35.671875 -41.71875 C 34.742188 -42.050781 34.09375 -41.859375 33.71875 -41.140625 C 33.34375 -40.429688 33.570312 -39.828125 34.40625 -39.328125 L 40.46875 -35.671875 C 41.21875 -35.171875 41.675781 -34.457031 41.84375 -33.53125 L 46.640625 -2.140625 C 46.804688 -1.390625 46.675781 -0.84375 46.25 -0.5 C 45.832031 -0.164062 45.332031 0 44.75 0 L 31.515625 0 C 30.253906 0 29.582031 -0.585938 29.5 -1.765625 L 24.578125 -37.4375 C 24.492188 -38.53125 24.03125 -39.054688 23.1875 -39.015625 C 22.351562 -38.972656 21.894531 -38.363281 21.8125 -37.1875 L 20.796875 -22.9375 C 20.796875 -22.519531 20.691406 -21.679688 20.484375 -20.421875 C 20.273438 -19.160156 20.085938 -18.320312 19.921875 -17.90625 L 15.625 -1.640625 C 15.375 -0.546875 14.703125 0 13.609375 0 Z M -17.015625 30.5 C -18.523438 30.5 -19.070312 29.785156 -18.65625 28.359375 L -15.5 16.765625 C -15.25 15.671875 -14.578125 15.125 -13.484375 15.125 L 45.75 15.125 C 47.269531 15.125 47.816406 15.835938 47.390625 17.265625 L 44.25 28.859375 C 43.988281 29.953125 43.3125 30.5 42.21875 30.5 Z M 28.359375 -51.546875 L 33.03125 -51.546875 C 36.050781 -51.546875 38.460938 -52.445312 40.265625 -54.25 C 42.078125 -56.0625 43.359375 -58.609375 44.109375 -61.890625 C 45.035156 -65.921875 44.847656 -68.898438 43.546875 -70.828125 C 42.242188 -72.765625 40.207031 -73.734375 37.4375 -73.734375 L 34.03125 -73.734375 Z M 28.359375 -51.546875 "/></g></g></g><g fill="#000000" fill-opacity="1"><g transform="translate(149.769929, 226.454069)"><g><path d="M -7.0625 0 C -7.8125 0 -8.269531 -0.25 -8.4375 -0.75 C -8.613281 -1.257812 -8.488281 -1.847656 -8.0625 -2.515625 L 51.171875 -87.09375 C 51.679688 -87.851562 52.476562 -88.234375 53.5625 -88.234375 L 68.4375 -88.234375 C 69.957031 -88.234375 70.503906 -87.519531 70.078125 -86.09375 L 48.28125 -1.640625 C 48.019531 -0.546875 47.347656 0 46.265625 0 L 31.640625 0 C 31.046875 0 30.5625 -0.1875 30.1875 -0.5625 C 29.8125 -0.945312 29.75 -1.472656 30 -2.140625 L 34.65625 -15.625 L 20.421875 -15.625 L 11.21875 -1.140625 C 10.800781 -0.378906 10.046875 0 8.953125 0 Z M -17.015625 30.5 C -18.523438 30.5 -19.070312 29.785156 -18.65625 28.359375 L -15.5 16.765625 C -15.25 15.671875 -14.578125 15.125 -13.484375 15.125 L 51.671875 15.125 C 53.191406 15.125 53.738281 15.835938 53.3125 17.265625 L 50.171875 28.859375 C 49.910156 29.953125 49.238281 30.5 48.15625 30.5 Z M 29.25 -30.125 L 39.953125 -30.125 L 50.421875 -58.984375 C 50.835938 -60.078125 50.601562 -60.789062 49.71875 -61.125 C 48.84375 -61.46875 48.148438 -61.175781 47.640625 -60.25 Z M 29.25 -30.125 "/></g></g></g><g fill="#000000" fill-opacity="1"><g transform="translate(211.406669, 226.454069)"><g><path d="M -0.5 0 C -2.007812 0 -2.554688 -0.710938 -2.140625 -2.140625 L 19.65625 -86.59375 C 19.914062 -87.6875 20.59375 -88.234375 21.6875 -88.234375 L 32.140625 -88.234375 C 40.796875 -88.234375 47.472656 -86.28125 52.171875 -82.375 C 56.878906 -78.46875 59.757812 -72.898438 60.8125 -65.671875 C 61.863281 -58.441406 61.171875 -49.910156 58.734375 -40.078125 C 55.460938 -26.554688 50.523438 -16.492188 43.921875 -9.890625 C 37.328125 -3.296875 29.785156 0 21.296875 0 Z M -17.015625 30.5 C -18.523438 30.5 -19.070312 29.785156 -18.65625 28.359375 L -15.5 16.765625 C -15.25 15.671875 -14.578125 15.125 -13.484375 15.125 L 49.921875 15.125 C 51.429688 15.125 51.972656 15.835938 51.546875 17.265625 L 48.40625 28.859375 C 48.15625 29.953125 47.484375 30.5 46.390625 30.5 Z M 19.40625 -15.125 L 21.8125 -15.125 C 24.070312 -15.125 26.335938 -15.878906 28.609375 -17.390625 C 30.878906 -18.898438 33.0625 -21.566406 35.15625 -25.390625 C 37.257812 -29.222656 39.238281 -34.664062 41.09375 -41.71875 C 46.632812 -62.644531 44.953125 -73.109375 36.046875 -73.109375 L 34.40625 -73.109375 Z M 19.40625 -15.125 "/></g></g></g><g fill="#000000" fill-opacity="1"><g transform="translate(271.278757, 226.454069)"><g><path d="M 5.171875 0 C 3.910156 0 3.363281 -0.710938 3.53125 -2.140625 L 13.984375 -86.59375 C 14.160156 -87.6875 14.835938 -88.234375 16.015625 -88.234375 L 29.109375 -88.234375 C 30.460938 -88.234375 31.007812 -87.519531 30.75 -86.09375 L 20.296875 -36.546875 C 20.046875 -35.460938 20.359375 -34.875 21.234375 -34.78125 C 22.117188 -34.695312 22.726562 -35.078125 23.0625 -35.921875 L 42.21875 -86.59375 C 42.644531 -87.6875 43.320312 -88.234375 44.25 -88.234375 L 58.609375 -88.234375 C 60.035156 -88.234375 60.625 -87.519531 60.375 -86.09375 L 53.703125 -36.546875 C 53.609375 -35.460938 53.984375 -34.875 54.828125 -34.78125 C 55.671875 -34.695312 56.21875 -35.078125 56.46875 -35.921875 L 71.59375 -86.59375 C 71.84375 -87.6875 72.515625 -88.234375 73.609375 -88.234375 L 87.609375 -88.234375 C 88.273438 -88.234375 88.773438 -88.039062 89.109375 -87.65625 C 89.453125 -87.28125 89.492188 -86.757812 89.234375 -86.09375 L 55.453125 -1.640625 C 55.035156 -0.546875 54.363281 0 53.4375 0 L 39.828125 0 C 38.566406 0 38.019531 -0.710938 38.1875 -2.140625 L 44.75 -53.828125 C 44.914062 -55.085938 44.597656 -55.738281 43.796875 -55.78125 C 43.003906 -55.820312 42.394531 -55.296875 41.96875 -54.203125 L 20.796875 -1.640625 C 20.378906 -0.546875 19.707031 0 18.78125 0 Z M -17.015625 30.5 C -18.523438 30.5 -19.070312 29.785156 -18.65625 28.359375 L -15.5 16.765625 C -15.25 15.671875 -14.578125 15.125 -13.484375 15.125 L 66.046875 15.125 C 67.554688 15.125 68.101562 15.835938 67.6875 17.265625 L 64.53125 28.859375 C 64.28125 29.953125 63.609375 30.5 62.515625 30.5 Z M -17.015625 30.5 "/></g></g></g><g fill="#000000" fill-opacity="1"><g transform="translate(347.284798, 226.454069)"><g><path d="M 0.125 0 C -1.71875 0 -2.429688 -0.921875 -2.015625 -2.765625 L 19.53125 -86.59375 C 19.789062 -87.6875 20.460938 -88.234375 21.546875 -88.234375 L 58.109375 -88.234375 C 59.617188 -88.234375 60.164062 -87.519531 59.75 -86.09375 L 56.71875 -74.5 C 56.46875 -73.40625 55.796875 -72.859375 54.703125 -72.859375 L 34.53125 -72.859375 L 29.25 -52.6875 L 44.5 -52.6875 C 46.007812 -52.6875 46.554688 -51.972656 46.140625 -50.546875 L 43.359375 -39.953125 C 43.109375 -38.859375 42.4375 -38.3125 41.34375 -38.3125 L 25.59375 -38.3125 L 19.65625 -15.375 L 39.328125 -15.375 C 40.835938 -15.375 41.382812 -14.660156 40.96875 -13.234375 L 37.9375 -1.640625 C 37.6875 -0.546875 37.015625 0 35.921875 0 Z M -17.015625 30.5 C -18.523438 30.5 -19.070312 29.785156 -18.65625 28.359375 L -15.5 16.765625 C -15.25 15.671875 -14.578125 15.125 -13.484375 15.125 L 37.4375 15.125 C 38.945312 15.125 39.492188 15.835938 39.078125 17.265625 L 35.921875 28.859375 C 35.671875 29.953125 35 30.5 33.90625 30.5 Z M -17.015625 30.5 "/></g></g></g><g fill="#000000" fill-opacity="1"><g transform="translate(394.678267, 226.454069)"><g><path d="M 22.1875 1.015625 C 13.445312 -0.160156 7.898438 -5.285156 5.546875 -14.359375 C 3.191406 -23.441406 4.070312 -35.628906 8.1875 -50.921875 C 11.882812 -63.191406 16.675781 -72.726562 22.5625 -79.53125 C 28.445312 -86.34375 35.210938 -89.625 42.859375 -89.375 C 47.648438 -89.28125 51.660156 -88.015625 54.890625 -85.578125 C 58.128906 -83.148438 60.503906 -79.914062 62.015625 -75.875 C 63.523438 -71.84375 63.988281 -67.347656 63.40625 -62.390625 C 63.320312 -61.296875 62.609375 -60.625 61.265625 -60.375 L 48.53125 -58.109375 C 46.757812 -57.859375 46.085938 -58.570312 46.515625 -60.25 C 46.929688 -64.363281 46.800781 -67.617188 46.125 -70.015625 C 45.457031 -72.410156 44.15625 -73.691406 42.21875 -73.859375 C 39.695312 -74.023438 36.859375 -71.816406 33.703125 -67.234375 C 30.554688 -62.660156 27.722656 -55.921875 25.203125 -47.015625 C 22.265625 -36.765625 20.941406 -28.820312 21.234375 -23.1875 C 21.535156 -17.5625 23.070312 -14.625 25.84375 -14.375 C 27.851562 -14.289062 29.820312 -15.335938 31.75 -17.515625 C 33.6875 -19.703125 35.457031 -23.613281 37.0625 -29.25 C 37.226562 -29.832031 37.414062 -30.25 37.625 -30.5 C 37.832031 -30.75 38.019531 -30.960938 38.1875 -31.140625 L 46.640625 -38.0625 C 47.304688 -38.570312 47.453125 -39.160156 47.078125 -39.828125 C 46.703125 -40.503906 46.175781 -40.628906 45.5 -40.203125 L 37.6875 -36.296875 C 37.4375 -36.210938 37.140625 -36.085938 36.796875 -35.921875 C 36.460938 -35.753906 36.171875 -35.628906 35.921875 -35.546875 L 32.140625 -34.921875 C 30.546875 -34.660156 29.914062 -35.332031 30.25 -36.9375 L 32.265625 -48.03125 C 32.429688 -48.613281 32.679688 -49.113281 33.015625 -49.53125 C 33.359375 -49.957031 33.820312 -50.210938 34.40625 -50.296875 L 60.375 -54.328125 C 61.96875 -54.578125 62.597656 -53.90625 62.265625 -52.3125 C 61.597656 -48.863281 60.925781 -45.960938 60.25 -43.609375 C 59.570312 -41.253906 58.898438 -39.03125 58.234375 -36.9375 C 54.617188 -24.25 49.722656 -14.519531 43.546875 -7.75 C 37.367188 -0.988281 30.25 1.929688 22.1875 1.015625 Z M -17.015625 30.5 C -18.523438 30.5 -19.070312 29.785156 -18.65625 28.359375 L -15.5 16.765625 C -15.25 15.671875 -14.578125 15.125 -13.484375 15.125 L 50.546875 15.125 C 52.054688 15.125 52.601562 15.835938 52.1875 17.265625 L 49.03125 28.859375 C 48.78125 29.953125 48.109375 30.5 47.015625 30.5 Z M -17.015625 30.5 "/></g></g></g><g fill="#000000" fill-opacity="1"><g transform="translate(455.18058, 226.454069)"><g><path d="M 0.125 0 C -1.71875 0 -2.429688 -0.921875 -2.015625 -2.765625 L 19.53125 -86.59375 C 19.789062 -87.6875 20.460938 -88.234375 21.546875 -88.234375 L 58.109375 -88.234375 C 59.617188 -88.234375 60.164062 -87.519531 59.75 -86.09375 L 56.71875 -74.5 C 56.46875 -73.40625 55.796875 -72.859375 54.703125 -72.859375 L 34.53125 -72.859375 L 29.25 -52.6875 L 44.5 -52.6875 C 46.007812 -52.6875 46.554688 -51.972656 46.140625 -50.546875 L 43.359375 -39.953125 C 43.109375 -38.859375 42.4375 -38.3125 41.34375 -38.3125 L 25.59375 -38.3125 L 19.65625 -15.375 L 39.328125 -15.375 C 40.835938 -15.375 41.382812 -14.660156 40.96875 -13.234375 L 37.9375 -1.640625 C 37.6875 -0.546875 37.015625 0 35.921875 0 Z M -17.015625 30.5 C -18.523438 30.5 -19.070312 29.785156 -18.65625 28.359375 L -15.5 16.765625 C -15.25 15.671875 -14.578125 15.125 -13.484375 15.125 L 37.4375 15.125 C 38.945312 15.125 39.492188 15.835938 39.078125 17.265625 L 35.921875 28.859375 C 35.671875 29.953125 35 30.5 33.90625 30.5 Z M -17.015625 30.5 "/></g></g></g><g fill="#000000" fill-opacity="1"><g transform="translate(502.574073, 226.454069)"><g><path d="M 20.796875 1.015625 C 16.597656 0.585938 12.878906 -0.988281 9.640625 -3.71875 C 6.410156 -6.445312 3.972656 -10.207031 2.328125 -15 C 0.691406 -19.789062 0.164062 -25.335938 0.75 -31.640625 C 0.832031 -32.734375 1.460938 -33.363281 2.640625 -33.53125 L 15 -35.546875 C 16.425781 -35.796875 17.054688 -35.164062 16.890625 -33.65625 C 16.304688 -27.769531 16.617188 -23.226562 17.828125 -20.03125 C 19.046875 -16.84375 20.664062 -15.082031 22.6875 -14.75 C 24.113281 -14.582031 25.332031 -15.039062 26.34375 -16.125 C 27.351562 -17.21875 28.023438 -19.15625 28.359375 -21.9375 C 28.773438 -26.050781 28.101562 -29.578125 26.34375 -32.515625 C 24.582031 -35.460938 22.441406 -38.742188 19.921875 -42.359375 C 18.316406 -44.535156 16.820312 -46.90625 15.4375 -49.46875 C 14.050781 -52.03125 13.019531 -54.90625 12.34375 -58.09375 C 11.675781 -61.289062 11.679688 -64.828125 12.359375 -68.703125 C 13.359375 -74.160156 15.097656 -78.398438 17.578125 -81.421875 C 20.054688 -84.453125 22.910156 -86.554688 26.140625 -87.734375 C 29.378906 -88.910156 32.640625 -89.410156 35.921875 -89.234375 C 39.703125 -89.066406 42.914062 -88.078125 45.5625 -86.265625 C 48.207031 -84.460938 50.304688 -82.132812 51.859375 -79.28125 C 53.421875 -76.425781 54.515625 -73.296875 55.140625 -69.890625 C 55.773438 -66.484375 55.96875 -63.144531 55.71875 -59.875 C 55.632812 -58.78125 55.003906 -58.148438 53.828125 -57.984375 L 42.734375 -56.34375 C 41.390625 -56.09375 40.71875 -56.722656 40.71875 -58.234375 C 40.882812 -63.191406 40.378906 -66.929688 39.203125 -69.453125 C 38.023438 -71.972656 36.597656 -73.273438 34.921875 -73.359375 C 33.910156 -73.523438 32.773438 -73.164062 31.515625 -72.28125 C 30.253906 -71.40625 29.453125 -69.875 29.109375 -67.6875 C 28.523438 -64.40625 28.84375 -61.671875 30.0625 -59.484375 C 31.28125 -57.304688 32.941406 -54.789062 35.046875 -51.9375 C 36.890625 -49.5 38.796875 -46.847656 40.765625 -43.984375 C 42.742188 -41.128906 44.300781 -37.914062 45.4375 -34.34375 C 46.570312 -30.769531 46.757812 -26.59375 46 -21.8125 C 45.414062 -17.4375 44.050781 -13.441406 41.90625 -9.828125 C 39.769531 -6.210938 36.9375 -3.394531 33.40625 -1.375 C 29.875 0.632812 25.671875 1.429688 20.796875 1.015625 Z M -17.015625 30.5 C -18.523438 30.5 -19.070312 29.785156 -18.65625 28.359375 L -15.5 16.765625 C -15.25 15.671875 -14.578125 15.125 -13.484375 15.125 L 41.21875 15.125 C 42.726562 15.125 43.273438 15.835938 42.859375 17.265625 L 39.703125 28.859375 C 39.453125 29.953125 38.78125 30.5 37.6875 30.5 Z M -17.015625 30.5 "/></g></g></g><g fill="#000000" fill-opacity="1"><g transform="translate(553.748951, 226.454069)"><g><path d="M 8.0625 0 C 6.550781 0 6.003906 -0.710938 6.421875 -2.140625 L 24.953125 -73.734375 L 12.734375 -73.734375 C 11.222656 -73.734375 10.675781 -74.445312 11.09375 -75.875 L 13.859375 -86.59375 C 14.117188 -87.6875 14.789062 -88.234375 15.875 -88.234375 L 58.984375 -88.234375 C 60.503906 -88.234375 61.050781 -87.519531 60.625 -86.09375 L 57.859375 -75.375 C 57.609375 -74.28125 56.9375 -73.734375 55.84375 -73.734375 L 43.109375 -73.734375 L 24.453125 -1.640625 C 24.203125 -0.546875 23.53125 0 22.4375 0 Z M -17.015625 30.5 C -18.523438 30.5 -19.070312 29.785156 -18.65625 28.359375 L -15.5 16.765625 C -15.25 15.671875 -14.578125 15.125 -13.484375 15.125 L 37.0625 15.125 C 38.570312 15.125 39.117188 15.835938 38.703125 17.265625 L 35.546875 28.859375 C 35.296875 29.953125 34.625 30.5 33.53125 30.5 Z M -17.015625 30.5 "/></g></g></g><g fill="#000000" fill-opacity="1"><g transform="translate(600.764282, 226.454069)"><g><path d="M 23.578125 1.015625 C 16.929688 0.585938 11.988281 -1.765625 8.75 -6.046875 C 5.519531 -10.335938 3.863281 -16.242188 3.78125 -23.765625 C 3.695312 -31.285156 5.125 -40.128906 8.0625 -50.296875 C 12.007812 -63.828125 16.882812 -73.828125 22.6875 -80.296875 C 28.488281 -86.765625 35.503906 -89.742188 43.734375 -89.234375 C 50.285156 -88.898438 55.179688 -86.585938 58.421875 -82.296875 C 61.660156 -78.015625 63.320312 -72.09375 63.40625 -64.53125 C 63.488281 -56.96875 62.054688 -48.101562 59.109375 -37.9375 C 51.296875 -10.96875 39.453125 2.015625 23.578125 1.015625 Z M 25.078125 -14.375 C 28.023438 -13.78125 30.800781 -15.898438 33.40625 -20.734375 C 36.007812 -25.566406 38.738281 -32.726562 41.59375 -42.21875 C 44.707031 -52.894531 46.175781 -60.710938 46 -65.671875 C 45.832031 -70.628906 44.53125 -73.359375 42.09375 -73.859375 C 39.238281 -74.453125 36.488281 -72.332031 33.84375 -67.5 C 31.195312 -62.664062 28.445312 -55.5 25.59375 -46 C 22.476562 -35.332031 21.003906 -27.519531 21.171875 -22.5625 C 21.335938 -17.601562 22.640625 -14.875 25.078125 -14.375 Z M -17.015625 30.5 C -18.523438 30.5 -19.070312 29.785156 -18.65625 28.359375 L -15.5 16.765625 C -15.25 15.671875 -14.578125 15.125 -13.484375 15.125 L 50.921875 15.125 C 52.429688 15.125 52.976562 15.835938 52.5625 17.265625 L 49.40625 28.859375 C 49.15625 29.953125 48.484375 30.5 47.390625 30.5 Z M -17.015625 30.5 "/></g></g></g><g fill="#000000" fill-opacity="1"><g transform="translate(661.644756, 226.454069)"><g><path d="M -0.5 0 C -2.007812 0 -2.554688 -0.710938 -2.140625 -2.140625 L 19.65625 -86.59375 C 19.914062 -87.6875 20.59375 -88.234375 21.6875 -88.234375 L 36.421875 -88.234375 C 42.722656 -88.234375 47.910156 -86.929688 51.984375 -84.328125 C 56.066406 -81.722656 58.820312 -78.046875 60.25 -73.296875 C 61.675781 -68.546875 61.632812 -62.9375 60.125 -56.46875 C 58.863281 -51.175781 56.820312 -46.578125 54 -42.671875 C 51.1875 -38.765625 47.804688 -35.71875 43.859375 -33.53125 C 39.910156 -31.34375 35.625 -30.25 31 -30.25 L 23.3125 -30.25 L 15.875 -1.640625 C 15.625 -0.546875 14.953125 0 13.859375 0 Z M -17.015625 30.5 C -18.523438 30.5 -19.070312 29.785156 -18.65625 28.359375 L -15.5 16.765625 C -15.25 15.671875 -14.578125 15.125 -13.484375 15.125 L 45.125 15.125 C 46.632812 15.125 47.179688 15.835938 46.765625 17.265625 L 43.609375 28.859375 C 43.359375 29.953125 42.6875 30.5 41.59375 30.5 Z M 27.21875 -45.625 L 32.765625 -45.625 C 35.367188 -45.625 37.640625 -46.800781 39.578125 -49.15625 C 41.515625 -51.507812 42.984375 -54.828125 43.984375 -59.109375 C 44.992188 -63.484375 45.035156 -66.867188 44.109375 -69.265625 C 43.191406 -71.660156 41.390625 -72.859375 38.703125 -72.859375 L 34.28125 -72.859375 Z M 27.21875 -45.625 "/></g></g></g><g fill="#000000" fill-opacity="1"><g transform="translate(716.727074, 226.454069)"><g><path d="M -0.5 0 C -2.007812 0 -2.554688 -0.710938 -2.140625 -2.140625 L 19.65625 -86.59375 C 19.914062 -87.6875 20.59375 -88.234375 21.6875 -88.234375 L 36.421875 -88.234375 C 42.722656 -88.234375 47.910156 -86.929688 51.984375 -84.328125 C 56.066406 -81.722656 58.820312 -78.046875 60.25 -73.296875 C 61.675781 -68.546875 61.632812 -62.9375 60.125 -56.46875 C 58.863281 -51.175781 56.820312 -46.578125 54 -42.671875 C 51.1875 -38.765625 47.804688 -35.71875 43.859375 -33.53125 C 39.910156 -31.34375 35.625 -30.25 31 -30.25 L 23.3125 -30.25 L 15.875 -1.640625 C 15.625 -0.546875 14.953125 0 13.859375 0 Z M -17.015625 30.5 C -18.523438 30.5 -19.070312 29.785156 -18.65625 28.359375 L -15.5 16.765625 C -15.25 15.671875 -14.578125 15.125 -13.484375 15.125 L 45.125 15.125 C 46.632812 15.125 47.179688 15.835938 46.765625 17.265625 L 43.609375 28.859375 C 43.359375 29.953125 42.6875 30.5 41.59375 30.5 Z M 27.21875 -45.625 L 32.765625 -45.625 C 35.367188 -45.625 37.640625 -46.800781 39.578125 -49.15625 C 41.515625 -51.507812 42.984375 -54.828125 43.984375 -59.109375 C 44.992188 -63.484375 45.035156 -66.867188 44.109375 -69.265625 C 43.191406 -71.660156 41.390625 -72.859375 38.703125 -72.859375 L 34.28125 -72.859375 Z M 27.21875 -45.625 "/></g></g></g><g fill="#000000" fill-opacity="1"><g transform="translate(228.487465, 400.308085)"><g><path d="M 20.796875 1.015625 C 16.597656 0.585938 12.878906 -0.988281 9.640625 -3.71875 C 6.410156 -6.445312 3.972656 -10.207031 2.328125 -15 C 0.691406 -19.789062 0.164062 -25.335938 0.75 -31.640625 C 0.832031 -32.734375 1.460938 -33.363281 2.640625 -33.53125 L 15 -35.546875 C 16.425781 -35.796875 17.054688 -35.164062 16.890625 -33.65625 C 16.304688 -27.769531 16.617188 -23.226562 17.828125 -20.03125 C 19.046875 -16.84375 20.664062 -15.082031 22.6875 -14.75 C 24.113281 -14.582031 25.332031 -15.039062 26.34375 -16.125 C 27.351562 -17.21875 28.023438 -19.15625 28.359375 -21.9375 C 28.773438 -26.050781 28.101562 -29.578125 26.34375 -32.515625 C 24.582031 -35.460938 22.441406 -38.742188 19.921875 -42.359375 C 18.316406 -44.535156 16.820312 -46.90625 15.4375 -49.46875 C 14.050781 -52.03125 13.019531 -54.90625 12.34375 -58.09375 C 11.675781 -61.289062 11.679688 -64.828125 12.359375 -68.703125 C 13.359375 -74.160156 15.097656 -78.398438 17.578125 -81.421875 C 20.054688 -84.453125 22.910156 -86.554688 26.140625 -87.734375 C 29.378906 -88.910156 32.640625 -89.410156 35.921875 -89.234375 C 39.703125 -89.066406 42.914062 -88.078125 45.5625 -86.265625 C 48.207031 -84.460938 50.304688 -82.132812 51.859375 -79.28125 C 53.421875 -76.425781 54.515625 -73.296875 55.140625 -69.890625 C 55.773438 -66.484375 55.96875 -63.144531 55.71875 -59.875 C 55.632812 -58.78125 55.003906 -58.148438 53.828125 -57.984375 L 42.734375 -56.34375 C 41.390625 -56.09375 40.71875 -56.722656 40.71875 -58.234375 C 40.882812 -63.191406 40.378906 -66.929688 39.203125 -69.453125 C 38.023438 -71.972656 36.597656 -73.273438 34.921875 -73.359375 C 33.910156 -73.523438 32.773438 -73.164062 31.515625 -72.28125 C 30.253906 -71.40625 29.453125 -69.875 29.109375 -67.6875 C 28.523438 -64.40625 28.84375 -61.671875 30.0625 -59.484375 C 31.28125 -57.304688 32.941406 -54.789062 35.046875 -51.9375 C 36.890625 -49.5 38.796875 -46.847656 40.765625 -43.984375 C 42.742188 -41.128906 44.300781 -37.914062 45.4375 -34.34375 C 46.570312 -30.769531 46.757812 -26.59375 46 -21.8125 C 45.414062 -17.4375 44.050781 -13.441406 41.90625 -9.828125 C 39.769531 -6.210938 36.9375 -3.394531 33.40625 -1.375 C 29.875 0.632812 25.671875 1.429688 20.796875 1.015625 Z M -17.015625 30.5 C -18.523438 30.5 -19.070312 29.785156 -18.65625 28.359375 L -15.5 16.765625 C -15.25 15.671875 -14.578125 15.125 -13.484375 15.125 L 41.21875 15.125 C 42.726562 15.125 43.273438 15.835938 42.859375 17.265625 L 39.703125 28.859375 C 39.453125 29.953125 38.78125 30.5 37.6875 30.5 Z M -17.015625 30.5 "/></g></g></g><g fill="#000000" fill-opacity="1"><g transform="translate(279.662343, 400.308085)"><g><path d="M 8.0625 0 C 6.550781 0 6.003906 -0.710938 6.421875 -2.140625 L 24.953125 -73.734375 L 12.734375 -73.734375 C 11.222656 -73.734375 10.675781 -74.445312 11.09375 -75.875 L 13.859375 -86.59375 C 14.117188 -87.6875 14.789062 -88.234375 15.875 -88.234375 L 58.984375 -88.234375 C 60.503906 -88.234375 61.050781 -87.519531 60.625 -86.09375 L 57.859375 -75.375 C 57.609375 -74.28125 56.9375 -73.734375 55.84375 -73.734375 L 43.109375 -73.734375 L 24.453125 -1.640625 C 24.203125 -0.546875 23.53125 0 22.4375 0 Z M -17.015625 30.5 C -18.523438 30.5 -19.070312 29.785156 -18.65625 28.359375 L -15.5 16.765625 C -15.25 15.671875 -14.578125 15.125 -13.484375 15.125 L 37.0625 15.125 C 38.570312 15.125 39.117188 15.835938 38.703125 17.265625 L 35.546875 28.859375 C 35.296875 29.953125 34.625 30.5 33.53125 30.5 Z M -17.015625 30.5 "/></g></g></g><g fill="#000000" fill-opacity="1"><g transform="translate(326.677685, 400.308085)"><g><path d="M 23.578125 1.015625 C 16.929688 0.585938 11.988281 -1.765625 8.75 -6.046875 C 5.519531 -10.335938 3.863281 -16.242188 3.78125 -23.765625 C 3.695312 -31.285156 5.125 -40.128906 8.0625 -50.296875 C 12.007812 -63.828125 16.882812 -73.828125 22.6875 -80.296875 C 28.488281 -86.765625 35.503906 -89.742188 43.734375 -89.234375 C 50.285156 -88.898438 55.179688 -86.585938 58.421875 -82.296875 C 61.660156 -78.015625 63.320312 -72.09375 63.40625 -64.53125 C 63.488281 -56.96875 62.054688 -48.101562 59.109375 -37.9375 C 51.296875 -10.96875 39.453125 2.015625 23.578125 1.015625 Z M 25.078125 -14.375 C 28.023438 -13.78125 30.800781 -15.898438 33.40625 -20.734375 C 36.007812 -25.566406 38.738281 -32.726562 41.59375 -42.21875 C 44.707031 -52.894531 46.175781 -60.710938 46 -65.671875 C 45.832031 -70.628906 44.53125 -73.359375 42.09375 -73.859375 C 39.238281 -74.453125 36.488281 -72.332031 33.84375 -67.5 C 31.195312 -62.664062 28.445312 -55.5 25.59375 -46 C 22.476562 -35.332031 21.003906 -27.519531 21.171875 -22.5625 C 21.335938 -17.601562 22.640625 -14.875 25.078125 -14.375 Z M -17.015625 30.5 C -18.523438 30.5 -19.070312 29.785156 -18.65625 28.359375 L -15.5 16.765625 C -15.25 15.671875 -14.578125 15.125 -13.484375 15.125 L 50.921875 15.125 C 52.429688 15.125 52.976562 15.835938 52.5625 17.265625 L 49.40625 28.859375 C 49.15625 29.953125 48.484375 30.5 47.390625 30.5 Z M -17.015625 30.5 "/></g></g></g><g fill="#000000" fill-opacity="1"><g transform="translate(387.558147, 400.308085)"><g><path d="M -0.5 0 C -2.007812 0 -2.554688 -0.710938 -2.140625 -2.140625 L 19.65625 -86.59375 C 19.914062 -87.6875 20.59375 -88.234375 21.6875 -88.234375 L 36.421875 -88.234375 C 42.722656 -88.234375 47.910156 -86.929688 51.984375 -84.328125 C 56.066406 -81.722656 58.820312 -78.046875 60.25 -73.296875 C 61.675781 -68.546875 61.632812 -62.9375 60.125 -56.46875 C 58.863281 -51.175781 56.820312 -46.578125 54 -42.671875 C 51.1875 -38.765625 47.804688 -35.71875 43.859375 -33.53125 C 39.910156 -31.34375 35.625 -30.25 31 -30.25 L 23.3125 -30.25 L 15.875 -1.640625 C 15.625 -0.546875 14.953125 0 13.859375 0 Z M -17.015625 30.5 C -18.523438 30.5 -19.070312 29.785156 -18.65625 28.359375 L -15.5 16.765625 C -15.25 15.671875 -14.578125 15.125 -13.484375 15.125 L 45.125 15.125 C 46.632812 15.125 47.179688 15.835938 46.765625 17.265625 L 43.609375 28.859375 C 43.359375 29.953125 42.6875 30.5 41.59375 30.5 Z M 27.21875 -45.625 L 32.765625 -45.625 C 35.367188 -45.625 37.640625 -46.800781 39.578125 -49.15625 C 41.515625 -51.507812 42.984375 -54.828125 43.984375 -59.109375 C 44.992188 -63.484375 45.035156 -66.867188 44.109375 -69.265625 C 43.191406 -71.660156 41.390625 -72.859375 38.703125 -72.859375 L 34.28125 -72.859375 Z M 27.21875 -45.625 "/></g></g></g><g fill="#000000" fill-opacity="1"><g transform="translate(442.640466, 400.308085)"><g><path d="M -0.5 0 C -2.007812 0 -2.554688 -0.710938 -2.140625 -2.140625 L 19.65625 -86.59375 C 19.914062 -87.6875 20.59375 -88.234375 21.6875 -88.234375 L 36.421875 -88.234375 C 42.722656 -88.234375 47.910156 -86.929688 51.984375 -84.328125 C 56.066406 -81.722656 58.820312 -78.046875 60.25 -73.296875 C 61.675781 -68.546875 61.632812 -62.9375 60.125 -56.46875 C 58.863281 -51.175781 56.820312 -46.578125 54 -42.671875 C 51.1875 -38.765625 47.804688 -35.71875 43.859375 -33.53125 C 39.910156 -31.34375 35.625 -30.25 31 -30.25 L 23.3125 -30.25 L 15.875 -1.640625 C 15.625 -0.546875 14.953125 0 13.859375 0 Z M -17.015625 30.5 C -18.523438 30.5 -19.070312 29.785156 -18.65625 28.359375 L -15.5 16.765625 C -15.25 15.671875 -14.578125 15.125 -13.484375 15.125 L 45.125 15.125 C 46.632812 15.125 47.179688 15.835938 46.765625 17.265625 L 43.609375 28.859375 C 43.359375 29.953125 42.6875 30.5 41.59375 30.5 Z M 27.21875 -45.625 L 32.765625 -45.625 C 35.367188 -45.625 37.640625 -46.800781 39.578125 -49.15625 C 41.515625 -51.507812 42.984375 -54.828125 43.984375 -59.109375 C 44.992188 -63.484375 45.035156 -66.867188 44.109375 -69.265625 C 43.191406 -71.660156 41.390625 -72.859375 38.703125 -72.859375 L 34.28125 -72.859375 Z M 27.21875 -45.625 "/></g></g></g><g fill="#000000" fill-opacity="1"><g transform="translate(497.722784, 400.308085)"><g><path d="M 0.125 0 C -1.71875 0 -2.429688 -0.921875 -2.015625 -2.765625 L 19.53125 -86.59375 C 19.789062 -87.6875 20.460938 -88.234375 21.546875 -88.234375 L 58.109375 -88.234375 C 59.617188 -88.234375 60.164062 -87.519531 59.75 -86.09375 L 56.71875 -74.5 C 56.46875 -73.40625 55.796875 -72.859375 54.703125 -72.859375 L 34.53125 -72.859375 L 29.25 -52.6875 L 44.5 -52.6875 C 46.007812 -52.6875 46.554688 -51.972656 46.140625 -50.546875 L 43.359375 -39.953125 C 43.109375 -38.859375 42.4375 -38.3125 41.34375 -38.3125 L 25.59375 -38.3125 L 19.65625 -15.375 L 39.328125 -15.375 C 40.835938 -15.375 41.382812 -14.660156 40.96875 -13.234375 L 37.9375 -1.640625 C 37.6875 -0.546875 37.015625 0 35.921875 0 Z M -17.015625 30.5 C -18.523438 30.5 -19.070312 29.785156 -18.65625 28.359375 L -15.5 16.765625 C -15.25 15.671875 -14.578125 15.125 -13.484375 15.125 L 37.4375 15.125 C 38.945312 15.125 39.492188 15.835938 39.078125 17.265625 L 35.921875 28.859375 C 35.671875 29.953125 35 30.5 33.90625 30.5 Z M -17.015625 30.5 "/></g></g></g><g fill="#000000" fill-opacity="1"><g transform="translate(545.116277, 400.308085)"><g><path d="M -0.25 0 C -0.925781 0 -1.453125 -0.226562 -1.828125 -0.6875 C -2.203125 -1.15625 -2.304688 -1.722656 -2.140625 -2.390625 L 19.65625 -86.46875 C 19.914062 -87.726562 20.675781 -88.359375 21.9375 -88.359375 L 33.65625 -88.234375 C 34.914062 -88.234375 35.628906 -87.5625 35.796875 -86.21875 L 41.21875 -35.171875 C 41.300781 -34.328125 41.738281 -33.90625 42.53125 -33.90625 C 43.332031 -33.90625 43.773438 -34.410156 43.859375 -35.421875 L 46 -58.484375 C 46.09375 -58.898438 46.160156 -59.316406 46.203125 -59.734375 C 46.242188 -60.160156 46.304688 -60.582031 46.390625 -61 L 52.6875 -86.34375 C 52.9375 -87.601562 53.691406 -88.234375 54.953125 -88.234375 L 67.6875 -88.359375 C 68.363281 -88.359375 68.867188 -88.125 69.203125 -87.65625 C 69.535156 -87.195312 69.617188 -86.632812 69.453125 -85.96875 L 47.640625 -1.640625 C 47.390625 -0.546875 46.59375 0 45.25 0 L 33.53125 0 C 32.9375 0 32.472656 -0.125 32.140625 -0.375 C 31.804688 -0.625 31.597656 -1.171875 31.515625 -2.015625 L 26.09375 -52.9375 C 26.007812 -53.945312 25.566406 -54.410156 24.765625 -54.328125 C 23.972656 -54.242188 23.53125 -53.78125 23.4375 -52.9375 L 21.296875 -29.25 C 21.210938 -28.90625 21.109375 -28.351562 20.984375 -27.59375 C 20.859375 -26.84375 20.710938 -26.257812 20.546875 -25.84375 L 14.625 -1.765625 C 14.375 -0.585938 13.660156 0 12.484375 0 Z M -17.015625 30.5 C -18.523438 30.5 -19.070312 29.785156 -18.65625 28.359375 L -15.5 16.765625 C -15.25 15.671875 -14.578125 15.125 -13.484375 15.125 L 51.046875 15.125 C 52.554688 15.125 53.101562 15.835938 52.6875 17.265625 L 49.53125 28.859375 C 49.28125 29.953125 48.609375 30.5 47.515625 30.5 Z M -17.015625 30.5 "/></g></g></g><g fill="#000000" fill-opacity="1"><g transform="translate(606.122782, 400.308085)"><g><path d="M 7.8125 -26.96875 C 6.300781 -26.96875 5.753906 -27.679688 6.171875 -29.109375 L 20.921875 -86.59375 C 21.171875 -87.6875 21.84375 -88.234375 22.9375 -88.234375 L 37.3125 -88.234375 C 38.820312 -88.234375 39.367188 -87.519531 38.953125 -86.09375 L 24.203125 -28.609375 C 23.953125 -27.515625 23.28125 -26.96875 22.1875 -26.96875 Z M 0.125 0 C -1.382812 0 -1.929688 -0.710938 -1.515625 -2.140625 L 2.515625 -17.765625 C 2.773438 -18.859375 3.445312 -19.40625 4.53125 -19.40625 L 20.296875 -19.40625 C 21.804688 -19.40625 22.351562 -18.691406 21.9375 -17.265625 L 17.90625 -1.640625 C 17.644531 -0.546875 16.96875 0 15.875 0 Z M -17.015625 30.5 C -18.523438 30.5 -19.070312 29.785156 -18.65625 28.359375 L -15.5 16.765625 C -15.25 15.671875 -14.578125 15.125 -13.484375 15.125 L 21.296875 15.125 C 22.816406 15.125 23.363281 15.835938 22.9375 17.265625 L 19.796875 28.859375 C 19.535156 29.953125 18.859375 30.5 17.765625 30.5 Z M -17.015625 30.5 "/></g></g></g></svg>