<svg xmlns="http://www.w3.org/2000/svg" xmlns:xlink="http://www.w3.org/1999/xlink" width="1122" zoomAndPan="magnify" viewBox="0 0 841.92 595.499987" height="793" preserveAspectRatio="xMidYMid meet" version="1.0"><defs><g/><clipPath id="89008eba0b"><path d="M 0.3125 0 L 841.527344 0 L 841.527344 595 L 0.3125 595 Z M 0.3125 0 " clip-rule="nonzero"/></clipPath><clipPath id="d480ef48d4"><path d="M 47.234375 190.65625 L 314.761719 190.65625 L 314.761719 426.710938 L 47.234375 426.710938 Z M 47.234375 190.65625 " clip-rule="nonzero"/></clipPath><clipPath id="7aba168acf"><path d="M 679.820312 498.402344 L 813.957031 498.402344 L 813.957031 559.101562 L 679.820312 559.101562 Z M 679.820312 498.402344 " clip-rule="nonzero"/></clipPath></defs><g clip-path="url(#89008eba0b)"><path fill="#ffffff" d="M 0.3125 0 L 841.855469 0 L 841.855469 595 L 0.3125 595 Z M 0.3125 0 " fill-opacity="1" fill-rule="nonzero"/><path fill="#ffffff" d="M 0.3125 0 L 841.855469 0 L 841.855469 595 L 0.3125 595 Z M 0.3125 0 " fill-opacity="1" fill-rule="nonzero"/></g><g fill="#000000" fill-opacity="1"><g transform="translate(285.724272, 190.734912)"><g><path d="M -2.609375 0 C -3.972656 0 -4.46875 -0.644531 -4.09375 -1.9375 L 20.109375 -78.03125 C 20.328125 -79.007812 20.929688 -79.5 21.921875 -79.5 L 34.078125 -79.5 C 35.128906 -79.5 35.65625 -78.929688 35.65625 -77.796875 L 34.296875 -43.265625 C 34.296875 -42.742188 34.273438 -42.253906 34.234375 -41.796875 C 34.203125 -41.335938 34.109375 -40.804688 33.953125 -40.203125 L 32.03125 -28.046875 C 31.875 -26.835938 32.175781 -26.210938 32.9375 -26.171875 C 33.695312 -26.140625 34.226562 -26.613281 34.53125 -27.59375 L 37.828125 -39.1875 C 37.972656 -39.789062 38.140625 -40.375 38.328125 -40.9375 C 38.515625 -41.507812 38.722656 -41.984375 38.953125 -42.359375 L 56.453125 -78.25 C 56.898438 -79.082031 57.539062 -79.5 58.375 -79.5 L 70.421875 -79.5 C 71.628906 -79.5 72.117188 -78.859375 71.890625 -77.578125 L 56.90625 -1.46875 C 56.675781 -0.488281 56.066406 0 55.078125 0 L 43.609375 0 C 42.398438 0 41.910156 -0.601562 42.140625 -1.8125 L 46 -19.875 L 53.953125 -43.84375 C 54.328125 -44.90625 54.097656 -45.546875 53.265625 -45.765625 C 52.429688 -45.992188 51.828125 -45.65625 51.453125 -44.75 L 33.734375 -1.46875 C 33.359375 -0.488281 32.753906 0 31.921875 0 L 20.5625 0 C 19.425781 0 18.894531 -0.644531 18.96875 -1.9375 L 24.1875 -46.34375 C 24.34375 -47.320312 23.960938 -47.832031 23.046875 -47.875 C 22.140625 -47.914062 21.613281 -47.441406 21.46875 -46.453125 L 16.8125 -20.328125 L 10.90625 -1.46875 C 10.519531 -0.488281 9.914062 0 9.09375 0 Z M -2.609375 0 "/></g></g></g><g fill="#000000" fill-opacity="1"><g transform="translate(351.822488, 190.734912)"><g><path d="M 21.234375 0.90625 C 15.253906 0.53125 10.804688 -1.585938 7.890625 -5.453125 C 4.972656 -9.316406 3.476562 -14.632812 3.40625 -21.40625 C 3.332031 -28.1875 4.617188 -36.15625 7.265625 -45.3125 C 10.828125 -57.507812 15.21875 -66.519531 20.4375 -72.34375 C 25.664062 -78.175781 31.988281 -80.863281 39.40625 -80.40625 C 45.3125 -80.101562 49.722656 -78.019531 52.640625 -74.15625 C 55.554688 -70.300781 57.050781 -64.96875 57.125 -58.15625 C 57.207031 -51.34375 55.921875 -43.351562 53.265625 -34.1875 C 46.222656 -9.882812 35.546875 1.8125 21.234375 0.90625 Z M 22.609375 -12.953125 C 25.253906 -12.421875 27.75 -14.332031 30.09375 -18.6875 C 32.445312 -23.039062 34.910156 -29.492188 37.484375 -38.046875 C 40.285156 -47.660156 41.609375 -54.703125 41.453125 -59.171875 C 41.304688 -63.640625 40.132812 -66.101562 37.9375 -66.5625 C 35.363281 -67.09375 32.882812 -65.179688 30.5 -60.828125 C 28.113281 -56.472656 25.632812 -50.015625 23.0625 -41.453125 C 20.257812 -31.835938 18.929688 -24.796875 19.078125 -20.328125 C 19.234375 -15.859375 20.410156 -13.398438 22.609375 -12.953125 Z M 22.609375 -12.953125 "/></g></g></g><g fill="#000000" fill-opacity="1"><g transform="translate(406.677191, 190.734912)"><g><path d="M -0.109375 0 C -0.796875 0 -1.289062 -0.28125 -1.59375 -0.84375 C -1.894531 -1.414062 -1.96875 -2.003906 -1.8125 -2.609375 L 17.609375 -78.03125 C 17.835938 -79.007812 18.441406 -79.5 19.421875 -79.5 L 33.5 -79.5 C 39.257812 -79.5 43.726562 -78.34375 46.90625 -76.03125 C 50.082031 -73.726562 52.179688 -70.796875 53.203125 -67.234375 C 54.234375 -63.679688 54.332031 -60.085938 53.5 -56.453125 C 52.507812 -52.359375 50.800781 -49.132812 48.375 -46.78125 C 45.957031 -44.4375 43.6875 -42.851562 41.5625 -42.03125 C 40.582031 -41.644531 40.050781 -41.257812 39.96875 -40.875 C 39.894531 -40.5 40.203125 -40.007812 40.890625 -39.40625 C 41.796875 -38.65625 42.929688 -37.519531 44.296875 -36 C 45.660156 -34.488281 46.738281 -32.445312 47.53125 -29.875 C 48.320312 -27.300781 48.300781 -24.046875 47.46875 -20.109375 C 46.1875 -13.671875 43.273438 -8.707031 38.734375 -5.21875 C 34.191406 -1.738281 28.550781 0 21.8125 0 Z M 16.125 -12.609375 L 21.234375 -12.609375 C 24.191406 -12.609375 26.503906 -13.628906 28.171875 -15.671875 C 29.835938 -17.710938 30.972656 -20.25 31.578125 -23.28125 C 32.253906 -26.613281 32.195312 -29.300781 31.40625 -31.34375 C 30.613281 -33.394531 28.703125 -34.421875 25.671875 -34.421875 L 21.8125 -34.421875 Z M 25.328125 -47.8125 L 28.515625 -47.8125 C 31.835938 -47.8125 34.238281 -48.53125 35.71875 -49.96875 C 37.195312 -51.40625 38.273438 -53.488281 38.953125 -56.21875 C 39.640625 -58.945312 39.582031 -61.390625 38.78125 -63.546875 C 37.988281 -65.703125 36.34375 -66.78125 33.84375 -66.78125 L 30.21875 -66.78125 Z M 25.328125 -47.8125 "/></g></g></g><g fill="#000000" fill-opacity="1"><g transform="translate(458.124771, 190.734912)"><g><path d="M 0.109375 0 C -1.253906 0 -1.742188 -0.644531 -1.359375 -1.9375 L 18.28125 -78.03125 C 18.507812 -79.007812 19.117188 -79.5 20.109375 -79.5 L 33.046875 -79.5 C 34.410156 -79.5 34.90625 -78.859375 34.53125 -77.578125 L 14.875 -1.46875 C 14.644531 -0.488281 14.039062 0 13.0625 0 Z M 0.109375 0 "/></g></g></g><g fill="#000000" fill-opacity="1"><g transform="translate(485.608894, 190.734912)"><g><path d="M -0.453125 0 C -1.816406 0 -2.3125 -0.644531 -1.9375 -1.9375 L 17.71875 -78.03125 C 17.945312 -79.007812 18.550781 -79.5 19.53125 -79.5 L 32.484375 -79.5 C 33.847656 -79.5 34.335938 -78.859375 33.953125 -77.578125 L 17.484375 -13.625 L 34.1875 -13.625 C 35.550781 -13.625 36.039062 -12.984375 35.65625 -11.703125 L 32.9375 -1.46875 C 32.707031 -0.488281 32.101562 0 31.125 0 Z M -0.453125 0 "/></g></g></g><g fill="#000000" fill-opacity="1"><g transform="translate(526.040095, 190.734912)"><g><path d="M 0.109375 0 C -1.253906 0 -1.742188 -0.644531 -1.359375 -1.9375 L 18.28125 -78.03125 C 18.507812 -79.007812 19.117188 -79.5 20.109375 -79.5 L 33.046875 -79.5 C 34.410156 -79.5 34.90625 -78.859375 34.53125 -77.578125 L 14.875 -1.46875 C 14.644531 -0.488281 14.039062 0 13.0625 0 Z M 0.109375 0 "/></g></g></g><g fill="#000000" fill-opacity="1"><g transform="translate(553.524227, 190.734912)"><g><path d="M 7.265625 0 C 5.898438 0 5.410156 -0.644531 5.796875 -1.9375 L 22.484375 -66.4375 L 11.46875 -66.4375 C 10.101562 -66.4375 9.613281 -67.082031 10 -68.375 L 12.5 -78.03125 C 12.71875 -79.007812 13.320312 -79.5 14.3125 -79.5 L 53.15625 -79.5 C 54.519531 -79.5 55.007812 -78.859375 54.625 -77.578125 L 52.125 -67.921875 C 51.90625 -66.929688 51.300781 -66.4375 50.3125 -66.4375 L 38.84375 -66.4375 L 22.03125 -1.46875 C 21.800781 -0.488281 21.195312 0 20.21875 0 Z M 7.265625 0 "/></g></g></g><g fill="#000000" fill-opacity="1"><g transform="translate(595.886127, 190.734912)"><g><path d="M -6.359375 0 C -7.035156 0 -7.453125 -0.222656 -7.609375 -0.671875 C -7.765625 -1.128906 -7.648438 -1.660156 -7.265625 -2.265625 L 46.109375 -78.484375 C 46.566406 -79.160156 47.285156 -79.5 48.265625 -79.5 L 61.671875 -79.5 C 63.035156 -79.5 63.53125 -78.859375 63.15625 -77.578125 L 43.5 -1.46875 C 43.269531 -0.488281 42.664062 0 41.6875 0 L 28.515625 0 C 27.984375 0 27.546875 -0.164062 27.203125 -0.5 C 26.859375 -0.84375 26.800781 -1.320312 27.03125 -1.9375 L 31.234375 -14.078125 L 18.40625 -14.078125 L 10.109375 -1.015625 C 9.734375 -0.335938 9.050781 0 8.0625 0 Z M 60.203125 -83.9375 C 59.066406 -83.9375 58.609375 -84.65625 58.828125 -86.09375 L 60.765625 -94.15625 C 60.910156 -94.613281 61.132812 -95.007812 61.4375 -95.34375 C 61.75 -95.6875 62.207031 -95.859375 62.8125 -95.859375 L 73.484375 -95.859375 C 75.078125 -95.859375 75.722656 -95.210938 75.421875 -93.921875 L 73.375 -85.40625 C 73.300781 -84.875 73.035156 -84.492188 72.578125 -84.265625 C 72.117188 -84.046875 71.625 -83.9375 71.09375 -83.9375 Z M 41.109375 -83.9375 C 39.972656 -83.9375 39.519531 -84.65625 39.75 -86.09375 L 41.6875 -94.15625 C 41.988281 -95.289062 42.671875 -95.859375 43.734375 -95.859375 L 54.40625 -95.859375 C 55.988281 -95.859375 56.628906 -95.210938 56.328125 -93.921875 L 54.296875 -85.40625 C 54.210938 -84.875 53.941406 -84.492188 53.484375 -84.265625 C 53.035156 -84.046875 52.546875 -83.9375 52.015625 -83.9375 Z M 26.34375 -27.140625 L 36 -27.140625 L 45.4375 -53.15625 C 45.8125 -54.132812 45.597656 -54.773438 44.796875 -55.078125 C 44.003906 -55.390625 43.382812 -55.128906 42.9375 -54.296875 Z M 26.34375 -27.140625 "/></g></g></g><g fill="#000000" fill-opacity="1"><g transform="translate(651.422257, 190.734912)"><g><path d="M 7.265625 0 C 5.898438 0 5.410156 -0.644531 5.796875 -1.9375 L 22.484375 -66.4375 L 11.46875 -66.4375 C 10.101562 -66.4375 9.613281 -67.082031 10 -68.375 L 12.5 -78.03125 C 12.71875 -79.007812 13.320312 -79.5 14.3125 -79.5 L 53.15625 -79.5 C 54.519531 -79.5 55.007812 -78.859375 54.625 -77.578125 L 52.125 -67.921875 C 51.90625 -66.929688 51.300781 -66.4375 50.3125 -66.4375 L 38.84375 -66.4375 L 22.03125 -1.46875 C 21.800781 -0.488281 21.195312 0 20.21875 0 Z M 7.265625 0 "/></g></g></g><g fill="#000000" fill-opacity="1"><g transform="translate(693.784177, 190.734912)"><g><path d="M 18.734375 0.90625 C 14.953125 0.53125 11.601562 -0.882812 8.6875 -3.34375 C 5.769531 -5.8125 3.570312 -9.203125 2.09375 -13.515625 C 0.625 -17.828125 0.15625 -22.828125 0.6875 -28.515625 C 0.757812 -29.492188 1.328125 -30.0625 2.390625 -30.21875 L 13.515625 -32.03125 C 14.804688 -32.257812 15.375 -31.691406 15.21875 -30.328125 C 14.6875 -25.023438 14.96875 -20.9375 16.0625 -18.0625 C 17.164062 -15.1875 18.625 -13.59375 20.4375 -13.28125 C 21.726562 -13.132812 22.828125 -13.550781 23.734375 -14.53125 C 24.640625 -15.519531 25.25 -17.265625 25.5625 -19.765625 C 25.9375 -23.472656 25.328125 -26.648438 23.734375 -29.296875 C 22.148438 -31.953125 20.222656 -34.90625 17.953125 -38.15625 C 16.503906 -40.125 15.15625 -42.265625 13.90625 -44.578125 C 12.664062 -46.890625 11.738281 -49.484375 11.125 -52.359375 C 10.519531 -55.234375 10.519531 -58.414062 11.125 -61.90625 C 12.039062 -66.820312 13.613281 -70.640625 15.84375 -73.359375 C 18.070312 -76.085938 20.644531 -77.984375 23.5625 -79.046875 C 26.476562 -80.109375 29.414062 -80.5625 32.375 -80.40625 C 35.78125 -80.257812 38.675781 -79.367188 41.0625 -77.734375 C 43.445312 -76.109375 45.335938 -74.007812 46.734375 -71.4375 C 48.140625 -68.863281 49.125 -66.039062 49.6875 -62.96875 C 50.257812 -59.90625 50.429688 -56.898438 50.203125 -53.953125 C 50.128906 -52.960938 49.5625 -52.394531 48.5 -52.25 L 38.5 -50.765625 C 37.289062 -50.535156 36.6875 -51.101562 36.6875 -52.46875 C 36.832031 -56.9375 36.375 -60.304688 35.3125 -62.578125 C 34.257812 -64.847656 32.976562 -66.023438 31.46875 -66.109375 C 30.550781 -66.253906 29.523438 -65.925781 28.390625 -65.125 C 27.253906 -64.332031 26.535156 -62.953125 26.234375 -60.984375 C 25.703125 -58.035156 25.984375 -55.578125 27.078125 -53.609375 C 28.179688 -51.640625 29.679688 -49.367188 31.578125 -46.796875 C 33.242188 -44.597656 34.960938 -42.210938 36.734375 -39.640625 C 38.515625 -37.066406 39.914062 -34.171875 40.9375 -30.953125 C 41.96875 -27.734375 42.140625 -23.96875 41.453125 -19.65625 C 40.921875 -15.71875 39.691406 -12.117188 37.765625 -8.859375 C 35.835938 -5.597656 33.28125 -3.0625 30.09375 -1.25 C 26.914062 0.5625 23.128906 1.28125 18.734375 0.90625 Z M 18.734375 0.90625 "/></g></g></g><g fill="#000000" fill-opacity="1"><g transform="translate(739.893914, 190.734912)"><g><path d="M 5.90625 -32.703125 C 4.539062 -32.703125 4.046875 -33.347656 4.421875 -34.640625 L 7.265625 -45.09375 C 7.492188 -46.070312 8.101562 -46.5625 9.09375 -46.5625 L 36.796875 -46.5625 C 38.160156 -46.5625 38.65625 -45.921875 38.28125 -44.640625 L 35.4375 -34.1875 C 35.207031 -33.195312 34.601562 -32.703125 33.625 -32.703125 Z M 5.90625 -32.703125 "/></g></g></g><g fill="#000000" fill-opacity="1"><g transform="translate(396.632597, 306.366116)"><g><path d="M 19.984375 0.90625 C 12.109375 -0.15625 7.109375 -4.773438 4.984375 -12.953125 C 2.867188 -21.128906 3.664062 -32.109375 7.375 -45.890625 C 10.707031 -56.941406 15.023438 -65.535156 20.328125 -71.671875 C 25.628906 -77.804688 31.722656 -80.757812 38.609375 -80.53125 C 42.929688 -80.445312 46.550781 -79.304688 49.46875 -77.109375 C 52.382812 -74.921875 54.519531 -72.007812 55.875 -68.375 C 57.238281 -64.738281 57.65625 -60.6875 57.125 -56.21875 C 57.050781 -55.238281 56.410156 -54.632812 55.203125 -54.40625 L 43.734375 -52.359375 C 42.140625 -52.128906 41.53125 -52.773438 41.90625 -54.296875 C 42.289062 -58.003906 42.175781 -60.9375 41.5625 -63.09375 C 40.957031 -65.25 39.785156 -66.40625 38.046875 -66.5625 C 35.773438 -66.707031 33.21875 -64.71875 30.375 -60.59375 C 27.539062 -56.46875 24.988281 -50.390625 22.71875 -42.359375 C 20.0625 -33.128906 18.863281 -25.972656 19.125 -20.890625 C 19.394531 -15.816406 20.78125 -13.171875 23.28125 -12.953125 C 25.101562 -12.867188 26.882812 -13.8125 28.625 -15.78125 C 30.363281 -17.75 31.953125 -21.269531 33.390625 -26.34375 C 33.546875 -26.875 33.71875 -27.253906 33.90625 -27.484375 C 34.09375 -27.710938 34.265625 -27.898438 34.421875 -28.046875 L 42.03125 -34.296875 C 42.632812 -34.753906 42.765625 -35.285156 42.421875 -35.890625 C 42.078125 -36.492188 41.601562 -36.609375 41 -36.234375 L 33.953125 -32.703125 C 33.734375 -32.628906 33.46875 -32.515625 33.15625 -32.359375 C 32.851562 -32.210938 32.59375 -32.101562 32.375 -32.03125 L 28.96875 -31.46875 C 27.519531 -31.238281 26.953125 -31.84375 27.265625 -33.28125 L 29.078125 -43.265625 C 29.222656 -43.796875 29.445312 -44.25 29.75 -44.625 C 30.0625 -45.007812 30.476562 -45.238281 31 -45.3125 L 54.40625 -48.953125 C 55.84375 -49.179688 56.410156 -48.578125 56.109375 -47.140625 C 55.503906 -44.035156 54.894531 -41.421875 54.28125 -39.296875 C 53.675781 -37.179688 53.070312 -35.175781 52.46875 -33.28125 C 49.21875 -21.84375 44.804688 -13.078125 39.234375 -6.984375 C 33.671875 -0.890625 27.253906 1.738281 19.984375 0.90625 Z M 19.984375 0.90625 "/></g></g></g><g fill="#000000" fill-opacity="1"><g transform="translate(451.146587, 306.366116)"><g><path d="M 0.109375 0 C -1.554688 0 -2.195312 -0.832031 -1.8125 -2.5 L 17.609375 -78.03125 C 17.835938 -79.007812 18.441406 -79.5 19.421875 -79.5 L 52.359375 -79.5 C 53.722656 -79.5 54.21875 -78.859375 53.84375 -77.578125 L 51.109375 -67.125 C 50.878906 -66.132812 50.273438 -65.640625 49.296875 -65.640625 L 31.125 -65.640625 L 26.34375 -47.46875 L 40.09375 -47.46875 C 41.457031 -47.46875 41.945312 -46.828125 41.5625 -45.546875 L 39.078125 -36 C 38.847656 -35.019531 38.238281 -34.53125 37.25 -34.53125 L 23.0625 -34.53125 L 17.71875 -13.859375 L 35.4375 -13.859375 C 36.800781 -13.859375 37.289062 -13.210938 36.90625 -11.921875 L 34.1875 -1.46875 C 33.957031 -0.488281 33.351562 0 32.375 0 Z M 0.109375 0 "/></g></g></g><g fill="#000000" fill-opacity="1"><g transform="translate(493.849211, 306.366116)"><g><path d="M 18.734375 0.90625 C 14.953125 0.53125 11.601562 -0.882812 8.6875 -3.34375 C 5.769531 -5.8125 3.570312 -9.203125 2.09375 -13.515625 C 0.625 -17.828125 0.15625 -22.828125 0.6875 -28.515625 C 0.757812 -29.492188 1.328125 -30.0625 2.390625 -30.21875 L 13.515625 -32.03125 C 14.804688 -32.257812 15.375 -31.691406 15.21875 -30.328125 C 14.6875 -25.023438 14.96875 -20.9375 16.0625 -18.0625 C 17.164062 -15.1875 18.625 -13.59375 20.4375 -13.28125 C 21.726562 -13.132812 22.828125 -13.550781 23.734375 -14.53125 C 24.640625 -15.519531 25.25 -17.265625 25.5625 -19.765625 C 25.9375 -23.472656 25.328125 -26.648438 23.734375 -29.296875 C 22.148438 -31.953125 20.222656 -34.90625 17.953125 -38.15625 C 16.503906 -40.125 15.15625 -42.265625 13.90625 -44.578125 C 12.664062 -46.890625 11.738281 -49.484375 11.125 -52.359375 C 10.519531 -55.234375 10.519531 -58.414062 11.125 -61.90625 C 12.039062 -66.820312 13.613281 -70.640625 15.84375 -73.359375 C 18.070312 -76.085938 20.644531 -77.984375 23.5625 -79.046875 C 26.476562 -80.109375 29.414062 -80.5625 32.375 -80.40625 C 35.78125 -80.257812 38.675781 -79.367188 41.0625 -77.734375 C 43.445312 -76.109375 45.335938 -74.007812 46.734375 -71.4375 C 48.140625 -68.863281 49.125 -66.039062 49.6875 -62.96875 C 50.257812 -59.90625 50.429688 -56.898438 50.203125 -53.953125 C 50.128906 -52.960938 49.5625 -52.394531 48.5 -52.25 L 38.5 -50.765625 C 37.289062 -50.535156 36.6875 -51.101562 36.6875 -52.46875 C 36.832031 -56.9375 36.375 -60.304688 35.3125 -62.578125 C 34.257812 -64.847656 32.976562 -66.023438 31.46875 -66.109375 C 30.550781 -66.253906 29.523438 -65.925781 28.390625 -65.125 C 27.253906 -64.332031 26.535156 -62.953125 26.234375 -60.984375 C 25.703125 -58.035156 25.984375 -55.578125 27.078125 -53.609375 C 28.179688 -51.640625 29.679688 -49.367188 31.578125 -46.796875 C 33.242188 -44.597656 34.960938 -42.210938 36.734375 -39.640625 C 38.515625 -37.066406 39.914062 -34.171875 40.9375 -30.953125 C 41.96875 -27.734375 42.140625 -23.96875 41.453125 -19.65625 C 40.921875 -15.71875 39.691406 -12.117188 37.765625 -8.859375 C 35.835938 -5.597656 33.28125 -3.0625 30.09375 -1.25 C 26.914062 0.5625 23.128906 1.28125 18.734375 0.90625 Z M 18.734375 0.90625 "/></g></g></g><g fill="#000000" fill-opacity="1"><g transform="translate(539.958958, 306.366116)"><g><path d="M 0.109375 0 C -1.554688 0 -2.195312 -0.832031 -1.8125 -2.5 L 17.609375 -78.03125 C 17.835938 -79.007812 18.441406 -79.5 19.421875 -79.5 L 52.359375 -79.5 C 53.722656 -79.5 54.21875 -78.859375 53.84375 -77.578125 L 51.109375 -67.125 C 50.878906 -66.132812 50.273438 -65.640625 49.296875 -65.640625 L 31.125 -65.640625 L 26.34375 -47.46875 L 40.09375 -47.46875 C 41.457031 -47.46875 41.945312 -46.828125 41.5625 -45.546875 L 39.078125 -36 C 38.847656 -35.019531 38.238281 -34.53125 37.25 -34.53125 L 23.0625 -34.53125 L 17.71875 -13.859375 L 35.4375 -13.859375 C 36.800781 -13.859375 37.289062 -13.210938 36.90625 -11.921875 L 34.1875 -1.46875 C 33.957031 -0.488281 33.351562 0 32.375 0 Z M 0.109375 0 "/></g></g></g><g fill="#000000" fill-opacity="1"><g transform="translate(582.661582, 306.366116)"><g><path d="M 7.265625 0 C 5.898438 0 5.410156 -0.644531 5.796875 -1.9375 L 22.484375 -66.4375 L 11.46875 -66.4375 C 10.101562 -66.4375 9.613281 -67.082031 10 -68.375 L 12.5 -78.03125 C 12.71875 -79.007812 13.320312 -79.5 14.3125 -79.5 L 53.15625 -79.5 C 54.519531 -79.5 55.007812 -78.859375 54.625 -77.578125 L 52.125 -67.921875 C 51.90625 -66.929688 51.300781 -66.4375 50.3125 -66.4375 L 38.84375 -66.4375 L 22.03125 -1.46875 C 21.800781 -0.488281 21.195312 0 20.21875 0 Z M 7.265625 0 "/></g></g></g><g fill="#000000" fill-opacity="1"><g transform="translate(625.023481, 306.366116)"><g><path d="M -3.640625 0 C -4.992188 0 -5.484375 -0.644531 -5.109375 -1.9375 L -2.390625 -12.15625 C -2.234375 -12.53125 -2.117188 -12.867188 -2.046875 -13.171875 C -1.972656 -13.472656 -1.820312 -13.773438 -1.59375 -14.078125 L 28.515625 -62.125 C 29.035156 -62.957031 29.640625 -63.675781 30.328125 -64.28125 L 34.078125 -66.78125 C 34.523438 -67.082031 34.691406 -67.5 34.578125 -68.03125 C 34.472656 -68.5625 34.039062 -68.75 33.28125 -68.59375 L 12.375 -63.828125 C 11.625 -63.679688 11.078125 -63.773438 10.734375 -64.109375 C 10.390625 -64.453125 10.296875 -65.003906 10.453125 -65.765625 L 13.75 -78.140625 C 13.96875 -79.046875 14.609375 -79.5 15.671875 -79.5 L 50.09375 -79.5 C 51.445312 -79.5 51.9375 -78.859375 51.5625 -77.578125 L 48.953125 -67.6875 C 48.878906 -67.382812 48.785156 -67.082031 48.671875 -66.78125 C 48.554688 -66.476562 48.382812 -66.140625 48.15625 -65.765625 L 17.953125 -16.578125 C 17.722656 -16.203125 17.457031 -15.820312 17.15625 -15.4375 C 16.851562 -15.0625 16.507812 -14.722656 16.125 -14.421875 L 12.5 -11.921875 C 11.882812 -11.546875 11.707031 -11.09375 11.96875 -10.5625 C 12.238281 -10.03125 12.675781 -9.84375 13.28125 -10 L 33.953125 -15.671875 C 34.785156 -15.898438 35.375 -15.820312 35.71875 -15.4375 C 36.0625 -15.0625 36.15625 -14.5 36 -13.75 L 32.703125 -1.359375 C 32.484375 -0.453125 31.84375 0 30.78125 0 Z M -3.640625 0 "/></g></g></g><g fill="#000000" fill-opacity="1"><g transform="translate(309.465434, 421.997319)"><g><path d="M 0.109375 0 C -1.554688 0 -2.195312 -0.832031 -1.8125 -2.5 L 17.609375 -78.03125 C 17.835938 -79.007812 18.441406 -79.5 19.421875 -79.5 L 52.359375 -79.5 C 53.722656 -79.5 54.21875 -78.859375 53.84375 -77.578125 L 51.109375 -67.125 C 50.878906 -66.132812 50.273438 -65.640625 49.296875 -65.640625 L 31.125 -65.640625 L 26.34375 -47.46875 L 40.09375 -47.46875 C 41.457031 -47.46875 41.945312 -46.828125 41.5625 -45.546875 L 39.078125 -36 C 38.847656 -35.019531 38.238281 -34.53125 37.25 -34.53125 L 23.0625 -34.53125 L 17.71875 -13.859375 L 35.4375 -13.859375 C 36.800781 -13.859375 37.289062 -13.210938 36.90625 -11.921875 L 34.1875 -1.46875 C 33.957031 -0.488281 33.351562 0 32.375 0 Z M 0.109375 0 "/></g></g></g><g fill="#000000" fill-opacity="1"><g transform="translate(352.168058, 421.997319)"><g><path d="M 0.109375 0 C -1.253906 0 -1.742188 -0.644531 -1.359375 -1.9375 L 18.28125 -78.03125 C 18.507812 -79.007812 19.117188 -79.5 20.109375 -79.5 L 33.046875 -79.5 C 34.410156 -79.5 34.90625 -78.859375 34.53125 -77.578125 L 14.875 -1.46875 C 14.644531 -0.488281 14.039062 0 13.0625 0 Z M 0.109375 0 "/></g></g></g><g fill="#000000" fill-opacity="1"><g transform="translate(379.65219, 421.997319)"><g><path d="M -0.234375 0 C -0.835938 0 -1.304688 -0.207031 -1.640625 -0.625 C -1.984375 -1.039062 -2.082031 -1.550781 -1.9375 -2.15625 L 17.71875 -77.921875 C 17.945312 -79.054688 18.628906 -79.625 19.765625 -79.625 L 30.328125 -79.5 C 31.460938 -79.5 32.101562 -78.894531 32.25 -77.6875 L 37.140625 -31.6875 C 37.210938 -30.925781 37.609375 -30.546875 38.328125 -30.546875 C 39.046875 -30.546875 39.445312 -31.003906 39.53125 -31.921875 L 41.453125 -52.703125 C 41.523438 -53.078125 41.582031 -53.453125 41.625 -53.828125 C 41.664062 -54.210938 41.722656 -54.59375 41.796875 -54.96875 L 47.46875 -77.796875 C 47.695312 -78.929688 48.378906 -79.5 49.515625 -79.5 L 60.984375 -79.625 C 61.597656 -79.625 62.054688 -79.414062 62.359375 -79 C 62.660156 -78.582031 62.734375 -78.066406 62.578125 -77.453125 L 42.9375 -1.46875 C 42.707031 -0.488281 41.988281 0 40.78125 0 L 30.21875 0 C 29.6875 0 29.269531 -0.113281 28.96875 -0.34375 C 28.664062 -0.570312 28.472656 -1.0625 28.390625 -1.8125 L 23.515625 -47.703125 C 23.429688 -48.609375 23.03125 -49.023438 22.3125 -48.953125 C 21.59375 -48.878906 21.195312 -48.460938 21.125 -47.703125 L 19.1875 -26.34375 C 19.113281 -26.039062 19.019531 -25.546875 18.90625 -24.859375 C 18.789062 -24.179688 18.660156 -23.65625 18.515625 -23.28125 L 13.171875 -1.59375 C 12.941406 -0.53125 12.300781 0 11.25 0 Z M -0.234375 0 "/></g></g></g><g fill="#000000" fill-opacity="1"><g transform="translate(434.620466, 421.997319)"><g><path d="M 27.59375 0 C 26.238281 0 25.75 -0.644531 26.125 -1.9375 L 33.734375 -31.234375 L 21.46875 -29.078125 L 14.3125 -1.46875 C 14.082031 -0.488281 13.476562 0 12.5 0 L -0.453125 0 C -1.816406 0 -2.3125 -0.644531 -1.9375 -1.9375 L 17.71875 -78.03125 C 17.945312 -79.007812 18.550781 -79.5 19.53125 -79.5 L 32.484375 -79.5 C 33.847656 -79.5 34.335938 -78.859375 33.953125 -77.578125 L 25.09375 -43.265625 L 37.375 -45.4375 L 45.765625 -78.03125 C 45.992188 -79.007812 46.601562 -79.5 47.59375 -79.5 L 60.53125 -79.5 C 61.894531 -79.5 62.390625 -78.859375 62.015625 -77.578125 L 42.359375 -1.46875 C 42.140625 -0.488281 41.535156 0 40.546875 0 Z M 27.59375 0 "/></g></g></g><g fill="#000000" fill-opacity="1"><g transform="translate(489.020874, 421.997319)"><g><path d="M -6.359375 0 C -7.035156 0 -7.453125 -0.222656 -7.609375 -0.671875 C -7.765625 -1.128906 -7.648438 -1.660156 -7.265625 -2.265625 L 46.109375 -78.484375 C 46.566406 -79.160156 47.285156 -79.5 48.265625 -79.5 L 61.671875 -79.5 C 63.035156 -79.5 63.53125 -78.859375 63.15625 -77.578125 L 43.5 -1.46875 C 43.269531 -0.488281 42.664062 0 41.6875 0 L 28.515625 0 C 27.984375 0 27.546875 -0.164062 27.203125 -0.5 C 26.859375 -0.84375 26.800781 -1.320312 27.03125 -1.9375 L 31.234375 -14.078125 L 18.40625 -14.078125 L 10.109375 -1.015625 C 9.734375 -0.335938 9.050781 0 8.0625 0 Z M 26.34375 -27.140625 L 36 -27.140625 L 45.4375 -53.15625 C 45.8125 -54.132812 45.597656 -54.773438 44.796875 -55.078125 C 44.003906 -55.390625 43.382812 -55.128906 42.9375 -54.296875 Z M 26.34375 -27.140625 "/></g></g></g><g fill="#000000" fill-opacity="1"><g transform="translate(544.557005, 421.997319)"><g><path d="M -0.453125 0 C -1.816406 0 -2.3125 -0.644531 -1.9375 -1.9375 L 17.71875 -78.03125 C 17.945312 -79.007812 18.550781 -79.5 19.53125 -79.5 L 32.484375 -79.5 C 33.847656 -79.5 34.335938 -78.859375 33.953125 -77.578125 L 17.484375 -13.625 L 34.1875 -13.625 C 35.550781 -13.625 36.039062 -12.984375 35.65625 -11.703125 L 32.9375 -1.46875 C 32.707031 -0.488281 32.101562 0 31.125 0 Z M -0.453125 0 "/></g></g></g><g fill="#000000" fill-opacity="1"><g transform="translate(584.988206, 421.997319)"><g><path d="M 7.265625 0 C 5.898438 0 5.410156 -0.644531 5.796875 -1.9375 L 22.484375 -66.4375 L 11.46875 -66.4375 C 10.101562 -66.4375 9.613281 -67.082031 10 -68.375 L 12.5 -78.03125 C 12.71875 -79.007812 13.320312 -79.5 14.3125 -79.5 L 53.15625 -79.5 C 54.519531 -79.5 55.007812 -78.859375 54.625 -77.578125 L 52.125 -67.921875 C 51.90625 -66.929688 51.300781 -66.4375 50.3125 -66.4375 L 38.84375 -66.4375 L 22.03125 -1.46875 C 21.800781 -0.488281 21.195312 0 20.21875 0 Z M 7.265625 0 "/></g></g></g><g fill="#000000" fill-opacity="1"><g transform="translate(627.350126, 421.997319)"><g><path d="M 0.109375 0 C -1.554688 0 -2.195312 -0.832031 -1.8125 -2.5 L 17.609375 -78.03125 C 17.835938 -79.007812 18.441406 -79.5 19.421875 -79.5 L 52.359375 -79.5 C 53.722656 -79.5 54.21875 -78.859375 53.84375 -77.578125 L 51.109375 -67.125 C 50.878906 -66.132812 50.273438 -65.640625 49.296875 -65.640625 L 31.125 -65.640625 L 26.34375 -47.46875 L 40.09375 -47.46875 C 41.457031 -47.46875 41.945312 -46.828125 41.5625 -45.546875 L 39.078125 -36 C 38.847656 -35.019531 38.238281 -34.53125 37.25 -34.53125 L 23.0625 -34.53125 L 17.71875 -13.859375 L 35.4375 -13.859375 C 36.800781 -13.859375 37.289062 -13.210938 36.90625 -11.921875 L 34.1875 -1.46875 C 33.957031 -0.488281 33.351562 0 32.375 0 Z M 0.109375 0 "/></g></g></g><g fill="#000000" fill-opacity="1"><g transform="translate(670.052749, 421.997319)"><g><path d="M -0.234375 0 C -0.835938 0 -1.304688 -0.207031 -1.640625 -0.625 C -1.984375 -1.039062 -2.082031 -1.550781 -1.9375 -2.15625 L 17.71875 -77.921875 C 17.945312 -79.054688 18.628906 -79.625 19.765625 -79.625 L 30.328125 -79.5 C 31.460938 -79.5 32.101562 -78.894531 32.25 -77.6875 L 37.140625 -31.6875 C 37.210938 -30.925781 37.609375 -30.546875 38.328125 -30.546875 C 39.046875 -30.546875 39.445312 -31.003906 39.53125 -31.921875 L 41.453125 -52.703125 C 41.523438 -53.078125 41.582031 -53.453125 41.625 -53.828125 C 41.664062 -54.210938 41.722656 -54.59375 41.796875 -54.96875 L 47.46875 -77.796875 C 47.695312 -78.929688 48.378906 -79.5 49.515625 -79.5 L 60.984375 -79.625 C 61.597656 -79.625 62.054688 -79.414062 62.359375 -79 C 62.660156 -78.582031 62.734375 -78.066406 62.578125 -77.453125 L 42.9375 -1.46875 C 42.707031 -0.488281 41.988281 0 40.78125 0 L 30.21875 0 C 29.6875 0 29.269531 -0.113281 28.96875 -0.34375 C 28.664062 -0.570312 28.472656 -1.0625 28.390625 -1.8125 L 23.515625 -47.703125 C 23.429688 -48.609375 23.03125 -49.023438 22.3125 -48.953125 C 21.59375 -48.878906 21.195312 -48.460938 21.125 -47.703125 L 19.1875 -26.34375 C 19.113281 -26.039062 19.019531 -25.546875 18.90625 -24.859375 C 18.789062 -24.179688 18.660156 -23.65625 18.515625 -23.28125 L 13.171875 -1.59375 C 12.941406 -0.53125 12.300781 0 11.25 0 Z M -0.234375 0 "/></g></g></g><g fill="#000000" fill-opacity="1"><g transform="translate(725.021014, 421.997319)"><g><path d="M 7.046875 -24.3125 C 5.679688 -24.3125 5.1875 -24.953125 5.5625 -26.234375 L 18.859375 -78.03125 C 19.078125 -79.007812 19.679688 -79.5 20.671875 -79.5 L 33.625 -79.5 C 34.976562 -79.5 35.46875 -78.859375 35.09375 -77.578125 L 21.8125 -25.78125 C 21.582031 -24.800781 20.972656 -24.3125 19.984375 -24.3125 Z M 0.109375 0 C -1.253906 0 -1.742188 -0.644531 -1.359375 -1.9375 L 2.265625 -16.015625 C 2.492188 -16.992188 3.101562 -17.484375 4.09375 -17.484375 L 18.28125 -17.484375 C 19.644531 -17.484375 20.140625 -16.84375 19.765625 -15.5625 L 16.125 -1.46875 C 15.894531 -0.488281 15.289062 0 14.3125 0 Z M 0.109375 0 "/></g></g></g><g clip-path="url(#d480ef48d4)"><path fill="#000000" d="M 78.816406 409.132812 L 48.1875 341.441406 C 47.058594 338.96875 47.511719 337.394531 49.988281 336.042969 L 93.453125 313.328125 L 147.054688 224.949219 C 148.628906 222.25 151.332031 222.25 152.683594 225.171875 L 224.976562 384.621094 C 226.328125 387.316406 224.75 389.34375 221.824219 389.34375 L 136.019531 387.542969 L 131.289062 423.074219 C 131.0625 425.773438 129.261719 426.898438 126.785156 426.671875 L 114.625 425.324219 C 112.144531 425.097656 110.570312 423.300781 111.019531 420.828125 L 114.398438 395.1875 L 84.21875 410.929688 C 81.96875 412.054688 79.941406 411.605469 78.816406 409.132812 Z M 95.929688 333.570312 L 72.285156 345.9375 L 90.527344 385.96875 L 114.171875 373.824219 Z M 196.148438 370 L 147.503906 262.503906 L 112.144531 320.976562 L 133.765625 368.652344 Z M 188.941406 249.238281 L 201.78125 217.527344 L 191.195312 221.351562 C 188.71875 222.25 186.914062 221.125 186.015625 218.652344 L 182.863281 209.207031 C 181.960938 206.507812 182.863281 204.933594 185.339844 204.035156 L 225.878906 190.992188 C 229.03125 189.867188 230.832031 191.664062 229.707031 194.8125 L 206.507812 255.535156 C 205.609375 257.78125 203.808594 258.90625 201.328125 258.007812 L 191.421875 254.410156 C 188.941406 253.507812 188.042969 251.710938 188.941406 249.238281 Z M 210.113281 293.765625 L 262.8125 246.089844 L 248.847656 248.5625 C 246.371094 249.011719 244.570312 247.886719 244.121094 245.1875 L 242.316406 235.742188 C 241.867188 233.269531 243.21875 231.46875 245.695312 231.019531 L 310.554688 220.449219 C 314.386719 219.777344 315.734375 222.476562 312.808594 225.171875 L 256.28125 276.222656 L 279.027344 273.300781 C 281.503906 273.074219 283.304688 274.425781 283.53125 276.898438 L 284.882812 286.792969 C 285.109375 289.265625 283.757812 291.066406 281.277344 291.289062 L 212.363281 299.160156 C 209.210938 299.613281 207.410156 296.238281 210.113281 293.765625 Z M 262.585938 351.335938 L 270.019531 340.542969 L 233.757812 342.789062 C 231.28125 343.015625 229.707031 341.441406 229.480469 338.96875 L 228.578125 329.070312 C 228.355469 326.597656 229.929688 325.023438 232.410156 324.800781 L 299.519531 320.75 C 302.898438 320.527344 304.25 322.550781 302.449219 325.472656 L 278.351562 361.230469 C 277 363.480469 274.746094 363.929688 272.722656 362.582031 L 263.710938 356.957031 C 261.460938 355.382812 261.234375 353.359375 262.585938 351.335938 Z M 262.585938 351.335938 " fill-opacity="1" fill-rule="nonzero"/></g><g clip-path="url(#7aba168acf)"><path fill="#000000" d="M 802.898438 525.164062 C 807.664062 525.488281 811.09375 521.074219 812.910156 513.503906 C 813.191406 512.289062 813.515625 510.996094 813.835938 509.011719 C 813.917969 508.527344 813.675781 508.324219 813.230469 508.40625 L 805.605469 510.0625 C 805.28125 510.144531 805.078125 510.386719 805.039062 510.710938 L 804.59375 513.992188 C 804.515625 514.476562 804.757812 514.679688 805.199219 514.558594 L 806.128906 514.273438 C 806.289062 514.234375 806.410156 514.195312 806.574219 514.113281 L 808.992188 512.777344 C 809.679688 512.414062 810.082031 513.261719 809.558594 513.707031 L 807.21875 515.570312 C 807.015625 515.730469 806.9375 515.894531 806.855469 516.175781 C 806.089844 519.292969 804.957031 520.628906 803.746094 520.589844 C 802.132812 520.550781 801.648438 517.191406 803.0625 511.078125 C 804.273438 505.8125 806.167969 502.898438 807.621094 502.980469 C 808.671875 503.019531 809.113281 504.71875 808.992188 507.148438 C 808.953125 507.59375 809.195312 507.835938 809.640625 507.714844 L 813.351562 506.867188 C 813.675781 506.785156 813.878906 506.582031 813.917969 506.21875 C 814.242188 501.644531 811.699219 498.324219 807.582031 498.40625 C 803.101562 498.484375 799.792969 502.898438 798.058594 510.226562 C 796.039062 519.253906 797.773438 524.800781 802.898438 525.164062 Z M 770.574219 506.21875 L 776.261719 505.855469 C 776.585938 505.8125 776.828125 505.609375 776.910156 505.285156 L 778 500.105469 C 778.078125 499.660156 777.835938 499.417969 777.394531 499.539062 L 771.421875 501.117188 C 771.097656 501.199219 770.9375 501.359375 770.855469 501.722656 L 770.046875 505.570312 C 769.96875 505.976562 770.167969 506.257812 770.574219 506.21875 Z M 795.3125 555.042969 C 799.550781 555.164062 801.929688 551.84375 802.292969 547.957031 C 802.699219 543.789062 800.316406 541.441406 798.621094 539.335938 C 797.332031 537.714844 796.441406 536.742188 796.644531 534.800781 C 796.765625 533.503906 797.652344 533.019531 798.257812 533.058594 C 799.226562 533.101562 800.277344 534.4375 800.277344 537.878906 C 800.277344 538.324219 800.558594 538.523438 800.960938 538.445312 L 803.949219 537.796875 C 804.273438 537.714844 804.472656 537.511719 804.515625 537.148438 C 804.675781 532.734375 802.738281 528.445312 798.300781 528.445312 C 795.472656 528.445312 792.367188 530.023438 791.761719 534.800781 C 791.359375 538.199219 792.890625 540.550781 794.34375 542.371094 C 795.957031 544.394531 797.25 545.8125 797.128906 548.199219 C 797.046875 549.820312 796.402344 550.425781 795.59375 550.386719 C 794.304688 550.304688 793.292969 548.320312 793.65625 544.679688 C 793.699219 544.191406 793.414062 543.992188 793.011719 544.070312 L 789.582031 544.800781 C 789.257812 544.882812 789.058594 545.082031 789.015625 545.449219 C 788.652344 551.277344 791.558594 554.921875 795.3125 555.042969 Z M 767.101562 527.148438 L 771.300781 526.867188 C 771.621094 526.824219 771.863281 526.621094 771.945312 526.296875 L 775.539062 508.605469 C 775.617188 508.203125 775.375 507.917969 774.972656 507.960938 L 770.773438 508.203125 C 770.410156 508.242188 770.210938 508.445312 770.128906 508.769531 L 766.539062 526.5 C 766.457031 526.90625 766.699219 527.1875 767.101562 527.148438 Z M 775.78125 555.933594 L 785.425781 555.324219 C 785.789062 555.285156 785.988281 555.082031 786.070312 554.757812 L 786.714844 551.480469 C 786.796875 551.074219 786.554688 550.792969 786.152344 550.832031 L 781.429688 551.15625 L 782.800781 544.4375 L 787.320312 544.152344 C 787.683594 544.113281 787.886719 543.910156 787.96875 543.585938 L 788.613281 540.304688 C 788.695312 539.902344 788.492188 539.617188 788.089844 539.660156 L 783.691406 539.941406 L 784.898438 534.070312 L 789.785156 533.746094 C 790.148438 533.707031 790.347656 533.503906 790.429688 533.179688 L 791.074219 529.859375 C 791.15625 529.457031 790.953125 529.171875 790.550781 529.214844 L 780.90625 529.859375 C 780.542969 529.902344 780.339844 530.105469 780.257812 530.429688 L 775.214844 555.285156 C 775.132812 555.691406 775.375 555.972656 775.78125 555.933594 Z M 756.042969 528.160156 C 760.804688 528.484375 764.238281 524.070312 766.054688 516.5 C 766.335938 515.285156 766.660156 513.992188 766.980469 512.007812 C 767.0625 511.523438 766.820312 511.320312 766.375 511.398438 L 758.75 513.019531 C 758.425781 513.101562 758.222656 513.34375 758.183594 513.667969 L 757.738281 516.945312 C 757.660156 517.433594 757.902344 517.636719 758.34375 517.511719 L 759.273438 517.269531 C 759.433594 517.230469 759.554688 517.191406 759.71875 517.109375 L 762.179688 515.773438 C 762.863281 515.40625 763.226562 516.296875 762.703125 516.703125 L 760.402344 518.484375 C 760.160156 518.648438 760.039062 518.890625 759.957031 519.171875 C 759.234375 522.289062 758.101562 523.625 756.890625 523.585938 C 755.277344 523.546875 754.792969 520.183594 756.207031 514.070312 C 757.417969 508.808594 759.3125 505.894531 760.765625 505.976562 C 761.816406 506.015625 762.257812 507.714844 762.136719 510.144531 C 762.097656 510.589844 762.339844 510.832031 762.785156 510.710938 L 766.496094 509.863281 C 766.820312 509.78125 767.023438 509.578125 767.0625 509.214844 C 767.386719 504.640625 764.84375 501.320312 760.726562 501.402344 C 756.246094 501.480469 752.9375 505.894531 751.203125 513.222656 C 749.183594 522.25 750.917969 527.796875 756.042969 528.160156 Z M 763.710938 556.785156 L 768.070312 556.5 C 768.394531 556.460938 768.59375 556.296875 768.714844 555.972656 L 778.160156 530.792969 C 778.320312 530.386719 778.121094 530.0625 777.675781 530.105469 L 773.316406 530.386719 C 772.996094 530.429688 772.792969 530.589844 772.671875 530.914062 L 763.226562 556.09375 C 763.066406 556.5 763.269531 556.824219 763.710938 556.785156 Z M 731.183594 529.496094 L 735.261719 529.253906 C 735.625 529.214844 735.785156 529.011719 735.867188 528.6875 L 736.632812 524.679688 C 736.671875 524.4375 736.710938 524.191406 736.710938 523.949219 L 737.035156 513.75 C 737.035156 513.140625 737.761719 513.058594 737.84375 513.667969 L 739.980469 528.363281 C 740.023438 528.769531 740.265625 528.929688 740.628906 528.890625 L 744.90625 528.605469 C 745.269531 528.566406 745.46875 528.363281 745.550781 528.039062 L 750.597656 503.140625 C 750.675781 502.738281 750.433594 502.453125 750.03125 502.492188 L 745.996094 502.777344 C 745.632812 502.816406 745.46875 503.019531 745.390625 503.34375 L 744.339844 508.890625 C 744.300781 509.132812 744.257812 509.375 744.257812 509.617188 L 743.976562 521.15625 C 743.976562 521.765625 743.210938 521.84375 743.128906 521.320312 L 740.507812 503.707031 C 740.464844 503.34375 740.222656 503.140625 739.859375 503.183594 L 736.308594 503.382812 C 735.945312 503.425781 735.746094 503.628906 735.664062 503.949219 L 730.617188 528.847656 C 730.539062 529.253906 730.78125 529.539062 731.183594 529.496094 Z M 752.695312 557.550781 L 756.972656 557.269531 C 757.296875 557.230469 757.496094 557.066406 757.617188 556.742188 L 765.730469 535.164062 L 768.675781 534.960938 C 769 534.921875 769.199219 534.761719 769.320312 534.4375 L 770.453125 531.320312 C 770.613281 530.914062 770.410156 530.589844 769.96875 530.628906 L 758.425781 531.398438 C 758.101562 531.441406 757.902344 531.601562 757.78125 531.925781 L 756.648438 535.042969 C 756.488281 535.449219 756.730469 535.773438 757.175781 535.730469 L 760.160156 535.527344 L 752.210938 556.863281 C 752.046875 557.269531 752.25 557.59375 752.695312 557.550781 Z M 744.542969 558.078125 L 748.738281 557.796875 C 749.101562 557.753906 749.304688 557.550781 749.386719 557.230469 L 754.429688 532.332031 C 754.511719 531.925781 754.269531 531.640625 753.863281 531.683594 L 749.667969 531.964844 C 749.304688 532.007812 749.101562 532.210938 749.023438 532.53125 L 743.976562 557.429688 C 743.898438 557.835938 744.136719 558.121094 744.542969 558.078125 Z M 720.769531 522.046875 L 725.855469 511.804688 C 726.179688 511.15625 727.027344 511.359375 726.824219 512.089844 L 723.878906 521.804688 Z M 710.804688 530.832031 L 715.160156 530.550781 C 715.484375 530.507812 715.6875 530.386719 715.847656 530.105469 L 718.1875 526.5 L 722.546875 526.136719 C 722.507812 526.257812 722.507812 526.378906 722.464844 526.5 L 721.859375 529.457031 C 721.78125 529.859375 722.023438 530.144531 722.425781 530.105469 L 726.339844 529.820312 C 726.664062 529.78125 726.90625 529.578125 726.988281 529.253906 L 732.03125 504.394531 C 732.113281 503.992188 731.871094 503.707031 731.464844 503.75 L 727.148438 503.992188 C 726.824219 503.992188 726.625 504.195312 726.460938 504.4375 L 710.359375 530.144531 C 710.117188 530.550781 710.320312 530.875 710.804688 530.832031 Z M 734.492188 559.089844 C 738.769531 559.335938 741.960938 555.609375 743.453125 548.6875 C 743.613281 547.917969 743.371094 547.429688 742.726562 547.59375 L 739.011719 548.445312 C 738.691406 548.523438 738.527344 548.726562 738.449219 549.089844 C 737.679688 552.777344 736.429688 554.636719 735.21875 554.558594 C 733.765625 554.476562 733.242188 551.601562 734.734375 545.285156 C 736.066406 539.617188 737.761719 536.621094 739.253906 536.863281 C 740.265625 537.027344 740.464844 538.808594 739.78125 542.410156 C 739.699219 542.898438 739.941406 543.140625 740.34375 543.058594 L 744.257812 542.25 C 744.582031 542.167969 744.785156 541.964844 744.863281 541.640625 C 745.46875 538.566406 745.066406 532.289062 739.375 532.289062 C 734.9375 532.289062 731.386719 536.296875 729.527344 544.3125 C 727.429688 553.34375 729.449219 558.808594 734.492188 559.089844 Z M 695.75 531.84375 L 699.785156 531.5625 C 700.109375 531.519531 700.351562 531.320312 700.429688 530.996094 L 702.246094 522.089844 L 706.082031 521.199219 L 704.183594 530.589844 C 704.101562 530.996094 704.34375 531.277344 704.75 531.238281 L 708.785156 530.953125 C 709.109375 530.914062 709.351562 530.710938 709.429688 530.386719 L 714.476562 505.53125 C 714.554688 505.125 714.3125 504.839844 713.910156 504.882812 L 709.875 505.125 C 709.511719 505.164062 709.308594 505.367188 709.230469 505.691406 L 707.050781 516.460938 L 703.214844 517.3125 L 705.476562 506.097656 C 705.554688 505.691406 705.3125 505.410156 704.910156 505.449219 L 700.875 505.730469 C 700.550781 505.773438 700.308594 505.976562 700.230469 506.300781 L 695.183594 531.195312 C 695.105469 531.601562 695.347656 531.886719 695.75 531.84375 Z M 685.621094 532.777344 C 689.898438 533.019531 693.085938 529.292969 694.621094 522.128906 C 694.742188 521.601562 694.5 521.117188 693.894531 521.238281 L 690.140625 522.128906 C 689.816406 522.210938 689.65625 522.410156 689.613281 522.535156 C 688.808594 526.460938 687.558594 528.324219 686.347656 528.242188 C 684.894531 528.160156 684.367188 525.285156 685.863281 518.972656 C 687.195312 513.304688 688.886719 510.308594 690.382812 510.550781 C 691.390625 510.710938 691.59375 512.492188 690.90625 516.097656 C 690.824219 516.582031 691.066406 516.824219 691.511719 516.746094 L 695.386719 515.933594 C 695.710938 515.851562 695.910156 515.652344 695.992188 515.328125 C 696.597656 512.25 696.191406 505.976562 690.503906 505.976562 C 686.0625 505.976562 682.511719 509.984375 680.65625 518 C 678.558594 527.027344 680.574219 532.492188 685.621094 532.777344 Z M 774.488281 526.703125 L 778.847656 526.421875 C 779.167969 526.378906 779.371094 526.21875 779.492188 525.894531 L 781.226562 521.074219 C 781.347656 520.792969 781.390625 520.671875 781.429688 520.46875 L 782.964844 511.15625 C 783.085938 510.429688 783.890625 510.429688 783.890625 511.15625 L 783.851562 525.488281 C 783.851562 525.894531 784.050781 526.097656 784.457031 526.054688 L 788.53125 525.8125 C 788.855469 525.8125 789.097656 525.609375 789.21875 525.328125 L 799.269531 500.023438 C 799.429688 499.621094 799.1875 499.296875 798.742188 499.335938 L 794.464844 499.660156 C 794.140625 499.699219 793.898438 499.863281 793.777344 500.144531 L 790.710938 507.957031 C 790.550781 508.363281 790.429688 508.6875 790.347656 509.171875 L 788.773438 517.230469 C 788.652344 517.835938 787.886719 517.796875 787.886719 517.191406 L 788.046875 500.710938 C 788.046875 500.308594 787.847656 500.066406 787.441406 500.105469 L 783.890625 500.308594 C 783.570312 500.308594 783.367188 500.511719 783.246094 500.832031 L 774.003906 526.015625 C 773.84375 526.421875 774.042969 526.742188 774.488281 526.703125 Z M 774.488281 526.703125 " fill-opacity="1" fill-rule="nonzero"/></g></svg>