<svg xmlns="http://www.w3.org/2000/svg" xmlns:xlink="http://www.w3.org/1999/xlink" width="1122" zoomAndPan="magnify" viewBox="0 0 841.92 595.499987" height="793" preserveAspectRatio="xMidYMid meet" version="1.0"><defs><g/><clipPath id="53af0bd2e9"><path d="M 0.3125 0 L 841.527344 0 L 841.527344 595 L 0.3125 595 Z M 0.3125 0 " clip-rule="nonzero"/></clipPath><clipPath id="ad51c2c8e2"><path d="M 655.695312 492.90625 L 815.3125 492.90625 L 815.3125 564.84375 L 655.695312 564.84375 Z M 655.695312 492.90625 " clip-rule="nonzero"/></clipPath></defs><g clip-path="url(#53af0bd2e9)"><path fill="#ffffff" d="M 0.3125 0 L 841.855469 0 L 841.855469 595 L 0.3125 595 Z M 0.3125 0 " fill-opacity="1" fill-rule="nonzero"/><path fill="#ffffff" d="M 0.3125 0 L 841.855469 0 L 841.855469 595 L 0.3125 595 Z M 0.3125 0 " fill-opacity="1" fill-rule="nonzero"/></g><g clip-path="url(#ad51c2c8e2)"><path fill="#000000" d="M 802.152344 524.625 C 807.816406 525.007812 811.898438 519.777344 814.0625 510.804688 C 814.398438 509.367188 814.78125 507.832031 815.164062 505.480469 C 815.261719 504.902344 814.972656 504.664062 814.445312 504.757812 L 805.367188 506.726562 C 804.984375 506.824219 804.746094 507.109375 804.695312 507.496094 L 804.167969 511.378906 C 804.074219 511.957031 804.359375 512.195312 804.890625 512.050781 L 805.992188 511.714844 C 806.183594 511.667969 806.328125 511.621094 806.523438 511.523438 L 809.402344 509.941406 C 810.21875 509.507812 810.699219 510.515625 810.074219 511.042969 L 807.289062 513.253906 C 807.050781 513.445312 806.953125 513.636719 806.859375 513.972656 C 805.945312 517.667969 804.601562 519.25 803.160156 519.203125 C 801.238281 519.152344 800.664062 515.171875 802.34375 507.925781 C 803.785156 501.6875 806.042969 498.234375 807.769531 498.328125 C 809.019531 498.378906 809.546875 500.394531 809.402344 503.273438 C 809.355469 503.800781 809.644531 504.085938 810.171875 503.945312 L 814.589844 502.9375 C 814.972656 502.839844 815.214844 502.601562 815.261719 502.167969 C 815.644531 496.746094 812.621094 492.8125 807.722656 492.90625 C 802.390625 493.003906 798.453125 498.234375 796.390625 506.917969 C 793.988281 517.617188 796.050781 524.191406 802.152344 524.625 Z M 763.683594 502.167969 L 770.457031 501.738281 C 770.839844 501.6875 771.128906 501.449219 771.222656 501.066406 L 772.519531 494.921875 C 772.617188 494.394531 772.328125 494.105469 771.800781 494.25 L 764.691406 496.121094 C 764.308594 496.21875 764.117188 496.410156 764.019531 496.84375 L 763.0625 501.402344 C 762.964844 501.878906 763.203125 502.214844 763.683594 502.167969 Z M 793.125 560.035156 C 798.164062 560.179688 801 556.242188 801.429688 551.636719 C 801.910156 546.695312 799.078125 543.914062 797.0625 541.417969 C 795.523438 539.5 794.46875 538.347656 794.707031 536.042969 C 794.851562 534.507812 795.910156 533.933594 796.628906 533.980469 C 797.78125 534.027344 799.03125 535.613281 799.03125 539.691406 C 799.03125 540.21875 799.367188 540.457031 799.847656 540.363281 L 803.398438 539.59375 C 803.785156 539.5 804.023438 539.257812 804.074219 538.828125 C 804.265625 533.597656 801.960938 528.511719 796.675781 528.511719 C 793.316406 528.511719 789.617188 530.382812 788.898438 536.042969 C 788.417969 540.074219 790.242188 542.855469 791.96875 545.015625 C 793.890625 547.414062 795.429688 549.09375 795.285156 551.925781 C 795.1875 553.84375 794.417969 554.5625 793.460938 554.515625 C 791.921875 554.421875 790.722656 552.070312 791.152344 547.75 C 791.203125 547.175781 790.867188 546.933594 790.386719 547.03125 L 786.304688 547.894531 C 785.917969 547.992188 785.679688 548.230469 785.632812 548.664062 C 785.199219 555.570312 788.65625 559.890625 793.125 560.035156 Z M 759.554688 526.976562 L 764.550781 526.640625 C 764.933594 526.589844 765.222656 526.351562 765.316406 525.96875 L 769.589844 505 C 769.6875 504.519531 769.398438 504.183594 768.917969 504.230469 L 763.925781 504.519531 C 763.492188 504.566406 763.253906 504.808594 763.15625 505.191406 L 758.882812 526.207031 C 758.785156 526.6875 759.074219 527.023438 759.554688 526.976562 Z M 769.878906 561.089844 L 781.359375 560.371094 C 781.789062 560.320312 782.03125 560.082031 782.125 559.699219 L 782.894531 555.8125 C 782.988281 555.332031 782.703125 554.996094 782.222656 555.042969 L 776.601562 555.429688 L 778.234375 547.464844 L 783.613281 547.128906 C 784.046875 547.078125 784.285156 546.839844 784.382812 546.457031 L 785.152344 542.570312 C 785.246094 542.089844 785.007812 541.753906 784.527344 541.800781 L 779.292969 542.136719 L 780.734375 535.179688 L 786.542969 534.796875 C 786.976562 534.746094 787.214844 534.507812 787.3125 534.125 L 788.082031 530.191406 C 788.175781 529.710938 787.9375 529.375 787.457031 529.421875 L 775.980469 530.191406 C 775.546875 530.238281 775.304688 530.476562 775.210938 530.863281 L 769.207031 560.320312 C 769.113281 560.800781 769.398438 561.136719 769.878906 561.089844 Z M 746.394531 528.175781 C 752.0625 528.558594 756.144531 523.328125 758.304688 514.355469 C 758.640625 512.917969 759.027344 511.378906 759.410156 509.03125 C 759.507812 508.453125 759.21875 508.214844 758.691406 508.308594 L 749.613281 510.230469 C 749.230469 510.324219 748.988281 510.613281 748.941406 510.996094 L 748.414062 514.882812 C 748.316406 515.460938 748.605469 515.699219 749.132812 515.554688 L 750.238281 515.265625 C 750.429688 515.21875 750.574219 515.171875 750.765625 515.074219 L 753.695312 513.492188 C 754.511719 513.058594 754.945312 514.117188 754.320312 514.59375 L 751.582031 516.707031 C 751.292969 516.898438 751.152344 517.1875 751.054688 517.523438 C 750.191406 521.21875 748.84375 522.800781 747.40625 522.753906 C 745.484375 522.703125 744.90625 518.722656 746.589844 511.476562 C 748.027344 505.238281 750.285156 501.785156 752.015625 501.878906 C 753.265625 501.929688 753.792969 503.945312 753.648438 506.824219 C 753.601562 507.351562 753.886719 507.636719 754.417969 507.496094 L 758.835938 506.488281 C 759.21875 506.390625 759.457031 506.152344 759.507812 505.71875 C 759.890625 500.296875 756.867188 496.363281 751.96875 496.457031 C 746.636719 496.554688 742.699219 501.785156 740.632812 510.46875 C 738.234375 521.167969 740.296875 527.742188 746.394531 528.175781 Z M 755.519531 562.097656 L 760.707031 561.761719 C 761.089844 561.714844 761.332031 561.523438 761.476562 561.136719 L 772.714844 531.292969 C 772.90625 530.8125 772.664062 530.429688 772.136719 530.476562 L 766.949219 530.8125 C 766.566406 530.863281 766.324219 531.054688 766.183594 531.4375 L 754.945312 561.28125 C 754.753906 561.761719 754.992188 562.144531 755.519531 562.097656 Z M 716.8125 529.757812 L 721.664062 529.46875 C 722.097656 529.421875 722.289062 529.183594 722.386719 528.796875 L 723.296875 524.046875 C 723.34375 523.761719 723.394531 523.472656 723.394531 523.183594 L 723.777344 511.09375 C 723.777344 510.375 724.640625 510.277344 724.738281 510.996094 L 727.28125 528.414062 C 727.332031 528.894531 727.621094 529.085938 728.050781 529.039062 L 733.140625 528.703125 C 733.574219 528.652344 733.8125 528.414062 733.910156 528.03125 L 739.914062 498.523438 C 740.007812 498.042969 739.722656 497.707031 739.242188 497.753906 L 734.4375 498.089844 C 734.007812 498.136719 733.8125 498.378906 733.71875 498.761719 L 732.46875 505.335938 C 732.421875 505.621094 732.375 505.910156 732.375 506.199219 L 732.039062 519.875 C 732.039062 520.59375 731.125 520.6875 731.027344 520.066406 L 727.90625 499.195312 C 727.859375 498.761719 727.570312 498.523438 727.140625 498.570312 L 722.914062 498.808594 C 722.480469 498.859375 722.242188 499.097656 722.144531 499.480469 L 716.140625 528.988281 C 716.046875 529.46875 716.332031 529.804688 716.8125 529.757812 Z M 742.410156 563.007812 L 747.5 562.671875 C 747.886719 562.625 748.125 562.433594 748.269531 562.050781 L 757.921875 536.476562 L 761.429688 536.234375 C 761.8125 536.1875 762.050781 535.996094 762.195312 535.613281 L 763.539062 531.917969 C 763.734375 531.4375 763.492188 531.054688 762.964844 531.101562 L 749.230469 532.011719 C 748.84375 532.0625 748.605469 532.253906 748.460938 532.636719 L 747.117188 536.332031 C 746.925781 536.8125 747.210938 537.195312 747.742188 537.148438 L 751.292969 536.90625 L 741.835938 562.195312 C 741.640625 562.671875 741.882812 563.058594 742.410156 563.007812 Z M 732.710938 563.632812 L 737.703125 563.296875 C 738.136719 563.25 738.375 563.007812 738.472656 562.625 L 744.476562 533.117188 C 744.570312 532.636719 744.285156 532.300781 743.804688 532.347656 L 738.808594 532.683594 C 738.375 532.734375 738.136719 532.972656 738.039062 533.355469 L 732.039062 562.867188 C 731.941406 563.34375 732.230469 563.679688 732.710938 563.632812 Z M 704.425781 520.929688 L 710.476562 508.789062 C 710.859375 508.023438 711.867188 508.261719 711.628906 509.125 L 708.121094 520.640625 Z M 692.5625 531.339844 L 697.75 531.003906 C 698.132812 530.957031 698.375 530.8125 698.566406 530.476562 L 701.351562 526.207031 L 706.539062 525.773438 C 706.488281 525.917969 706.488281 526.0625 706.441406 526.207031 L 705.722656 529.710938 C 705.625 530.191406 705.914062 530.527344 706.394531 530.476562 L 711.050781 530.140625 C 711.433594 530.09375 711.722656 529.855469 711.820312 529.46875 L 717.824219 500.007812 C 717.917969 499.527344 717.628906 499.195312 717.148438 499.242188 L 712.011719 499.527344 C 711.628906 499.527344 711.386719 499.769531 711.195312 500.058594 L 692.035156 530.527344 C 691.746094 531.003906 691.984375 531.390625 692.5625 531.339844 Z M 720.753906 564.832031 C 725.84375 565.121094 729.636719 560.707031 731.414062 552.5 C 731.605469 551.589844 731.316406 551.015625 730.546875 551.207031 L 726.128906 552.214844 C 725.746094 552.308594 725.554688 552.550781 725.457031 552.980469 C 724.546875 557.347656 723.058594 559.554688 721.617188 559.457031 C 719.886719 559.363281 719.261719 555.957031 721.039062 548.472656 C 722.625 541.753906 724.640625 538.203125 726.417969 538.492188 C 727.621094 538.683594 727.859375 540.792969 727.042969 545.0625 C 726.945312 545.640625 727.234375 545.925781 727.714844 545.832031 L 732.375 544.871094 C 732.757812 544.777344 732.996094 544.535156 733.09375 544.152344 C 733.8125 540.503906 733.335938 533.070312 726.5625 533.070312 C 721.28125 533.070312 717.054688 537.820312 714.84375 547.320312 C 712.347656 558.019531 714.75 564.496094 720.753906 564.832031 Z M 674.648438 532.539062 L 679.453125 532.203125 C 679.835938 532.15625 680.125 531.917969 680.21875 531.53125 L 682.382812 520.976562 L 686.945312 519.921875 L 684.6875 531.054688 C 684.589844 531.53125 684.878906 531.867188 685.359375 531.820312 L 690.160156 531.484375 C 690.546875 531.4375 690.832031 531.195312 690.929688 530.8125 L 696.933594 501.351562 C 697.027344 500.871094 696.742188 500.535156 696.261719 500.585938 L 691.457031 500.871094 C 691.027344 500.921875 690.785156 501.160156 690.6875 501.542969 L 688.097656 514.308594 L 683.535156 515.316406 L 686.222656 502.023438 C 686.320312 501.542969 686.03125 501.207031 685.550781 501.257812 L 680.75 501.59375 C 680.363281 501.640625 680.078125 501.878906 679.980469 502.265625 L 673.976562 531.773438 C 673.882812 532.253906 674.167969 532.589844 674.648438 532.539062 Z M 662.597656 533.644531 C 667.6875 533.933594 671.480469 529.519531 673.304688 521.023438 C 673.449219 520.402344 673.160156 519.824219 672.441406 519.96875 L 667.972656 521.023438 C 667.589844 521.121094 667.398438 521.359375 667.351562 521.503906 C 666.390625 526.160156 664.902344 528.367188 663.460938 528.269531 C 661.730469 528.175781 661.105469 524.769531 662.882812 517.28125 C 664.46875 510.566406 666.484375 507.015625 668.261719 507.300781 C 669.464844 507.496094 669.703125 509.605469 668.886719 513.875 C 668.789062 514.453125 669.078125 514.738281 669.605469 514.644531 L 674.21875 513.683594 C 674.601562 513.589844 674.839844 513.347656 674.9375 512.964844 C 675.65625 509.316406 675.179688 501.878906 668.40625 501.878906 C 663.125 501.878906 658.898438 506.628906 656.6875 516.132812 C 654.191406 526.832031 656.59375 533.308594 662.597656 533.644531 Z M 768.34375 526.445312 L 773.53125 526.109375 C 773.914062 526.0625 774.152344 525.871094 774.296875 525.488281 L 776.363281 519.777344 C 776.507812 519.441406 776.554688 519.296875 776.601562 519.058594 L 778.429688 508.023438 C 778.570312 507.160156 779.53125 507.160156 779.53125 508.023438 L 779.484375 525.007812 C 779.484375 525.488281 779.726562 525.726562 780.203125 525.679688 L 785.054688 525.390625 C 785.4375 525.390625 785.726562 525.152344 785.871094 524.816406 L 797.828125 494.828125 C 798.023438 494.347656 797.734375 493.964844 797.207031 494.011719 L 792.113281 494.394531 C 791.730469 494.441406 791.441406 494.636719 791.296875 494.972656 L 787.648438 504.230469 C 787.457031 504.710938 787.3125 505.09375 787.214844 505.671875 L 785.34375 515.21875 C 785.199219 515.9375 784.285156 515.890625 784.285156 515.171875 L 784.480469 495.644531 C 784.480469 495.164062 784.238281 494.875 783.757812 494.921875 L 779.53125 495.164062 C 779.148438 495.164062 778.910156 495.402344 778.765625 495.785156 L 767.765625 525.632812 C 767.574219 526.109375 767.816406 526.496094 768.34375 526.445312 Z M 768.34375 526.445312 " fill-opacity="1" fill-rule="nonzero"/></g><g fill="#000000" fill-opacity="1"><g transform="translate(63.017987, 251.743698)"><g><path d="M -0.46875 0 C -1.863281 0 -2.367188 -0.695312 -1.984375 -2.09375 L 18.140625 -79.921875 C 18.378906 -80.929688 19.003906 -81.4375 20.015625 -81.4375 L 34.546875 -81.4375 C 40.210938 -81.4375 44.769531 -80.269531 48.21875 -77.9375 C 51.664062 -75.613281 54.03125 -72.570312 55.3125 -68.8125 C 56.59375 -65.050781 56.726562 -61 55.71875 -56.65625 C 55.101562 -53.9375 54.171875 -51.238281 52.921875 -48.5625 C 51.679688 -45.882812 49.957031 -43.554688 47.75 -41.578125 C 45.539062 -39.609375 42.726562 -38.234375 39.3125 -37.453125 C 38.925781 -37.378906 38.539062 -37.320312 38.15625 -37.28125 C 37.769531 -37.238281 37.304688 -37.296875 36.765625 -37.453125 L 32.921875 -38.5 C 32.066406 -38.8125 31.460938 -38.640625 31.109375 -37.984375 C 30.765625 -37.328125 30.976562 -36.765625 31.75 -36.296875 L 37.34375 -32.921875 C 38.039062 -32.453125 38.46875 -31.789062 38.625 -30.9375 L 43.046875 -1.984375 C 43.203125 -1.285156 43.082031 -0.78125 42.6875 -0.46875 C 42.300781 -0.15625 41.835938 0 41.296875 0 L 29.078125 0 C 27.921875 0 27.300781 -0.539062 27.21875 -1.625 L 22.6875 -34.546875 C 22.601562 -35.554688 22.171875 -36.039062 21.390625 -36 C 20.617188 -35.96875 20.195312 -35.40625 20.125 -34.3125 L 19.1875 -21.171875 C 19.1875 -20.785156 19.085938 -20.007812 18.890625 -18.84375 C 18.703125 -17.675781 18.53125 -16.898438 18.375 -16.515625 L 14.421875 -1.515625 C 14.191406 -0.503906 13.570312 0 12.5625 0 Z M -15.703125 28.15625 C -17.097656 28.15625 -17.601562 27.492188 -17.21875 26.171875 L -14.3125 15.46875 C -14.070312 14.457031 -13.453125 13.953125 -12.453125 13.953125 L 42.234375 13.953125 C 43.628906 13.953125 44.128906 14.613281 43.734375 15.9375 L 40.828125 26.640625 C 40.597656 27.648438 39.976562 28.15625 38.96875 28.15625 Z M 26.171875 -47.578125 L 30.484375 -47.578125 C 33.273438 -47.578125 35.503906 -48.410156 37.171875 -50.078125 C 38.835938 -51.742188 40.019531 -54.085938 40.71875 -57.109375 C 41.570312 -60.835938 41.394531 -63.59375 40.1875 -65.375 C 38.988281 -67.15625 37.109375 -68.046875 34.546875 -68.046875 L 31.40625 -68.046875 Z M 26.171875 -47.578125 "/></g></g></g><g fill="#000000" fill-opacity="1"><g transform="translate(114.434146, 251.743698)"><g><path d="M -6.515625 0 C -7.210938 0 -7.640625 -0.226562 -7.796875 -0.6875 C -7.953125 -1.15625 -7.832031 -1.703125 -7.4375 -2.328125 L 47.234375 -80.390625 C 47.691406 -81.085938 48.425781 -81.4375 49.4375 -81.4375 L 63.171875 -81.4375 C 64.566406 -81.4375 65.066406 -80.773438 64.671875 -79.453125 L 44.546875 -1.515625 C 44.316406 -0.503906 43.695312 0 42.6875 0 L 29.203125 0 C 28.660156 0 28.210938 -0.171875 27.859375 -0.515625 C 27.515625 -0.867188 27.457031 -1.359375 27.6875 -1.984375 L 31.984375 -14.421875 L 18.84375 -14.421875 L 10.359375 -1.046875 C 9.960938 -0.347656 9.265625 0 8.265625 0 Z M -15.703125 28.15625 C -17.097656 28.15625 -17.601562 27.492188 -17.21875 26.171875 L -14.3125 15.46875 C -14.070312 14.457031 -13.453125 13.953125 -12.453125 13.953125 L 47.6875 13.953125 C 49.082031 13.953125 49.585938 14.613281 49.203125 15.9375 L 46.296875 26.640625 C 46.066406 27.648438 45.445312 28.15625 44.4375 28.15625 Z M 26.984375 -27.796875 L 36.875 -27.796875 L 46.53125 -54.4375 C 46.914062 -55.445312 46.703125 -56.109375 45.890625 -56.421875 C 45.078125 -56.734375 44.4375 -56.460938 43.96875 -55.609375 Z M 26.984375 -27.796875 "/></g></g></g><g fill="#000000" fill-opacity="1"><g transform="translate(171.317637, 251.743698)"><g><path d="M -0.46875 0 C -1.863281 0 -2.367188 -0.660156 -1.984375 -1.984375 L 18.140625 -79.921875 C 18.378906 -80.929688 19.003906 -81.4375 20.015625 -81.4375 L 29.65625 -81.4375 C 37.644531 -81.4375 43.8125 -79.628906 48.15625 -76.015625 C 52.5 -72.410156 55.15625 -67.273438 56.125 -60.609375 C 57.09375 -53.941406 56.453125 -46.070312 54.203125 -37 C 51.179688 -24.507812 46.625 -15.21875 40.53125 -9.125 C 34.445312 -3.039062 27.488281 0 19.65625 0 Z M -15.703125 28.15625 C -17.097656 28.15625 -17.601562 27.492188 -17.21875 26.171875 L -14.3125 15.46875 C -14.070312 14.457031 -13.453125 13.953125 -12.453125 13.953125 L 46.0625 13.953125 C 47.457031 13.953125 47.960938 14.613281 47.578125 15.9375 L 44.671875 26.640625 C 44.441406 27.648438 43.820312 28.15625 42.8125 28.15625 Z M 17.921875 -13.953125 L 20.125 -13.953125 C 22.21875 -13.953125 24.3125 -14.648438 26.40625 -16.046875 C 28.5 -17.441406 30.515625 -19.90625 32.453125 -23.4375 C 34.390625 -26.96875 36.210938 -31.988281 37.921875 -38.5 C 43.035156 -57.8125 41.484375 -67.46875 33.265625 -67.46875 L 31.75 -67.46875 Z M 17.921875 -13.953125 "/></g></g></g><g fill="#000000" fill-opacity="1"><g transform="translate(226.57256, 251.743698)"><g><path d="M 19.1875 0.9375 C 15.3125 0.539062 11.878906 -0.914062 8.890625 -3.4375 C 5.910156 -5.957031 3.664062 -9.425781 2.15625 -13.84375 C 0.644531 -18.257812 0.160156 -23.378906 0.703125 -29.203125 C 0.773438 -30.203125 1.351562 -30.78125 2.4375 -30.9375 L 13.84375 -32.796875 C 15.164062 -33.035156 15.75 -32.457031 15.59375 -31.0625 C 15.050781 -25.632812 15.335938 -21.445312 16.453125 -18.5 C 17.578125 -15.550781 19.070312 -13.921875 20.9375 -13.609375 C 22.257812 -13.453125 23.382812 -13.878906 24.3125 -14.890625 C 25.238281 -15.898438 25.859375 -17.679688 26.171875 -20.234375 C 26.554688 -24.035156 25.9375 -27.289062 24.3125 -30 C 22.6875 -32.71875 20.707031 -35.75 18.375 -39.09375 C 16.90625 -41.101562 15.53125 -43.289062 14.25 -45.65625 C 12.96875 -48.019531 12.015625 -50.675781 11.390625 -53.625 C 10.773438 -56.570312 10.78125 -59.832031 11.40625 -63.40625 C 12.332031 -68.4375 13.9375 -72.347656 16.21875 -75.140625 C 18.507812 -77.929688 21.144531 -79.867188 24.125 -80.953125 C 27.113281 -82.046875 30.125 -82.515625 33.15625 -82.359375 C 36.644531 -82.203125 39.609375 -81.289062 42.046875 -79.625 C 44.492188 -77.957031 46.429688 -75.804688 47.859375 -73.171875 C 49.296875 -70.535156 50.304688 -67.644531 50.890625 -64.5 C 51.472656 -61.363281 51.648438 -58.28125 51.421875 -55.25 C 51.335938 -54.25 50.753906 -53.671875 49.671875 -53.515625 L 39.4375 -52 C 38.195312 -51.769531 37.578125 -52.351562 37.578125 -53.75 C 37.734375 -58.320312 37.265625 -61.769531 36.171875 -64.09375 C 35.085938 -66.425781 33.769531 -67.628906 32.21875 -67.703125 C 31.289062 -67.859375 30.242188 -67.53125 29.078125 -66.71875 C 27.921875 -65.90625 27.1875 -64.488281 26.875 -62.46875 C 26.332031 -59.445312 26.625 -56.925781 27.75 -54.90625 C 28.875 -52.882812 30.40625 -50.554688 32.34375 -47.921875 C 34.050781 -45.671875 35.8125 -43.226562 37.625 -40.59375 C 39.445312 -37.957031 40.878906 -34.988281 41.921875 -31.6875 C 42.972656 -28.394531 43.148438 -24.539062 42.453125 -20.125 C 41.910156 -16.09375 40.648438 -12.410156 38.671875 -9.078125 C 36.703125 -5.742188 34.085938 -3.144531 30.828125 -1.28125 C 27.566406 0.582031 23.6875 1.320312 19.1875 0.9375 Z M -15.703125 28.15625 C -17.097656 28.15625 -17.601562 27.492188 -17.21875 26.171875 L -14.3125 15.46875 C -14.070312 14.457031 -13.453125 13.953125 -12.453125 13.953125 L 38.046875 13.953125 C 39.441406 13.953125 39.941406 14.613281 39.546875 15.9375 L 36.640625 26.640625 C 36.410156 27.648438 35.789062 28.15625 34.78125 28.15625 Z M -15.703125 28.15625 "/></g></g></g><g fill="#000000" fill-opacity="1"><g transform="translate(273.800978, 251.743698)"><g><path d="M 20.59375 0.9375 C 12.675781 0.0820312 7.492188 -4.507812 5.046875 -12.84375 C 2.609375 -21.1875 3.40625 -32.378906 7.4375 -46.421875 C 11.082031 -58.898438 15.753906 -68.144531 21.453125 -74.15625 C 27.160156 -80.164062 33.503906 -82.976562 40.484375 -82.59375 C 43.972656 -82.363281 46.84375 -81.488281 49.09375 -79.96875 C 51.34375 -78.457031 53.046875 -76.519531 54.203125 -74.15625 C 55.367188 -71.789062 56.144531 -69.269531 56.53125 -66.59375 C 56.914062 -63.914062 57.03125 -61.316406 56.875 -58.796875 C 56.726562 -56.273438 56.421875 -54.046875 55.953125 -52.109375 C 55.722656 -51.109375 55.140625 -50.566406 54.203125 -50.484375 L 41.40625 -48.515625 C 40.789062 -48.429688 40.328125 -48.5625 40.015625 -48.90625 C 39.703125 -49.257812 39.625 -49.75 39.78125 -50.375 C 41.101562 -56.1875 41.765625 -60.523438 41.765625 -63.390625 C 41.765625 -66.265625 40.945312 -67.859375 39.3125 -68.171875 C 36.988281 -68.710938 34.445312 -66.753906 31.6875 -62.296875 C 28.9375 -57.835938 26.242188 -51.222656 23.609375 -42.453125 C 20.742188 -32.609375 19.460938 -25.335938 19.765625 -20.640625 C 20.078125 -15.953125 21.359375 -13.492188 23.609375 -13.265625 C 25.472656 -12.953125 27.332031 -14.132812 29.1875 -16.8125 C 31.050781 -19.488281 32.800781 -23.695312 34.4375 -29.4375 C 34.75 -30.363281 35.367188 -30.941406 36.296875 -31.171875 L 48.734375 -33.390625 C 49.585938 -33.546875 50.171875 -33.347656 50.484375 -32.796875 C 50.796875 -32.253906 50.835938 -31.554688 50.609375 -30.703125 C 47.503906 -19.460938 43.390625 -11.203125 38.265625 -5.921875 C 33.148438 -0.648438 27.257812 1.632812 20.59375 0.9375 Z M -15.703125 28.15625 C -17.097656 28.15625 -17.601562 27.492188 -17.21875 26.171875 L -14.3125 15.46875 C -14.070312 14.457031 -13.453125 13.953125 -12.453125 13.953125 L 43.734375 13.953125 C 45.128906 13.953125 45.632812 14.613281 45.25 15.9375 L 42.34375 26.640625 C 42.113281 27.648438 41.492188 28.15625 40.484375 28.15625 Z M -15.703125 28.15625 "/></g></g></g><g fill="#000000" fill-opacity="1"><g transform="translate(326.72937, 251.743698)"><g><path d="M 28.265625 0 C 26.867188 0 26.363281 -0.660156 26.75 -1.984375 L 34.546875 -31.984375 L 21.984375 -29.78125 L 14.65625 -1.515625 C 14.425781 -0.503906 13.804688 0 12.796875 0 L -0.46875 0 C -1.863281 0 -2.367188 -0.660156 -1.984375 -1.984375 L 18.140625 -79.921875 C 18.378906 -80.929688 19.003906 -81.4375 20.015625 -81.4375 L 33.265625 -81.4375 C 34.660156 -81.4375 35.164062 -80.773438 34.78125 -79.453125 L 25.703125 -44.328125 L 38.265625 -46.53125 L 46.875 -79.921875 C 47.113281 -80.929688 47.734375 -81.4375 48.734375 -81.4375 L 62 -81.4375 C 63.394531 -81.4375 63.898438 -80.773438 63.515625 -79.453125 L 43.390625 -1.515625 C 43.160156 -0.503906 42.539062 0 41.53125 0 Z M -15.703125 28.15625 C -17.097656 28.15625 -17.601562 27.492188 -17.21875 26.171875 L -14.3125 15.46875 C -14.070312 14.457031 -13.453125 13.953125 -12.453125 13.953125 L 46.53125 13.953125 C 47.925781 13.953125 48.429688 14.613281 48.046875 15.9375 L 45.140625 26.640625 C 44.898438 27.648438 44.28125 28.15625 43.28125 28.15625 Z M -15.703125 28.15625 "/></g></g></g><g fill="#000000" fill-opacity="1"><g transform="translate(382.449584, 251.743698)"><g><path d="M -0.234375 0 C -0.847656 0 -1.328125 -0.210938 -1.671875 -0.640625 C -2.023438 -1.066406 -2.128906 -1.585938 -1.984375 -2.203125 L 18.140625 -79.796875 C 18.378906 -80.960938 19.078125 -81.546875 20.234375 -81.546875 L 31.0625 -81.4375 C 32.21875 -81.4375 32.875 -80.8125 33.03125 -79.5625 L 38.046875 -32.453125 C 38.117188 -31.679688 38.519531 -31.296875 39.25 -31.296875 C 39.988281 -31.296875 40.398438 -31.757812 40.484375 -32.6875 L 42.453125 -53.96875 C 42.535156 -54.363281 42.59375 -54.753906 42.625 -55.140625 C 42.664062 -55.523438 42.726562 -55.910156 42.8125 -56.296875 L 48.625 -79.6875 C 48.851562 -80.851562 49.550781 -81.4375 50.71875 -81.4375 L 62.46875 -81.546875 C 63.09375 -81.546875 63.554688 -81.332031 63.859375 -80.90625 C 64.171875 -80.476562 64.25 -79.953125 64.09375 -79.328125 L 43.96875 -1.515625 C 43.738281 -0.503906 43.003906 0 41.765625 0 L 30.9375 0 C 30.394531 0 29.96875 -0.113281 29.65625 -0.34375 C 29.351562 -0.582031 29.160156 -1.085938 29.078125 -1.859375 L 24.078125 -48.859375 C 24.003906 -49.785156 23.597656 -50.207031 22.859375 -50.125 C 22.117188 -50.050781 21.710938 -49.628906 21.640625 -48.859375 L 19.65625 -26.984375 C 19.582031 -26.671875 19.484375 -26.164062 19.359375 -25.46875 C 19.242188 -24.769531 19.113281 -24.226562 18.96875 -23.84375 L 13.5 -1.625 C 13.257812 -0.539062 12.597656 0 11.515625 0 Z M -15.703125 28.15625 C -17.097656 28.15625 -17.601562 27.492188 -17.21875 26.171875 L -14.3125 15.46875 C -14.070312 14.457031 -13.453125 13.953125 -12.453125 13.953125 L 47.109375 13.953125 C 48.503906 13.953125 49.007812 14.613281 48.625 15.9375 L 45.71875 26.640625 C 45.488281 27.648438 44.867188 28.15625 43.859375 28.15625 Z M -15.703125 28.15625 "/></g></g></g><g fill="#000000" fill-opacity="1"><g transform="translate(438.75142, 251.743698)"><g><path d="M 0.109375 0 C -1.585938 0 -2.242188 -0.851562 -1.859375 -2.5625 L 18.03125 -79.921875 C 18.257812 -80.929688 18.878906 -81.4375 19.890625 -81.4375 L 53.625 -81.4375 C 55.019531 -81.4375 55.523438 -80.773438 55.140625 -79.453125 L 52.34375 -68.75 C 52.113281 -67.738281 51.492188 -67.234375 50.484375 -67.234375 L 31.875 -67.234375 L 26.984375 -48.625 L 41.0625 -48.625 C 42.457031 -48.625 42.960938 -47.960938 42.578125 -46.640625 L 40.015625 -36.875 C 39.785156 -35.863281 39.164062 -35.359375 38.15625 -35.359375 L 23.609375 -35.359375 L 18.140625 -14.1875 L 36.296875 -14.1875 C 37.691406 -14.1875 38.195312 -13.53125 37.8125 -12.21875 L 35.015625 -1.515625 C 34.785156 -0.503906 34.164062 0 33.15625 0 Z M -15.703125 28.15625 C -17.097656 28.15625 -17.601562 27.492188 -17.21875 26.171875 L -14.3125 15.46875 C -14.070312 14.457031 -13.453125 13.953125 -12.453125 13.953125 L 34.546875 13.953125 C 35.941406 13.953125 36.445312 14.613281 36.0625 15.9375 L 33.15625 26.640625 C 32.914062 27.648438 32.296875 28.15625 31.296875 28.15625 Z M -15.703125 28.15625 "/></g></g></g><g fill="#000000" fill-opacity="1"><g transform="translate(482.490061, 251.743698)"><g><path d="M -0.46875 0 C -1.863281 0 -2.367188 -0.660156 -1.984375 -1.984375 L 18.140625 -79.921875 C 18.378906 -80.929688 19.003906 -81.4375 20.015625 -81.4375 L 33.265625 -81.4375 C 34.660156 -81.4375 35.164062 -80.773438 34.78125 -79.453125 L 17.921875 -13.953125 L 35.015625 -13.953125 C 36.410156 -13.953125 36.914062 -13.296875 36.53125 -11.984375 L 33.734375 -1.515625 C 33.503906 -0.503906 32.882812 0 31.875 0 Z M -15.703125 28.15625 C -17.097656 28.15625 -17.601562 27.492188 -17.21875 26.171875 L -14.3125 15.46875 C -14.070312 14.457031 -13.453125 13.953125 -12.453125 13.953125 L 32.21875 13.953125 C 33.613281 13.953125 34.117188 14.613281 33.734375 15.9375 L 30.828125 26.640625 C 30.597656 27.648438 29.976562 28.15625 28.96875 28.15625 Z M -15.703125 28.15625 "/></g></g></g><g fill="#000000" fill-opacity="1"><g transform="translate(523.902171, 251.743698)"><g><path d="M -0.46875 0 C -1.863281 0 -2.367188 -0.660156 -1.984375 -1.984375 L 18.140625 -79.921875 C 18.378906 -80.929688 19.003906 -81.4375 20.015625 -81.4375 L 33.265625 -81.4375 C 34.660156 -81.4375 35.164062 -80.773438 34.78125 -79.453125 L 17.921875 -13.953125 L 35.015625 -13.953125 C 36.410156 -13.953125 36.914062 -13.296875 36.53125 -11.984375 L 33.734375 -1.515625 C 33.503906 -0.503906 32.882812 0 31.875 0 Z M -15.703125 28.15625 C -17.097656 28.15625 -17.601562 27.492188 -17.21875 26.171875 L -14.3125 15.46875 C -14.070312 14.457031 -13.453125 13.953125 -12.453125 13.953125 L 32.21875 13.953125 C 33.613281 13.953125 34.117188 14.613281 33.734375 15.9375 L 30.828125 26.640625 C 30.597656 27.648438 29.976562 28.15625 28.96875 28.15625 Z M -15.703125 28.15625 "/></g></g></g><g fill="#000000" fill-opacity="1"><g transform="translate(565.314281, 251.743698)"><g><path d="M 4.765625 0 C 3.609375 0 3.101562 -0.660156 3.25 -1.984375 L 12.90625 -79.921875 C 13.0625 -80.929688 13.6875 -81.4375 14.78125 -81.4375 L 26.875 -81.4375 C 28.113281 -81.4375 28.617188 -80.773438 28.390625 -79.453125 L 18.734375 -33.734375 C 18.492188 -32.722656 18.78125 -32.175781 19.59375 -32.09375 C 20.414062 -32.019531 20.976562 -32.375 21.28125 -33.15625 L 38.96875 -79.921875 C 39.351562 -80.929688 39.972656 -81.4375 40.828125 -81.4375 L 54.09375 -81.4375 C 55.40625 -81.4375 55.945312 -80.773438 55.71875 -79.453125 L 49.5625 -33.734375 C 49.476562 -32.722656 49.820312 -32.175781 50.59375 -32.09375 C 51.375 -32.019531 51.878906 -32.375 52.109375 -33.15625 L 66.078125 -79.921875 C 66.304688 -80.929688 66.925781 -81.4375 67.9375 -81.4375 L 80.84375 -81.4375 C 81.46875 -81.4375 81.929688 -81.257812 82.234375 -80.90625 C 82.546875 -80.5625 82.585938 -80.078125 82.359375 -79.453125 L 51.1875 -1.515625 C 50.800781 -0.503906 50.179688 0 49.328125 0 L 36.765625 0 C 35.597656 0 35.09375 -0.660156 35.25 -1.984375 L 41.296875 -49.671875 C 41.453125 -50.835938 41.160156 -51.4375 40.421875 -51.46875 C 39.679688 -51.507812 39.117188 -51.023438 38.734375 -50.015625 L 19.1875 -1.515625 C 18.800781 -0.503906 18.179688 0 17.328125 0 Z M -15.703125 28.15625 C -17.097656 28.15625 -17.601562 27.492188 -17.21875 26.171875 L -14.3125 15.46875 C -14.070312 14.457031 -13.453125 13.953125 -12.453125 13.953125 L 60.953125 13.953125 C 62.347656 13.953125 62.851562 14.613281 62.46875 15.9375 L 59.5625 26.640625 C 59.332031 27.648438 58.710938 28.15625 57.703125 28.15625 Z M -15.703125 28.15625 "/></g></g></g><g fill="#000000" fill-opacity="1"><g transform="translate(635.458973, 251.743698)"><g><path d="M 0.109375 0 C -1.585938 0 -2.242188 -0.851562 -1.859375 -2.5625 L 18.03125 -79.921875 C 18.257812 -80.929688 18.878906 -81.4375 19.890625 -81.4375 L 53.625 -81.4375 C 55.019531 -81.4375 55.523438 -80.773438 55.140625 -79.453125 L 52.34375 -68.75 C 52.113281 -67.738281 51.492188 -67.234375 50.484375 -67.234375 L 31.875 -67.234375 L 26.984375 -48.625 L 41.0625 -48.625 C 42.457031 -48.625 42.960938 -47.960938 42.578125 -46.640625 L 40.015625 -36.875 C 39.785156 -35.863281 39.164062 -35.359375 38.15625 -35.359375 L 23.609375 -35.359375 L 18.140625 -14.1875 L 36.296875 -14.1875 C 37.691406 -14.1875 38.195312 -13.53125 37.8125 -12.21875 L 35.015625 -1.515625 C 34.785156 -0.503906 34.164062 0 33.15625 0 Z M -15.703125 28.15625 C -17.097656 28.15625 -17.601562 27.492188 -17.21875 26.171875 L -14.3125 15.46875 C -14.070312 14.457031 -13.453125 13.953125 -12.453125 13.953125 L 34.546875 13.953125 C 35.941406 13.953125 36.445312 14.613281 36.0625 15.9375 L 33.15625 26.640625 C 32.914062 27.648438 32.296875 28.15625 31.296875 28.15625 Z M -15.703125 28.15625 "/></g></g></g><g fill="#000000" fill-opacity="1"><g transform="translate(679.197615, 251.743698)"><g><path d="M 20.46875 0.9375 C 12.40625 -0.15625 7.285156 -4.890625 5.109375 -13.265625 C 2.941406 -21.640625 3.757812 -32.882812 7.5625 -47 C 10.976562 -58.320312 15.398438 -67.125 20.828125 -73.40625 C 26.253906 -79.6875 32.492188 -82.710938 39.546875 -82.484375 C 43.972656 -82.398438 47.675781 -81.234375 50.65625 -78.984375 C 53.644531 -76.734375 55.835938 -73.75 57.234375 -70.03125 C 58.628906 -66.3125 59.054688 -62.160156 58.515625 -57.578125 C 58.429688 -56.566406 57.769531 -55.945312 56.53125 -55.71875 L 44.78125 -53.625 C 43.15625 -53.394531 42.535156 -54.054688 42.921875 -55.609375 C 43.304688 -59.410156 43.1875 -62.414062 42.5625 -64.625 C 41.945312 -66.832031 40.75 -68.015625 38.96875 -68.171875 C 36.644531 -68.328125 34.023438 -66.289062 31.109375 -62.0625 C 28.203125 -57.832031 25.585938 -51.609375 23.265625 -43.390625 C 20.546875 -33.929688 19.320312 -26.601562 19.59375 -21.40625 C 19.875 -16.207031 21.289062 -13.492188 23.84375 -13.265625 C 25.707031 -13.179688 27.53125 -14.144531 29.3125 -16.15625 C 31.09375 -18.175781 32.722656 -21.785156 34.203125 -26.984375 C 34.359375 -27.523438 34.53125 -27.910156 34.71875 -28.140625 C 34.914062 -28.378906 35.09375 -28.578125 35.25 -28.734375 L 43.046875 -35.125 C 43.660156 -35.59375 43.789062 -36.132812 43.4375 -36.75 C 43.09375 -37.375 42.613281 -37.492188 42 -37.109375 L 34.78125 -33.5 C 34.550781 -33.425781 34.28125 -33.3125 33.96875 -33.15625 C 33.65625 -33 33.382812 -32.878906 33.15625 -32.796875 L 29.65625 -32.21875 C 28.1875 -31.988281 27.609375 -32.609375 27.921875 -34.078125 L 29.78125 -44.328125 C 29.9375 -44.867188 30.164062 -45.332031 30.46875 -45.71875 C 30.78125 -46.101562 31.207031 -46.335938 31.75 -46.421875 L 55.71875 -50.140625 C 57.195312 -50.367188 57.78125 -49.75 57.46875 -48.28125 C 56.84375 -45.09375 56.21875 -42.414062 55.59375 -40.25 C 54.976562 -38.082031 54.363281 -36.023438 53.75 -34.078125 C 50.40625 -22.367188 45.882812 -13.394531 40.1875 -7.15625 C 34.488281 -0.914062 27.914062 1.78125 20.46875 0.9375 Z M -15.703125 28.15625 C -17.097656 28.15625 -17.601562 27.492188 -17.21875 26.171875 L -14.3125 15.46875 C -14.070312 14.457031 -13.453125 13.953125 -12.453125 13.953125 L 46.640625 13.953125 C 48.035156 13.953125 48.539062 14.613281 48.15625 15.9375 L 45.25 26.640625 C 45.019531 27.648438 44.398438 28.15625 43.390625 28.15625 Z M -15.703125 28.15625 "/></g></g></g><g fill="#000000" fill-opacity="1"><g transform="translate(735.034161, 251.743698)"><g><path d="M 0.109375 0 C -1.585938 0 -2.242188 -0.851562 -1.859375 -2.5625 L 18.03125 -79.921875 C 18.257812 -80.929688 18.878906 -81.4375 19.890625 -81.4375 L 53.625 -81.4375 C 55.019531 -81.4375 55.523438 -80.773438 55.140625 -79.453125 L 52.34375 -68.75 C 52.113281 -67.738281 51.492188 -67.234375 50.484375 -67.234375 L 31.875 -67.234375 L 26.984375 -48.625 L 41.0625 -48.625 C 42.457031 -48.625 42.960938 -47.960938 42.578125 -46.640625 L 40.015625 -36.875 C 39.785156 -35.863281 39.164062 -35.359375 38.15625 -35.359375 L 23.609375 -35.359375 L 18.140625 -14.1875 L 36.296875 -14.1875 C 37.691406 -14.1875 38.195312 -13.53125 37.8125 -12.21875 L 35.015625 -1.515625 C 34.785156 -0.503906 34.164062 0 33.15625 0 Z M -15.703125 28.15625 C -17.097656 28.15625 -17.601562 27.492188 -17.21875 26.171875 L -14.3125 15.46875 C -14.070312 14.457031 -13.453125 13.953125 -12.453125 13.953125 L 34.546875 13.953125 C 35.941406 13.953125 36.445312 14.613281 36.0625 15.9375 L 33.15625 26.640625 C 32.914062 27.648438 32.296875 28.15625 31.296875 28.15625 Z M -15.703125 28.15625 "/></g></g></g><g fill="#000000" fill-opacity="1"><g transform="translate(130.425563, 412.190587)"><g><path d="M 19.1875 0.9375 C 15.3125 0.539062 11.878906 -0.914062 8.890625 -3.4375 C 5.910156 -5.957031 3.664062 -9.425781 2.15625 -13.84375 C 0.644531 -18.257812 0.160156 -23.378906 0.703125 -29.203125 C 0.773438 -30.203125 1.351562 -30.78125 2.4375 -30.9375 L 13.84375 -32.796875 C 15.164062 -33.035156 15.75 -32.457031 15.59375 -31.0625 C 15.050781 -25.632812 15.335938 -21.445312 16.453125 -18.5 C 17.578125 -15.550781 19.070312 -13.921875 20.9375 -13.609375 C 22.257812 -13.453125 23.382812 -13.878906 24.3125 -14.890625 C 25.238281 -15.898438 25.859375 -17.679688 26.171875 -20.234375 C 26.554688 -24.035156 25.9375 -27.289062 24.3125 -30 C 22.6875 -32.71875 20.707031 -35.75 18.375 -39.09375 C 16.90625 -41.101562 15.53125 -43.289062 14.25 -45.65625 C 12.96875 -48.019531 12.015625 -50.675781 11.390625 -53.625 C 10.773438 -56.570312 10.78125 -59.832031 11.40625 -63.40625 C 12.332031 -68.4375 13.9375 -72.347656 16.21875 -75.140625 C 18.507812 -77.929688 21.144531 -79.867188 24.125 -80.953125 C 27.113281 -82.046875 30.125 -82.515625 33.15625 -82.359375 C 36.644531 -82.203125 39.609375 -81.289062 42.046875 -79.625 C 44.492188 -77.957031 46.429688 -75.804688 47.859375 -73.171875 C 49.296875 -70.535156 50.304688 -67.644531 50.890625 -64.5 C 51.472656 -61.363281 51.648438 -58.28125 51.421875 -55.25 C 51.335938 -54.25 50.753906 -53.671875 49.671875 -53.515625 L 39.4375 -52 C 38.195312 -51.769531 37.578125 -52.351562 37.578125 -53.75 C 37.734375 -58.320312 37.265625 -61.769531 36.171875 -64.09375 C 35.085938 -66.425781 33.769531 -67.628906 32.21875 -67.703125 C 31.289062 -67.859375 30.242188 -67.53125 29.078125 -66.71875 C 27.921875 -65.90625 27.1875 -64.488281 26.875 -62.46875 C 26.332031 -59.445312 26.625 -56.925781 27.75 -54.90625 C 28.875 -52.882812 30.40625 -50.554688 32.34375 -47.921875 C 34.050781 -45.671875 35.8125 -43.226562 37.625 -40.59375 C 39.445312 -37.957031 40.878906 -34.988281 41.921875 -31.6875 C 42.972656 -28.394531 43.148438 -24.539062 42.453125 -20.125 C 41.910156 -16.09375 40.648438 -12.410156 38.671875 -9.078125 C 36.703125 -5.742188 34.085938 -3.144531 30.828125 -1.28125 C 27.566406 0.582031 23.6875 1.320312 19.1875 0.9375 Z M -15.703125 28.15625 C -17.097656 28.15625 -17.601562 27.492188 -17.21875 26.171875 L -14.3125 15.46875 C -14.070312 14.457031 -13.453125 13.953125 -12.453125 13.953125 L 38.046875 13.953125 C 39.441406 13.953125 39.941406 14.613281 39.546875 15.9375 L 36.640625 26.640625 C 36.410156 27.648438 35.789062 28.15625 34.78125 28.15625 Z M -15.703125 28.15625 "/></g></g></g><g fill="#000000" fill-opacity="1"><g transform="translate(177.653981, 412.190587)"><g><path d="M 21.75 0.9375 C 15.625 0.539062 11.066406 -1.628906 8.078125 -5.578125 C 5.097656 -9.535156 3.566406 -14.984375 3.484375 -21.921875 C 3.410156 -28.867188 4.726562 -37.035156 7.4375 -46.421875 C 11.082031 -58.898438 15.582031 -68.125 20.9375 -74.09375 C 26.289062 -80.070312 32.765625 -82.828125 40.359375 -82.359375 C 46.410156 -82.046875 50.925781 -79.910156 53.90625 -75.953125 C 56.894531 -72.003906 58.425781 -66.539062 58.5 -59.5625 C 58.582031 -52.582031 57.269531 -44.398438 54.5625 -35.015625 C 47.34375 -10.117188 36.40625 1.863281 21.75 0.9375 Z M 23.15625 -13.265625 C 25.863281 -12.722656 28.421875 -14.679688 30.828125 -19.140625 C 33.234375 -23.597656 35.753906 -30.207031 38.390625 -38.96875 C 41.253906 -48.820312 42.609375 -56.035156 42.453125 -60.609375 C 42.304688 -65.179688 41.109375 -67.703125 38.859375 -68.171875 C 36.222656 -68.710938 33.679688 -66.753906 31.234375 -62.296875 C 28.785156 -57.835938 26.242188 -51.222656 23.609375 -42.453125 C 20.742188 -32.609375 19.390625 -25.394531 19.546875 -20.8125 C 19.703125 -16.238281 20.90625 -13.722656 23.15625 -13.265625 Z M -15.703125 28.15625 C -17.097656 28.15625 -17.601562 27.492188 -17.21875 26.171875 L -14.3125 15.46875 C -14.070312 14.457031 -13.453125 13.953125 -12.453125 13.953125 L 47 13.953125 C 48.394531 13.953125 48.898438 14.613281 48.515625 15.9375 L 45.59375 26.640625 C 45.363281 27.648438 44.742188 28.15625 43.734375 28.15625 Z M -15.703125 28.15625 "/></g></g></g><g fill="#000000" fill-opacity="1"><g transform="translate(233.839515, 412.190587)"><g><path d="M -0.46875 0 C -1.863281 0 -2.367188 -0.660156 -1.984375 -1.984375 L 18.140625 -79.921875 C 18.378906 -80.929688 19.003906 -81.4375 20.015625 -81.4375 L 53.390625 -81.4375 C 54.785156 -81.4375 55.289062 -80.773438 54.90625 -79.453125 L 52.109375 -68.75 C 51.878906 -67.738281 51.257812 -67.234375 50.25 -67.234375 L 31.875 -67.234375 L 26.640625 -46.765625 L 41.0625 -46.765625 C 42.457031 -46.765625 42.960938 -46.101562 42.578125 -44.78125 L 39.78125 -34.3125 C 39.550781 -33.300781 38.929688 -32.796875 37.921875 -32.796875 L 23.03125 -32.796875 L 14.890625 -1.515625 C 14.660156 -0.503906 14.039062 0 13.03125 0 Z M -15.703125 28.15625 C -17.097656 28.15625 -17.601562 27.492188 -17.21875 26.171875 L -14.3125 15.46875 C -14.070312 14.457031 -13.453125 13.953125 -12.453125 13.953125 L 33.390625 13.953125 C 34.785156 13.953125 35.289062 14.613281 34.90625 15.9375 L 31.984375 26.640625 C 31.753906 27.648438 31.132812 28.15625 30.125 28.15625 Z M -15.703125 28.15625 "/></g></g></g><g fill="#000000" fill-opacity="1"><g transform="translate(276.414891, 412.190587)"><g><path d="M 21.75 0.9375 C 15.625 0.539062 11.066406 -1.628906 8.078125 -5.578125 C 5.097656 -9.535156 3.566406 -14.984375 3.484375 -21.921875 C 3.410156 -28.867188 4.726562 -37.035156 7.4375 -46.421875 C 11.082031 -58.898438 15.582031 -68.125 20.9375 -74.09375 C 26.289062 -80.070312 32.765625 -82.828125 40.359375 -82.359375 C 46.410156 -82.046875 50.925781 -79.910156 53.90625 -75.953125 C 56.894531 -72.003906 58.425781 -66.539062 58.5 -59.5625 C 58.582031 -52.582031 57.269531 -44.398438 54.5625 -35.015625 C 47.34375 -10.117188 36.40625 1.863281 21.75 0.9375 Z M 23.15625 -13.265625 C 25.863281 -12.722656 28.421875 -14.679688 30.828125 -19.140625 C 33.234375 -23.597656 35.753906 -30.207031 38.390625 -38.96875 C 41.253906 -48.820312 42.609375 -56.035156 42.453125 -60.609375 C 42.304688 -65.179688 41.109375 -67.703125 38.859375 -68.171875 C 36.222656 -68.710938 33.679688 -66.753906 31.234375 -62.296875 C 28.785156 -57.835938 26.242188 -51.222656 23.609375 -42.453125 C 20.742188 -32.609375 19.390625 -25.394531 19.546875 -20.8125 C 19.703125 -16.238281 20.90625 -13.722656 23.15625 -13.265625 Z M -15.703125 28.15625 C -17.097656 28.15625 -17.601562 27.492188 -17.21875 26.171875 L -14.3125 15.46875 C -14.070312 14.457031 -13.453125 13.953125 -12.453125 13.953125 L 47 13.953125 C 48.394531 13.953125 48.898438 14.613281 48.515625 15.9375 L 45.59375 26.640625 C 45.363281 27.648438 44.742188 28.15625 43.734375 28.15625 Z M -15.703125 28.15625 "/></g></g></g><g fill="#000000" fill-opacity="1"><g transform="translate(332.600425, 412.190587)"><g><path d="M -0.46875 0 C -1.863281 0 -2.367188 -0.695312 -1.984375 -2.09375 L 18.140625 -79.921875 C 18.378906 -80.929688 19.003906 -81.4375 20.015625 -81.4375 L 34.546875 -81.4375 C 40.210938 -81.4375 44.769531 -80.269531 48.21875 -77.9375 C 51.664062 -75.613281 54.03125 -72.570312 55.3125 -68.8125 C 56.59375 -65.050781 56.726562 -61 55.71875 -56.65625 C 55.101562 -53.9375 54.171875 -51.238281 52.921875 -48.5625 C 51.679688 -45.882812 49.957031 -43.554688 47.75 -41.578125 C 45.539062 -39.609375 42.726562 -38.234375 39.3125 -37.453125 C 38.925781 -37.378906 38.539062 -37.320312 38.15625 -37.28125 C 37.769531 -37.238281 37.304688 -37.296875 36.765625 -37.453125 L 32.921875 -38.5 C 32.066406 -38.8125 31.460938 -38.640625 31.109375 -37.984375 C 30.765625 -37.328125 30.976562 -36.765625 31.75 -36.296875 L 37.34375 -32.921875 C 38.039062 -32.453125 38.46875 -31.789062 38.625 -30.9375 L 43.046875 -1.984375 C 43.203125 -1.285156 43.082031 -0.78125 42.6875 -0.46875 C 42.300781 -0.15625 41.835938 0 41.296875 0 L 29.078125 0 C 27.921875 0 27.300781 -0.539062 27.21875 -1.625 L 22.6875 -34.546875 C 22.601562 -35.554688 22.171875 -36.039062 21.390625 -36 C 20.617188 -35.96875 20.195312 -35.40625 20.125 -34.3125 L 19.1875 -21.171875 C 19.1875 -20.785156 19.085938 -20.007812 18.890625 -18.84375 C 18.703125 -17.675781 18.53125 -16.898438 18.375 -16.515625 L 14.421875 -1.515625 C 14.191406 -0.503906 13.570312 0 12.5625 0 Z M -15.703125 28.15625 C -17.097656 28.15625 -17.601562 27.492188 -17.21875 26.171875 L -14.3125 15.46875 C -14.070312 14.457031 -13.453125 13.953125 -12.453125 13.953125 L 42.234375 13.953125 C 43.628906 13.953125 44.128906 14.613281 43.734375 15.9375 L 40.828125 26.640625 C 40.597656 27.648438 39.976562 28.15625 38.96875 28.15625 Z M 26.171875 -47.578125 L 30.484375 -47.578125 C 33.273438 -47.578125 35.503906 -48.410156 37.171875 -50.078125 C 38.835938 -51.742188 40.019531 -54.085938 40.71875 -57.109375 C 41.570312 -60.835938 41.394531 -63.59375 40.1875 -65.375 C 38.988281 -67.15625 37.109375 -68.046875 34.546875 -68.046875 L 31.40625 -68.046875 Z M 26.171875 -47.578125 "/></g></g></g><g fill="#000000" fill-opacity="1"><g transform="translate(384.016574, 412.190587)"><g><path d="M 7.4375 0 C 6.039062 0 5.539062 -0.660156 5.9375 -1.984375 L 23.03125 -68.046875 L 11.75 -68.046875 C 10.351562 -68.046875 9.847656 -68.707031 10.234375 -70.03125 L 12.796875 -79.921875 C 13.023438 -80.929688 13.644531 -81.4375 14.65625 -81.4375 L 54.4375 -81.4375 C 55.832031 -81.4375 56.335938 -80.773438 55.953125 -79.453125 L 53.390625 -69.5625 C 53.160156 -68.550781 52.539062 -68.046875 51.53125 -68.046875 L 39.78125 -68.046875 L 22.5625 -1.515625 C 22.332031 -0.503906 21.710938 0 20.703125 0 Z M -15.703125 28.15625 C -17.097656 28.15625 -17.601562 27.492188 -17.21875 26.171875 L -14.3125 15.46875 C -14.070312 14.457031 -13.453125 13.953125 -12.453125 13.953125 L 34.203125 13.953125 C 35.597656 13.953125 36.101562 14.613281 35.71875 15.9375 L 32.796875 26.640625 C 32.566406 27.648438 31.945312 28.15625 30.9375 28.15625 Z M -15.703125 28.15625 "/></g></g></g><g fill="#000000" fill-opacity="1"><g transform="translate(427.406217, 412.190587)"><g><path d="M -15.703125 28.15625 C -17.097656 28.15625 -17.601562 27.492188 -17.21875 26.171875 L -14.3125 15.46875 C -14.070312 14.457031 -13.453125 13.953125 -12.453125 13.953125 L 11.75 13.953125 C 13.144531 13.953125 13.648438 14.613281 13.265625 15.9375 L 10.359375 26.640625 C 10.117188 27.648438 9.492188 28.15625 8.484375 28.15625 Z M -15.703125 28.15625 "/></g></g></g><g fill="#000000" fill-opacity="1"><g transform="translate(448.344916, 412.190587)"><g><path d="M -0.109375 0 C -0.804688 0 -1.3125 -0.289062 -1.625 -0.875 C -1.9375 -1.457031 -2.015625 -2.054688 -1.859375 -2.671875 L 18.03125 -79.921875 C 18.257812 -80.929688 18.878906 -81.4375 19.890625 -81.4375 L 34.3125 -81.4375 C 40.207031 -81.4375 44.78125 -80.25 48.03125 -77.875 C 51.289062 -75.507812 53.441406 -72.503906 54.484375 -68.859375 C 55.535156 -65.222656 55.640625 -61.539062 54.796875 -57.8125 C 53.785156 -53.625 52.035156 -50.328125 49.546875 -47.921875 C 47.066406 -45.523438 44.742188 -43.898438 42.578125 -43.046875 C 41.566406 -42.648438 41.019531 -42.257812 40.9375 -41.875 C 40.863281 -41.488281 41.175781 -40.984375 41.875 -40.359375 C 42.8125 -39.585938 43.976562 -38.425781 45.375 -36.875 C 46.769531 -35.320312 47.875 -33.226562 48.6875 -30.59375 C 49.5 -27.957031 49.476562 -24.625 48.625 -20.59375 C 47.300781 -14 44.3125 -8.914062 39.65625 -5.34375 C 35.007812 -1.78125 29.234375 0 22.328125 0 Z M -15.703125 28.15625 C -17.097656 28.15625 -17.601562 27.492188 -17.21875 26.171875 L -14.3125 15.46875 C -14.070312 14.457031 -13.453125 13.953125 -12.453125 13.953125 L 43.5 13.953125 C 44.894531 13.953125 45.398438 14.613281 45.015625 15.9375 L 42.109375 26.640625 C 41.878906 27.648438 41.257812 28.15625 40.25 28.15625 Z M 16.515625 -12.90625 L 21.75 -12.90625 C 24.78125 -12.90625 27.144531 -13.953125 28.84375 -16.046875 C 30.550781 -18.140625 31.71875 -20.738281 32.34375 -23.84375 C 33.039062 -27.257812 32.976562 -30.015625 32.15625 -32.109375 C 31.34375 -34.203125 29.390625 -35.25 26.296875 -35.25 L 22.328125 -35.25 Z M 25.9375 -48.96875 L 29.203125 -48.96875 C 32.609375 -48.96875 35.066406 -49.703125 36.578125 -51.171875 C 38.097656 -52.648438 39.207031 -54.785156 39.90625 -57.578125 C 40.601562 -60.367188 40.539062 -62.867188 39.71875 -65.078125 C 38.90625 -67.296875 37.222656 -68.40625 34.671875 -68.40625 L 30.9375 -68.40625 Z M 25.9375 -48.96875 "/></g></g></g><g fill="#000000" fill-opacity="1"><g transform="translate(501.040685, 412.190587)"><g><path d="M -6.515625 0 C -7.210938 0 -7.640625 -0.226562 -7.796875 -0.6875 C -7.953125 -1.15625 -7.832031 -1.703125 -7.4375 -2.328125 L 47.234375 -80.390625 C 47.691406 -81.085938 48.425781 -81.4375 49.4375 -81.4375 L 63.171875 -81.4375 C 64.566406 -81.4375 65.066406 -80.773438 64.671875 -79.453125 L 44.546875 -1.515625 C 44.316406 -0.503906 43.695312 0 42.6875 0 L 29.203125 0 C 28.660156 0 28.210938 -0.171875 27.859375 -0.515625 C 27.515625 -0.867188 27.457031 -1.359375 27.6875 -1.984375 L 31.984375 -14.421875 L 18.84375 -14.421875 L 10.359375 -1.046875 C 9.960938 -0.347656 9.265625 0 8.265625 0 Z M -15.703125 28.15625 C -17.097656 28.15625 -17.601562 27.492188 -17.21875 26.171875 L -14.3125 15.46875 C -14.070312 14.457031 -13.453125 13.953125 -12.453125 13.953125 L 47.6875 13.953125 C 49.082031 13.953125 49.585938 14.613281 49.203125 15.9375 L 46.296875 26.640625 C 46.066406 27.648438 45.445312 28.15625 44.4375 28.15625 Z M 26.984375 -27.796875 L 36.875 -27.796875 L 46.53125 -54.4375 C 46.914062 -55.445312 46.703125 -56.109375 45.890625 -56.421875 C 45.078125 -56.734375 44.4375 -56.460938 43.96875 -55.609375 Z M 26.984375 -27.796875 "/></g></g></g><g fill="#000000" fill-opacity="1"><g transform="translate(557.924186, 412.190587)"><g><path d="M 21.171875 0.9375 C 16.984375 0.695312 13.53125 -0.332031 10.8125 -2.15625 C 8.101562 -3.976562 6.066406 -6.363281 4.703125 -9.3125 C 3.347656 -12.257812 2.613281 -15.515625 2.5 -19.078125 C 2.382812 -22.640625 2.789062 -26.285156 3.71875 -30.015625 L 16.515625 -79.921875 C 16.753906 -80.929688 17.375 -81.4375 18.375 -81.4375 L 31.640625 -81.4375 C 33.035156 -81.4375 33.539062 -80.773438 33.15625 -79.453125 L 19.65625 -26.75 C 19.113281 -24.582031 18.785156 -22.507812 18.671875 -20.53125 C 18.554688 -18.550781 18.804688 -16.898438 19.421875 -15.578125 C 20.046875 -14.265625 21.171875 -13.492188 22.796875 -13.265625 C 24.578125 -13.109375 26.03125 -13.59375 27.15625 -14.71875 C 28.28125 -15.84375 29.191406 -17.332031 29.890625 -19.1875 C 30.585938 -21.050781 31.171875 -22.875 31.640625 -24.65625 L 45.828125 -79.921875 C 46.066406 -80.929688 46.6875 -81.4375 47.6875 -81.4375 L 60.953125 -81.4375 C 62.347656 -81.4375 62.851562 -80.773438 62.46875 -79.453125 L 47.6875 -22.5625 C 46.53125 -17.914062 44.769531 -13.769531 42.40625 -10.125 C 40.039062 -6.476562 37.09375 -3.664062 33.5625 -1.6875 C 30.03125 0.289062 25.898438 1.164062 21.171875 0.9375 Z M -15.703125 28.15625 C -17.097656 28.15625 -17.601562 27.492188 -17.21875 26.171875 L -14.3125 15.46875 C -14.070312 14.457031 -13.453125 13.953125 -12.453125 13.953125 L 44.203125 13.953125 C 45.597656 13.953125 46.101562 14.613281 45.71875 15.9375 L 42.8125 26.640625 C 42.570312 27.648438 41.953125 28.15625 40.953125 28.15625 Z M -15.703125 28.15625 "/></g></g></g><g fill="#000000" fill-opacity="1"><g transform="translate(611.317867, 412.190587)"><g><path d="M 0.109375 0 C -1.585938 0 -2.242188 -0.851562 -1.859375 -2.5625 L 18.03125 -79.921875 C 18.257812 -80.929688 18.878906 -81.4375 19.890625 -81.4375 L 53.625 -81.4375 C 55.019531 -81.4375 55.523438 -80.773438 55.140625 -79.453125 L 52.34375 -68.75 C 52.113281 -67.738281 51.492188 -67.234375 50.484375 -67.234375 L 31.875 -67.234375 L 26.984375 -48.625 L 41.0625 -48.625 C 42.457031 -48.625 42.960938 -47.960938 42.578125 -46.640625 L 40.015625 -36.875 C 39.785156 -35.863281 39.164062 -35.359375 38.15625 -35.359375 L 23.609375 -35.359375 L 18.140625 -14.1875 L 36.296875 -14.1875 C 37.691406 -14.1875 38.195312 -13.53125 37.8125 -12.21875 L 35.015625 -1.515625 C 34.785156 -0.503906 34.164062 0 33.15625 0 Z M -15.703125 28.15625 C -17.097656 28.15625 -17.601562 27.492188 -17.21875 26.171875 L -14.3125 15.46875 C -14.070312 14.457031 -13.453125 13.953125 -12.453125 13.953125 L 34.546875 13.953125 C 35.941406 13.953125 36.445312 14.613281 36.0625 15.9375 L 33.15625 26.640625 C 32.914062 27.648438 32.296875 28.15625 31.296875 28.15625 Z M -15.703125 28.15625 "/></g></g></g><g fill="#000000" fill-opacity="1"><g transform="translate(655.056509, 412.190587)"><g><path d="M -0.234375 0 C -0.847656 0 -1.328125 -0.210938 -1.671875 -0.640625 C -2.023438 -1.066406 -2.128906 -1.585938 -1.984375 -2.203125 L 18.140625 -79.796875 C 18.378906 -80.960938 19.078125 -81.546875 20.234375 -81.546875 L 31.0625 -81.4375 C 32.21875 -81.4375 32.875 -80.8125 33.03125 -79.5625 L 38.046875 -32.453125 C 38.117188 -31.679688 38.519531 -31.296875 39.25 -31.296875 C 39.988281 -31.296875 40.398438 -31.757812 40.484375 -32.6875 L 42.453125 -53.96875 C 42.535156 -54.363281 42.59375 -54.753906 42.625 -55.140625 C 42.664062 -55.523438 42.726562 -55.910156 42.8125 -56.296875 L 48.625 -79.6875 C 48.851562 -80.851562 49.550781 -81.4375 50.71875 -81.4375 L 62.46875 -81.546875 C 63.09375 -81.546875 63.554688 -81.332031 63.859375 -80.90625 C 64.171875 -80.476562 64.25 -79.953125 64.09375 -79.328125 L 43.96875 -1.515625 C 43.738281 -0.503906 43.003906 0 41.765625 0 L 30.9375 0 C 30.394531 0 29.96875 -0.113281 29.65625 -0.34375 C 29.351562 -0.582031 29.160156 -1.085938 29.078125 -1.859375 L 24.078125 -48.859375 C 24.003906 -49.785156 23.597656 -50.207031 22.859375 -50.125 C 22.117188 -50.050781 21.710938 -49.628906 21.640625 -48.859375 L 19.65625 -26.984375 C 19.582031 -26.671875 19.484375 -26.164062 19.359375 -25.46875 C 19.242188 -24.769531 19.113281 -24.226562 18.96875 -23.84375 L 13.5 -1.625 C 13.257812 -0.539062 12.597656 0 11.515625 0 Z M -15.703125 28.15625 C -17.097656 28.15625 -17.601562 27.492188 -17.21875 26.171875 L -14.3125 15.46875 C -14.070312 14.457031 -13.453125 13.953125 -12.453125 13.953125 L 47.109375 13.953125 C 48.503906 13.953125 49.007812 14.613281 48.625 15.9375 L 45.71875 26.640625 C 45.488281 27.648438 44.867188 28.15625 43.859375 28.15625 Z M -15.703125 28.15625 "/></g></g></g></svg>