<svg xmlns="http://www.w3.org/2000/svg" xmlns:xlink="http://www.w3.org/1999/xlink" width="1122" zoomAndPan="magnify" viewBox="0 0 841.92 595.499987" height="793" preserveAspectRatio="xMidYMid meet" version="1.0"><defs><g/><clipPath id="7266b42b28"><path d="M 0.3125 0 L 841.527344 0 L 841.527344 595 L 0.3125 595 Z M 0.3125 0 " clip-rule="nonzero"/></clipPath><clipPath id="79c2045748"><path d="M 623.328125 51.101562 L 800.929688 51.101562 L 800.929688 131.285156 L 623.328125 131.285156 Z M 623.328125 51.101562 " clip-rule="nonzero"/></clipPath><clipPath id="0281648752"><path d="M 144 111.507812 L 487 111.507812 L 487 415 L 144 415 Z M 144 111.507812 " clip-rule="nonzero"/></clipPath></defs><g clip-path="url(#7266b42b28)"><path fill="#ffffff" d="M 0.3125 0 L 841.855469 0 L 841.855469 595 L 0.3125 595 Z M 0.3125 0 " fill-opacity="1" fill-rule="nonzero"/><path fill="#ffffff" d="M 0.3125 0 L 841.855469 0 L 841.855469 595 L 0.3125 595 Z M 0.3125 0 " fill-opacity="1" fill-rule="nonzero"/></g><g clip-path="url(#79c2045748)"><path fill="#000000" d="M 786.289062 86.453125 C 792.59375 86.882812 797.136719 81.050781 799.542969 71.050781 C 799.914062 69.449219 800.34375 67.734375 800.769531 65.117188 C 800.878906 64.472656 800.558594 64.207031 799.96875 64.3125 L 789.871094 66.507812 C 789.441406 66.613281 789.175781 66.933594 789.121094 67.363281 L 788.535156 71.695312 C 788.425781 72.335938 788.746094 72.601562 789.335938 72.441406 L 790.5625 72.066406 C 790.777344 72.015625 790.9375 71.960938 791.152344 71.855469 L 794.359375 70.089844 C 795.265625 69.609375 795.800781 70.730469 795.105469 71.320312 L 792.007812 73.777344 C 791.738281 73.992188 791.632812 74.207031 791.527344 74.582031 C 790.511719 78.699219 789.015625 80.464844 787.410156 80.410156 C 785.273438 80.355469 784.632812 75.917969 786.503906 67.84375 C 788.105469 60.890625 790.617188 57.039062 792.542969 57.148438 C 793.929688 57.199219 794.519531 59.445312 794.359375 62.65625 C 794.304688 63.242188 794.625 63.566406 795.214844 63.402344 L 800.128906 62.28125 C 800.558594 62.175781 800.824219 61.90625 800.878906 61.425781 C 801.304688 55.382812 797.9375 50.996094 792.488281 51.105469 C 786.554688 51.210938 782.175781 57.039062 779.875 66.71875 C 777.203125 78.644531 779.503906 85.972656 786.289062 86.453125 Z M 743.484375 61.425781 L 751.019531 60.945312 C 751.449219 60.890625 751.769531 60.625 751.875 60.195312 L 753.320312 53.351562 C 753.425781 52.761719 753.105469 52.441406 752.515625 52.601562 L 744.609375 54.6875 C 744.179688 54.792969 743.96875 55.007812 743.859375 55.488281 L 742.792969 60.570312 C 742.683594 61.105469 742.953125 61.480469 743.484375 61.425781 Z M 776.242188 125.921875 C 781.855469 126.082031 785.007812 121.695312 785.488281 116.5625 C 786.023438 111.054688 782.867188 107.953125 780.625 105.171875 C 778.914062 103.03125 777.738281 101.75 778.007812 99.183594 C 778.167969 97.472656 779.34375 96.828125 780.144531 96.882812 C 781.425781 96.9375 782.816406 98.699219 782.816406 103.246094 C 782.816406 103.835938 783.191406 104.101562 783.722656 103.996094 L 787.679688 103.140625 C 788.105469 103.03125 788.375 102.765625 788.425781 102.285156 C 788.640625 96.453125 786.074219 90.785156 780.195312 90.785156 C 776.457031 90.785156 772.34375 92.871094 771.539062 99.183594 C 771.007812 103.675781 773.035156 106.777344 774.960938 109.183594 C 777.097656 111.855469 778.808594 113.730469 778.648438 116.882812 C 778.539062 119.023438 777.6875 119.824219 776.617188 119.773438 C 774.90625 119.664062 773.570312 117.042969 774.050781 112.230469 C 774.105469 111.589844 773.730469 111.320312 773.195312 111.429688 L 768.65625 112.390625 C 768.226562 112.5 767.960938 112.765625 767.90625 113.246094 C 767.425781 120.949219 771.273438 125.761719 776.242188 125.921875 Z M 738.890625 89.074219 L 744.449219 88.699219 C 744.875 88.648438 745.195312 88.378906 745.304688 87.953125 L 750.058594 64.582031 C 750.164062 64.046875 749.84375 63.671875 749.3125 63.726562 L 743.753906 64.046875 C 743.273438 64.097656 743.003906 64.367188 742.898438 64.792969 L 738.140625 88.21875 C 738.035156 88.753906 738.355469 89.128906 738.890625 89.074219 Z M 750.378906 127.097656 L 763.152344 126.296875 C 763.632812 126.242188 763.898438 125.976562 764.003906 125.546875 L 764.859375 121.214844 C 764.96875 120.679688 764.648438 120.304688 764.113281 120.359375 L 757.859375 120.789062 L 759.675781 111.910156 L 765.664062 111.535156 C 766.144531 111.484375 766.410156 111.214844 766.515625 110.789062 L 767.371094 106.457031 C 767.480469 105.921875 767.210938 105.546875 766.675781 105.601562 L 760.851562 105.972656 L 762.457031 98.21875 L 768.921875 97.792969 C 769.402344 97.738281 769.671875 97.472656 769.777344 97.042969 L 770.632812 92.65625 C 770.738281 92.121094 770.472656 91.75 769.9375 91.800781 L 757.164062 92.65625 C 756.683594 92.710938 756.417969 92.976562 756.3125 93.40625 L 749.632812 126.242188 C 749.523438 126.777344 749.84375 127.152344 750.378906 127.097656 Z M 724.25 90.410156 C 730.554688 90.839844 735.097656 85.011719 737.5 75.007812 C 737.875 73.40625 738.300781 71.695312 738.730469 69.074219 C 738.835938 68.429688 738.515625 68.164062 737.929688 68.269531 L 727.828125 70.410156 C 727.402344 70.515625 727.132812 70.835938 727.082031 71.265625 L 726.492188 75.597656 C 726.386719 76.238281 726.707031 76.507812 727.292969 76.347656 L 728.523438 76.023438 C 728.738281 75.972656 728.898438 75.917969 729.113281 75.8125 L 732.371094 74.046875 C 733.28125 73.566406 733.761719 74.742188 733.066406 75.277344 L 730.019531 77.628906 C 729.699219 77.84375 729.539062 78.164062 729.433594 78.539062 C 728.46875 82.65625 726.972656 84.421875 725.371094 84.367188 C 723.234375 84.316406 722.59375 79.875 724.460938 71.800781 C 726.066406 64.847656 728.578125 60.996094 730.5 61.105469 C 731.890625 61.15625 732.476562 63.402344 732.316406 66.613281 C 732.265625 67.203125 732.585938 67.523438 733.171875 67.363281 L 738.089844 66.238281 C 738.515625 66.132812 738.785156 65.863281 738.835938 65.382812 C 739.265625 59.339844 735.898438 54.953125 730.449219 55.0625 C 724.515625 55.167969 720.132812 60.996094 717.835938 70.675781 C 715.164062 82.601562 717.460938 89.929688 724.25 90.410156 Z M 734.402344 128.222656 L 740.171875 127.847656 C 740.601562 127.792969 740.867188 127.578125 741.027344 127.152344 L 753.53125 93.886719 C 753.746094 93.351562 753.480469 92.925781 752.890625 92.976562 L 747.121094 93.351562 C 746.691406 93.40625 746.425781 93.621094 746.265625 94.046875 L 733.761719 127.3125 C 733.546875 127.847656 733.8125 128.273438 734.402344 128.222656 Z M 691.332031 92.175781 L 696.730469 91.855469 C 697.210938 91.800781 697.421875 91.535156 697.53125 91.105469 L 698.546875 85.8125 C 698.597656 85.492188 698.652344 85.171875 698.652344 84.847656 L 699.078125 71.371094 C 699.078125 70.570312 700.042969 70.464844 700.148438 71.265625 L 702.980469 90.679688 C 703.035156 91.214844 703.355469 91.425781 703.835938 91.375 L 709.5 91 C 709.980469 90.945312 710.25 90.679688 710.355469 90.25 L 717.035156 57.359375 C 717.140625 56.824219 716.820312 56.453125 716.285156 56.503906 L 710.941406 56.878906 C 710.460938 56.933594 710.25 57.199219 710.140625 57.628906 L 708.753906 64.957031 C 708.699219 65.277344 708.644531 65.597656 708.644531 65.917969 L 708.269531 81.160156 C 708.269531 81.960938 707.253906 82.070312 707.148438 81.375 L 703.675781 58.109375 C 703.621094 57.628906 703.300781 57.359375 702.820312 57.414062 L 698.117188 57.683594 C 697.636719 57.734375 697.371094 58.003906 697.261719 58.429688 L 690.582031 91.320312 C 690.476562 91.855469 690.796875 92.230469 691.332031 92.175781 Z M 719.8125 129.238281 L 725.476562 128.863281 C 725.90625 128.808594 726.171875 128.597656 726.332031 128.167969 L 737.074219 99.664062 L 740.972656 99.394531 C 741.402344 99.34375 741.667969 99.128906 741.828125 98.699219 L 743.324219 94.582031 C 743.539062 94.046875 743.273438 93.621094 742.683594 93.671875 L 727.402344 94.691406 C 726.972656 94.742188 726.707031 94.957031 726.546875 95.386719 L 725.050781 99.503906 C 724.835938 100.039062 725.15625 100.464844 725.746094 100.414062 L 729.699219 100.144531 L 719.171875 128.328125 C 718.957031 128.863281 719.226562 129.292969 719.8125 129.238281 Z M 709.019531 129.933594 L 714.578125 129.558594 C 715.058594 129.503906 715.324219 129.238281 715.433594 128.808594 L 722.109375 95.917969 C 722.21875 95.386719 721.898438 95.011719 721.363281 95.0625 L 715.804688 95.4375 C 715.324219 95.492188 715.058594 95.757812 714.949219 96.1875 L 708.269531 129.078125 C 708.164062 129.613281 708.484375 129.988281 709.019531 129.933594 Z M 677.542969 82.335938 L 684.277344 68.804688 C 684.707031 67.949219 685.828125 68.21875 685.558594 69.179688 L 681.660156 82.015625 Z M 664.347656 93.941406 L 670.117188 93.566406 C 670.542969 93.511719 670.8125 93.351562 671.027344 92.976562 L 674.125 88.21875 L 679.894531 87.738281 C 679.84375 87.898438 679.84375 88.058594 679.789062 88.21875 L 678.988281 92.121094 C 678.878906 92.65625 679.203125 93.03125 679.734375 92.976562 L 684.917969 92.605469 C 685.347656 92.550781 685.667969 92.285156 685.773438 91.855469 L 692.453125 59.019531 C 692.5625 58.484375 692.238281 58.109375 691.707031 58.164062 L 685.988281 58.484375 C 685.558594 58.484375 685.292969 58.75 685.078125 59.074219 L 663.757812 93.03125 C 663.4375 93.566406 663.703125 93.996094 664.347656 93.941406 Z M 695.714844 131.269531 C 701.378906 131.589844 705.597656 126.671875 707.578125 117.527344 C 707.789062 116.507812 707.46875 115.867188 706.613281 116.082031 L 701.699219 117.203125 C 701.269531 117.3125 701.058594 117.578125 700.949219 118.058594 C 699.933594 122.925781 698.277344 125.386719 696.675781 125.28125 C 694.75 125.171875 694.058594 121.375 696.035156 113.035156 C 697.796875 105.546875 700.042969 101.589844 702.019531 101.910156 C 703.355469 102.125 703.621094 104.476562 702.714844 109.234375 C 702.605469 109.878906 702.925781 110.199219 703.460938 110.09375 L 708.644531 109.023438 C 709.074219 108.914062 709.339844 108.648438 709.445312 108.21875 C 710.25 104.15625 709.714844 95.867188 702.179688 95.867188 C 696.300781 95.867188 691.597656 101.160156 689.140625 111.75 C 686.363281 123.675781 689.035156 130.894531 695.714844 131.269531 Z M 644.414062 95.277344 L 649.757812 94.902344 C 650.183594 94.851562 650.503906 94.582031 650.613281 94.15625 L 653.015625 82.390625 L 658.09375 81.214844 L 655.582031 93.621094 C 655.476562 94.15625 655.796875 94.53125 656.332031 94.476562 L 661.675781 94.101562 C 662.101562 94.046875 662.421875 93.78125 662.527344 93.351562 L 669.207031 60.515625 C 669.316406 59.980469 668.996094 59.605469 668.460938 59.660156 L 663.117188 59.980469 C 662.636719 60.035156 662.367188 60.300781 662.261719 60.730469 L 659.375 74.957031 L 654.300781 76.078125 L 657.292969 61.265625 C 657.398438 60.730469 657.078125 60.355469 656.542969 60.410156 L 651.199219 60.785156 C 650.773438 60.835938 650.453125 61.105469 650.34375 61.53125 L 643.664062 94.421875 C 643.558594 94.957031 643.878906 95.332031 644.414062 95.277344 Z M 631 96.507812 C 636.664062 96.828125 640.886719 91.910156 642.917969 82.441406 C 643.078125 81.746094 642.757812 81.105469 641.957031 81.265625 L 636.984375 82.441406 C 636.558594 82.550781 636.34375 82.816406 636.292969 82.976562 C 635.222656 88.164062 633.566406 90.625 631.964844 90.519531 C 630.039062 90.410156 629.34375 86.613281 631.320312 78.273438 C 633.085938 70.785156 635.328125 66.828125 637.308594 67.148438 C 638.644531 67.363281 638.910156 69.714844 638 74.472656 C 637.894531 75.117188 638.214844 75.4375 638.804688 75.332031 L 643.933594 74.261719 C 644.359375 74.152344 644.628906 73.886719 644.734375 73.457031 C 645.535156 69.394531 645 61.105469 637.46875 61.105469 C 631.589844 61.105469 626.886719 66.398438 624.429688 76.988281 C 621.648438 88.914062 624.320312 96.132812 631 96.507812 Z M 748.667969 88.484375 L 754.441406 88.113281 C 754.867188 88.058594 755.136719 87.84375 755.296875 87.417969 L 757.59375 81.050781 C 757.753906 80.679688 757.808594 80.519531 757.859375 80.25 L 759.890625 67.949219 C 760.050781 66.988281 761.121094 66.988281 761.121094 67.949219 L 761.066406 86.882812 C 761.066406 87.417969 761.335938 87.683594 761.867188 87.628906 L 767.265625 87.308594 C 767.691406 87.308594 768.011719 87.042969 768.175781 86.667969 L 781.480469 53.242188 C 781.695312 52.707031 781.371094 52.28125 780.785156 52.332031 L 775.121094 52.761719 C 774.691406 52.816406 774.371094 53.027344 774.210938 53.402344 L 770.152344 63.726562 C 769.9375 64.261719 769.777344 64.6875 769.671875 65.328125 L 767.585938 75.972656 C 767.425781 76.773438 766.410156 76.71875 766.410156 75.917969 L 766.625 54.152344 C 766.625 53.617188 766.355469 53.296875 765.824219 53.351562 L 761.121094 53.617188 C 760.691406 53.617188 760.425781 53.886719 760.265625 54.3125 L 748.027344 87.578125 C 747.816406 88.113281 748.082031 88.539062 748.667969 88.484375 Z M 748.667969 88.484375 " fill-opacity="1" fill-rule="nonzero"/></g><g clip-path="url(#0281648752)"><path fill="#000000" d="M 184.386719 392.402344 L 145.09375 305.371094 C 143.648438 302.191406 144.226562 300.167969 147.402344 298.433594 L 203.167969 269.230469 L 271.933594 155.59375 C 273.957031 152.125 277.425781 152.125 279.15625 155.886719 L 371.90625 360.886719 C 373.640625 364.355469 371.617188 366.957031 367.859375 366.957031 L 257.777344 364.644531 L 251.707031 410.328125 C 251.421875 413.800781 249.109375 415.246094 245.929688 414.957031 L 230.328125 413.222656 C 227.148438 412.933594 225.125 410.617188 225.703125 407.4375 L 230.039062 374.476562 L 191.320312 394.714844 C 188.433594 396.160156 185.832031 395.582031 184.386719 392.402344 Z M 206.347656 295.25 L 176.007812 311.152344 L 199.410156 362.621094 L 229.75 347.007812 Z M 334.921875 342.09375 L 272.511719 203.882812 L 227.148438 279.058594 L 254.886719 340.359375 Z M 325.675781 186.824219 L 342.144531 146.054688 L 328.566406 150.96875 C 325.386719 152.125 323.074219 150.679688 321.921875 147.5 L 317.875 135.355469 C 316.71875 131.886719 317.875 129.863281 321.054688 128.707031 L 373.0625 111.933594 C 377.105469 110.488281 379.417969 112.800781 377.972656 116.851562 L 348.214844 194.917969 C 347.058594 197.808594 344.746094 199.257812 341.566406 198.097656 L 328.855469 193.472656 C 325.675781 192.316406 324.519531 190.003906 325.675781 186.824219 Z M 352.835938 244.074219 L 420.445312 182.773438 L 402.53125 185.957031 C 399.355469 186.535156 397.042969 185.089844 396.464844 181.617188 L 394.152344 169.472656 C 393.574219 166.292969 395.308594 163.980469 398.488281 163.402344 L 481.699219 149.8125 C 486.613281 148.945312 488.347656 152.414062 484.589844 155.886719 L 412.066406 221.519531 L 441.25 217.761719 C 444.429688 217.472656 446.738281 219.207031 447.027344 222.386719 L 448.761719 235.109375 C 449.050781 238.289062 447.316406 240.601562 444.140625 240.894531 L 355.726562 251.011719 C 351.679688 251.589844 349.367188 247.253906 352.835938 244.074219 Z M 420.15625 318.09375 L 429.691406 304.214844 L 383.175781 307.105469 C 379.996094 307.394531 377.972656 305.371094 377.683594 302.191406 L 376.527344 289.46875 C 376.238281 286.289062 378.261719 284.265625 381.441406 283.976562 L 467.542969 278.769531 C 471.878906 278.480469 473.609375 281.082031 471.300781 284.84375 L 440.382812 330.816406 C 438.648438 333.707031 435.761719 334.285156 433.160156 332.550781 L 421.601562 325.320312 C 418.714844 323.296875 418.425781 320.695312 420.15625 318.09375 Z M 420.15625 318.09375 " fill-opacity="1" fill-rule="nonzero"/></g><g fill="#000000" fill-opacity="1"><g transform="translate(45.276452, 530.678077)"><g><path d="M 41.515625 0 C 39.765625 0 39.132812 -0.820312 39.625 -2.46875 L 46.46875 -28.84375 L 33.203125 -26.515625 L 26.796875 -1.890625 C 26.503906 -0.628906 25.726562 0 24.46875 0 L 11.0625 0 C 9.320312 0 8.691406 -0.820312 9.171875 -2.46875 L 14.421875 -22.875 L 1.3125 -20.53125 C -0.53125 -20.238281 -1.210938 -21.019531 -0.734375 -22.875 L 2.90625 -36.265625 C 3.101562 -37.335938 3.832031 -38.019531 5.09375 -38.3125 L 19.078125 -40.78125 L 21.84375 -51.5625 L 8.734375 -49.234375 C 6.890625 -48.941406 6.210938 -49.71875 6.703125 -51.5625 L 10.203125 -64.96875 C 10.390625 -66.03125 11.113281 -66.707031 12.375 -67 L 26.515625 -69.484375 L 34.375 -100.0625 C 34.664062 -101.320312 35.441406 -101.953125 36.703125 -101.953125 L 50.109375 -101.953125 C 51.859375 -101.953125 52.488281 -101.128906 52 -99.484375 L 45.296875 -73.125 L 58.40625 -75.296875 L 64.8125 -100.0625 C 65.101562 -101.320312 65.878906 -101.953125 67.140625 -101.953125 L 80.546875 -101.953125 C 82.296875 -101.953125 82.925781 -101.128906 82.4375 -99.484375 L 77.203125 -78.953125 L 90.3125 -81.28125 C 92.15625 -81.570312 92.832031 -80.796875 92.34375 -78.953125 L 88.84375 -65.546875 C 88.65625 -64.472656 87.929688 -63.789062 86.671875 -63.5 L 72.53125 -61.03125 L 69.765625 -50.25 L 83.03125 -52.578125 C 84.875 -52.867188 85.550781 -52.09375 85.0625 -50.25 L 81.421875 -36.84375 C 81.222656 -35.78125 80.492188 -35.101562 79.234375 -34.8125 L 65.109375 -32.328125 L 57.25 -1.890625 C 56.957031 -0.628906 56.175781 0 54.90625 0 Z M 35.6875 -42.390625 L 52 -45.15625 L 55.9375 -59.421875 L 39.625 -56.65625 Z M 35.6875 -42.390625 "/></g></g></g><g fill="#000000" fill-opacity="1"><g transform="translate(129.606029, 530.678077)"><g><path d="M -0.296875 0 C -1.066406 0 -1.671875 -0.265625 -2.109375 -0.796875 C -2.546875 -1.335938 -2.664062 -1.992188 -2.46875 -2.765625 L 22.71875 -99.921875 C 23.007812 -101.378906 23.882812 -102.109375 25.34375 -102.109375 L 38.890625 -101.953125 C 40.347656 -101.953125 41.171875 -101.175781 41.359375 -99.625 L 47.625 -40.640625 C 47.726562 -39.671875 48.238281 -39.1875 49.15625 -39.1875 C 50.082031 -39.1875 50.59375 -39.765625 50.6875 -40.921875 L 53.171875 -67.578125 C 53.265625 -68.066406 53.332031 -68.550781 53.375 -69.03125 C 53.425781 -69.519531 53.5 -70.007812 53.59375 -70.5 L 60.890625 -99.78125 C 61.179688 -101.226562 62.050781 -101.953125 63.5 -101.953125 L 78.21875 -102.109375 C 78.988281 -102.109375 79.566406 -101.835938 79.953125 -101.296875 C 80.347656 -100.765625 80.445312 -100.113281 80.25 -99.34375 L 55.0625 -1.890625 C 54.769531 -0.628906 53.847656 0 52.296875 0 L 38.75 0 C 38.0625 0 37.523438 -0.144531 37.140625 -0.4375 C 36.753906 -0.726562 36.515625 -1.359375 36.421875 -2.328125 L 30.15625 -61.171875 C 30.050781 -62.335938 29.535156 -62.867188 28.609375 -62.765625 C 27.691406 -62.671875 27.1875 -62.140625 27.09375 -61.171875 L 24.609375 -33.796875 C 24.515625 -33.398438 24.394531 -32.765625 24.25 -31.890625 C 24.101562 -31.023438 23.929688 -30.347656 23.734375 -29.859375 L 16.890625 -2.046875 C 16.597656 -0.679688 15.773438 0 14.421875 0 Z M -0.296875 0 "/></g></g></g><g fill="#000000" fill-opacity="1"><g transform="translate(200.099146, 530.678077)"><g><path d="M 0.140625 0 C -1.597656 0 -2.226562 -0.820312 -1.75 -2.46875 L 23.453125 -100.0625 C 23.742188 -101.320312 24.519531 -101.953125 25.78125 -101.953125 L 42.390625 -101.953125 C 44.128906 -101.953125 44.757812 -101.128906 44.28125 -99.484375 L 19.078125 -1.890625 C 18.785156 -0.628906 18.007812 0 16.75 0 Z M 0.140625 0 "/></g></g></g><g fill="#000000" fill-opacity="1"><g transform="translate(235.345705, 530.678077)"><g><path d="M 25.78125 1.171875 C 15.875 0.0976562 9.390625 -5.65625 6.328125 -16.09375 C 3.273438 -26.53125 4.273438 -40.535156 9.328125 -58.109375 C 13.890625 -73.742188 19.738281 -85.320312 26.875 -92.84375 C 34.007812 -100.375 41.945312 -103.898438 50.6875 -103.421875 C 55.0625 -103.128906 58.65625 -102.035156 61.46875 -100.140625 C 64.28125 -98.242188 66.414062 -95.8125 67.875 -92.84375 C 69.332031 -89.882812 70.300781 -86.726562 70.78125 -83.375 C 71.269531 -80.03125 71.414062 -76.78125 71.21875 -73.625 C 71.03125 -70.46875 70.644531 -67.675781 70.0625 -65.25 C 69.769531 -63.988281 69.039062 -63.3125 67.875 -63.21875 L 51.859375 -60.734375 C 51.078125 -60.640625 50.488281 -60.8125 50.09375 -61.25 C 49.707031 -61.6875 49.613281 -62.289062 49.8125 -63.0625 C 51.46875 -70.351562 52.296875 -75.789062 52.296875 -79.375 C 52.296875 -82.96875 51.273438 -84.960938 49.234375 -85.359375 C 46.316406 -86.035156 43.132812 -83.582031 39.6875 -78 C 36.238281 -72.414062 32.863281 -64.140625 29.5625 -53.171875 C 25.96875 -40.835938 24.363281 -31.734375 24.75 -25.859375 C 25.144531 -19.984375 26.75 -16.898438 29.5625 -16.609375 C 31.894531 -16.210938 34.226562 -17.691406 36.5625 -21.046875 C 38.894531 -24.398438 41.078125 -29.664062 43.109375 -36.84375 C 43.503906 -38.007812 44.28125 -38.738281 45.4375 -39.03125 L 61.03125 -41.796875 C 62.09375 -41.992188 62.816406 -41.753906 63.203125 -41.078125 C 63.597656 -40.398438 63.648438 -39.523438 63.359375 -38.453125 C 59.472656 -24.367188 54.328125 -14.023438 47.921875 -7.421875 C 41.515625 -0.828125 34.132812 2.035156 25.78125 1.171875 Z M 25.78125 1.171875 "/></g></g></g><g fill="#000000" fill-opacity="1"><g transform="translate(301.615074, 530.678077)"><g><path d="M 35.390625 0 C 33.640625 0 33.007812 -0.820312 33.5 -2.46875 L 43.265625 -40.0625 L 27.53125 -37.28125 L 18.359375 -1.890625 C 18.066406 -0.628906 17.285156 0 16.015625 0 L -0.578125 0 C -2.328125 0 -2.957031 -0.820312 -2.46875 -2.46875 L 22.71875 -100.0625 C 23.007812 -101.320312 23.785156 -101.953125 25.046875 -101.953125 L 41.65625 -101.953125 C 43.40625 -101.953125 44.035156 -101.128906 43.546875 -99.484375 L 32.1875 -55.5 L 47.921875 -58.265625 L 58.703125 -100.0625 C 58.992188 -101.320312 59.769531 -101.953125 61.03125 -101.953125 L 77.640625 -101.953125 C 79.378906 -101.953125 80.007812 -101.128906 79.53125 -99.484375 L 54.328125 -1.890625 C 54.035156 -0.628906 53.257812 0 52 0 Z M 35.390625 0 "/></g></g></g><g fill="#000000" fill-opacity="1"><g transform="translate(371.379949, 530.678077)"><g><path d="M 9.328125 0 C 7.578125 0 6.941406 -0.820312 7.421875 -2.46875 L 28.84375 -85.203125 L 14.71875 -85.203125 C 12.96875 -85.203125 12.332031 -86.03125 12.8125 -87.6875 L 16.015625 -100.0625 C 16.304688 -101.320312 17.085938 -101.953125 18.359375 -101.953125 L 68.171875 -101.953125 C 69.910156 -101.953125 70.539062 -101.128906 70.0625 -99.484375 L 66.859375 -87.109375 C 66.566406 -85.835938 65.789062 -85.203125 64.53125 -85.203125 L 49.8125 -85.203125 L 28.25 -1.890625 C 27.96875 -0.628906 27.191406 0 25.921875 0 Z M 9.328125 0 "/></g></g></g><g fill="#000000" fill-opacity="1"><g transform="translate(425.707124, 530.678077)"><g><path d="M -3.34375 0 C -5.09375 0 -5.726562 -0.820312 -5.25 -2.46875 L 25.78125 -100.0625 C 26.070312 -101.320312 26.847656 -101.953125 28.109375 -101.953125 L 43.703125 -101.953125 C 45.054688 -101.953125 45.734375 -101.226562 45.734375 -99.78125 L 43.984375 -55.5 C 43.984375 -54.8125 43.957031 -54.175781 43.90625 -53.59375 C 43.863281 -53.019531 43.742188 -52.34375 43.546875 -51.5625 L 41.078125 -35.984375 C 40.878906 -34.421875 41.265625 -33.613281 42.234375 -33.5625 C 43.210938 -33.519531 43.894531 -34.128906 44.28125 -35.390625 L 48.5 -50.25 C 48.695312 -51.03125 48.914062 -51.78125 49.15625 -52.5 C 49.394531 -53.226562 49.660156 -53.835938 49.953125 -54.328125 L 72.390625 -100.359375 C 72.972656 -101.421875 73.800781 -101.953125 74.875 -101.953125 L 90.3125 -101.953125 C 91.863281 -101.953125 92.492188 -101.128906 92.203125 -99.484375 L 72.96875 -1.890625 C 72.675781 -0.628906 71.898438 0 70.640625 0 L 55.9375 0 C 54.375 0 53.738281 -0.773438 54.03125 -2.328125 L 58.984375 -25.484375 L 69.1875 -56.21875 C 69.675781 -57.582031 69.382812 -58.410156 68.3125 -58.703125 C 67.238281 -58.992188 66.460938 -58.554688 65.984375 -57.390625 L 43.265625 -1.890625 C 42.773438 -0.628906 41.992188 0 40.921875 0 L 26.359375 0 C 24.898438 0 24.222656 -0.820312 24.328125 -2.46875 L 31.03125 -59.421875 C 31.21875 -60.691406 30.726562 -61.347656 29.5625 -61.390625 C 28.40625 -61.441406 27.726562 -60.835938 27.53125 -59.578125 L 21.5625 -26.078125 L 13.984375 -1.890625 C 13.492188 -0.628906 12.71875 0 11.65625 0 Z M -3.34375 0 "/></g></g></g><g fill="#000000" fill-opacity="1"><g transform="translate(510.473649, 530.678077)"><g><path d="M 0.140625 0 C -1.597656 0 -2.226562 -0.820312 -1.75 -2.46875 L 23.453125 -100.0625 C 23.742188 -101.320312 24.519531 -101.953125 25.78125 -101.953125 L 42.390625 -101.953125 C 44.128906 -101.953125 44.757812 -101.128906 44.28125 -99.484375 L 19.078125 -1.890625 C 18.785156 -0.628906 18.007812 0 16.75 0 Z M 0.140625 0 "/></g></g></g><g fill="#000000" fill-opacity="1"><g transform="translate(545.720207, 530.678077)"><g><path d="M 9.328125 0 C 7.578125 0 6.941406 -0.820312 7.421875 -2.46875 L 28.84375 -85.203125 L 14.71875 -85.203125 C 12.96875 -85.203125 12.332031 -86.03125 12.8125 -87.6875 L 16.015625 -100.0625 C 16.304688 -101.320312 17.085938 -101.953125 18.359375 -101.953125 L 68.171875 -101.953125 C 69.910156 -101.953125 70.539062 -101.128906 70.0625 -99.484375 L 66.859375 -87.109375 C 66.566406 -85.835938 65.789062 -85.203125 64.53125 -85.203125 L 49.8125 -85.203125 L 28.25 -1.890625 C 27.96875 -0.628906 27.191406 0 25.921875 0 Z M 9.328125 0 "/></g></g></g><g fill="#000000" fill-opacity="1"><g transform="translate(600.053473, 530.678077)"><g><path d="M 26.515625 1.171875 C 21.265625 0.878906 16.941406 -0.40625 13.546875 -2.6875 C 10.148438 -4.976562 7.597656 -7.96875 5.890625 -11.65625 C 4.191406 -15.34375 3.269531 -19.421875 3.125 -23.890625 C 2.976562 -28.359375 3.488281 -32.921875 4.65625 -37.578125 L 20.6875 -100.0625 C 20.976562 -101.320312 21.753906 -101.953125 23.015625 -101.953125 L 39.625 -101.953125 C 41.363281 -101.953125 41.992188 -101.128906 41.515625 -99.484375 L 24.609375 -33.5 C 23.929688 -30.78125 23.519531 -28.179688 23.375 -25.703125 C 23.226562 -23.234375 23.539062 -21.171875 24.3125 -19.515625 C 25.09375 -17.867188 26.503906 -16.898438 28.546875 -16.609375 C 30.785156 -16.410156 32.609375 -17.015625 34.015625 -18.421875 C 35.421875 -19.828125 36.5625 -21.695312 37.4375 -24.03125 C 38.3125 -26.363281 39.039062 -28.644531 39.625 -30.875 L 57.390625 -100.0625 C 57.679688 -101.320312 58.457031 -101.953125 59.71875 -101.953125 L 76.328125 -101.953125 C 78.078125 -101.953125 78.707031 -101.128906 78.21875 -99.484375 L 59.71875 -28.25 C 58.257812 -22.425781 56.050781 -17.234375 53.09375 -12.671875 C 50.132812 -8.109375 46.441406 -4.585938 42.015625 -2.109375 C 37.597656 0.367188 32.429688 1.460938 26.515625 1.171875 Z M 26.515625 1.171875 "/></g></g></g><g fill="#000000" fill-opacity="1"><g transform="translate(666.905418, 530.678077)"><g><path d="M -0.296875 0 C -1.066406 0 -1.671875 -0.265625 -2.109375 -0.796875 C -2.546875 -1.335938 -2.664062 -1.992188 -2.46875 -2.765625 L 22.71875 -99.921875 C 23.007812 -101.378906 23.882812 -102.109375 25.34375 -102.109375 L 38.890625 -101.953125 C 40.347656 -101.953125 41.171875 -101.175781 41.359375 -99.625 L 47.625 -40.640625 C 47.726562 -39.671875 48.238281 -39.1875 49.15625 -39.1875 C 50.082031 -39.1875 50.59375 -39.765625 50.6875 -40.921875 L 53.171875 -67.578125 C 53.265625 -68.066406 53.332031 -68.550781 53.375 -69.03125 C 53.425781 -69.519531 53.5 -70.007812 53.59375 -70.5 L 60.890625 -99.78125 C 61.179688 -101.226562 62.050781 -101.953125 63.5 -101.953125 L 78.21875 -102.109375 C 78.988281 -102.109375 79.566406 -101.835938 79.953125 -101.296875 C 80.347656 -100.765625 80.445312 -100.113281 80.25 -99.34375 L 55.0625 -1.890625 C 54.769531 -0.628906 53.847656 0 52.296875 0 L 38.75 0 C 38.0625 0 37.523438 -0.144531 37.140625 -0.4375 C 36.753906 -0.726562 36.515625 -1.359375 36.421875 -2.328125 L 30.15625 -61.171875 C 30.050781 -62.335938 29.535156 -62.867188 28.609375 -62.765625 C 27.691406 -62.671875 27.1875 -62.140625 27.09375 -61.171875 L 24.609375 -33.796875 C 24.515625 -33.398438 24.394531 -32.765625 24.25 -31.890625 C 24.101562 -31.023438 23.929688 -30.347656 23.734375 -29.859375 L 16.890625 -2.046875 C 16.597656 -0.679688 15.773438 0 14.421875 0 Z M -0.296875 0 "/></g></g></g><g fill="#000000" fill-opacity="1"><g transform="translate(737.398536, 530.678077)"><g><path d="M 24.03125 1.171875 C 19.175781 0.679688 14.878906 -1.140625 11.140625 -4.296875 C 7.398438 -7.453125 4.582031 -11.796875 2.6875 -17.328125 C 0.800781 -22.867188 0.195312 -29.28125 0.875 -36.5625 C 0.96875 -37.820312 1.695312 -38.550781 3.0625 -38.75 L 17.328125 -41.078125 C 18.984375 -41.367188 19.710938 -40.640625 19.515625 -38.890625 C 18.835938 -32.085938 19.203125 -26.84375 20.609375 -23.15625 C 22.015625 -19.46875 23.882812 -17.429688 26.21875 -17.046875 C 27.863281 -16.847656 29.269531 -17.378906 30.4375 -18.640625 C 31.601562 -19.898438 32.378906 -22.132812 32.765625 -25.34375 C 33.253906 -30.101562 32.476562 -34.179688 30.4375 -37.578125 C 28.40625 -40.972656 25.929688 -44.757812 23.015625 -48.9375 C 21.171875 -51.46875 19.445312 -54.210938 17.84375 -57.171875 C 16.238281 -60.128906 15.046875 -63.453125 14.265625 -67.140625 C 13.492188 -70.835938 13.5 -74.914062 14.28125 -79.375 C 15.4375 -85.6875 17.445312 -90.59375 20.3125 -94.09375 C 23.175781 -97.59375 26.476562 -100.019531 30.21875 -101.375 C 33.957031 -102.738281 37.722656 -103.320312 41.515625 -103.125 C 45.878906 -102.925781 49.59375 -101.78125 52.65625 -99.6875 C 55.71875 -97.601562 58.144531 -94.910156 59.9375 -91.609375 C 61.726562 -88.316406 62.988281 -84.703125 63.71875 -80.765625 C 64.445312 -76.835938 64.664062 -72.976562 64.375 -69.1875 C 64.28125 -67.925781 63.550781 -67.195312 62.1875 -67 L 49.375 -65.109375 C 47.820312 -64.816406 47.046875 -65.546875 47.046875 -67.296875 C 47.242188 -73.023438 46.660156 -77.34375 45.296875 -80.25 C 43.941406 -83.164062 42.289062 -84.671875 40.34375 -84.765625 C 39.175781 -84.960938 37.863281 -84.550781 36.40625 -83.53125 C 34.957031 -82.507812 34.035156 -80.738281 33.640625 -78.21875 C 32.960938 -74.425781 33.328125 -71.269531 34.734375 -68.75 C 36.140625 -66.226562 38.0625 -63.316406 40.5 -60.015625 C 42.632812 -57.191406 44.84375 -54.128906 47.125 -50.828125 C 49.40625 -47.523438 51.195312 -43.8125 52.5 -39.6875 C 53.8125 -35.5625 54.035156 -30.734375 53.171875 -25.203125 C 52.484375 -20.148438 50.898438 -15.535156 48.421875 -11.359375 C 45.953125 -7.179688 42.675781 -3.925781 38.59375 -1.59375 C 34.519531 0.726562 29.664062 1.648438 24.03125 1.171875 Z M 24.03125 1.171875 "/></g></g></g></svg>