<svg xmlns="http://www.w3.org/2000/svg" xmlns:xlink="http://www.w3.org/1999/xlink" width="1122" zoomAndPan="magnify" viewBox="0 0 841.92 595.499987" height="793" preserveAspectRatio="xMidYMid meet" version="1.0"><defs><g/><clipPath id="74c3c418c4"><path d="M 0.3125 0 L 841.527344 0 L 841.527344 595 L 0.3125 595 Z M 0.3125 0 " clip-rule="nonzero"/></clipPath><clipPath id="b824e038d2"><path d="M 679.820312 505 L 813.957031 505 L 813.957031 565.699219 L 679.820312 565.699219 Z M 679.820312 505 " clip-rule="nonzero"/></clipPath><clipPath id="6f27b664f9"><path d="M 37.132812 236.074219 L 304.65625 236.074219 L 304.65625 472.128906 L 37.132812 472.128906 Z M 37.132812 236.074219 " clip-rule="nonzero"/></clipPath></defs><g clip-path="url(#74c3c418c4)"><path fill="#ffffff" d="M 0.3125 0 L 841.855469 0 L 841.855469 595 L 0.3125 595 Z M 0.3125 0 " fill-opacity="1" fill-rule="nonzero"/><path fill="#ffffff" d="M 0.3125 0 L 841.855469 0 L 841.855469 595 L 0.3125 595 Z M 0.3125 0 " fill-opacity="1" fill-rule="nonzero"/></g><g fill="#000000" fill-opacity="1"><g transform="translate(224.648183, 211.575384)"><g><path d="M -0.53125 0 C -2.113281 0 -2.679688 -0.789062 -2.234375 -2.375 L 20.5625 -90.578125 C 20.832031 -91.722656 21.535156 -92.296875 22.671875 -92.296875 L 39.15625 -92.296875 C 45.570312 -92.296875 50.734375 -90.972656 54.640625 -88.328125 C 58.554688 -85.691406 61.238281 -82.242188 62.6875 -77.984375 C 64.132812 -73.722656 64.289062 -69.128906 63.15625 -64.203125 C 62.445312 -61.128906 61.390625 -58.078125 59.984375 -55.046875 C 58.578125 -52.015625 56.617188 -49.375 54.109375 -47.125 C 51.609375 -44.882812 48.425781 -43.328125 44.5625 -42.453125 C 44.125 -42.367188 43.679688 -42.300781 43.234375 -42.25 C 42.796875 -42.207031 42.269531 -42.273438 41.65625 -42.453125 L 37.3125 -43.640625 C 36.34375 -43.992188 35.660156 -43.796875 35.265625 -43.046875 C 34.867188 -42.296875 35.113281 -41.660156 36 -41.140625 L 42.328125 -37.3125 C 43.117188 -36.78125 43.597656 -36.035156 43.765625 -35.078125 L 48.78125 -2.234375 C 48.957031 -1.453125 48.828125 -0.882812 48.390625 -0.53125 C 47.953125 -0.175781 47.421875 0 46.796875 0 L 32.96875 0 C 31.644531 0 30.9375 -0.613281 30.84375 -1.84375 L 25.703125 -39.15625 C 25.617188 -40.300781 25.132812 -40.847656 24.25 -40.796875 C 23.375 -40.753906 22.894531 -40.117188 22.8125 -38.890625 L 21.75 -24 C 21.75 -23.5625 21.640625 -22.679688 21.421875 -21.359375 C 21.203125 -20.035156 21.003906 -19.15625 20.828125 -18.71875 L 16.34375 -1.71875 C 16.082031 -0.570312 15.378906 0 14.234375 0 Z M 29.671875 -53.921875 L 34.546875 -53.921875 C 37.710938 -53.921875 40.238281 -54.863281 42.125 -56.75 C 44.007812 -58.644531 45.347656 -61.304688 46.140625 -64.734375 C 47.109375 -68.953125 46.910156 -72.070312 45.546875 -74.09375 C 44.191406 -76.113281 42.0625 -77.125 39.15625 -77.125 L 35.59375 -77.125 Z M 29.671875 -53.921875 "/></g></g></g><g fill="#000000" fill-opacity="1"><g transform="translate(282.921968, 211.575384)"><g><path d="M -7.390625 0 C -8.171875 0 -8.648438 -0.257812 -8.828125 -0.78125 C -9.003906 -1.3125 -8.875 -1.929688 -8.4375 -2.640625 L 53.53125 -91.109375 C 54.050781 -91.898438 54.882812 -92.296875 56.03125 -92.296875 L 71.59375 -92.296875 C 73.175781 -92.296875 73.75 -91.546875 73.3125 -90.046875 L 50.5 -1.71875 C 50.226562 -0.570312 49.523438 0 48.390625 0 L 33.09375 0 C 32.476562 0 31.972656 -0.195312 31.578125 -0.59375 C 31.179688 -0.988281 31.113281 -1.535156 31.375 -2.234375 L 36.25 -16.34375 L 21.359375 -16.34375 L 11.734375 -1.1875 C 11.296875 -0.394531 10.503906 0 9.359375 0 Z M 30.59375 -31.515625 L 41.796875 -31.515625 L 52.734375 -61.703125 C 53.171875 -62.847656 52.925781 -63.59375 52 -63.9375 C 51.082031 -64.289062 50.363281 -63.984375 49.84375 -63.015625 Z M 30.59375 -31.515625 "/></g></g></g><g fill="#000000" fill-opacity="1"><g transform="translate(347.392294, 211.575384)"><g><path d="M -0.53125 0 C -2.113281 0 -2.679688 -0.742188 -2.234375 -2.234375 L 20.5625 -90.578125 C 20.832031 -91.722656 21.535156 -92.296875 22.671875 -92.296875 L 33.625 -92.296875 C 42.675781 -92.296875 49.660156 -90.25 54.578125 -86.15625 C 59.503906 -82.070312 62.515625 -76.25 63.609375 -68.6875 C 64.710938 -61.132812 63.988281 -52.210938 61.4375 -41.921875 C 58.007812 -27.773438 52.84375 -17.25 45.9375 -10.34375 C 39.039062 -3.445312 31.15625 0 22.28125 0 Z M 20.296875 -15.828125 L 22.8125 -15.828125 C 25.1875 -15.828125 27.554688 -16.613281 29.921875 -18.1875 C 32.296875 -19.769531 34.582031 -22.5625 36.78125 -26.5625 C 38.976562 -30.5625 41.046875 -36.253906 42.984375 -43.640625 C 48.785156 -65.523438 47.023438 -76.46875 37.703125 -76.46875 L 36 -76.46875 Z M 20.296875 -15.828125 "/></g></g></g><g fill="#000000" fill-opacity="1"><g transform="translate(410.016838, 211.575384)"><g><path d="M 5.40625 0 C 4.082031 0 3.507812 -0.742188 3.6875 -2.234375 L 14.640625 -90.578125 C 14.804688 -91.722656 15.507812 -92.296875 16.75 -92.296875 L 30.453125 -92.296875 C 31.859375 -92.296875 32.429688 -91.546875 32.171875 -90.046875 L 21.234375 -38.234375 C 20.960938 -37.085938 21.285156 -36.46875 22.203125 -36.375 C 23.128906 -36.289062 23.769531 -36.691406 24.125 -37.578125 L 44.171875 -90.578125 C 44.609375 -91.722656 45.3125 -92.296875 46.28125 -92.296875 L 61.3125 -92.296875 C 62.800781 -92.296875 63.414062 -91.546875 63.15625 -90.046875 L 56.171875 -38.234375 C 56.078125 -37.085938 56.46875 -36.46875 57.34375 -36.375 C 58.226562 -36.289062 58.800781 -36.691406 59.0625 -37.578125 L 74.890625 -90.578125 C 75.148438 -91.722656 75.851562 -92.296875 77 -92.296875 L 91.625 -92.296875 C 92.332031 -92.296875 92.859375 -92.097656 93.203125 -91.703125 C 93.554688 -91.304688 93.601562 -90.753906 93.34375 -90.046875 L 58.015625 -1.71875 C 57.578125 -0.570312 56.875 0 55.90625 0 L 41.65625 0 C 40.34375 0 39.773438 -0.742188 39.953125 -2.234375 L 46.796875 -56.296875 C 46.972656 -57.617188 46.644531 -58.300781 45.8125 -58.34375 C 44.976562 -58.382812 44.34375 -57.832031 43.90625 -56.6875 L 21.75 -1.71875 C 21.3125 -0.570312 20.609375 0 19.640625 0 Z M 5.40625 0 "/></g></g></g><g fill="#000000" fill-opacity="1"><g transform="translate(489.517049, 211.575384)"><g><path d="M 0.125 0 C -1.800781 0 -2.546875 -0.96875 -2.109375 -2.90625 L 20.4375 -90.578125 C 20.695312 -91.722656 21.398438 -92.296875 22.546875 -92.296875 L 60.78125 -92.296875 C 62.363281 -92.296875 62.9375 -91.546875 62.5 -90.046875 L 59.328125 -77.921875 C 59.066406 -76.773438 58.363281 -76.203125 57.21875 -76.203125 L 36.125 -76.203125 L 30.59375 -55.109375 L 46.546875 -55.109375 C 48.117188 -55.109375 48.6875 -54.363281 48.25 -52.875 L 45.359375 -41.796875 C 45.085938 -40.648438 44.382812 -40.078125 43.25 -40.078125 L 26.765625 -40.078125 L 20.5625 -16.078125 L 41.140625 -16.078125 C 42.722656 -16.078125 43.289062 -15.332031 42.84375 -13.84375 L 39.6875 -1.71875 C 39.425781 -0.570312 38.722656 0 37.578125 0 Z M 0.125 0 "/></g></g></g><g fill="#000000" fill-opacity="1"><g transform="translate(539.089318, 211.575384)"><g><path d="M 23.203125 1.0625 C 14.066406 -0.175781 8.265625 -5.539062 5.796875 -15.03125 C 3.335938 -24.519531 4.257812 -37.265625 8.5625 -53.265625 C 12.4375 -66.097656 17.445312 -76.070312 23.59375 -83.1875 C 29.75 -90.3125 36.828125 -93.742188 44.828125 -93.484375 C 49.835938 -93.390625 54.035156 -92.066406 57.421875 -89.515625 C 60.804688 -86.972656 63.285156 -83.59375 64.859375 -79.375 C 66.441406 -75.15625 66.925781 -70.453125 66.3125 -65.265625 C 66.226562 -64.117188 65.484375 -63.414062 64.078125 -63.15625 L 50.765625 -60.78125 C 48.910156 -60.519531 48.207031 -61.265625 48.65625 -63.015625 C 49.09375 -67.328125 48.957031 -70.734375 48.25 -73.234375 C 47.550781 -75.742188 46.191406 -77.085938 44.171875 -77.265625 C 41.535156 -77.441406 38.566406 -75.132812 35.265625 -70.34375 C 31.972656 -65.550781 29.007812 -58.492188 26.375 -49.171875 C 23.289062 -38.453125 21.898438 -30.144531 22.203125 -24.25 C 22.515625 -18.363281 24.125 -15.289062 27.03125 -15.03125 C 29.132812 -14.9375 31.195312 -16.03125 33.21875 -18.3125 C 35.238281 -20.601562 37.085938 -24.695312 38.765625 -30.59375 C 38.941406 -31.207031 39.140625 -31.644531 39.359375 -31.90625 C 39.578125 -32.164062 39.773438 -32.382812 39.953125 -32.5625 L 48.78125 -39.8125 C 49.488281 -40.34375 49.644531 -40.957031 49.25 -41.65625 C 48.851562 -42.363281 48.300781 -42.5 47.59375 -42.0625 L 39.421875 -37.96875 C 39.160156 -37.882812 38.851562 -37.753906 38.5 -37.578125 C 38.144531 -37.398438 37.835938 -37.269531 37.578125 -37.1875 L 33.625 -36.515625 C 31.945312 -36.253906 31.285156 -36.957031 31.640625 -38.625 L 33.75 -50.234375 C 33.925781 -50.847656 34.191406 -51.375 34.546875 -51.8125 C 34.898438 -52.25 35.382812 -52.515625 36 -52.609375 L 63.15625 -56.828125 C 64.820312 -57.085938 65.476562 -56.382812 65.125 -54.71875 C 64.425781 -51.113281 63.722656 -48.078125 63.015625 -45.609375 C 62.316406 -43.148438 61.613281 -40.820312 60.90625 -38.625 C 57.132812 -25.351562 52.015625 -15.179688 45.546875 -8.109375 C 39.085938 -1.035156 31.640625 2.019531 23.203125 1.0625 Z M 23.203125 1.0625 "/></g></g></g><g fill="#000000" fill-opacity="1"><g transform="translate(602.373058, 211.575384)"><g><path d="M -0.125 0 C -0.914062 0 -1.488281 -0.328125 -1.84375 -0.984375 C -2.195312 -1.648438 -2.285156 -2.332031 -2.109375 -3.03125 L 20.4375 -90.578125 C 20.695312 -91.722656 21.398438 -92.296875 22.546875 -92.296875 L 38.890625 -92.296875 C 45.566406 -92.296875 50.75 -90.953125 54.4375 -88.265625 C 58.132812 -85.585938 60.578125 -82.179688 61.765625 -78.046875 C 62.953125 -73.921875 63.0625 -69.75 62.09375 -65.53125 C 60.957031 -60.78125 58.984375 -57.039062 56.171875 -54.3125 C 53.359375 -51.59375 50.71875 -49.75 48.25 -48.78125 C 47.113281 -48.34375 46.5 -47.898438 46.40625 -47.453125 C 46.320312 -47.015625 46.675781 -46.445312 47.46875 -45.75 C 48.519531 -44.875 49.835938 -43.554688 51.421875 -41.796875 C 53.003906 -40.035156 54.253906 -37.660156 55.171875 -34.671875 C 56.097656 -31.679688 56.078125 -27.90625 55.109375 -23.34375 C 53.617188 -15.863281 50.234375 -10.101562 44.953125 -6.0625 C 39.679688 -2.019531 33.132812 0 25.3125 0 Z M 18.71875 -14.640625 L 24.65625 -14.640625 C 28.082031 -14.640625 30.757812 -15.820312 32.6875 -18.1875 C 34.625 -20.5625 35.945312 -23.507812 36.65625 -27.03125 C 37.445312 -30.894531 37.378906 -34.015625 36.453125 -36.390625 C 35.535156 -38.765625 33.316406 -39.953125 29.796875 -39.953125 L 25.3125 -39.953125 Z M 29.40625 -55.5 L 33.09375 -55.5 C 36.957031 -55.5 39.742188 -56.332031 41.453125 -58 C 43.171875 -59.675781 44.425781 -62.097656 45.21875 -65.265625 C 46.007812 -68.429688 45.941406 -71.265625 45.015625 -73.765625 C 44.097656 -76.273438 42.191406 -77.53125 39.296875 -77.53125 L 35.078125 -77.53125 Z M 29.40625 -55.5 "/></g></g></g><g fill="#000000" fill-opacity="1"><g transform="translate(662.097089, 211.575384)"><g><path d="M -7.390625 0 C -8.171875 0 -8.648438 -0.257812 -8.828125 -0.78125 C -9.003906 -1.3125 -8.875 -1.929688 -8.4375 -2.640625 L 53.53125 -91.109375 C 54.050781 -91.898438 54.882812 -92.296875 56.03125 -92.296875 L 71.59375 -92.296875 C 73.175781 -92.296875 73.75 -91.546875 73.3125 -90.046875 L 50.5 -1.71875 C 50.226562 -0.570312 49.523438 0 48.390625 0 L 33.09375 0 C 32.476562 0 31.972656 -0.195312 31.578125 -0.59375 C 31.179688 -0.988281 31.113281 -1.535156 31.375 -2.234375 L 36.25 -16.34375 L 21.359375 -16.34375 L 11.734375 -1.1875 C 11.296875 -0.394531 10.503906 0 9.359375 0 Z M 30.59375 -31.515625 L 41.796875 -31.515625 L 52.734375 -61.703125 C 53.171875 -62.847656 52.925781 -63.59375 52 -63.9375 C 51.082031 -64.289062 50.363281 -63.984375 49.84375 -63.015625 Z M 30.59375 -31.515625 "/></g></g></g><g fill="#000000" fill-opacity="1"><g transform="translate(726.567415, 211.575384)"><g><path d="M 24 1.0625 C 19.25 0.789062 15.332031 -0.375 12.25 -2.4375 C 9.175781 -4.5 6.867188 -7.203125 5.328125 -10.546875 C 3.796875 -13.890625 2.960938 -17.582031 2.828125 -21.625 C 2.703125 -25.664062 3.164062 -29.796875 4.21875 -34.015625 L 18.71875 -90.578125 C 18.988281 -91.722656 19.691406 -92.296875 20.828125 -92.296875 L 35.859375 -92.296875 C 37.441406 -92.296875 38.015625 -91.546875 37.578125 -90.046875 L 22.28125 -30.328125 C 21.664062 -27.859375 21.289062 -25.503906 21.15625 -23.265625 C 21.03125 -21.023438 21.316406 -19.15625 22.015625 -17.65625 C 22.722656 -16.164062 24 -15.289062 25.84375 -15.03125 C 27.863281 -14.851562 29.507812 -15.398438 30.78125 -16.671875 C 32.0625 -17.953125 33.097656 -19.644531 33.890625 -21.75 C 34.679688 -23.863281 35.335938 -25.929688 35.859375 -27.953125 L 51.953125 -90.578125 C 52.210938 -91.722656 52.914062 -92.296875 54.0625 -92.296875 L 69.09375 -92.296875 C 70.664062 -92.296875 71.234375 -91.546875 70.796875 -90.046875 L 54.0625 -25.578125 C 52.738281 -20.304688 50.734375 -15.601562 48.046875 -11.46875 C 45.367188 -7.34375 42.03125 -4.15625 38.03125 -1.90625 C 34.03125 0.332031 29.351562 1.320312 24 1.0625 Z M 24 1.0625 "/></g></g></g><g fill="#000000" fill-opacity="1"><g transform="translate(373.109093, 345.808382)"><g><path d="M 21.75 1.0625 C 17.351562 0.613281 13.460938 -1.035156 10.078125 -3.890625 C 6.703125 -6.742188 4.15625 -10.675781 2.4375 -15.6875 C 0.726562 -20.695312 0.179688 -26.5 0.796875 -33.09375 C 0.878906 -34.238281 1.535156 -34.898438 2.765625 -35.078125 L 15.6875 -37.1875 C 17.1875 -37.445312 17.847656 -36.785156 17.671875 -35.203125 C 17.054688 -29.046875 17.382812 -24.296875 18.65625 -20.953125 C 19.925781 -17.617188 21.617188 -15.773438 23.734375 -15.421875 C 25.222656 -15.242188 26.492188 -15.726562 27.546875 -16.875 C 28.609375 -18.019531 29.316406 -20.039062 29.671875 -22.9375 C 30.109375 -27.25 29.398438 -30.941406 27.546875 -34.015625 C 25.703125 -37.085938 23.460938 -40.515625 20.828125 -44.296875 C 19.160156 -46.585938 17.597656 -49.070312 16.140625 -51.75 C 14.691406 -54.425781 13.613281 -57.4375 12.90625 -60.78125 C 12.207031 -64.125 12.210938 -67.816406 12.921875 -71.859375 C 13.972656 -77.566406 15.796875 -82.003906 18.390625 -85.171875 C 20.984375 -88.335938 23.972656 -90.535156 27.359375 -91.765625 C 30.742188 -92.992188 34.148438 -93.519531 37.578125 -93.34375 C 41.535156 -93.164062 44.894531 -92.128906 47.65625 -90.234375 C 50.425781 -88.347656 52.625 -85.910156 54.25 -82.921875 C 55.875 -79.941406 57.015625 -76.671875 57.671875 -73.109375 C 58.335938 -69.546875 58.539062 -66.050781 58.28125 -62.625 C 58.1875 -61.476562 57.523438 -60.816406 56.296875 -60.640625 L 44.6875 -58.9375 C 43.28125 -58.664062 42.578125 -59.320312 42.578125 -60.90625 C 42.753906 -66.09375 42.226562 -70.003906 41 -72.640625 C 39.769531 -75.273438 38.273438 -76.640625 36.515625 -76.734375 C 35.460938 -76.910156 34.273438 -76.535156 32.953125 -75.609375 C 31.640625 -74.691406 30.804688 -73.085938 30.453125 -70.796875 C 29.835938 -67.367188 30.164062 -64.507812 31.4375 -62.21875 C 32.71875 -59.9375 34.457031 -57.300781 36.65625 -54.3125 C 38.582031 -51.769531 40.578125 -49.003906 42.640625 -46.015625 C 44.710938 -43.023438 46.34375 -39.660156 47.53125 -35.921875 C 48.71875 -32.191406 48.914062 -27.820312 48.125 -22.8125 C 47.507812 -18.238281 46.078125 -14.0625 43.828125 -10.28125 C 41.585938 -6.5 38.625 -3.550781 34.9375 -1.4375 C 31.25 0.664062 26.851562 1.5 21.75 1.0625 Z M 21.75 1.0625 "/></g></g></g><g fill="#000000" fill-opacity="1"><g transform="translate(426.636596, 345.808382)"><g><path d="M 8.4375 0 C 6.851562 0 6.28125 -0.742188 6.71875 -2.234375 L 26.109375 -77.125 L 13.3125 -77.125 C 11.726562 -77.125 11.160156 -77.875 11.609375 -79.375 L 14.5 -90.578125 C 14.757812 -91.722656 15.460938 -92.296875 16.609375 -92.296875 L 61.703125 -92.296875 C 63.285156 -92.296875 63.859375 -91.546875 63.421875 -90.046875 L 60.515625 -78.84375 C 60.253906 -77.695312 59.550781 -77.125 58.40625 -77.125 L 45.09375 -77.125 L 25.578125 -1.71875 C 25.316406 -0.570312 24.613281 0 23.46875 0 Z M 8.4375 0 "/></g></g></g><g fill="#000000" fill-opacity="1"><g transform="translate(475.813341, 345.808382)"><g><path d="M -7.390625 0 C -8.171875 0 -8.648438 -0.257812 -8.828125 -0.78125 C -9.003906 -1.3125 -8.875 -1.929688 -8.4375 -2.640625 L 53.53125 -91.109375 C 54.050781 -91.898438 54.882812 -92.296875 56.03125 -92.296875 L 71.59375 -92.296875 C 73.175781 -92.296875 73.75 -91.546875 73.3125 -90.046875 L 50.5 -1.71875 C 50.226562 -0.570312 49.523438 0 48.390625 0 L 33.09375 0 C 32.476562 0 31.972656 -0.195312 31.578125 -0.59375 C 31.179688 -0.988281 31.113281 -1.535156 31.375 -2.234375 L 36.25 -16.34375 L 21.359375 -16.34375 L 11.734375 -1.1875 C 11.296875 -0.394531 10.503906 0 9.359375 0 Z M 30.59375 -31.515625 L 41.796875 -31.515625 L 52.734375 -61.703125 C 53.171875 -62.847656 52.925781 -63.59375 52 -63.9375 C 51.082031 -64.289062 50.363281 -63.984375 49.84375 -63.015625 Z M 30.59375 -31.515625 "/></g></g></g><g fill="#000000" fill-opacity="1"><g transform="translate(540.283666, 345.808382)"><g><path d="M 8.4375 0 C 6.851562 0 6.28125 -0.742188 6.71875 -2.234375 L 26.109375 -77.125 L 13.3125 -77.125 C 11.726562 -77.125 11.160156 -77.875 11.609375 -79.375 L 14.5 -90.578125 C 14.757812 -91.722656 15.460938 -92.296875 16.609375 -92.296875 L 61.703125 -92.296875 C 63.285156 -92.296875 63.859375 -91.546875 63.421875 -90.046875 L 60.515625 -78.84375 C 60.253906 -77.695312 59.550781 -77.125 58.40625 -77.125 L 45.09375 -77.125 L 25.578125 -1.71875 C 25.316406 -0.570312 24.613281 0 23.46875 0 Z M 8.4375 0 "/></g></g></g><g fill="#000000" fill-opacity="1"><g transform="translate(589.460423, 345.808382)"><g><path d="M 8.4375 0 C 6.851562 0 6.28125 -0.742188 6.71875 -2.234375 L 26.109375 -77.125 L 13.3125 -77.125 C 11.726562 -77.125 11.160156 -77.875 11.609375 -79.375 L 14.5 -90.578125 C 14.757812 -91.722656 15.460938 -92.296875 16.609375 -92.296875 L 61.703125 -92.296875 C 63.285156 -92.296875 63.859375 -91.546875 63.421875 -90.046875 L 60.515625 -78.84375 C 60.253906 -77.695312 59.550781 -77.125 58.40625 -77.125 L 45.09375 -77.125 L 25.578125 -1.71875 C 25.316406 -0.570312 24.613281 0 23.46875 0 Z M 8.4375 0 "/></g></g></g><g fill="#000000" fill-opacity="1"><g transform="translate(256.75911, 480.04138)"><g><path d="M -7.390625 0 C -8.171875 0 -8.648438 -0.257812 -8.828125 -0.78125 C -9.003906 -1.3125 -8.875 -1.929688 -8.4375 -2.640625 L 53.53125 -91.109375 C 54.050781 -91.898438 54.882812 -92.296875 56.03125 -92.296875 L 71.59375 -92.296875 C 73.175781 -92.296875 73.75 -91.546875 73.3125 -90.046875 L 50.5 -1.71875 C 50.226562 -0.570312 49.523438 0 48.390625 0 L 33.09375 0 C 32.476562 0 31.972656 -0.195312 31.578125 -0.59375 C 31.179688 -0.988281 31.113281 -1.535156 31.375 -2.234375 L 36.25 -16.34375 L 21.359375 -16.34375 L 11.734375 -1.1875 C 11.296875 -0.394531 10.503906 0 9.359375 0 Z M 30.59375 -31.515625 L 41.796875 -31.515625 L 52.734375 -61.703125 C 53.171875 -62.847656 52.925781 -63.59375 52 -63.9375 C 51.082031 -64.289062 50.363281 -63.984375 49.84375 -63.015625 Z M 30.59375 -31.515625 "/></g></g></g><g fill="#000000" fill-opacity="1"><g transform="translate(321.229436, 480.04138)"><g><path d="M 24 1.0625 C 19.25 0.789062 15.332031 -0.375 12.25 -2.4375 C 9.175781 -4.5 6.867188 -7.203125 5.328125 -10.546875 C 3.796875 -13.890625 2.960938 -17.582031 2.828125 -21.625 C 2.703125 -25.664062 3.164062 -29.796875 4.21875 -34.015625 L 18.71875 -90.578125 C 18.988281 -91.722656 19.691406 -92.296875 20.828125 -92.296875 L 35.859375 -92.296875 C 37.441406 -92.296875 38.015625 -91.546875 37.578125 -90.046875 L 22.28125 -30.328125 C 21.664062 -27.859375 21.289062 -25.503906 21.15625 -23.265625 C 21.03125 -21.023438 21.316406 -19.15625 22.015625 -17.65625 C 22.722656 -16.164062 24 -15.289062 25.84375 -15.03125 C 27.863281 -14.851562 29.507812 -15.398438 30.78125 -16.671875 C 32.0625 -17.953125 33.097656 -19.644531 33.890625 -21.75 C 34.679688 -23.863281 35.335938 -25.929688 35.859375 -27.953125 L 51.953125 -90.578125 C 52.210938 -91.722656 52.914062 -92.296875 54.0625 -92.296875 L 69.09375 -92.296875 C 70.664062 -92.296875 71.234375 -91.546875 70.796875 -90.046875 L 54.0625 -25.578125 C 52.738281 -20.304688 50.734375 -15.601562 48.046875 -11.46875 C 45.367188 -7.34375 42.03125 -4.15625 38.03125 -1.90625 C 34.03125 0.332031 29.351562 1.320312 24 1.0625 Z M 24 1.0625 "/></g></g></g><g fill="#000000" fill-opacity="1"><g transform="translate(381.744527, 480.04138)"><g><path d="M 8.4375 0 C 6.851562 0 6.28125 -0.742188 6.71875 -2.234375 L 26.109375 -77.125 L 13.3125 -77.125 C 11.726562 -77.125 11.160156 -77.875 11.609375 -79.375 L 14.5 -90.578125 C 14.757812 -91.722656 15.460938 -92.296875 16.609375 -92.296875 L 61.703125 -92.296875 C 63.285156 -92.296875 63.859375 -91.546875 63.421875 -90.046875 L 60.515625 -78.84375 C 60.253906 -77.695312 59.550781 -77.125 58.40625 -77.125 L 45.09375 -77.125 L 25.578125 -1.71875 C 25.316406 -0.570312 24.613281 0 23.46875 0 Z M 8.4375 0 "/></g></g></g><g fill="#000000" fill-opacity="1"><g transform="translate(430.921272, 480.04138)"><g><path d="M 24.65625 1.0625 C 17.707031 0.613281 12.539062 -1.847656 9.15625 -6.328125 C 5.78125 -10.804688 4.046875 -16.976562 3.953125 -24.84375 C 3.867188 -32.71875 5.363281 -41.972656 8.4375 -52.609375 C 12.570312 -66.753906 17.671875 -77.210938 23.734375 -83.984375 C 29.796875 -90.753906 37.132812 -93.875 45.75 -93.34375 C 52.601562 -92.988281 57.722656 -90.570312 61.109375 -86.09375 C 64.492188 -81.613281 66.226562 -75.414062 66.3125 -67.5 C 66.40625 -59.59375 64.910156 -50.320312 61.828125 -39.6875 C 53.660156 -11.46875 41.269531 2.113281 24.65625 1.0625 Z M 26.234375 -15.03125 C 29.304688 -14.414062 32.207031 -16.632812 34.9375 -21.6875 C 37.664062 -26.738281 40.523438 -34.234375 43.515625 -44.171875 C 46.765625 -55.328125 48.300781 -63.5 48.125 -68.6875 C 47.945312 -73.875 46.582031 -76.734375 44.03125 -77.265625 C 41.039062 -77.878906 38.160156 -75.65625 35.390625 -70.59375 C 32.628906 -65.539062 29.753906 -58.050781 26.765625 -48.125 C 23.515625 -36.957031 21.972656 -28.78125 22.140625 -23.59375 C 22.316406 -18.414062 23.679688 -15.5625 26.234375 -15.03125 Z M 26.234375 -15.03125 "/></g></g></g><g fill="#000000" fill-opacity="1"><g transform="translate(494.600548, 480.04138)"><g><path d="M 21.75 1.0625 C 17.351562 0.613281 13.460938 -1.035156 10.078125 -3.890625 C 6.703125 -6.742188 4.15625 -10.675781 2.4375 -15.6875 C 0.726562 -20.695312 0.179688 -26.5 0.796875 -33.09375 C 0.878906 -34.238281 1.535156 -34.898438 2.765625 -35.078125 L 15.6875 -37.1875 C 17.1875 -37.445312 17.847656 -36.785156 17.671875 -35.203125 C 17.054688 -29.046875 17.382812 -24.296875 18.65625 -20.953125 C 19.925781 -17.617188 21.617188 -15.773438 23.734375 -15.421875 C 25.222656 -15.242188 26.492188 -15.726562 27.546875 -16.875 C 28.609375 -18.019531 29.316406 -20.039062 29.671875 -22.9375 C 30.109375 -27.25 29.398438 -30.941406 27.546875 -34.015625 C 25.703125 -37.085938 23.460938 -40.515625 20.828125 -44.296875 C 19.160156 -46.585938 17.597656 -49.070312 16.140625 -51.75 C 14.691406 -54.425781 13.613281 -57.4375 12.90625 -60.78125 C 12.207031 -64.125 12.210938 -67.816406 12.921875 -71.859375 C 13.972656 -77.566406 15.796875 -82.003906 18.390625 -85.171875 C 20.984375 -88.335938 23.972656 -90.535156 27.359375 -91.765625 C 30.742188 -92.992188 34.148438 -93.519531 37.578125 -93.34375 C 41.535156 -93.164062 44.894531 -92.128906 47.65625 -90.234375 C 50.425781 -88.347656 52.625 -85.910156 54.25 -82.921875 C 55.875 -79.941406 57.015625 -76.671875 57.671875 -73.109375 C 58.335938 -69.546875 58.539062 -66.050781 58.28125 -62.625 C 58.1875 -61.476562 57.523438 -60.816406 56.296875 -60.640625 L 44.6875 -58.9375 C 43.28125 -58.664062 42.578125 -59.320312 42.578125 -60.90625 C 42.753906 -66.09375 42.226562 -70.003906 41 -72.640625 C 39.769531 -75.273438 38.273438 -76.640625 36.515625 -76.734375 C 35.460938 -76.910156 34.273438 -76.535156 32.953125 -75.609375 C 31.640625 -74.691406 30.804688 -73.085938 30.453125 -70.796875 C 29.835938 -67.367188 30.164062 -64.507812 31.4375 -62.21875 C 32.71875 -59.9375 34.457031 -57.300781 36.65625 -54.3125 C 38.582031 -51.769531 40.578125 -49.003906 42.640625 -46.015625 C 44.710938 -43.023438 46.34375 -39.660156 47.53125 -35.921875 C 48.71875 -32.191406 48.914062 -27.820312 48.125 -22.8125 C 47.507812 -18.238281 46.078125 -14.0625 43.828125 -10.28125 C 41.585938 -6.5 38.625 -3.550781 34.9375 -1.4375 C 31.25 0.664062 26.851562 1.5 21.75 1.0625 Z M 21.75 1.0625 "/></g></g></g><g fill="#000000" fill-opacity="1"><g transform="translate(548.128039, 480.04138)"><g><path d="M 8.4375 0 C 6.851562 0 6.28125 -0.742188 6.71875 -2.234375 L 26.109375 -77.125 L 13.3125 -77.125 C 11.726562 -77.125 11.160156 -77.875 11.609375 -79.375 L 14.5 -90.578125 C 14.757812 -91.722656 15.460938 -92.296875 16.609375 -92.296875 L 61.703125 -92.296875 C 63.285156 -92.296875 63.859375 -91.546875 63.421875 -90.046875 L 60.515625 -78.84375 C 60.253906 -77.695312 59.550781 -77.125 58.40625 -77.125 L 45.09375 -77.125 L 25.578125 -1.71875 C 25.316406 -0.570312 24.613281 0 23.46875 0 Z M 8.4375 0 "/></g></g></g><g fill="#000000" fill-opacity="1"><g transform="translate(597.304796, 480.04138)"><g><path d="M -7.390625 0 C -8.171875 0 -8.648438 -0.257812 -8.828125 -0.78125 C -9.003906 -1.3125 -8.875 -1.929688 -8.4375 -2.640625 L 53.53125 -91.109375 C 54.050781 -91.898438 54.882812 -92.296875 56.03125 -92.296875 L 71.59375 -92.296875 C 73.175781 -92.296875 73.75 -91.546875 73.3125 -90.046875 L 50.5 -1.71875 C 50.226562 -0.570312 49.523438 0 48.390625 0 L 33.09375 0 C 32.476562 0 31.972656 -0.195312 31.578125 -0.59375 C 31.179688 -0.988281 31.113281 -1.535156 31.375 -2.234375 L 36.25 -16.34375 L 21.359375 -16.34375 L 11.734375 -1.1875 C 11.296875 -0.394531 10.503906 0 9.359375 0 Z M 30.59375 -31.515625 L 41.796875 -31.515625 L 52.734375 -61.703125 C 53.171875 -62.847656 52.925781 -63.59375 52 -63.9375 C 51.082031 -64.289062 50.363281 -63.984375 49.84375 -63.015625 Z M 30.59375 -31.515625 "/></g></g></g><g fill="#000000" fill-opacity="1"><g transform="translate(661.775121, 480.04138)"><g><path d="M 24 1.0625 C 19.25 0.789062 15.332031 -0.375 12.25 -2.4375 C 9.175781 -4.5 6.867188 -7.203125 5.328125 -10.546875 C 3.796875 -13.890625 2.960938 -17.582031 2.828125 -21.625 C 2.703125 -25.664062 3.164062 -29.796875 4.21875 -34.015625 L 18.71875 -90.578125 C 18.988281 -91.722656 19.691406 -92.296875 20.828125 -92.296875 L 35.859375 -92.296875 C 37.441406 -92.296875 38.015625 -91.546875 37.578125 -90.046875 L 22.28125 -30.328125 C 21.664062 -27.859375 21.289062 -25.503906 21.15625 -23.265625 C 21.03125 -21.023438 21.316406 -19.15625 22.015625 -17.65625 C 22.722656 -16.164062 24 -15.289062 25.84375 -15.03125 C 27.863281 -14.851562 29.507812 -15.398438 30.78125 -16.671875 C 32.0625 -17.953125 33.097656 -19.644531 33.890625 -21.75 C 34.679688 -23.863281 35.335938 -25.929688 35.859375 -27.953125 L 51.953125 -90.578125 C 52.210938 -91.722656 52.914062 -92.296875 54.0625 -92.296875 L 69.09375 -92.296875 C 70.664062 -92.296875 71.234375 -91.546875 70.796875 -90.046875 L 54.0625 -25.578125 C 52.738281 -20.304688 50.734375 -15.601562 48.046875 -11.46875 C 45.367188 -7.34375 42.03125 -4.15625 38.03125 -1.90625 C 34.03125 0.332031 29.351562 1.320312 24 1.0625 Z M 24 1.0625 "/></g></g></g><g fill="#000000" fill-opacity="1"><g transform="translate(722.290225, 480.04138)"><g><path d="M 8.171875 -28.21875 C 6.585938 -28.21875 6.015625 -28.960938 6.453125 -30.453125 L 21.890625 -90.578125 C 22.148438 -91.722656 22.851562 -92.296875 24 -92.296875 L 39.03125 -92.296875 C 40.613281 -92.296875 41.179688 -91.546875 40.734375 -90.046875 L 25.3125 -29.921875 C 25.050781 -28.785156 24.347656 -28.21875 23.203125 -28.21875 Z M 0.125 0 C -1.445312 0 -2.015625 -0.742188 -1.578125 -2.234375 L 2.640625 -18.59375 C 2.898438 -19.726562 3.601562 -20.296875 4.75 -20.296875 L 21.234375 -20.296875 C 22.804688 -20.296875 23.375 -19.550781 22.9375 -18.0625 L 18.71875 -1.71875 C 18.457031 -0.570312 17.753906 0 16.609375 0 Z M 0.125 0 "/></g></g></g><g clip-path="url(#b824e038d2)"><path fill="#000000" d="M 802.898438 531.761719 C 807.664062 532.085938 811.09375 527.671875 812.910156 520.101562 C 813.191406 518.886719 813.515625 517.589844 813.835938 515.609375 C 813.917969 515.121094 813.675781 514.917969 813.230469 515 L 805.605469 516.660156 C 805.28125 516.742188 805.078125 516.984375 805.039062 517.308594 L 804.59375 520.585938 C 804.515625 521.074219 804.757812 521.277344 805.199219 521.152344 L 806.128906 520.871094 C 806.289062 520.832031 806.410156 520.789062 806.574219 520.707031 L 808.992188 519.371094 C 809.679688 519.007812 810.082031 519.859375 809.558594 520.304688 L 807.21875 522.167969 C 807.015625 522.328125 806.9375 522.488281 806.855469 522.773438 C 806.089844 525.890625 804.957031 527.226562 803.746094 527.1875 C 802.132812 527.144531 801.648438 523.785156 803.0625 517.671875 C 804.273438 512.410156 806.167969 509.496094 807.621094 509.574219 C 808.671875 509.617188 809.113281 511.316406 808.992188 513.746094 C 808.953125 514.191406 809.195312 514.433594 809.640625 514.3125 L 813.351562 513.460938 C 813.675781 513.382812 813.878906 513.179688 813.917969 512.8125 C 814.242188 508.238281 811.699219 504.917969 807.582031 505 C 803.101562 505.082031 799.792969 509.496094 798.058594 516.824219 C 796.039062 525.851562 797.773438 531.398438 802.898438 531.761719 Z M 770.574219 512.8125 L 776.261719 512.449219 C 776.585938 512.410156 776.828125 512.207031 776.910156 511.882812 L 778 506.703125 C 778.078125 506.253906 777.835938 506.011719 777.394531 506.132812 L 771.421875 507.714844 C 771.097656 507.792969 770.9375 507.957031 770.855469 508.320312 L 770.046875 512.167969 C 769.96875 512.570312 770.167969 512.855469 770.574219 512.8125 Z M 795.3125 561.640625 C 799.550781 561.761719 801.929688 558.441406 802.292969 554.554688 C 802.699219 550.382812 800.316406 548.035156 798.621094 545.929688 C 797.332031 544.3125 796.441406 543.339844 796.644531 541.398438 C 796.765625 540.101562 797.652344 539.613281 798.257812 539.65625 C 799.226562 539.695312 800.277344 541.03125 800.277344 544.472656 C 800.277344 544.917969 800.558594 545.121094 800.960938 545.039062 L 803.949219 544.390625 C 804.273438 544.3125 804.472656 544.109375 804.515625 543.746094 C 804.675781 539.332031 802.738281 535.039062 798.300781 535.039062 C 795.472656 535.039062 792.367188 536.621094 791.761719 541.398438 C 791.359375 544.796875 792.890625 547.144531 794.34375 548.96875 C 795.957031 550.992188 797.25 552.410156 797.128906 554.796875 C 797.046875 556.417969 796.402344 557.023438 795.59375 556.984375 C 794.304688 556.902344 793.292969 554.917969 793.65625 551.273438 C 793.699219 550.789062 793.414062 550.585938 793.011719 550.667969 L 789.582031 551.394531 C 789.257812 551.476562 789.058594 551.679688 789.015625 552.042969 C 788.652344 557.875 791.558594 561.515625 795.3125 561.640625 Z M 767.101562 533.746094 L 771.300781 533.460938 C 771.621094 533.421875 771.863281 533.21875 771.945312 532.894531 L 775.539062 515.203125 C 775.617188 514.796875 775.375 514.515625 774.972656 514.554688 L 770.773438 514.796875 C 770.410156 514.839844 770.210938 515.039062 770.128906 515.363281 L 766.539062 533.097656 C 766.457031 533.503906 766.699219 533.785156 767.101562 533.746094 Z M 775.78125 562.53125 L 785.425781 561.921875 C 785.789062 561.882812 785.988281 561.679688 786.070312 561.355469 L 786.714844 558.078125 C 786.796875 557.671875 786.554688 557.386719 786.152344 557.429688 L 781.429688 557.753906 L 782.800781 551.03125 L 787.320312 550.75 C 787.683594 550.707031 787.886719 550.503906 787.96875 550.183594 L 788.613281 546.902344 C 788.695312 546.496094 788.492188 546.214844 788.089844 546.253906 L 783.691406 546.539062 L 784.898438 540.667969 L 789.785156 540.34375 C 790.148438 540.304688 790.347656 540.101562 790.429688 539.777344 L 791.074219 536.457031 C 791.15625 536.050781 790.953125 535.769531 790.550781 535.808594 L 780.90625 536.457031 C 780.542969 536.496094 780.339844 536.699219 780.257812 537.023438 L 775.214844 561.882812 C 775.132812 562.285156 775.375 562.570312 775.78125 562.53125 Z M 756.042969 534.757812 C 760.804688 535.082031 764.238281 530.667969 766.054688 523.097656 C 766.335938 521.882812 766.660156 520.585938 766.980469 518.605469 C 767.0625 518.117188 766.820312 517.914062 766.375 517.996094 L 758.75 519.617188 C 758.425781 519.695312 758.222656 519.941406 758.183594 520.261719 L 757.738281 523.542969 C 757.660156 524.027344 757.902344 524.230469 758.34375 524.109375 L 759.273438 523.867188 C 759.433594 523.828125 759.554688 523.785156 759.71875 523.703125 L 762.179688 522.367188 C 762.863281 522.003906 763.226562 522.894531 762.703125 523.300781 L 760.402344 525.082031 C 760.160156 525.242188 760.039062 525.484375 759.957031 525.769531 C 759.234375 528.886719 758.101562 530.222656 756.890625 530.183594 C 755.277344 530.140625 754.792969 526.78125 756.207031 520.667969 C 757.417969 515.40625 759.3125 512.492188 760.765625 512.570312 C 761.816406 512.613281 762.257812 514.3125 762.136719 516.742188 C 762.097656 517.1875 762.339844 517.429688 762.785156 517.308594 L 766.496094 516.457031 C 766.820312 516.378906 767.023438 516.175781 767.0625 515.808594 C 767.386719 511.234375 764.84375 507.914062 760.726562 507.996094 C 756.246094 508.078125 752.9375 512.492188 751.203125 519.816406 C 749.183594 528.847656 750.917969 534.394531 756.042969 534.757812 Z M 763.710938 563.378906 L 768.070312 563.097656 C 768.394531 563.054688 768.59375 562.894531 768.714844 562.570312 L 778.160156 537.386719 C 778.320312 536.984375 778.121094 536.660156 777.675781 536.699219 L 773.316406 536.984375 C 772.996094 537.023438 772.792969 537.1875 772.671875 537.511719 L 763.226562 562.691406 C 763.066406 563.097656 763.269531 563.421875 763.710938 563.378906 Z M 731.183594 536.09375 L 735.261719 535.851562 C 735.625 535.808594 735.785156 535.605469 735.867188 535.285156 L 736.632812 531.273438 C 736.671875 531.03125 736.710938 530.789062 736.710938 530.546875 L 737.035156 520.34375 C 737.035156 519.738281 737.761719 519.65625 737.84375 520.261719 L 739.980469 534.960938 C 740.023438 535.363281 740.265625 535.527344 740.628906 535.484375 L 744.90625 535.203125 C 745.269531 535.160156 745.46875 534.960938 745.550781 534.636719 L 750.597656 509.738281 C 750.675781 509.332031 750.433594 509.050781 750.03125 509.089844 L 745.996094 509.375 C 745.632812 509.414062 745.46875 509.617188 745.390625 509.941406 L 744.339844 515.488281 C 744.300781 515.730469 744.257812 515.972656 744.257812 516.214844 L 743.976562 527.753906 C 743.976562 528.359375 743.210938 528.441406 743.128906 527.914062 L 740.507812 510.304688 C 740.464844 509.941406 740.222656 509.738281 739.859375 509.777344 L 736.308594 509.980469 C 735.945312 510.019531 735.746094 510.222656 735.664062 510.546875 L 730.617188 535.445312 C 730.539062 535.851562 730.78125 536.132812 731.183594 536.09375 Z M 752.695312 564.148438 L 756.972656 563.867188 C 757.296875 563.824219 757.496094 563.664062 757.617188 563.339844 L 765.730469 541.761719 L 768.675781 541.558594 C 769 541.519531 769.199219 541.355469 769.320312 541.03125 L 770.453125 537.914062 C 770.613281 537.511719 770.410156 537.1875 769.96875 537.226562 L 758.425781 537.996094 C 758.101562 538.035156 757.902344 538.199219 757.78125 538.523438 L 756.648438 541.640625 C 756.488281 542.042969 756.730469 542.367188 757.175781 542.328125 L 760.160156 542.125 L 752.210938 563.460938 C 752.046875 563.867188 752.25 564.1875 752.695312 564.148438 Z M 744.542969 564.675781 L 748.738281 564.390625 C 749.101562 564.351562 749.304688 564.148438 749.386719 563.824219 L 754.429688 538.925781 C 754.511719 538.523438 754.269531 538.238281 753.863281 538.277344 L 749.667969 538.5625 C 749.304688 538.601562 749.101562 538.804688 749.023438 539.128906 L 743.976562 564.027344 C 743.898438 564.433594 744.136719 564.714844 744.542969 564.675781 Z M 720.769531 528.644531 L 725.855469 518.402344 C 726.179688 517.753906 727.027344 517.957031 726.824219 518.683594 L 723.878906 528.402344 Z M 710.804688 537.429688 L 715.160156 537.144531 C 715.484375 537.105469 715.6875 536.984375 715.847656 536.699219 L 718.1875 533.097656 L 722.546875 532.734375 C 722.507812 532.855469 722.507812 532.976562 722.464844 533.097656 L 721.859375 536.050781 C 721.78125 536.457031 722.023438 536.742188 722.425781 536.699219 L 726.339844 536.417969 C 726.664062 536.375 726.90625 536.175781 726.988281 535.851562 L 732.03125 510.992188 C 732.113281 510.585938 731.871094 510.304688 731.464844 510.34375 L 727.148438 510.585938 C 726.824219 510.585938 726.625 510.789062 726.460938 511.03125 L 710.359375 536.742188 C 710.117188 537.144531 710.320312 537.46875 710.804688 537.429688 Z M 734.492188 565.6875 C 738.769531 565.929688 741.960938 562.207031 743.453125 555.28125 C 743.613281 554.511719 743.371094 554.027344 742.726562 554.191406 L 739.011719 555.039062 C 738.691406 555.121094 738.527344 555.324219 738.449219 555.6875 C 737.679688 559.371094 736.429688 561.234375 735.21875 561.152344 C 733.765625 561.070312 733.242188 558.199219 734.734375 551.882812 C 736.066406 546.214844 737.761719 543.21875 739.253906 543.460938 C 740.265625 543.625 740.464844 545.40625 739.78125 549.007812 C 739.699219 549.492188 739.941406 549.738281 740.34375 549.65625 L 744.257812 548.84375 C 744.582031 548.765625 744.785156 548.5625 744.863281 548.238281 C 745.46875 545.160156 745.066406 538.886719 739.375 538.886719 C 734.9375 538.886719 731.386719 542.894531 729.527344 550.910156 C 727.429688 559.9375 729.449219 565.402344 734.492188 565.6875 Z M 695.75 538.441406 L 699.785156 538.15625 C 700.109375 538.117188 700.351562 537.914062 700.429688 537.589844 L 702.246094 528.683594 L 706.082031 527.792969 L 704.183594 537.1875 C 704.101562 537.589844 704.34375 537.875 704.75 537.832031 L 708.785156 537.550781 C 709.109375 537.511719 709.351562 537.308594 709.429688 536.984375 L 714.476562 512.125 C 714.554688 511.722656 714.3125 511.4375 713.910156 511.476562 L 709.875 511.722656 C 709.511719 511.761719 709.308594 511.964844 709.230469 512.289062 L 707.050781 523.058594 L 703.214844 523.90625 L 705.476562 512.691406 C 705.554688 512.289062 705.3125 512.003906 704.910156 512.046875 L 700.875 512.328125 C 700.550781 512.367188 700.308594 512.570312 700.230469 512.894531 L 695.183594 537.792969 C 695.105469 538.199219 695.347656 538.480469 695.75 538.441406 Z M 685.621094 539.371094 C 689.898438 539.613281 693.085938 535.890625 694.621094 528.726562 C 694.742188 528.199219 694.5 527.710938 693.894531 527.835938 L 690.140625 528.726562 C 689.816406 528.804688 689.65625 529.007812 689.613281 529.128906 C 688.808594 533.058594 687.558594 534.917969 686.347656 534.839844 C 684.894531 534.757812 684.367188 531.882812 685.863281 525.566406 C 687.195312 519.898438 688.886719 516.902344 690.382812 517.144531 C 691.390625 517.308594 691.59375 519.089844 690.90625 522.691406 C 690.824219 523.179688 691.066406 523.421875 691.511719 523.339844 L 695.386719 522.53125 C 695.710938 522.449219 695.910156 522.246094 695.992188 521.921875 C 696.597656 518.847656 696.191406 512.570312 690.503906 512.570312 C 686.0625 512.570312 682.511719 516.578125 680.65625 524.59375 C 678.558594 533.625 680.574219 539.089844 685.621094 539.371094 Z M 774.488281 533.300781 L 778.847656 533.015625 C 779.167969 532.976562 779.371094 532.8125 779.492188 532.488281 L 781.226562 527.671875 C 781.347656 527.390625 781.390625 527.265625 781.429688 527.066406 L 782.964844 517.753906 C 783.085938 517.023438 783.890625 517.023438 783.890625 517.753906 L 783.851562 532.085938 C 783.851562 532.488281 784.050781 532.691406 784.457031 532.652344 L 788.53125 532.410156 C 788.855469 532.410156 789.097656 532.207031 789.21875 531.921875 L 799.269531 506.621094 C 799.429688 506.214844 799.1875 505.890625 798.742188 505.933594 L 794.464844 506.253906 C 794.140625 506.296875 793.898438 506.457031 793.777344 506.742188 L 790.710938 514.554688 C 790.550781 514.960938 790.429688 515.285156 790.347656 515.769531 L 788.773438 523.828125 C 788.652344 524.433594 787.886719 524.394531 787.886719 523.785156 L 788.046875 507.308594 C 788.046875 506.902344 787.847656 506.660156 787.441406 506.703125 L 783.890625 506.902344 C 783.570312 506.902344 783.367188 507.105469 783.246094 507.429688 L 774.003906 532.613281 C 773.84375 533.015625 774.042969 533.339844 774.488281 533.300781 Z M 774.488281 533.300781 " fill-opacity="1" fill-rule="nonzero"/></g><g clip-path="url(#6f27b664f9)"><path fill="#000000" d="M 68.714844 454.550781 L 38.085938 386.859375 C 36.957031 384.386719 37.410156 382.8125 39.886719 381.460938 L 83.351562 358.746094 L 136.953125 270.367188 C 138.527344 267.667969 141.230469 267.667969 142.582031 270.589844 L 214.875 430.039062 C 216.226562 432.734375 214.648438 434.761719 211.722656 434.761719 L 125.917969 432.960938 L 121.1875 468.492188 C 120.960938 471.191406 119.160156 472.316406 116.683594 472.089844 L 104.519531 470.742188 C 102.042969 470.515625 100.46875 468.71875 100.917969 466.246094 L 104.296875 440.605469 L 74.117188 456.347656 C 71.867188 457.472656 69.839844 457.023438 68.714844 454.550781 Z M 85.828125 378.988281 L 62.183594 391.355469 L 80.425781 431.386719 L 104.070312 419.242188 Z M 186.046875 415.417969 L 137.402344 307.921875 L 102.042969 366.394531 L 123.664062 414.070312 Z M 178.839844 294.65625 L 191.679688 262.945312 L 181.09375 266.769531 C 178.617188 267.667969 176.8125 266.542969 175.914062 264.070312 L 172.761719 254.625 C 171.859375 251.925781 172.761719 250.351562 175.238281 249.453125 L 215.773438 236.410156 C 218.929688 235.285156 220.730469 237.082031 219.605469 240.230469 L 196.40625 300.953125 C 195.507812 303.199219 193.703125 304.324219 191.226562 303.425781 L 181.316406 299.828125 C 178.839844 298.925781 177.941406 297.128906 178.839844 294.65625 Z M 200.011719 339.183594 L 252.710938 291.507812 L 238.746094 293.980469 C 236.269531 294.429688 234.46875 293.304688 234.015625 290.605469 L 232.214844 281.160156 C 231.765625 278.6875 233.117188 276.886719 235.59375 276.4375 L 300.453125 265.867188 C 304.28125 265.195312 305.632812 267.894531 302.707031 270.589844 L 246.179688 321.640625 L 268.925781 318.71875 C 271.402344 318.492188 273.203125 319.84375 273.429688 322.316406 L 274.78125 332.210938 C 275.003906 334.683594 273.652344 336.484375 271.175781 336.707031 L 202.261719 344.578125 C 199.109375 345.03125 197.308594 341.65625 200.011719 339.183594 Z M 252.484375 396.753906 L 259.917969 385.960938 L 223.65625 388.207031 C 221.179688 388.433594 219.605469 386.859375 219.378906 384.386719 L 218.476562 374.488281 C 218.253906 372.015625 219.828125 370.441406 222.304688 370.21875 L 289.417969 366.167969 C 292.796875 365.945312 294.148438 367.96875 292.347656 370.890625 L 268.25 406.648438 C 266.898438 408.898438 264.644531 409.347656 262.617188 408 L 253.609375 402.375 C 251.359375 400.800781 251.132812 398.777344 252.484375 396.753906 Z M 252.484375 396.753906 " fill-opacity="1" fill-rule="nonzero"/></g></svg>