<svg xmlns="http://www.w3.org/2000/svg" xmlns:xlink="http://www.w3.org/1999/xlink" width="1122" zoomAndPan="magnify" viewBox="0 0 841.92 595.499987" height="793" preserveAspectRatio="xMidYMid meet" version="1.0"><defs><g/><clipPath id="93a6d36fda"><path d="M 0.3125 0 L 841.527344 0 L 841.527344 595 L 0.3125 595 Z M 0.3125 0 " clip-rule="nonzero"/></clipPath><clipPath id="22618a7a5e"><path d="M 40.640625 50.152344 L 174.777344 50.152344 L 174.777344 110.851562 L 40.640625 110.851562 Z M 40.640625 50.152344 " clip-rule="nonzero"/></clipPath></defs><g clip-path="url(#93a6d36fda)"><path fill="#ffffff" d="M 0.3125 0 L 841.855469 0 L 841.855469 595 L 0.3125 595 Z M 0.3125 0 " fill-opacity="1" fill-rule="nonzero"/><path fill="#ffffff" d="M 0.3125 0 L 841.855469 0 L 841.855469 595 L 0.3125 595 Z M 0.3125 0 " fill-opacity="1" fill-rule="nonzero"/></g><g clip-path="url(#22618a7a5e)"><path fill="#000000" d="M 163.71875 76.914062 C 168.480469 77.238281 171.910156 72.824219 173.726562 65.253906 C 174.007812 64.039062 174.332031 62.746094 174.65625 60.761719 C 174.734375 60.273438 174.492188 60.074219 174.050781 60.152344 L 166.421875 61.8125 C 166.097656 61.894531 165.898438 62.136719 165.855469 62.460938 L 165.414062 65.738281 C 165.332031 66.226562 165.574219 66.429688 166.019531 66.308594 L 166.945312 66.023438 C 167.109375 65.984375 167.230469 65.941406 167.390625 65.863281 L 169.8125 64.527344 C 170.5 64.160156 170.902344 65.011719 170.378906 65.457031 L 168.035156 67.320312 C 167.835938 67.480469 167.753906 67.644531 167.671875 67.925781 C 166.90625 71.042969 165.777344 72.378906 164.566406 72.339844 C 162.953125 72.296875 162.46875 68.9375 163.878906 62.824219 C 165.089844 57.5625 166.988281 54.648438 168.441406 54.726562 C 169.488281 54.769531 169.933594 56.46875 169.8125 58.898438 C 169.773438 59.34375 170.015625 59.585938 170.457031 59.464844 L 174.171875 58.613281 C 174.492188 58.535156 174.695312 58.332031 174.734375 57.96875 C 175.058594 53.390625 172.515625 50.074219 168.398438 50.152344 C 163.921875 50.234375 160.609375 54.648438 158.875 61.976562 C 156.855469 71.003906 158.59375 76.550781 163.71875 76.914062 Z M 131.390625 57.96875 L 137.082031 57.601562 C 137.40625 57.5625 137.648438 57.359375 137.726562 57.035156 L 138.816406 51.855469 C 138.898438 51.410156 138.65625 51.164062 138.210938 51.289062 L 132.238281 52.867188 C 131.917969 52.945312 131.753906 53.109375 131.675781 53.472656 L 130.867188 57.320312 C 130.785156 57.722656 130.988281 58.007812 131.390625 57.96875 Z M 156.132812 106.792969 C 160.367188 106.914062 162.75 103.59375 163.113281 99.707031 C 163.515625 95.535156 161.136719 93.1875 159.441406 91.082031 C 158.148438 89.464844 157.261719 88.492188 157.460938 86.550781 C 157.582031 85.253906 158.472656 84.769531 159.078125 84.808594 C 160.046875 84.847656 161.09375 86.183594 161.09375 89.625 C 161.09375 90.070312 161.378906 90.273438 161.78125 90.191406 L 164.765625 89.546875 C 165.089844 89.464844 165.292969 89.261719 165.332031 88.898438 C 165.492188 84.484375 163.558594 80.191406 159.117188 80.191406 C 156.292969 80.191406 153.183594 81.773438 152.578125 86.550781 C 152.175781 89.949219 153.710938 92.296875 155.164062 94.121094 C 156.777344 96.144531 158.066406 97.5625 157.945312 99.949219 C 157.867188 101.570312 157.21875 102.175781 156.414062 102.136719 C 155.121094 102.054688 154.113281 100.070312 154.476562 96.425781 C 154.515625 95.941406 154.234375 95.738281 153.832031 95.820312 L 150.398438 96.550781 C 150.078125 96.628906 149.875 96.832031 149.835938 97.195312 C 149.472656 103.027344 152.378906 106.671875 156.132812 106.792969 Z M 127.921875 78.898438 L 132.117188 78.613281 C 132.441406 78.574219 132.683594 78.371094 132.761719 78.046875 L 136.355469 60.355469 C 136.4375 59.949219 136.195312 59.667969 135.789062 59.707031 L 131.59375 59.949219 C 131.230469 59.992188 131.027344 60.195312 130.949219 60.519531 L 127.355469 78.25 C 127.273438 78.65625 127.515625 78.9375 127.921875 78.898438 Z M 136.597656 107.683594 L 146.242188 107.074219 C 146.605469 107.035156 146.808594 106.832031 146.890625 106.507812 L 147.535156 103.230469 C 147.617188 102.824219 147.375 102.539062 146.96875 102.582031 L 142.246094 102.90625 L 143.621094 96.183594 L 148.140625 95.902344 C 148.503906 95.859375 148.703125 95.660156 148.785156 95.335938 L 149.429688 92.054688 C 149.511719 91.648438 149.308594 91.367188 148.90625 91.40625 L 144.507812 91.691406 L 145.71875 85.820312 L 150.601562 85.496094 C 150.964844 85.457031 151.167969 85.253906 151.246094 84.929688 L 151.894531 81.609375 C 151.972656 81.207031 151.773438 80.921875 151.367188 80.960938 L 141.722656 81.609375 C 141.359375 81.652344 141.15625 81.851562 141.078125 82.175781 L 136.03125 107.035156 C 135.953125 107.4375 136.195312 107.722656 136.597656 107.683594 Z M 116.863281 79.910156 C 121.625 80.234375 125.054688 75.820312 126.871094 68.25 C 127.152344 67.035156 127.476562 65.738281 127.800781 63.757812 C 127.878906 63.269531 127.636719 63.066406 127.195312 63.148438 L 119.566406 64.769531 C 119.242188 64.847656 119.042969 65.09375 119 65.417969 L 118.558594 68.695312 C 118.476562 69.179688 118.71875 69.382812 119.164062 69.261719 L 120.089844 69.019531 C 120.253906 68.980469 120.375 68.9375 120.535156 68.859375 L 122.996094 67.523438 C 123.683594 67.15625 124.046875 68.046875 123.523438 68.453125 L 121.222656 70.234375 C 120.980469 70.394531 120.859375 70.640625 120.777344 70.921875 C 120.050781 74.039062 118.921875 75.375 117.710938 75.335938 C 116.097656 75.292969 115.613281 71.933594 117.023438 65.820312 C 118.234375 60.558594 120.132812 57.644531 121.585938 57.722656 C 122.632812 57.765625 123.078125 59.464844 122.957031 61.894531 C 122.917969 62.339844 123.160156 62.582031 123.601562 62.460938 L 127.316406 61.609375 C 127.636719 61.53125 127.839844 61.328125 127.878906 60.964844 C 128.203125 56.386719 125.660156 53.070312 121.542969 53.148438 C 117.0625 53.230469 113.753906 57.644531 112.019531 64.972656 C 110 74 111.738281 79.546875 116.863281 79.910156 Z M 124.53125 108.53125 L 128.890625 108.25 C 129.210938 108.207031 129.414062 108.046875 129.535156 107.722656 L 138.980469 82.542969 C 139.140625 82.136719 138.9375 81.8125 138.496094 81.851562 L 134.136719 82.136719 C 133.8125 82.175781 133.609375 82.339844 133.488281 82.664062 L 124.046875 107.84375 C 123.886719 108.25 124.085938 108.574219 124.53125 108.53125 Z M 92.003906 81.246094 L 96.078125 81.003906 C 96.441406 80.960938 96.601562 80.761719 96.683594 80.4375 L 97.449219 76.429688 C 97.492188 76.183594 97.53125 75.941406 97.53125 75.699219 L 97.855469 65.496094 C 97.855469 64.890625 98.582031 64.808594 98.660156 65.417969 L 100.800781 80.113281 C 100.839844 80.515625 101.082031 80.679688 101.445312 80.636719 L 105.722656 80.355469 C 106.085938 80.316406 106.289062 80.113281 106.371094 79.789062 L 111.414062 54.890625 C 111.496094 54.484375 111.253906 54.203125 110.847656 54.242188 L 106.8125 54.527344 C 106.449219 54.566406 106.289062 54.769531 106.207031 55.09375 L 105.160156 60.640625 C 105.117188 60.882812 105.078125 61.125 105.078125 61.367188 L 104.796875 72.90625 C 104.796875 73.511719 104.027344 73.59375 103.949219 73.066406 L 101.324219 55.457031 C 101.285156 55.09375 101.042969 54.890625 100.679688 54.929688 L 97.128906 55.132812 C 96.765625 55.171875 96.5625 55.375 96.480469 55.699219 L 91.4375 80.597656 C 91.355469 81.003906 91.597656 81.285156 92.003906 81.246094 Z M 113.511719 109.300781 L 117.789062 109.019531 C 118.113281 108.976562 118.316406 108.816406 118.4375 108.492188 L 126.546875 86.914062 L 129.496094 86.710938 C 129.816406 86.671875 130.019531 86.507812 130.140625 86.183594 L 131.269531 83.066406 C 131.433594 82.664062 131.230469 82.339844 130.785156 82.378906 L 119.242188 83.148438 C 118.921875 83.1875 118.71875 83.351562 118.597656 83.675781 L 117.46875 86.792969 C 117.304688 87.195312 117.546875 87.519531 117.992188 87.480469 L 120.980469 87.277344 L 113.027344 108.613281 C 112.867188 109.019531 113.070312 109.34375 113.511719 109.300781 Z M 105.359375 109.828125 L 109.558594 109.542969 C 109.921875 109.503906 110.121094 109.300781 110.203125 108.976562 L 115.25 84.078125 C 115.328125 83.675781 115.085938 83.390625 114.683594 83.433594 L 110.484375 83.714844 C 110.121094 83.757812 109.921875 83.957031 109.839844 84.28125 L 104.796875 109.179688 C 104.714844 109.585938 104.957031 109.867188 105.359375 109.828125 Z M 81.589844 73.796875 L 86.675781 63.554688 C 86.996094 62.90625 87.84375 63.109375 87.644531 63.835938 L 84.695312 73.554688 Z M 71.621094 82.582031 L 75.980469 82.296875 C 76.304688 82.257812 76.503906 82.136719 76.664062 81.851562 L 79.007812 78.25 L 83.367188 77.886719 C 83.324219 78.007812 83.324219 78.128906 83.285156 78.25 L 82.679688 81.207031 C 82.597656 81.609375 82.839844 81.894531 83.246094 81.851562 L 87.160156 81.570312 C 87.480469 81.527344 87.722656 81.328125 87.804688 81.003906 L 92.847656 56.144531 C 92.929688 55.742188 92.6875 55.457031 92.285156 55.496094 L 87.964844 55.742188 C 87.644531 55.742188 87.441406 55.941406 87.28125 56.1875 L 71.175781 81.894531 C 70.933594 82.296875 71.136719 82.621094 71.621094 82.582031 Z M 95.3125 110.839844 C 99.589844 111.082031 102.777344 107.359375 104.269531 100.433594 C 104.433594 99.667969 104.191406 99.179688 103.542969 99.34375 L 99.832031 100.191406 C 99.507812 100.273438 99.347656 100.476562 99.265625 100.839844 C 98.5 104.523438 97.25 106.386719 96.039062 106.304688 C 94.585938 106.226562 94.058594 103.351562 95.554688 97.035156 C 96.886719 91.367188 98.582031 88.371094 100.074219 88.613281 C 101.082031 88.777344 101.285156 90.558594 100.597656 94.160156 C 100.519531 94.644531 100.757812 94.890625 101.164062 94.808594 L 105.078125 94 C 105.402344 93.917969 105.601562 93.714844 105.683594 93.390625 C 106.289062 90.3125 105.886719 84.039062 100.195312 84.039062 C 95.753906 84.039062 92.203125 88.046875 90.347656 96.0625 C 88.25 105.089844 90.265625 110.558594 95.3125 110.839844 Z M 56.566406 83.59375 L 60.605469 83.308594 C 60.925781 83.269531 61.167969 83.066406 61.25 82.742188 L 63.066406 73.835938 L 66.898438 72.945312 L 65.003906 82.339844 C 64.921875 82.742188 65.164062 83.027344 65.566406 82.988281 L 69.601562 82.703125 C 69.925781 82.664062 70.167969 82.460938 70.25 82.136719 L 75.292969 57.277344 C 75.375 56.875 75.132812 56.589844 74.730469 56.632812 L 70.691406 56.875 C 70.328125 56.914062 70.128906 57.117188 70.046875 57.441406 L 67.867188 68.210938 L 64.035156 69.058594 L 66.292969 57.84375 C 66.375 57.441406 66.132812 57.15625 65.730469 57.199219 L 61.691406 57.480469 C 61.371094 57.523438 61.128906 57.722656 61.046875 58.046875 L 56.003906 82.945312 C 55.921875 83.351562 56.164062 83.632812 56.566406 83.59375 Z M 46.4375 84.523438 C 50.714844 84.769531 53.902344 81.042969 55.4375 73.878906 C 55.558594 73.351562 55.316406 72.867188 54.710938 72.988281 L 50.957031 73.878906 C 50.636719 73.957031 50.472656 74.160156 50.433594 74.28125 C 49.625 78.210938 48.375 80.070312 47.164062 79.992188 C 45.710938 79.910156 45.1875 77.035156 46.679688 70.71875 C 48.011719 65.050781 49.707031 62.054688 51.199219 62.300781 C 52.210938 62.460938 52.410156 64.242188 51.726562 67.84375 C 51.644531 68.332031 51.886719 68.574219 52.332031 68.492188 L 56.203125 67.683594 C 56.527344 67.601562 56.730469 67.398438 56.808594 67.078125 C 57.414062 64 57.011719 57.722656 51.320312 57.722656 C 46.882812 57.722656 43.332031 61.730469 41.472656 69.75 C 39.375 78.777344 41.394531 84.242188 46.4375 84.523438 Z M 135.304688 78.453125 L 139.664062 78.167969 C 139.988281 78.128906 140.191406 77.964844 140.3125 77.644531 L 142.046875 72.824219 C 142.167969 72.542969 142.207031 72.421875 142.246094 72.21875 L 143.78125 62.90625 C 143.902344 62.175781 144.710938 62.175781 144.710938 62.90625 L 144.667969 77.238281 C 144.667969 77.644531 144.871094 77.84375 145.273438 77.804688 L 149.351562 77.5625 C 149.671875 77.5625 149.914062 77.359375 150.035156 77.074219 L 160.085938 51.773438 C 160.246094 51.367188 160.003906 51.042969 159.5625 51.085938 L 155.285156 51.410156 C 154.960938 51.449219 154.71875 51.609375 154.597656 51.894531 L 151.53125 59.707031 C 151.367188 60.113281 151.246094 60.4375 151.167969 60.921875 L 149.59375 68.980469 C 149.472656 69.585938 148.703125 69.546875 148.703125 68.9375 L 148.867188 52.460938 C 148.867188 52.054688 148.664062 51.8125 148.261719 51.855469 L 144.710938 52.054688 C 144.386719 52.054688 144.183594 52.257812 144.0625 52.582031 L 134.820312 77.765625 C 134.660156 78.167969 134.863281 78.492188 135.304688 78.453125 Z M 135.304688 78.453125 " fill-opacity="1" fill-rule="nonzero"/></g><g fill="#000000" fill-opacity="1"><g transform="translate(252.290674, 160.146854)"><g><path d="M -0.390625 0 C -1.585938 0 -2.019531 -0.59375 -1.6875 -1.78125 L 15.484375 -68.203125 C 15.679688 -69.054688 16.210938 -69.484375 17.078125 -69.484375 L 29.484375 -69.484375 C 34.316406 -69.484375 38.203125 -68.488281 41.140625 -66.5 C 44.085938 -64.519531 46.109375 -61.925781 47.203125 -58.71875 C 48.296875 -55.507812 48.410156 -52.050781 47.546875 -48.34375 C 47.015625 -46.03125 46.21875 -43.726562 45.15625 -41.4375 C 44.101562 -39.15625 42.632812 -37.171875 40.75 -35.484375 C 38.863281 -33.796875 36.460938 -32.625 33.546875 -31.96875 C 33.222656 -31.894531 32.894531 -31.84375 32.5625 -31.8125 C 32.226562 -31.78125 31.832031 -31.832031 31.375 -31.96875 L 28.09375 -32.859375 C 27.363281 -33.117188 26.847656 -32.96875 26.546875 -32.40625 C 26.253906 -31.84375 26.4375 -31.363281 27.09375 -30.96875 L 31.859375 -28.09375 C 32.453125 -27.695312 32.816406 -27.132812 32.953125 -26.40625 L 36.734375 -1.6875 C 36.859375 -1.09375 36.753906 -0.660156 36.421875 -0.390625 C 36.097656 -0.128906 35.703125 0 35.234375 0 L 24.8125 0 C 23.820312 0 23.296875 -0.460938 23.234375 -1.390625 L 19.359375 -29.484375 C 19.285156 -30.335938 18.914062 -30.75 18.25 -30.71875 C 17.59375 -30.6875 17.234375 -30.207031 17.171875 -29.28125 L 16.375 -18.0625 C 16.375 -17.726562 16.289062 -17.066406 16.125 -16.078125 C 15.957031 -15.085938 15.8125 -14.425781 15.6875 -14.09375 L 12.3125 -1.296875 C 12.113281 -0.429688 11.582031 0 10.71875 0 Z M -13.40625 24.015625 C -14.59375 24.015625 -15.019531 23.453125 -14.6875 22.328125 L -12.203125 13.203125 C -12.003906 12.335938 -11.476562 11.90625 -10.625 11.90625 L 36.03125 11.90625 C 37.21875 11.90625 37.648438 12.46875 37.328125 13.59375 L 34.84375 22.734375 C 34.644531 23.585938 34.113281 24.015625 33.25 24.015625 Z M 22.328125 -40.59375 L 26 -40.59375 C 28.382812 -40.59375 30.285156 -41.304688 31.703125 -42.734375 C 33.128906 -44.160156 34.144531 -46.160156 34.75 -48.734375 C 35.46875 -51.910156 35.3125 -54.257812 34.28125 -55.78125 C 33.257812 -57.3125 31.660156 -58.078125 29.484375 -58.078125 L 26.796875 -58.078125 Z M 22.328125 -40.59375 "/></g></g></g><g fill="#000000" fill-opacity="1"><g transform="translate(296.16207, 160.146854)"><g><path d="M -5.5625 0 C -6.15625 0 -6.515625 -0.195312 -6.640625 -0.59375 C -6.773438 -0.988281 -6.679688 -1.453125 -6.359375 -1.984375 L 40.296875 -68.59375 C 40.691406 -69.1875 41.320312 -69.484375 42.1875 -69.484375 L 53.90625 -69.484375 C 55.09375 -69.484375 55.519531 -68.921875 55.1875 -67.796875 L 38.015625 -1.296875 C 37.816406 -0.429688 37.289062 0 36.4375 0 L 24.921875 0 C 24.453125 0 24.066406 -0.144531 23.765625 -0.4375 C 23.472656 -0.738281 23.425781 -1.15625 23.625 -1.6875 L 27.296875 -12.3125 L 16.078125 -12.3125 L 8.828125 -0.890625 C 8.503906 -0.296875 7.910156 0 7.046875 0 Z M -13.40625 24.015625 C -14.59375 24.015625 -15.019531 23.453125 -14.6875 22.328125 L -12.203125 13.203125 C -12.003906 12.335938 -11.476562 11.90625 -10.625 11.90625 L 40.703125 11.90625 C 41.890625 11.90625 42.316406 12.46875 41.984375 13.59375 L 39.5 22.734375 C 39.300781 23.585938 38.773438 24.015625 37.921875 24.015625 Z M 23.03125 -23.71875 L 31.46875 -23.71875 L 39.703125 -46.453125 C 40.035156 -47.316406 39.851562 -47.878906 39.15625 -48.140625 C 38.46875 -48.410156 37.921875 -48.179688 37.515625 -47.453125 Z M 23.03125 -23.71875 "/></g></g></g><g fill="#000000" fill-opacity="1"><g transform="translate(344.698531, 160.146854)"><g><path d="M -0.390625 0 C -1.585938 0 -2.019531 -0.5625 -1.6875 -1.6875 L 15.484375 -68.203125 C 15.679688 -69.054688 16.210938 -69.484375 17.078125 -69.484375 L 25.3125 -69.484375 C 32.125 -69.484375 37.382812 -67.941406 41.09375 -64.859375 C 44.800781 -61.785156 47.066406 -57.40625 47.890625 -51.71875 C 48.722656 -46.03125 48.175781 -39.3125 46.25 -31.5625 C 43.675781 -20.90625 39.789062 -12.976562 34.59375 -7.78125 C 29.394531 -2.59375 23.457031 0 16.78125 0 Z M -13.40625 24.015625 C -14.59375 24.015625 -15.019531 23.453125 -14.6875 22.328125 L -12.203125 13.203125 C -12.003906 12.335938 -11.476562 11.90625 -10.625 11.90625 L 39.3125 11.90625 C 40.5 11.90625 40.925781 12.46875 40.59375 13.59375 L 38.125 22.734375 C 37.914062 23.585938 37.382812 24.015625 36.53125 24.015625 Z M 15.28125 -11.90625 L 17.171875 -11.90625 C 18.960938 -11.90625 20.75 -12.5 22.53125 -13.6875 C 24.320312 -14.882812 26.039062 -16.988281 27.6875 -20 C 29.34375 -23.007812 30.898438 -27.296875 32.359375 -32.859375 C 36.722656 -49.335938 35.398438 -57.578125 28.390625 -57.578125 L 27.09375 -57.578125 Z M 15.28125 -11.90625 "/></g></g></g><g fill="#000000" fill-opacity="1"><g transform="translate(391.845393, 160.146854)"><g><path d="M 4.0625 0 C 3.070312 0 2.644531 -0.5625 2.78125 -1.6875 L 11.015625 -68.203125 C 11.148438 -69.054688 11.679688 -69.484375 12.609375 -69.484375 L 22.9375 -69.484375 C 23.988281 -69.484375 24.414062 -68.921875 24.21875 -67.796875 L 15.984375 -28.78125 C 15.785156 -27.925781 16.03125 -27.460938 16.71875 -27.390625 C 17.414062 -27.328125 17.898438 -27.628906 18.171875 -28.296875 L 33.25 -68.203125 C 33.582031 -69.054688 34.113281 -69.484375 34.84375 -69.484375 L 46.15625 -69.484375 C 47.28125 -69.484375 47.742188 -68.921875 47.546875 -67.796875 L 42.28125 -28.78125 C 42.21875 -27.925781 42.515625 -27.460938 43.171875 -27.390625 C 43.835938 -27.328125 44.269531 -27.628906 44.46875 -28.296875 L 56.390625 -68.203125 C 56.585938 -69.054688 57.113281 -69.484375 57.96875 -69.484375 L 68.984375 -69.484375 C 69.515625 -69.484375 69.910156 -69.332031 70.171875 -69.03125 C 70.441406 -68.738281 70.476562 -68.328125 70.28125 -67.796875 L 43.671875 -1.296875 C 43.347656 -0.429688 42.820312 0 42.09375 0 L 31.375 0 C 30.375 0 29.941406 -0.5625 30.078125 -1.6875 L 35.234375 -42.390625 C 35.367188 -43.378906 35.117188 -43.890625 34.484375 -43.921875 C 33.859375 -43.953125 33.382812 -43.539062 33.0625 -42.6875 L 16.375 -1.296875 C 16.039062 -0.429688 15.515625 0 14.796875 0 Z M -13.40625 24.015625 C -14.59375 24.015625 -15.019531 23.453125 -14.6875 22.328125 L -12.203125 13.203125 C -12.003906 12.335938 -11.476562 11.90625 -10.625 11.90625 L 52.015625 11.90625 C 53.203125 11.90625 53.632812 12.46875 53.3125 13.59375 L 50.828125 22.734375 C 50.628906 23.585938 50.097656 24.015625 49.234375 24.015625 Z M -13.40625 24.015625 "/></g></g></g><g fill="#000000" fill-opacity="1"><g transform="translate(451.697095, 160.146854)"><g><path d="M 0.09375 0 C -1.351562 0 -1.914062 -0.726562 -1.59375 -2.1875 L 15.390625 -68.203125 C 15.585938 -69.054688 16.113281 -69.484375 16.96875 -69.484375 L 45.765625 -69.484375 C 46.953125 -69.484375 47.378906 -68.921875 47.046875 -67.796875 L 44.671875 -58.671875 C 44.472656 -57.804688 43.941406 -57.375 43.078125 -57.375 L 27.203125 -57.375 L 23.03125 -41.5 L 35.046875 -41.5 C 36.234375 -41.5 36.660156 -40.9375 36.328125 -39.8125 L 34.140625 -31.46875 C 33.941406 -30.601562 33.414062 -30.171875 32.5625 -30.171875 L 20.15625 -30.171875 L 15.484375 -12.109375 L 30.96875 -12.109375 C 32.15625 -12.109375 32.585938 -11.546875 32.265625 -10.421875 L 29.875 -1.296875 C 29.675781 -0.429688 29.148438 0 28.296875 0 Z M -13.40625 24.015625 C -14.59375 24.015625 -15.019531 23.453125 -14.6875 22.328125 L -12.203125 13.203125 C -12.003906 12.335938 -11.476562 11.90625 -10.625 11.90625 L 29.484375 11.90625 C 30.671875 11.90625 31.097656 12.46875 30.765625 13.59375 L 28.296875 22.734375 C 28.097656 23.585938 27.566406 24.015625 26.703125 24.015625 Z M -13.40625 24.015625 "/></g></g></g><g fill="#000000" fill-opacity="1"><g transform="translate(489.017556, 160.146854)"><g><path d="M 17.46875 0.796875 C 10.582031 -0.128906 6.210938 -4.164062 4.359375 -11.3125 C 2.515625 -18.457031 3.210938 -28.054688 6.453125 -40.109375 C 9.359375 -49.765625 13.128906 -57.269531 17.765625 -62.625 C 22.398438 -67.988281 27.726562 -70.570312 33.75 -70.375 C 37.519531 -70.3125 40.675781 -69.316406 43.21875 -67.390625 C 45.769531 -65.472656 47.640625 -62.925781 48.828125 -59.75 C 50.023438 -56.582031 50.394531 -53.046875 49.9375 -49.140625 C 49.863281 -48.273438 49.300781 -47.742188 48.25 -47.546875 L 38.21875 -45.765625 C 36.820312 -45.566406 36.289062 -46.128906 36.625 -47.453125 C 36.957031 -50.691406 36.859375 -53.253906 36.328125 -55.140625 C 35.796875 -57.023438 34.769531 -58.035156 33.25 -58.171875 C 31.269531 -58.304688 29.035156 -56.566406 26.546875 -52.953125 C 24.066406 -49.347656 21.835938 -44.039062 19.859375 -37.03125 C 17.535156 -28.957031 16.488281 -22.703125 16.71875 -18.265625 C 16.957031 -13.828125 18.164062 -11.507812 20.34375 -11.3125 C 21.9375 -11.25 23.492188 -12.078125 25.015625 -13.796875 C 26.535156 -15.515625 27.925781 -18.59375 29.1875 -23.03125 C 29.3125 -23.488281 29.457031 -23.816406 29.625 -24.015625 C 29.789062 -24.210938 29.941406 -24.378906 30.078125 -24.515625 L 36.734375 -29.984375 C 37.253906 -30.378906 37.363281 -30.835938 37.0625 -31.359375 C 36.769531 -31.890625 36.359375 -31.992188 35.828125 -31.671875 L 29.6875 -28.59375 C 29.476562 -28.519531 29.242188 -28.414062 28.984375 -28.28125 C 28.722656 -28.15625 28.492188 -28.0625 28.296875 -28 L 25.3125 -27.5 C 24.050781 -27.300781 23.554688 -27.828125 23.828125 -29.078125 L 25.40625 -37.8125 C 25.539062 -38.28125 25.738281 -38.675781 26 -39 C 26.269531 -39.332031 26.632812 -39.535156 27.09375 -39.609375 L 47.546875 -42.78125 C 48.804688 -42.976562 49.300781 -42.445312 49.03125 -41.1875 C 48.507812 -38.476562 47.984375 -36.195312 47.453125 -34.34375 C 46.921875 -32.488281 46.390625 -30.734375 45.859375 -29.078125 C 43.015625 -19.085938 39.160156 -11.425781 34.296875 -6.09375 C 29.429688 -0.769531 23.820312 1.523438 17.46875 0.796875 Z M -13.40625 24.015625 C -14.59375 24.015625 -15.019531 23.453125 -14.6875 22.328125 L -12.203125 13.203125 C -12.003906 12.335938 -11.476562 11.90625 -10.625 11.90625 L 39.8125 11.90625 C 41 11.90625 41.425781 12.46875 41.09375 13.59375 L 38.609375 22.734375 C 38.410156 23.585938 37.882812 24.015625 37.03125 24.015625 Z M -13.40625 24.015625 "/></g></g></g><g fill="#000000" fill-opacity="1"><g transform="translate(536.660709, 160.146854)"><g><path d="M 0.09375 0 C -1.351562 0 -1.914062 -0.726562 -1.59375 -2.1875 L 15.390625 -68.203125 C 15.585938 -69.054688 16.113281 -69.484375 16.96875 -69.484375 L 45.765625 -69.484375 C 46.953125 -69.484375 47.378906 -68.921875 47.046875 -67.796875 L 44.671875 -58.671875 C 44.472656 -57.804688 43.941406 -57.375 43.078125 -57.375 L 27.203125 -57.375 L 23.03125 -41.5 L 35.046875 -41.5 C 36.234375 -41.5 36.660156 -40.9375 36.328125 -39.8125 L 34.140625 -31.46875 C 33.941406 -30.601562 33.414062 -30.171875 32.5625 -30.171875 L 20.15625 -30.171875 L 15.484375 -12.109375 L 30.96875 -12.109375 C 32.15625 -12.109375 32.585938 -11.546875 32.265625 -10.421875 L 29.875 -1.296875 C 29.675781 -0.429688 29.148438 0 28.296875 0 Z M -13.40625 24.015625 C -14.59375 24.015625 -15.019531 23.453125 -14.6875 22.328125 L -12.203125 13.203125 C -12.003906 12.335938 -11.476562 11.90625 -10.625 11.90625 L 29.484375 11.90625 C 30.671875 11.90625 31.097656 12.46875 30.765625 13.59375 L 28.296875 22.734375 C 28.097656 23.585938 27.566406 24.015625 26.703125 24.015625 Z M -13.40625 24.015625 "/></g></g></g><g fill="#000000" fill-opacity="1"><g transform="translate(184.144771, 283.79303)"><g><path d="M -0.390625 0 C -1.585938 0 -2.019531 -0.5625 -1.6875 -1.6875 L 15.484375 -68.203125 C 15.679688 -69.054688 16.210938 -69.484375 17.078125 -69.484375 L 28.6875 -69.484375 C 33.644531 -69.484375 37.726562 -68.457031 40.9375 -66.40625 C 44.15625 -64.351562 46.328125 -61.457031 47.453125 -57.71875 C 48.578125 -53.976562 48.539062 -49.5625 47.34375 -44.46875 C 46.351562 -40.300781 44.75 -36.675781 42.53125 -33.59375 C 40.3125 -30.519531 37.644531 -28.125 34.53125 -26.40625 C 31.425781 -24.6875 28.054688 -23.828125 24.421875 -23.828125 L 18.359375 -23.828125 L 12.5 -1.296875 C 12.300781 -0.429688 11.773438 0 10.921875 0 Z M -13.40625 24.015625 C -14.59375 24.015625 -15.019531 23.453125 -14.6875 22.328125 L -12.203125 13.203125 C -12.003906 12.335938 -11.476562 11.90625 -10.625 11.90625 L 35.53125 11.90625 C 36.726562 11.90625 37.160156 12.46875 36.828125 13.59375 L 34.34375 22.734375 C 34.144531 23.585938 33.613281 24.015625 32.75 24.015625 Z M 21.4375 -35.9375 L 25.8125 -35.9375 C 27.863281 -35.9375 29.648438 -36.863281 31.171875 -38.71875 C 32.691406 -40.570312 33.847656 -43.1875 34.640625 -46.5625 C 35.429688 -50 35.460938 -52.660156 34.734375 -54.546875 C 34.015625 -56.429688 32.59375 -57.375 30.46875 -57.375 L 27 -57.375 Z M 21.4375 -35.9375 "/></g></g></g><g fill="#000000" fill-opacity="1"><g transform="translate(227.519887, 283.79303)"><g><path d="M -0.390625 0 C -1.585938 0 -2.019531 -0.59375 -1.6875 -1.78125 L 15.484375 -68.203125 C 15.679688 -69.054688 16.210938 -69.484375 17.078125 -69.484375 L 29.484375 -69.484375 C 34.316406 -69.484375 38.203125 -68.488281 41.140625 -66.5 C 44.085938 -64.519531 46.109375 -61.925781 47.203125 -58.71875 C 48.296875 -55.507812 48.410156 -52.050781 47.546875 -48.34375 C 47.015625 -46.03125 46.21875 -43.726562 45.15625 -41.4375 C 44.101562 -39.15625 42.632812 -37.171875 40.75 -35.484375 C 38.863281 -33.796875 36.460938 -32.625 33.546875 -31.96875 C 33.222656 -31.894531 32.894531 -31.84375 32.5625 -31.8125 C 32.226562 -31.78125 31.832031 -31.832031 31.375 -31.96875 L 28.09375 -32.859375 C 27.363281 -33.117188 26.847656 -32.96875 26.546875 -32.40625 C 26.253906 -31.84375 26.4375 -31.363281 27.09375 -30.96875 L 31.859375 -28.09375 C 32.453125 -27.695312 32.816406 -27.132812 32.953125 -26.40625 L 36.734375 -1.6875 C 36.859375 -1.09375 36.753906 -0.660156 36.421875 -0.390625 C 36.097656 -0.128906 35.703125 0 35.234375 0 L 24.8125 0 C 23.820312 0 23.296875 -0.460938 23.234375 -1.390625 L 19.359375 -29.484375 C 19.285156 -30.335938 18.914062 -30.75 18.25 -30.71875 C 17.59375 -30.6875 17.234375 -30.207031 17.171875 -29.28125 L 16.375 -18.0625 C 16.375 -17.726562 16.289062 -17.066406 16.125 -16.078125 C 15.957031 -15.085938 15.8125 -14.425781 15.6875 -14.09375 L 12.3125 -1.296875 C 12.113281 -0.429688 11.582031 0 10.71875 0 Z M -13.40625 24.015625 C -14.59375 24.015625 -15.019531 23.453125 -14.6875 22.328125 L -12.203125 13.203125 C -12.003906 12.335938 -11.476562 11.90625 -10.625 11.90625 L 36.03125 11.90625 C 37.21875 11.90625 37.648438 12.46875 37.328125 13.59375 L 34.84375 22.734375 C 34.644531 23.585938 34.113281 24.015625 33.25 24.015625 Z M 22.328125 -40.59375 L 26 -40.59375 C 28.382812 -40.59375 30.285156 -41.304688 31.703125 -42.734375 C 33.128906 -44.160156 34.144531 -46.160156 34.75 -48.734375 C 35.46875 -51.910156 35.3125 -54.257812 34.28125 -55.78125 C 33.257812 -57.3125 31.660156 -58.078125 29.484375 -58.078125 L 26.796875 -58.078125 Z M 22.328125 -40.59375 "/></g></g></g><g fill="#000000" fill-opacity="1"><g transform="translate(271.391282, 283.79303)"><g><path d="M 0.09375 0 C -1.09375 0 -1.519531 -0.5625 -1.1875 -1.6875 L 15.984375 -68.203125 C 16.179688 -69.054688 16.707031 -69.484375 17.5625 -69.484375 L 28.890625 -69.484375 C 30.078125 -69.484375 30.503906 -68.921875 30.171875 -67.796875 L 13 -1.296875 C 12.800781 -0.429688 12.273438 0 11.421875 0 Z M -13.40625 24.015625 C -14.59375 24.015625 -15.019531 23.453125 -14.6875 22.328125 L -12.203125 13.203125 C -12.003906 12.335938 -11.476562 11.90625 -10.625 11.90625 L 16.1875 11.90625 C 17.375 11.90625 17.800781 12.46875 17.46875 13.59375 L 14.984375 22.734375 C 14.785156 23.585938 14.257812 24.015625 13.40625 24.015625 Z M -13.40625 24.015625 "/></g></g></g><g fill="#000000" fill-opacity="1"><g transform="translate(295.411373, 283.79303)"><g><path d="M 18.5625 0.796875 C 13.332031 0.460938 9.441406 -1.390625 6.890625 -4.765625 C 4.347656 -8.140625 3.039062 -12.785156 2.96875 -18.703125 C 2.90625 -24.628906 4.035156 -31.597656 6.359375 -39.609375 C 9.460938 -50.265625 13.296875 -58.140625 17.859375 -63.234375 C 22.429688 -68.328125 27.957031 -70.675781 34.4375 -70.28125 C 39.601562 -70.019531 43.457031 -68.203125 46 -64.828125 C 48.550781 -61.453125 49.859375 -56.785156 49.921875 -50.828125 C 49.992188 -44.867188 48.875 -37.882812 46.5625 -29.875 C 40.40625 -8.632812 31.070312 1.585938 18.5625 0.796875 Z M 19.75 -11.3125 C 22.070312 -10.851562 24.253906 -12.523438 26.296875 -16.328125 C 28.347656 -20.128906 30.5 -25.769531 32.75 -33.25 C 35.207031 -41.65625 36.367188 -47.8125 36.234375 -51.71875 C 36.097656 -55.625 35.070312 -57.773438 33.15625 -58.171875 C 30.90625 -58.628906 28.738281 -56.957031 26.65625 -53.15625 C 24.570312 -49.351562 22.40625 -43.710938 20.15625 -36.234375 C 17.707031 -27.828125 16.546875 -21.671875 16.671875 -17.765625 C 16.804688 -13.859375 17.832031 -11.707031 19.75 -11.3125 Z M -13.40625 24.015625 C -14.59375 24.015625 -15.019531 23.453125 -14.6875 22.328125 L -12.203125 13.203125 C -12.003906 12.335938 -11.476562 11.90625 -10.625 11.90625 L 40.109375 11.90625 C 41.296875 11.90625 41.722656 12.46875 41.390625 13.59375 L 38.90625 22.734375 C 38.707031 23.585938 38.179688 24.015625 37.328125 24.015625 Z M -13.40625 24.015625 "/></g></g></g><g fill="#000000" fill-opacity="1"><g transform="translate(343.352291, 283.79303)"><g><path d="M -0.390625 0 C -1.585938 0 -2.019531 -0.59375 -1.6875 -1.78125 L 15.484375 -68.203125 C 15.679688 -69.054688 16.210938 -69.484375 17.078125 -69.484375 L 29.484375 -69.484375 C 34.316406 -69.484375 38.203125 -68.488281 41.140625 -66.5 C 44.085938 -64.519531 46.109375 -61.925781 47.203125 -58.71875 C 48.296875 -55.507812 48.410156 -52.050781 47.546875 -48.34375 C 47.015625 -46.03125 46.21875 -43.726562 45.15625 -41.4375 C 44.101562 -39.15625 42.632812 -37.171875 40.75 -35.484375 C 38.863281 -33.796875 36.460938 -32.625 33.546875 -31.96875 C 33.222656 -31.894531 32.894531 -31.84375 32.5625 -31.8125 C 32.226562 -31.78125 31.832031 -31.832031 31.375 -31.96875 L 28.09375 -32.859375 C 27.363281 -33.117188 26.847656 -32.96875 26.546875 -32.40625 C 26.253906 -31.84375 26.4375 -31.363281 27.09375 -30.96875 L 31.859375 -28.09375 C 32.453125 -27.695312 32.816406 -27.132812 32.953125 -26.40625 L 36.734375 -1.6875 C 36.859375 -1.09375 36.753906 -0.660156 36.421875 -0.390625 C 36.097656 -0.128906 35.703125 0 35.234375 0 L 24.8125 0 C 23.820312 0 23.296875 -0.460938 23.234375 -1.390625 L 19.359375 -29.484375 C 19.285156 -30.335938 18.914062 -30.75 18.25 -30.71875 C 17.59375 -30.6875 17.234375 -30.207031 17.171875 -29.28125 L 16.375 -18.0625 C 16.375 -17.726562 16.289062 -17.066406 16.125 -16.078125 C 15.957031 -15.085938 15.8125 -14.425781 15.6875 -14.09375 L 12.3125 -1.296875 C 12.113281 -0.429688 11.582031 0 10.71875 0 Z M -13.40625 24.015625 C -14.59375 24.015625 -15.019531 23.453125 -14.6875 22.328125 L -12.203125 13.203125 C -12.003906 12.335938 -11.476562 11.90625 -10.625 11.90625 L 36.03125 11.90625 C 37.21875 11.90625 37.648438 12.46875 37.328125 13.59375 L 34.84375 22.734375 C 34.644531 23.585938 34.113281 24.015625 33.25 24.015625 Z M 22.328125 -40.59375 L 26 -40.59375 C 28.382812 -40.59375 30.285156 -41.304688 31.703125 -42.734375 C 33.128906 -44.160156 34.144531 -46.160156 34.75 -48.734375 C 35.46875 -51.910156 35.3125 -54.257812 34.28125 -55.78125 C 33.257812 -57.3125 31.660156 -58.078125 29.484375 -58.078125 L 26.796875 -58.078125 Z M 22.328125 -40.59375 "/></g></g></g><g fill="#000000" fill-opacity="1"><g transform="translate(387.223698, 283.79303)"><g><path d="M 0.09375 0 C -1.09375 0 -1.519531 -0.5625 -1.1875 -1.6875 L 15.984375 -68.203125 C 16.179688 -69.054688 16.707031 -69.484375 17.5625 -69.484375 L 28.890625 -69.484375 C 30.078125 -69.484375 30.503906 -68.921875 30.171875 -67.796875 L 13 -1.296875 C 12.800781 -0.429688 12.273438 0 11.421875 0 Z M -13.40625 24.015625 C -14.59375 24.015625 -15.019531 23.453125 -14.6875 22.328125 L -12.203125 13.203125 C -12.003906 12.335938 -11.476562 11.90625 -10.625 11.90625 L 16.1875 11.90625 C 17.375 11.90625 17.800781 12.46875 17.46875 13.59375 L 14.984375 22.734375 C 14.785156 23.585938 14.257812 24.015625 13.40625 24.015625 Z M -13.40625 24.015625 "/></g></g></g><g fill="#000000" fill-opacity="1"><g transform="translate(411.243788, 283.79303)"><g><path d="M 16.375 0.796875 C 13.070312 0.460938 10.144531 -0.773438 7.59375 -2.921875 C 5.039062 -5.078125 3.117188 -8.039062 1.828125 -11.8125 C 0.546875 -15.582031 0.132812 -19.953125 0.59375 -24.921875 C 0.65625 -25.773438 1.148438 -26.269531 2.078125 -26.40625 L 11.8125 -28 C 12.9375 -28.195312 13.429688 -27.695312 13.296875 -26.5 C 12.835938 -21.875 13.085938 -18.300781 14.046875 -15.78125 C 15.003906 -13.269531 16.28125 -11.878906 17.875 -11.609375 C 19 -11.484375 19.957031 -11.847656 20.75 -12.703125 C 21.539062 -13.566406 22.066406 -15.085938 22.328125 -17.265625 C 22.660156 -20.515625 22.128906 -23.296875 20.734375 -25.609375 C 19.347656 -27.921875 17.664062 -30.503906 15.6875 -33.359375 C 14.425781 -35.078125 13.25 -36.941406 12.15625 -38.953125 C 11.0625 -40.972656 10.25 -43.238281 9.71875 -45.75 C 9.195312 -48.269531 9.203125 -51.050781 9.734375 -54.09375 C 10.523438 -58.394531 11.894531 -61.738281 13.84375 -64.125 C 15.800781 -66.507812 18.050781 -68.164062 20.59375 -69.09375 C 23.144531 -70.019531 25.710938 -70.414062 28.296875 -70.28125 C 31.265625 -70.144531 33.789062 -69.363281 35.875 -67.9375 C 37.96875 -66.519531 39.625 -64.6875 40.84375 -62.4375 C 42.070312 -60.1875 42.929688 -57.71875 43.421875 -55.03125 C 43.921875 -52.351562 44.070312 -49.726562 43.875 -47.15625 C 43.8125 -46.289062 43.316406 -45.789062 42.390625 -45.65625 L 33.65625 -44.375 C 32.59375 -44.175781 32.0625 -44.671875 32.0625 -45.859375 C 32.195312 -49.765625 31.800781 -52.707031 30.875 -54.6875 C 29.945312 -56.675781 28.820312 -57.703125 27.5 -57.765625 C 26.707031 -57.898438 25.8125 -57.617188 24.8125 -56.921875 C 23.820312 -56.234375 23.195312 -55.03125 22.9375 -53.3125 C 22.46875 -50.726562 22.710938 -48.570312 23.671875 -46.84375 C 24.628906 -45.125 25.9375 -43.140625 27.59375 -40.890625 C 29.050781 -38.972656 30.554688 -36.890625 32.109375 -34.640625 C 33.660156 -32.390625 34.882812 -29.859375 35.78125 -27.046875 C 36.675781 -24.234375 36.828125 -20.941406 36.234375 -17.171875 C 35.765625 -13.734375 34.6875 -10.585938 33 -7.734375 C 31.3125 -4.890625 29.078125 -2.671875 26.296875 -1.078125 C 23.523438 0.503906 20.21875 1.128906 16.375 0.796875 Z M -13.40625 24.015625 C -14.59375 24.015625 -15.019531 23.453125 -14.6875 22.328125 L -12.203125 13.203125 C -12.003906 12.335938 -11.476562 11.90625 -10.625 11.90625 L 32.453125 11.90625 C 33.648438 11.90625 34.082031 12.46875 33.75 13.59375 L 31.265625 22.734375 C 31.066406 23.585938 30.539062 24.015625 29.6875 24.015625 Z M -13.40625 24.015625 "/></g></g></g><g fill="#000000" fill-opacity="1"><g transform="translate(451.541951, 283.79303)"><g><path d="M 0.09375 0 C -1.09375 0 -1.519531 -0.5625 -1.1875 -1.6875 L 15.984375 -68.203125 C 16.179688 -69.054688 16.707031 -69.484375 17.5625 -69.484375 L 28.890625 -69.484375 C 30.078125 -69.484375 30.503906 -68.921875 30.171875 -67.796875 L 13 -1.296875 C 12.800781 -0.429688 12.273438 0 11.421875 0 Z M -13.40625 24.015625 C -14.59375 24.015625 -15.019531 23.453125 -14.6875 22.328125 L -12.203125 13.203125 C -12.003906 12.335938 -11.476562 11.90625 -10.625 11.90625 L 16.1875 11.90625 C 17.375 11.90625 17.800781 12.46875 17.46875 13.59375 L 14.984375 22.734375 C 14.785156 23.585938 14.257812 24.015625 13.40625 24.015625 Z M -13.40625 24.015625 "/></g></g></g><g fill="#000000" fill-opacity="1"><g transform="translate(475.562041, 283.79303)"><g><path d="M 0.09375 0 C -1.351562 0 -1.914062 -0.726562 -1.59375 -2.1875 L 15.390625 -68.203125 C 15.585938 -69.054688 16.113281 -69.484375 16.96875 -69.484375 L 45.765625 -69.484375 C 46.953125 -69.484375 47.378906 -68.921875 47.046875 -67.796875 L 44.671875 -58.671875 C 44.472656 -57.804688 43.941406 -57.375 43.078125 -57.375 L 27.203125 -57.375 L 23.03125 -41.5 L 35.046875 -41.5 C 36.234375 -41.5 36.660156 -40.9375 36.328125 -39.8125 L 34.140625 -31.46875 C 33.941406 -30.601562 33.414062 -30.171875 32.5625 -30.171875 L 20.15625 -30.171875 L 15.484375 -12.109375 L 30.96875 -12.109375 C 32.15625 -12.109375 32.585938 -11.546875 32.265625 -10.421875 L 29.875 -1.296875 C 29.675781 -0.429688 29.148438 0 28.296875 0 Z M -13.40625 24.015625 C -14.59375 24.015625 -15.019531 23.453125 -14.6875 22.328125 L -12.203125 13.203125 C -12.003906 12.335938 -11.476562 11.90625 -10.625 11.90625 L 29.484375 11.90625 C 30.671875 11.90625 31.097656 12.46875 30.765625 13.59375 L 28.296875 22.734375 C 28.097656 23.585938 27.566406 24.015625 26.703125 24.015625 Z M -13.40625 24.015625 "/></g></g></g><g fill="#000000" fill-opacity="1"><g transform="translate(512.882503, 283.79303)"><g><path d="M -0.390625 0 C -1.585938 0 -2.019531 -0.59375 -1.6875 -1.78125 L 15.484375 -68.203125 C 15.679688 -69.054688 16.210938 -69.484375 17.078125 -69.484375 L 29.484375 -69.484375 C 34.316406 -69.484375 38.203125 -68.488281 41.140625 -66.5 C 44.085938 -64.519531 46.109375 -61.925781 47.203125 -58.71875 C 48.296875 -55.507812 48.410156 -52.050781 47.546875 -48.34375 C 47.015625 -46.03125 46.21875 -43.726562 45.15625 -41.4375 C 44.101562 -39.15625 42.632812 -37.171875 40.75 -35.484375 C 38.863281 -33.796875 36.460938 -32.625 33.546875 -31.96875 C 33.222656 -31.894531 32.894531 -31.84375 32.5625 -31.8125 C 32.226562 -31.78125 31.832031 -31.832031 31.375 -31.96875 L 28.09375 -32.859375 C 27.363281 -33.117188 26.847656 -32.96875 26.546875 -32.40625 C 26.253906 -31.84375 26.4375 -31.363281 27.09375 -30.96875 L 31.859375 -28.09375 C 32.453125 -27.695312 32.816406 -27.132812 32.953125 -26.40625 L 36.734375 -1.6875 C 36.859375 -1.09375 36.753906 -0.660156 36.421875 -0.390625 C 36.097656 -0.128906 35.703125 0 35.234375 0 L 24.8125 0 C 23.820312 0 23.296875 -0.460938 23.234375 -1.390625 L 19.359375 -29.484375 C 19.285156 -30.335938 18.914062 -30.75 18.25 -30.71875 C 17.59375 -30.6875 17.234375 -30.207031 17.171875 -29.28125 L 16.375 -18.0625 C 16.375 -17.726562 16.289062 -17.066406 16.125 -16.078125 C 15.957031 -15.085938 15.8125 -14.425781 15.6875 -14.09375 L 12.3125 -1.296875 C 12.113281 -0.429688 11.582031 0 10.71875 0 Z M -13.40625 24.015625 C -14.59375 24.015625 -15.019531 23.453125 -14.6875 22.328125 L -12.203125 13.203125 C -12.003906 12.335938 -11.476562 11.90625 -10.625 11.90625 L 36.03125 11.90625 C 37.21875 11.90625 37.648438 12.46875 37.328125 13.59375 L 34.84375 22.734375 C 34.644531 23.585938 34.113281 24.015625 33.25 24.015625 Z M 22.328125 -40.59375 L 26 -40.59375 C 28.382812 -40.59375 30.285156 -41.304688 31.703125 -42.734375 C 33.128906 -44.160156 34.144531 -46.160156 34.75 -48.734375 C 35.46875 -51.910156 35.3125 -54.257812 34.28125 -55.78125 C 33.257812 -57.3125 31.660156 -58.078125 29.484375 -58.078125 L 26.796875 -58.078125 Z M 22.328125 -40.59375 "/></g></g></g><g fill="#000000" fill-opacity="1"><g transform="translate(556.753898, 283.79303)"><g><path d="M 0.09375 0 C -1.351562 0 -1.914062 -0.726562 -1.59375 -2.1875 L 15.390625 -68.203125 C 15.585938 -69.054688 16.113281 -69.484375 16.96875 -69.484375 L 45.765625 -69.484375 C 46.953125 -69.484375 47.378906 -68.921875 47.046875 -67.796875 L 44.671875 -58.671875 C 44.472656 -57.804688 43.941406 -57.375 43.078125 -57.375 L 27.203125 -57.375 L 23.03125 -41.5 L 35.046875 -41.5 C 36.234375 -41.5 36.660156 -40.9375 36.328125 -39.8125 L 34.140625 -31.46875 C 33.941406 -30.601562 33.414062 -30.171875 32.5625 -30.171875 L 20.15625 -30.171875 L 15.484375 -12.109375 L 30.96875 -12.109375 C 32.15625 -12.109375 32.585938 -11.546875 32.265625 -10.421875 L 29.875 -1.296875 C 29.675781 -0.429688 29.148438 0 28.296875 0 Z M -13.40625 24.015625 C -14.59375 24.015625 -15.019531 23.453125 -14.6875 22.328125 L -12.203125 13.203125 C -12.003906 12.335938 -11.476562 11.90625 -10.625 11.90625 L 29.484375 11.90625 C 30.671875 11.90625 31.097656 12.46875 30.765625 13.59375 L 28.296875 22.734375 C 28.097656 23.585938 27.566406 24.015625 26.703125 24.015625 Z M -13.40625 24.015625 "/></g></g></g><g fill="#000000" fill-opacity="1"><g transform="translate(594.07436, 283.79303)"><g><path d="M -0.203125 0 C -0.734375 0 -1.144531 -0.179688 -1.4375 -0.546875 C -1.738281 -0.910156 -1.820312 -1.359375 -1.6875 -1.890625 L 15.484375 -68.09375 C 15.679688 -69.082031 16.273438 -69.578125 17.265625 -69.578125 L 26.5 -69.484375 C 27.5 -69.484375 28.0625 -68.953125 28.1875 -67.890625 L 32.453125 -27.6875 C 32.523438 -27.03125 32.875 -26.703125 33.5 -26.703125 C 34.125 -26.703125 34.472656 -27.097656 34.546875 -27.890625 L 36.234375 -46.0625 C 36.296875 -46.394531 36.34375 -46.722656 36.375 -47.046875 C 36.414062 -47.378906 36.46875 -47.710938 36.53125 -48.046875 L 41.5 -68 C 41.695312 -68.988281 42.289062 -69.484375 43.28125 -69.484375 L 53.3125 -69.578125 C 53.832031 -69.578125 54.222656 -69.394531 54.484375 -69.03125 C 54.753906 -68.675781 54.828125 -68.234375 54.703125 -67.703125 L 37.515625 -1.296875 C 37.316406 -0.429688 36.691406 0 35.640625 0 L 26.40625 0 C 25.9375 0 25.570312 -0.0976562 25.3125 -0.296875 C 25.050781 -0.492188 24.882812 -0.925781 24.8125 -1.59375 L 20.546875 -41.6875 C 20.484375 -42.476562 20.132812 -42.84375 19.5 -42.78125 C 18.875 -42.71875 18.53125 -42.351562 18.46875 -41.6875 L 16.78125 -23.03125 C 16.707031 -22.757812 16.617188 -22.328125 16.515625 -21.734375 C 16.421875 -21.140625 16.3125 -20.675781 16.1875 -20.34375 L 11.515625 -1.390625 C 11.316406 -0.460938 10.753906 0 9.828125 0 Z M -13.40625 24.015625 C -14.59375 24.015625 -15.019531 23.453125 -14.6875 22.328125 L -12.203125 13.203125 C -12.003906 12.335938 -11.476562 11.90625 -10.625 11.90625 L 40.203125 11.90625 C 41.390625 11.90625 41.820312 12.46875 41.5 13.59375 L 39.015625 22.734375 C 38.816406 23.585938 38.285156 24.015625 37.421875 24.015625 Z M -13.40625 24.015625 "/></g></g></g><g fill="#000000" fill-opacity="1"><g transform="translate(143.397736, 407.439205)"><g><path d="M 16.375 0.796875 C 13.070312 0.460938 10.144531 -0.773438 7.59375 -2.921875 C 5.039062 -5.078125 3.117188 -8.039062 1.828125 -11.8125 C 0.546875 -15.582031 0.132812 -19.953125 0.59375 -24.921875 C 0.65625 -25.773438 1.148438 -26.269531 2.078125 -26.40625 L 11.8125 -28 C 12.9375 -28.195312 13.429688 -27.695312 13.296875 -26.5 C 12.835938 -21.875 13.085938 -18.300781 14.046875 -15.78125 C 15.003906 -13.269531 16.28125 -11.878906 17.875 -11.609375 C 19 -11.484375 19.957031 -11.847656 20.75 -12.703125 C 21.539062 -13.566406 22.066406 -15.085938 22.328125 -17.265625 C 22.660156 -20.515625 22.128906 -23.296875 20.734375 -25.609375 C 19.347656 -27.921875 17.664062 -30.503906 15.6875 -33.359375 C 14.425781 -35.078125 13.25 -36.941406 12.15625 -38.953125 C 11.0625 -40.972656 10.25 -43.238281 9.71875 -45.75 C 9.195312 -48.269531 9.203125 -51.050781 9.734375 -54.09375 C 10.523438 -58.394531 11.894531 -61.738281 13.84375 -64.125 C 15.800781 -66.507812 18.050781 -68.164062 20.59375 -69.09375 C 23.144531 -70.019531 25.710938 -70.414062 28.296875 -70.28125 C 31.265625 -70.144531 33.789062 -69.363281 35.875 -67.9375 C 37.96875 -66.519531 39.625 -64.6875 40.84375 -62.4375 C 42.070312 -60.1875 42.929688 -57.71875 43.421875 -55.03125 C 43.921875 -52.351562 44.070312 -49.726562 43.875 -47.15625 C 43.8125 -46.289062 43.316406 -45.789062 42.390625 -45.65625 L 33.65625 -44.375 C 32.59375 -44.175781 32.0625 -44.671875 32.0625 -45.859375 C 32.195312 -49.765625 31.800781 -52.707031 30.875 -54.6875 C 29.945312 -56.675781 28.820312 -57.703125 27.5 -57.765625 C 26.707031 -57.898438 25.8125 -57.617188 24.8125 -56.921875 C 23.820312 -56.234375 23.195312 -55.03125 22.9375 -53.3125 C 22.46875 -50.726562 22.710938 -48.570312 23.671875 -46.84375 C 24.628906 -45.125 25.9375 -43.140625 27.59375 -40.890625 C 29.050781 -38.972656 30.554688 -36.890625 32.109375 -34.640625 C 33.660156 -32.390625 34.882812 -29.859375 35.78125 -27.046875 C 36.675781 -24.234375 36.828125 -20.941406 36.234375 -17.171875 C 35.765625 -13.734375 34.6875 -10.585938 33 -7.734375 C 31.3125 -4.890625 29.078125 -2.671875 26.296875 -1.078125 C 23.523438 0.503906 20.21875 1.128906 16.375 0.796875 Z M 16.375 0.796875 "/></g></g></g><g fill="#000000" fill-opacity="1"><g transform="translate(183.695899, 407.439205)"><g><path d="M 6.359375 0 C 5.160156 0 4.726562 -0.5625 5.0625 -1.6875 L 19.65625 -58.078125 L 10.03125 -58.078125 C 8.832031 -58.078125 8.398438 -58.640625 8.734375 -59.765625 L 10.921875 -68.203125 C 11.117188 -69.054688 11.644531 -69.484375 12.5 -69.484375 L 46.453125 -69.484375 C 47.648438 -69.484375 48.082031 -68.921875 47.75 -67.796875 L 45.5625 -59.359375 C 45.363281 -58.503906 44.832031 -58.078125 43.96875 -58.078125 L 33.953125 -58.078125 L 19.25 -1.296875 C 19.050781 -0.429688 18.523438 0 17.671875 0 Z M 6.359375 0 "/></g></g></g><g fill="#000000" fill-opacity="1"><g transform="translate(220.718595, 407.439205)"><g><path d="M -5.5625 0 C -6.15625 0 -6.515625 -0.195312 -6.640625 -0.59375 C -6.773438 -0.988281 -6.679688 -1.453125 -6.359375 -1.984375 L 40.296875 -68.59375 C 40.691406 -69.1875 41.320312 -69.484375 42.1875 -69.484375 L 53.90625 -69.484375 C 55.09375 -69.484375 55.519531 -68.921875 55.1875 -67.796875 L 38.015625 -1.296875 C 37.816406 -0.429688 37.289062 0 36.4375 0 L 24.921875 0 C 24.453125 0 24.066406 -0.144531 23.765625 -0.4375 C 23.472656 -0.738281 23.425781 -1.15625 23.625 -1.6875 L 27.296875 -12.3125 L 16.078125 -12.3125 L 8.828125 -0.890625 C 8.503906 -0.296875 7.910156 0 7.046875 0 Z M 23.03125 -23.71875 L 31.46875 -23.71875 L 39.703125 -46.453125 C 40.035156 -47.316406 39.851562 -47.878906 39.15625 -48.140625 C 38.46875 -48.410156 37.921875 -48.179688 37.515625 -47.453125 Z M 23.03125 -23.71875 "/></g></g></g><g fill="#000000" fill-opacity="1"><g transform="translate(269.255056, 407.439205)"><g><path d="M 6.359375 0 C 5.160156 0 4.726562 -0.5625 5.0625 -1.6875 L 19.65625 -58.078125 L 10.03125 -58.078125 C 8.832031 -58.078125 8.398438 -58.640625 8.734375 -59.765625 L 10.921875 -68.203125 C 11.117188 -69.054688 11.644531 -69.484375 12.5 -69.484375 L 46.453125 -69.484375 C 47.648438 -69.484375 48.082031 -68.921875 47.75 -67.796875 L 45.5625 -59.359375 C 45.363281 -58.503906 44.832031 -58.078125 43.96875 -58.078125 L 33.953125 -58.078125 L 19.25 -1.296875 C 19.050781 -0.429688 18.523438 0 17.671875 0 Z M 6.359375 0 "/></g></g></g><g fill="#000000" fill-opacity="1"><g transform="translate(306.277752, 407.439205)"><g><path d="M 6.359375 0 C 5.160156 0 4.726562 -0.5625 5.0625 -1.6875 L 19.65625 -58.078125 L 10.03125 -58.078125 C 8.832031 -58.078125 8.398438 -58.640625 8.734375 -59.765625 L 10.921875 -68.203125 C 11.117188 -69.054688 11.644531 -69.484375 12.5 -69.484375 L 46.453125 -69.484375 C 47.648438 -69.484375 48.082031 -68.921875 47.75 -67.796875 L 45.5625 -59.359375 C 45.363281 -58.503906 44.832031 -58.078125 43.96875 -58.078125 L 33.953125 -58.078125 L 19.25 -1.296875 C 19.050781 -0.429688 18.523438 0 17.671875 0 Z M 6.359375 0 "/></g></g></g><g fill="#000000" fill-opacity="1"><g transform="translate(343.300436, 407.439205)"><g/></g></g><g fill="#000000" fill-opacity="1"><g transform="translate(361.166621, 407.439205)"><g><path d="M -0.390625 0 C -1.585938 0 -2.019531 -0.59375 -1.6875 -1.78125 L 15.484375 -68.203125 C 15.679688 -69.054688 16.210938 -69.484375 17.078125 -69.484375 L 29.484375 -69.484375 C 34.316406 -69.484375 38.203125 -68.488281 41.140625 -66.5 C 44.085938 -64.519531 46.109375 -61.925781 47.203125 -58.71875 C 48.296875 -55.507812 48.410156 -52.050781 47.546875 -48.34375 C 47.015625 -46.03125 46.21875 -43.726562 45.15625 -41.4375 C 44.101562 -39.15625 42.632812 -37.171875 40.75 -35.484375 C 38.863281 -33.796875 36.460938 -32.625 33.546875 -31.96875 C 33.222656 -31.894531 32.894531 -31.84375 32.5625 -31.8125 C 32.226562 -31.78125 31.832031 -31.832031 31.375 -31.96875 L 28.09375 -32.859375 C 27.363281 -33.117188 26.847656 -32.96875 26.546875 -32.40625 C 26.253906 -31.84375 26.4375 -31.363281 27.09375 -30.96875 L 31.859375 -28.09375 C 32.453125 -27.695312 32.816406 -27.132812 32.953125 -26.40625 L 36.734375 -1.6875 C 36.859375 -1.09375 36.753906 -0.660156 36.421875 -0.390625 C 36.097656 -0.128906 35.703125 0 35.234375 0 L 24.8125 0 C 23.820312 0 23.296875 -0.460938 23.234375 -1.390625 L 19.359375 -29.484375 C 19.285156 -30.335938 18.914062 -30.75 18.25 -30.71875 C 17.59375 -30.6875 17.234375 -30.207031 17.171875 -29.28125 L 16.375 -18.0625 C 16.375 -17.726562 16.289062 -17.066406 16.125 -16.078125 C 15.957031 -15.085938 15.8125 -14.425781 15.6875 -14.09375 L 12.3125 -1.296875 C 12.113281 -0.429688 11.582031 0 10.71875 0 Z M 22.328125 -40.59375 L 26 -40.59375 C 28.382812 -40.59375 30.285156 -41.304688 31.703125 -42.734375 C 33.128906 -44.160156 34.144531 -46.160156 34.75 -48.734375 C 35.46875 -51.910156 35.3125 -54.257812 34.28125 -55.78125 C 33.257812 -57.3125 31.660156 -58.078125 29.484375 -58.078125 L 26.796875 -58.078125 Z M 22.328125 -40.59375 "/></g></g></g><g fill="#000000" fill-opacity="1"><g transform="translate(405.038017, 407.439205)"><g><path d="M -5.5625 0 C -6.15625 0 -6.515625 -0.195312 -6.640625 -0.59375 C -6.773438 -0.988281 -6.679688 -1.453125 -6.359375 -1.984375 L 40.296875 -68.59375 C 40.691406 -69.1875 41.320312 -69.484375 42.1875 -69.484375 L 53.90625 -69.484375 C 55.09375 -69.484375 55.519531 -68.921875 55.1875 -67.796875 L 38.015625 -1.296875 C 37.816406 -0.429688 37.289062 0 36.4375 0 L 24.921875 0 C 24.453125 0 24.066406 -0.144531 23.765625 -0.4375 C 23.472656 -0.738281 23.425781 -1.15625 23.625 -1.6875 L 27.296875 -12.3125 L 16.078125 -12.3125 L 8.828125 -0.890625 C 8.503906 -0.296875 7.910156 0 7.046875 0 Z M 23.03125 -23.71875 L 31.46875 -23.71875 L 39.703125 -46.453125 C 40.035156 -47.316406 39.851562 -47.878906 39.15625 -48.140625 C 38.46875 -48.410156 37.921875 -48.179688 37.515625 -47.453125 Z M 23.03125 -23.71875 "/></g></g></g><g fill="#000000" fill-opacity="1"><g transform="translate(453.574478, 407.439205)"><g><path d="M -0.390625 0 C -1.585938 0 -2.019531 -0.5625 -1.6875 -1.6875 L 15.484375 -68.203125 C 15.679688 -69.054688 16.210938 -69.484375 17.078125 -69.484375 L 25.3125 -69.484375 C 32.125 -69.484375 37.382812 -67.941406 41.09375 -64.859375 C 44.800781 -61.785156 47.066406 -57.40625 47.890625 -51.71875 C 48.722656 -46.03125 48.175781 -39.3125 46.25 -31.5625 C 43.675781 -20.90625 39.789062 -12.976562 34.59375 -7.78125 C 29.394531 -2.59375 23.457031 0 16.78125 0 Z M 15.28125 -11.90625 L 17.171875 -11.90625 C 18.960938 -11.90625 20.75 -12.5 22.53125 -13.6875 C 24.320312 -14.882812 26.039062 -16.988281 27.6875 -20 C 29.34375 -23.007812 30.898438 -27.296875 32.359375 -32.859375 C 36.722656 -49.335938 35.398438 -57.578125 28.390625 -57.578125 L 27.09375 -57.578125 Z M 15.28125 -11.90625 "/></g></g></g><g fill="#000000" fill-opacity="1"><g transform="translate(500.721352, 407.439205)"><g><path d="M 4.0625 0 C 3.070312 0 2.644531 -0.5625 2.78125 -1.6875 L 11.015625 -68.203125 C 11.148438 -69.054688 11.679688 -69.484375 12.609375 -69.484375 L 22.9375 -69.484375 C 23.988281 -69.484375 24.414062 -68.921875 24.21875 -67.796875 L 15.984375 -28.78125 C 15.785156 -27.925781 16.03125 -27.460938 16.71875 -27.390625 C 17.414062 -27.328125 17.898438 -27.628906 18.171875 -28.296875 L 33.25 -68.203125 C 33.582031 -69.054688 34.113281 -69.484375 34.84375 -69.484375 L 46.15625 -69.484375 C 47.28125 -69.484375 47.742188 -68.921875 47.546875 -67.796875 L 42.28125 -28.78125 C 42.21875 -27.925781 42.515625 -27.460938 43.171875 -27.390625 C 43.835938 -27.328125 44.269531 -27.628906 44.46875 -28.296875 L 56.390625 -68.203125 C 56.585938 -69.054688 57.113281 -69.484375 57.96875 -69.484375 L 68.984375 -69.484375 C 69.515625 -69.484375 69.910156 -69.332031 70.171875 -69.03125 C 70.441406 -68.738281 70.476562 -68.328125 70.28125 -67.796875 L 43.671875 -1.296875 C 43.347656 -0.429688 42.820312 0 42.09375 0 L 31.375 0 C 30.375 0 29.941406 -0.5625 30.078125 -1.6875 L 35.234375 -42.390625 C 35.367188 -43.378906 35.117188 -43.890625 34.484375 -43.921875 C 33.859375 -43.953125 33.382812 -43.539062 33.0625 -42.6875 L 16.375 -1.296875 C 16.039062 -0.429688 15.515625 0 14.796875 0 Z M 4.0625 0 "/></g></g></g><g fill="#000000" fill-opacity="1"><g transform="translate(560.573042, 407.439205)"><g><path d="M 0.09375 0 C -1.351562 0 -1.914062 -0.726562 -1.59375 -2.1875 L 15.390625 -68.203125 C 15.585938 -69.054688 16.113281 -69.484375 16.96875 -69.484375 L 45.765625 -69.484375 C 46.953125 -69.484375 47.378906 -68.921875 47.046875 -67.796875 L 44.671875 -58.671875 C 44.472656 -57.804688 43.941406 -57.375 43.078125 -57.375 L 27.203125 -57.375 L 23.03125 -41.5 L 35.046875 -41.5 C 36.234375 -41.5 36.660156 -40.9375 36.328125 -39.8125 L 34.140625 -31.46875 C 33.941406 -30.601562 33.414062 -30.171875 32.5625 -30.171875 L 20.15625 -30.171875 L 15.484375 -12.109375 L 30.96875 -12.109375 C 32.15625 -12.109375 32.585938 -11.546875 32.265625 -10.421875 L 29.875 -1.296875 C 29.675781 -0.429688 29.148438 0 28.296875 0 Z M 0.09375 0 "/></g></g></g><g fill="#000000" fill-opacity="1"><g transform="translate(597.89348, 407.439205)"><g><path d="M 17.46875 0.796875 C 10.582031 -0.128906 6.210938 -4.164062 4.359375 -11.3125 C 2.515625 -18.457031 3.210938 -28.054688 6.453125 -40.109375 C 9.359375 -49.765625 13.128906 -57.269531 17.765625 -62.625 C 22.398438 -67.988281 27.726562 -70.570312 33.75 -70.375 C 37.519531 -70.3125 40.675781 -69.316406 43.21875 -67.390625 C 45.769531 -65.472656 47.640625 -62.925781 48.828125 -59.75 C 50.023438 -56.582031 50.394531 -53.046875 49.9375 -49.140625 C 49.863281 -48.273438 49.300781 -47.742188 48.25 -47.546875 L 38.21875 -45.765625 C 36.820312 -45.566406 36.289062 -46.128906 36.625 -47.453125 C 36.957031 -50.691406 36.859375 -53.253906 36.328125 -55.140625 C 35.796875 -57.023438 34.769531 -58.035156 33.25 -58.171875 C 31.269531 -58.304688 29.035156 -56.566406 26.546875 -52.953125 C 24.066406 -49.347656 21.835938 -44.039062 19.859375 -37.03125 C 17.535156 -28.957031 16.488281 -22.703125 16.71875 -18.265625 C 16.957031 -13.828125 18.164062 -11.507812 20.34375 -11.3125 C 21.9375 -11.25 23.492188 -12.078125 25.015625 -13.796875 C 26.535156 -15.515625 27.925781 -18.59375 29.1875 -23.03125 C 29.3125 -23.488281 29.457031 -23.816406 29.625 -24.015625 C 29.789062 -24.210938 29.941406 -24.378906 30.078125 -24.515625 L 36.734375 -29.984375 C 37.253906 -30.378906 37.363281 -30.835938 37.0625 -31.359375 C 36.769531 -31.890625 36.359375 -31.992188 35.828125 -31.671875 L 29.6875 -28.59375 C 29.476562 -28.519531 29.242188 -28.414062 28.984375 -28.28125 C 28.722656 -28.15625 28.492188 -28.0625 28.296875 -28 L 25.3125 -27.5 C 24.050781 -27.300781 23.554688 -27.828125 23.828125 -29.078125 L 25.40625 -37.8125 C 25.539062 -38.28125 25.738281 -38.675781 26 -39 C 26.269531 -39.332031 26.632812 -39.535156 27.09375 -39.609375 L 47.546875 -42.78125 C 48.804688 -42.976562 49.300781 -42.445312 49.03125 -41.1875 C 48.507812 -38.476562 47.984375 -36.195312 47.453125 -34.34375 C 46.921875 -32.488281 46.390625 -30.734375 45.859375 -29.078125 C 43.015625 -19.085938 39.160156 -11.425781 34.296875 -6.09375 C 29.429688 -0.769531 23.820312 1.523438 17.46875 0.796875 Z M 17.46875 0.796875 "/></g></g></g><g fill="#000000" fill-opacity="1"><g transform="translate(645.536611, 407.439205)"><g><path d="M 0.09375 0 C -1.351562 0 -1.914062 -0.726562 -1.59375 -2.1875 L 15.390625 -68.203125 C 15.585938 -69.054688 16.113281 -69.484375 16.96875 -69.484375 L 45.765625 -69.484375 C 46.953125 -69.484375 47.378906 -68.921875 47.046875 -67.796875 L 44.671875 -58.671875 C 44.472656 -57.804688 43.941406 -57.375 43.078125 -57.375 L 27.203125 -57.375 L 23.03125 -41.5 L 35.046875 -41.5 C 36.234375 -41.5 36.660156 -40.9375 36.328125 -39.8125 L 34.140625 -31.46875 C 33.941406 -30.601562 33.414062 -30.171875 32.5625 -30.171875 L 20.15625 -30.171875 L 15.484375 -12.109375 L 30.96875 -12.109375 C 32.15625 -12.109375 32.585938 -11.546875 32.265625 -10.421875 L 29.875 -1.296875 C 29.675781 -0.429688 29.148438 0 28.296875 0 Z M 0.09375 0 "/></g></g></g><g fill="#000000" fill-opacity="1"><g transform="translate(141.266713, 531.08538)"><g><path d="M 23.625 -69.484375 C 24.15625 -69.484375 24.550781 -69.347656 24.8125 -69.078125 C 25.082031 -68.816406 25.117188 -68.390625 24.921875 -67.796875 L 21.34375 -56.1875 L 26.203125 -56.1875 C 27.398438 -56.1875 27.832031 -55.625 27.5 -54.5 L 24.3125 -42.1875 C 24.113281 -41.320312 23.585938 -40.890625 22.734375 -40.890625 L 8.140625 -40.890625 C 7.671875 -40.890625 7.285156 -41.039062 6.984375 -41.34375 C 6.691406 -41.644531 6.644531 -42.054688 6.84375 -42.578125 L 16.484375 -68.203125 C 16.804688 -69.054688 17.332031 -69.484375 18.0625 -69.484375 Z M 44.265625 -69.484375 C 44.796875 -69.484375 45.191406 -69.347656 45.453125 -69.078125 C 45.722656 -68.816406 45.757812 -68.390625 45.5625 -67.796875 L 41.984375 -56.1875 L 46.859375 -56.1875 C 48.046875 -56.1875 48.472656 -55.625 48.140625 -54.5 L 44.96875 -42.1875 C 44.769531 -41.320312 44.238281 -40.890625 43.375 -40.890625 L 28.78125 -40.890625 C 28.320312 -40.890625 27.941406 -41.039062 27.640625 -41.34375 C 27.347656 -41.644531 27.300781 -42.054688 27.5 -42.578125 L 37.125 -68.203125 C 37.457031 -69.054688 37.988281 -69.484375 38.71875 -69.484375 Z M 44.265625 -69.484375 "/></g></g></g><g fill="#000000" fill-opacity="1"><g transform="translate(184.145549, 531.08538)"><g><path d="M -0.390625 0 C -1.585938 0 -2.019531 -0.5625 -1.6875 -1.6875 L 15.484375 -68.203125 C 15.679688 -69.054688 16.210938 -69.484375 17.078125 -69.484375 L 28.6875 -69.484375 C 33.644531 -69.484375 37.726562 -68.457031 40.9375 -66.40625 C 44.15625 -64.351562 46.328125 -61.457031 47.453125 -57.71875 C 48.578125 -53.976562 48.539062 -49.5625 47.34375 -44.46875 C 46.351562 -40.300781 44.75 -36.675781 42.53125 -33.59375 C 40.3125 -30.519531 37.644531 -28.125 34.53125 -26.40625 C 31.425781 -24.6875 28.054688 -23.828125 24.421875 -23.828125 L 18.359375 -23.828125 L 12.5 -1.296875 C 12.300781 -0.429688 11.773438 0 10.921875 0 Z M 21.4375 -35.9375 L 25.8125 -35.9375 C 27.863281 -35.9375 29.648438 -36.863281 31.171875 -38.71875 C 32.691406 -40.570312 33.847656 -43.1875 34.640625 -46.5625 C 35.429688 -50 35.460938 -52.660156 34.734375 -54.546875 C 34.015625 -56.429688 32.59375 -57.375 30.46875 -57.375 L 27 -57.375 Z M 21.4375 -35.9375 "/></g></g></g><g fill="#000000" fill-opacity="1"><g transform="translate(227.520664, 531.08538)"><g><path d="M -0.390625 0 C -1.585938 0 -2.019531 -0.59375 -1.6875 -1.78125 L 15.484375 -68.203125 C 15.679688 -69.054688 16.210938 -69.484375 17.078125 -69.484375 L 29.484375 -69.484375 C 34.316406 -69.484375 38.203125 -68.488281 41.140625 -66.5 C 44.085938 -64.519531 46.109375 -61.925781 47.203125 -58.71875 C 48.296875 -55.507812 48.410156 -52.050781 47.546875 -48.34375 C 47.015625 -46.03125 46.21875 -43.726562 45.15625 -41.4375 C 44.101562 -39.15625 42.632812 -37.171875 40.75 -35.484375 C 38.863281 -33.796875 36.460938 -32.625 33.546875 -31.96875 C 33.222656 -31.894531 32.894531 -31.84375 32.5625 -31.8125 C 32.226562 -31.78125 31.832031 -31.832031 31.375 -31.96875 L 28.09375 -32.859375 C 27.363281 -33.117188 26.847656 -32.96875 26.546875 -32.40625 C 26.253906 -31.84375 26.4375 -31.363281 27.09375 -30.96875 L 31.859375 -28.09375 C 32.453125 -27.695312 32.816406 -27.132812 32.953125 -26.40625 L 36.734375 -1.6875 C 36.859375 -1.09375 36.753906 -0.660156 36.421875 -0.390625 C 36.097656 -0.128906 35.703125 0 35.234375 0 L 24.8125 0 C 23.820312 0 23.296875 -0.460938 23.234375 -1.390625 L 19.359375 -29.484375 C 19.285156 -30.335938 18.914062 -30.75 18.25 -30.71875 C 17.59375 -30.6875 17.234375 -30.207031 17.171875 -29.28125 L 16.375 -18.0625 C 16.375 -17.726562 16.289062 -17.066406 16.125 -16.078125 C 15.957031 -15.085938 15.8125 -14.425781 15.6875 -14.09375 L 12.3125 -1.296875 C 12.113281 -0.429688 11.582031 0 10.71875 0 Z M 22.328125 -40.59375 L 26 -40.59375 C 28.382812 -40.59375 30.285156 -41.304688 31.703125 -42.734375 C 33.128906 -44.160156 34.144531 -46.160156 34.75 -48.734375 C 35.46875 -51.910156 35.3125 -54.257812 34.28125 -55.78125 C 33.257812 -57.3125 31.660156 -58.078125 29.484375 -58.078125 L 26.796875 -58.078125 Z M 22.328125 -40.59375 "/></g></g></g><g fill="#000000" fill-opacity="1"><g transform="translate(271.39206, 531.08538)"><g><path d="M 0.09375 0 C -1.09375 0 -1.519531 -0.5625 -1.1875 -1.6875 L 15.984375 -68.203125 C 16.179688 -69.054688 16.707031 -69.484375 17.5625 -69.484375 L 28.890625 -69.484375 C 30.078125 -69.484375 30.503906 -68.921875 30.171875 -67.796875 L 13 -1.296875 C 12.800781 -0.429688 12.273438 0 11.421875 0 Z M 0.09375 0 "/></g></g></g><g fill="#000000" fill-opacity="1"><g transform="translate(295.41215, 531.08538)"><g><path d="M 18.5625 0.796875 C 13.332031 0.460938 9.441406 -1.390625 6.890625 -4.765625 C 4.347656 -8.140625 3.039062 -12.785156 2.96875 -18.703125 C 2.90625 -24.628906 4.035156 -31.597656 6.359375 -39.609375 C 9.460938 -50.265625 13.296875 -58.140625 17.859375 -63.234375 C 22.429688 -68.328125 27.957031 -70.675781 34.4375 -70.28125 C 39.601562 -70.019531 43.457031 -68.203125 46 -64.828125 C 48.550781 -61.453125 49.859375 -56.785156 49.921875 -50.828125 C 49.992188 -44.867188 48.875 -37.882812 46.5625 -29.875 C 40.40625 -8.632812 31.070312 1.585938 18.5625 0.796875 Z M 19.75 -11.3125 C 22.070312 -10.851562 24.253906 -12.523438 26.296875 -16.328125 C 28.347656 -20.128906 30.5 -25.769531 32.75 -33.25 C 35.207031 -41.65625 36.367188 -47.8125 36.234375 -51.71875 C 36.097656 -55.625 35.070312 -57.773438 33.15625 -58.171875 C 30.90625 -58.628906 28.738281 -56.957031 26.65625 -53.15625 C 24.570312 -49.351562 22.40625 -43.710938 20.15625 -36.234375 C 17.707031 -27.828125 16.546875 -21.671875 16.671875 -17.765625 C 16.804688 -13.859375 17.832031 -11.707031 19.75 -11.3125 Z M 19.75 -11.3125 "/></g></g></g><g fill="#000000" fill-opacity="1"><g transform="translate(343.353081, 531.08538)"><g><path d="M -0.390625 0 C -1.585938 0 -2.019531 -0.59375 -1.6875 -1.78125 L 15.484375 -68.203125 C 15.679688 -69.054688 16.210938 -69.484375 17.078125 -69.484375 L 29.484375 -69.484375 C 34.316406 -69.484375 38.203125 -68.488281 41.140625 -66.5 C 44.085938 -64.519531 46.109375 -61.925781 47.203125 -58.71875 C 48.296875 -55.507812 48.410156 -52.050781 47.546875 -48.34375 C 47.015625 -46.03125 46.21875 -43.726562 45.15625 -41.4375 C 44.101562 -39.15625 42.632812 -37.171875 40.75 -35.484375 C 38.863281 -33.796875 36.460938 -32.625 33.546875 -31.96875 C 33.222656 -31.894531 32.894531 -31.84375 32.5625 -31.8125 C 32.226562 -31.78125 31.832031 -31.832031 31.375 -31.96875 L 28.09375 -32.859375 C 27.363281 -33.117188 26.847656 -32.96875 26.546875 -32.40625 C 26.253906 -31.84375 26.4375 -31.363281 27.09375 -30.96875 L 31.859375 -28.09375 C 32.453125 -27.695312 32.816406 -27.132812 32.953125 -26.40625 L 36.734375 -1.6875 C 36.859375 -1.09375 36.753906 -0.660156 36.421875 -0.390625 C 36.097656 -0.128906 35.703125 0 35.234375 0 L 24.8125 0 C 23.820312 0 23.296875 -0.460938 23.234375 -1.390625 L 19.359375 -29.484375 C 19.285156 -30.335938 18.914062 -30.75 18.25 -30.71875 C 17.59375 -30.6875 17.234375 -30.207031 17.171875 -29.28125 L 16.375 -18.0625 C 16.375 -17.726562 16.289062 -17.066406 16.125 -16.078125 C 15.957031 -15.085938 15.8125 -14.425781 15.6875 -14.09375 L 12.3125 -1.296875 C 12.113281 -0.429688 11.582031 0 10.71875 0 Z M 22.328125 -40.59375 L 26 -40.59375 C 28.382812 -40.59375 30.285156 -41.304688 31.703125 -42.734375 C 33.128906 -44.160156 34.144531 -46.160156 34.75 -48.734375 C 35.46875 -51.910156 35.3125 -54.257812 34.28125 -55.78125 C 33.257812 -57.3125 31.660156 -58.078125 29.484375 -58.078125 L 26.796875 -58.078125 Z M 22.328125 -40.59375 "/></g></g></g><g fill="#000000" fill-opacity="1"><g transform="translate(387.224476, 531.08538)"><g><path d="M 0.09375 0 C -1.09375 0 -1.519531 -0.5625 -1.1875 -1.6875 L 15.984375 -68.203125 C 16.179688 -69.054688 16.707031 -69.484375 17.5625 -69.484375 L 28.890625 -69.484375 C 30.078125 -69.484375 30.503906 -68.921875 30.171875 -67.796875 L 13 -1.296875 C 12.800781 -0.429688 12.273438 0 11.421875 0 Z M 0.09375 0 "/></g></g></g><g fill="#000000" fill-opacity="1"><g transform="translate(411.244567, 531.08538)"><g><path d="M 16.375 0.796875 C 13.070312 0.460938 10.144531 -0.773438 7.59375 -2.921875 C 5.039062 -5.078125 3.117188 -8.039062 1.828125 -11.8125 C 0.546875 -15.582031 0.132812 -19.953125 0.59375 -24.921875 C 0.65625 -25.773438 1.148438 -26.269531 2.078125 -26.40625 L 11.8125 -28 C 12.9375 -28.195312 13.429688 -27.695312 13.296875 -26.5 C 12.835938 -21.875 13.085938 -18.300781 14.046875 -15.78125 C 15.003906 -13.269531 16.28125 -11.878906 17.875 -11.609375 C 19 -11.484375 19.957031 -11.847656 20.75 -12.703125 C 21.539062 -13.566406 22.066406 -15.085938 22.328125 -17.265625 C 22.660156 -20.515625 22.128906 -23.296875 20.734375 -25.609375 C 19.347656 -27.921875 17.664062 -30.503906 15.6875 -33.359375 C 14.425781 -35.078125 13.25 -36.941406 12.15625 -38.953125 C 11.0625 -40.972656 10.25 -43.238281 9.71875 -45.75 C 9.195312 -48.269531 9.203125 -51.050781 9.734375 -54.09375 C 10.523438 -58.394531 11.894531 -61.738281 13.84375 -64.125 C 15.800781 -66.507812 18.050781 -68.164062 20.59375 -69.09375 C 23.144531 -70.019531 25.710938 -70.414062 28.296875 -70.28125 C 31.265625 -70.144531 33.789062 -69.363281 35.875 -67.9375 C 37.96875 -66.519531 39.625 -64.6875 40.84375 -62.4375 C 42.070312 -60.1875 42.929688 -57.71875 43.421875 -55.03125 C 43.921875 -52.351562 44.070312 -49.726562 43.875 -47.15625 C 43.8125 -46.289062 43.316406 -45.789062 42.390625 -45.65625 L 33.65625 -44.375 C 32.59375 -44.175781 32.0625 -44.671875 32.0625 -45.859375 C 32.195312 -49.765625 31.800781 -52.707031 30.875 -54.6875 C 29.945312 -56.675781 28.820312 -57.703125 27.5 -57.765625 C 26.707031 -57.898438 25.8125 -57.617188 24.8125 -56.921875 C 23.820312 -56.234375 23.195312 -55.03125 22.9375 -53.3125 C 22.46875 -50.726562 22.710938 -48.570312 23.671875 -46.84375 C 24.628906 -45.125 25.9375 -43.140625 27.59375 -40.890625 C 29.050781 -38.972656 30.554688 -36.890625 32.109375 -34.640625 C 33.660156 -32.390625 34.882812 -29.859375 35.78125 -27.046875 C 36.675781 -24.234375 36.828125 -20.941406 36.234375 -17.171875 C 35.765625 -13.734375 34.6875 -10.585938 33 -7.734375 C 31.3125 -4.890625 29.078125 -2.671875 26.296875 -1.078125 C 23.523438 0.503906 20.21875 1.128906 16.375 0.796875 Z M 16.375 0.796875 "/></g></g></g><g fill="#000000" fill-opacity="1"><g transform="translate(451.54273, 531.08538)"><g><path d="M 0.09375 0 C -1.09375 0 -1.519531 -0.5625 -1.1875 -1.6875 L 15.984375 -68.203125 C 16.179688 -69.054688 16.707031 -69.484375 17.5625 -69.484375 L 28.890625 -69.484375 C 30.078125 -69.484375 30.503906 -68.921875 30.171875 -67.796875 L 13 -1.296875 C 12.800781 -0.429688 12.273438 0 11.421875 0 Z M 0.09375 0 "/></g></g></g><g fill="#000000" fill-opacity="1"><g transform="translate(475.56282, 531.08538)"><g><path d="M 0.09375 0 C -1.351562 0 -1.914062 -0.726562 -1.59375 -2.1875 L 15.390625 -68.203125 C 15.585938 -69.054688 16.113281 -69.484375 16.96875 -69.484375 L 45.765625 -69.484375 C 46.953125 -69.484375 47.378906 -68.921875 47.046875 -67.796875 L 44.671875 -58.671875 C 44.472656 -57.804688 43.941406 -57.375 43.078125 -57.375 L 27.203125 -57.375 L 23.03125 -41.5 L 35.046875 -41.5 C 36.234375 -41.5 36.660156 -40.9375 36.328125 -39.8125 L 34.140625 -31.46875 C 33.941406 -30.601562 33.414062 -30.171875 32.5625 -30.171875 L 20.15625 -30.171875 L 15.484375 -12.109375 L 30.96875 -12.109375 C 32.15625 -12.109375 32.585938 -11.546875 32.265625 -10.421875 L 29.875 -1.296875 C 29.675781 -0.429688 29.148438 0 28.296875 0 Z M 0.09375 0 "/></g></g></g><g fill="#000000" fill-opacity="1"><g transform="translate(512.883282, 531.08538)"><g><path d="M -0.390625 0 C -1.585938 0 -2.019531 -0.59375 -1.6875 -1.78125 L 15.484375 -68.203125 C 15.679688 -69.054688 16.210938 -69.484375 17.078125 -69.484375 L 29.484375 -69.484375 C 34.316406 -69.484375 38.203125 -68.488281 41.140625 -66.5 C 44.085938 -64.519531 46.109375 -61.925781 47.203125 -58.71875 C 48.296875 -55.507812 48.410156 -52.050781 47.546875 -48.34375 C 47.015625 -46.03125 46.21875 -43.726562 45.15625 -41.4375 C 44.101562 -39.15625 42.632812 -37.171875 40.75 -35.484375 C 38.863281 -33.796875 36.460938 -32.625 33.546875 -31.96875 C 33.222656 -31.894531 32.894531 -31.84375 32.5625 -31.8125 C 32.226562 -31.78125 31.832031 -31.832031 31.375 -31.96875 L 28.09375 -32.859375 C 27.363281 -33.117188 26.847656 -32.96875 26.546875 -32.40625 C 26.253906 -31.84375 26.4375 -31.363281 27.09375 -30.96875 L 31.859375 -28.09375 C 32.453125 -27.695312 32.816406 -27.132812 32.953125 -26.40625 L 36.734375 -1.6875 C 36.859375 -1.09375 36.753906 -0.660156 36.421875 -0.390625 C 36.097656 -0.128906 35.703125 0 35.234375 0 L 24.8125 0 C 23.820312 0 23.296875 -0.460938 23.234375 -1.390625 L 19.359375 -29.484375 C 19.285156 -30.335938 18.914062 -30.75 18.25 -30.71875 C 17.59375 -30.6875 17.234375 -30.207031 17.171875 -29.28125 L 16.375 -18.0625 C 16.375 -17.726562 16.289062 -17.066406 16.125 -16.078125 C 15.957031 -15.085938 15.8125 -14.425781 15.6875 -14.09375 L 12.3125 -1.296875 C 12.113281 -0.429688 11.582031 0 10.71875 0 Z M 22.328125 -40.59375 L 26 -40.59375 C 28.382812 -40.59375 30.285156 -41.304688 31.703125 -42.734375 C 33.128906 -44.160156 34.144531 -46.160156 34.75 -48.734375 C 35.46875 -51.910156 35.3125 -54.257812 34.28125 -55.78125 C 33.257812 -57.3125 31.660156 -58.078125 29.484375 -58.078125 L 26.796875 -58.078125 Z M 22.328125 -40.59375 "/></g></g></g><g fill="#000000" fill-opacity="1"><g transform="translate(556.754654, 531.08538)"><g><path d="M 0.09375 0 C -1.351562 0 -1.914062 -0.726562 -1.59375 -2.1875 L 15.390625 -68.203125 C 15.585938 -69.054688 16.113281 -69.484375 16.96875 -69.484375 L 45.765625 -69.484375 C 46.953125 -69.484375 47.378906 -68.921875 47.046875 -67.796875 L 44.671875 -58.671875 C 44.472656 -57.804688 43.941406 -57.375 43.078125 -57.375 L 27.203125 -57.375 L 23.03125 -41.5 L 35.046875 -41.5 C 36.234375 -41.5 36.660156 -40.9375 36.328125 -39.8125 L 34.140625 -31.46875 C 33.941406 -30.601562 33.414062 -30.171875 32.5625 -30.171875 L 20.15625 -30.171875 L 15.484375 -12.109375 L 30.96875 -12.109375 C 32.15625 -12.109375 32.585938 -11.546875 32.265625 -10.421875 L 29.875 -1.296875 C 29.675781 -0.429688 29.148438 0 28.296875 0 Z M 0.09375 0 "/></g></g></g><g fill="#000000" fill-opacity="1"><g transform="translate(594.075092, 531.08538)"><g><path d="M -0.203125 0 C -0.734375 0 -1.144531 -0.179688 -1.4375 -0.546875 C -1.738281 -0.910156 -1.820312 -1.359375 -1.6875 -1.890625 L 15.484375 -68.09375 C 15.679688 -69.082031 16.273438 -69.578125 17.265625 -69.578125 L 26.5 -69.484375 C 27.5 -69.484375 28.0625 -68.953125 28.1875 -67.890625 L 32.453125 -27.6875 C 32.523438 -27.03125 32.875 -26.703125 33.5 -26.703125 C 34.125 -26.703125 34.472656 -27.097656 34.546875 -27.890625 L 36.234375 -46.0625 C 36.296875 -46.394531 36.34375 -46.722656 36.375 -47.046875 C 36.414062 -47.378906 36.46875 -47.710938 36.53125 -48.046875 L 41.5 -68 C 41.695312 -68.988281 42.289062 -69.484375 43.28125 -69.484375 L 53.3125 -69.578125 C 53.832031 -69.578125 54.222656 -69.394531 54.484375 -69.03125 C 54.753906 -68.675781 54.828125 -68.234375 54.703125 -67.703125 L 37.515625 -1.296875 C 37.316406 -0.429688 36.691406 0 35.640625 0 L 26.40625 0 C 25.9375 0 25.570312 -0.0976562 25.3125 -0.296875 C 25.050781 -0.492188 24.882812 -0.925781 24.8125 -1.59375 L 20.546875 -41.6875 C 20.484375 -42.476562 20.132812 -42.84375 19.5 -42.78125 C 18.875 -42.71875 18.53125 -42.351562 18.46875 -41.6875 L 16.78125 -23.03125 C 16.707031 -22.757812 16.617188 -22.328125 16.515625 -21.734375 C 16.421875 -21.140625 16.3125 -20.675781 16.1875 -20.34375 L 11.515625 -1.390625 C 11.316406 -0.460938 10.753906 0 9.828125 0 Z M -0.203125 0 "/></g></g></g><g fill="#000000" fill-opacity="1"><g transform="translate(642.115274, 531.08538)"><g><path d="M 34.4375 -40.890625 C 33.976562 -40.890625 33.597656 -41.019531 33.296875 -41.28125 C 33.003906 -41.550781 32.957031 -41.984375 33.15625 -42.578125 L 36.734375 -54.203125 L 31.859375 -54.203125 C 30.671875 -54.203125 30.242188 -54.765625 30.578125 -55.890625 L 33.75 -68.203125 C 33.945312 -69.054688 34.476562 -69.484375 35.34375 -69.484375 L 49.9375 -69.484375 C 50.457031 -69.484375 50.847656 -69.332031 51.109375 -69.03125 C 51.378906 -68.738281 51.414062 -68.328125 51.21875 -67.796875 L 41.59375 -42.1875 C 41.257812 -41.320312 40.726562 -40.890625 40 -40.890625 Z M 13.796875 -40.890625 C 13.335938 -40.890625 12.957031 -41.019531 12.65625 -41.28125 C 12.351562 -41.550781 12.300781 -41.984375 12.5 -42.578125 L 16.078125 -54.203125 L 11.21875 -54.203125 C 10.03125 -54.203125 9.597656 -54.765625 9.921875 -55.890625 L 13.109375 -68.203125 C 13.304688 -69.054688 13.832031 -69.484375 14.6875 -69.484375 L 29.28125 -69.484375 C 29.8125 -69.484375 30.207031 -69.332031 30.46875 -69.03125 C 30.738281 -68.738281 30.773438 -68.328125 30.578125 -67.796875 L 20.9375 -42.1875 C 20.613281 -41.320312 20.085938 -40.890625 19.359375 -40.890625 Z M 13.796875 -40.890625 "/></g></g></g></svg>