<svg xmlns="http://www.w3.org/2000/svg" xmlns:xlink="http://www.w3.org/1999/xlink" width="1122" zoomAndPan="magnify" viewBox="0 0 841.92 595.499987" height="793" preserveAspectRatio="xMidYMid meet" version="1.0"><defs><g/><clipPath id="a766f8c3f7"><path d="M 0.3125 0 L 841.527344 0 L 841.527344 595 L 0.3125 595 Z M 0.3125 0 " clip-rule="nonzero"/></clipPath><clipPath id="2a0d3fab92"><path d="M 633.359375 476.023438 L 810.957031 476.023438 L 810.957031 556.207031 L 633.359375 556.207031 Z M 633.359375 476.023438 " clip-rule="nonzero"/></clipPath><clipPath id="2cd4329743"><path d="M 0.3125 351.78125 L 212.429688 351.78125 L 212.429688 461.941406 L 0.3125 461.941406 Z M 0.3125 351.78125 " clip-rule="nonzero"/></clipPath><clipPath id="da8fe6478f"><path d="M 206.761719 349.167969 L 439.8125 349.167969 L 439.8125 459.324219 L 206.761719 459.324219 Z M 206.761719 349.167969 " clip-rule="nonzero"/></clipPath><clipPath id="36f8088069"><path d="M 431.335938 347.644531 L 664.390625 347.644531 L 664.390625 457.800781 L 431.335938 457.800781 Z M 431.335938 347.644531 " clip-rule="nonzero"/></clipPath><clipPath id="82a397f8e7"><path d="M 654.167969 351.78125 L 841.527344 351.78125 L 841.527344 461.941406 L 654.167969 461.941406 Z M 654.167969 351.78125 " clip-rule="nonzero"/></clipPath><clipPath id="550fbb30c2"><path d="M 0.3125 468.703125 L 164.410156 468.703125 L 164.410156 578.859375 L 0.3125 578.859375 Z M 0.3125 468.703125 " clip-rule="nonzero"/></clipPath><clipPath id="c441cd9b10"><path d="M 158.738281 466.089844 L 391.792969 466.089844 L 391.792969 576.246094 L 158.738281 576.246094 Z M 158.738281 466.089844 " clip-rule="nonzero"/></clipPath><clipPath id="76afb9ddf9"><path d="M 383.316406 464.5625 L 616.371094 464.5625 L 616.371094 574.722656 L 383.316406 574.722656 Z M 383.316406 464.5625 " clip-rule="nonzero"/></clipPath></defs><g clip-path="url(#a766f8c3f7)"><path fill="#ffffff" d="M 0.3125 0 L 841.855469 0 L 841.855469 595 L 0.3125 595 Z M 0.3125 0 " fill-opacity="1" fill-rule="nonzero"/><path fill="#ffffff" d="M 0.3125 0 L 841.855469 0 L 841.855469 595 L 0.3125 595 Z M 0.3125 0 " fill-opacity="1" fill-rule="nonzero"/></g><g clip-path="url(#2a0d3fab92)"><path fill="#000000" d="M 796.320312 511.375 C 802.625 511.804688 807.167969 505.972656 809.570312 495.972656 C 809.945312 494.367188 810.375 492.65625 810.800781 490.035156 C 810.90625 489.394531 810.585938 489.128906 810 489.234375 L 799.898438 491.425781 C 799.472656 491.535156 799.207031 491.855469 799.152344 492.28125 L 798.5625 496.613281 C 798.457031 497.257812 798.777344 497.523438 799.367188 497.363281 L 800.59375 496.988281 C 800.808594 496.933594 800.96875 496.882812 801.183594 496.773438 L 804.386719 495.011719 C 805.296875 494.527344 805.832031 495.652344 805.136719 496.242188 L 802.039062 498.699219 C 801.769531 498.914062 801.664062 499.128906 801.554688 499.503906 C 800.542969 503.621094 799.042969 505.386719 797.441406 505.332031 C 795.304688 505.277344 794.664062 500.839844 796.535156 492.765625 C 798.136719 485.8125 800.648438 481.960938 802.570312 482.066406 C 803.960938 482.121094 804.546875 484.367188 804.386719 487.578125 C 804.335938 488.164062 804.65625 488.484375 805.242188 488.324219 L 810.160156 487.203125 C 810.585938 487.09375 810.855469 486.828125 810.90625 486.347656 C 811.335938 480.304688 807.96875 475.917969 802.519531 476.023438 C 796.585938 476.132812 792.203125 481.960938 789.90625 491.640625 C 787.234375 503.566406 789.53125 510.894531 796.320312 511.375 Z M 753.515625 486.347656 L 761.050781 485.863281 C 761.480469 485.8125 761.800781 485.542969 761.90625 485.117188 L 763.347656 478.269531 C 763.457031 477.683594 763.136719 477.363281 762.546875 477.523438 L 754.640625 479.609375 C 754.210938 479.714844 753.996094 479.929688 753.890625 480.410156 L 752.820312 485.492188 C 752.714844 486.027344 752.980469 486.398438 753.515625 486.347656 Z M 786.273438 550.84375 C 791.882812 551.003906 795.035156 546.617188 795.519531 541.484375 C 796.050781 535.976562 792.898438 532.875 790.65625 530.09375 C 788.945312 527.953125 787.769531 526.671875 788.035156 524.101562 C 788.195312 522.390625 789.371094 521.75 790.175781 521.804688 C 791.457031 521.855469 792.847656 523.621094 792.847656 528.167969 C 792.847656 528.757812 793.21875 529.023438 793.753906 528.917969 L 797.707031 528.0625 C 798.136719 527.953125 798.402344 527.6875 798.457031 527.203125 C 798.671875 521.375 796.105469 515.707031 790.226562 515.707031 C 786.488281 515.707031 782.371094 517.792969 781.570312 524.101562 C 781.035156 528.59375 783.066406 531.699219 784.992188 534.105469 C 787.128906 536.777344 788.839844 538.648438 788.679688 541.804688 C 788.570312 543.945312 787.714844 544.746094 786.648438 544.691406 C 784.9375 544.585938 783.601562 541.964844 784.082031 537.152344 C 784.136719 536.511719 783.761719 536.242188 783.226562 536.351562 L 778.683594 537.3125 C 778.257812 537.417969 777.992188 537.6875 777.9375 538.167969 C 777.457031 545.871094 781.304688 550.683594 786.273438 550.84375 Z M 748.921875 513.996094 L 754.476562 513.621094 C 754.90625 513.566406 755.226562 513.300781 755.332031 512.871094 L 760.089844 489.5 C 760.195312 488.96875 759.875 488.59375 759.339844 488.644531 L 753.785156 488.96875 C 753.304688 489.019531 753.035156 489.289062 752.929688 489.714844 L 748.171875 513.140625 C 748.066406 513.675781 748.386719 514.050781 748.921875 513.996094 Z M 760.410156 552.019531 L 773.179688 551.21875 C 773.664062 551.164062 773.929688 550.898438 774.035156 550.46875 L 774.890625 546.136719 C 775 545.601562 774.675781 545.226562 774.144531 545.28125 L 767.890625 545.710938 L 769.707031 536.832031 L 775.691406 536.457031 C 776.171875 536.402344 776.441406 536.136719 776.546875 535.707031 L 777.402344 531.375 C 777.507812 530.839844 777.242188 530.46875 776.707031 530.519531 L 770.882812 530.894531 L 772.488281 523.140625 L 778.953125 522.710938 C 779.433594 522.660156 779.699219 522.390625 779.808594 521.964844 L 780.664062 517.578125 C 780.769531 517.042969 780.503906 516.667969 779.96875 516.722656 L 767.195312 517.578125 C 766.714844 517.632812 766.449219 517.898438 766.339844 518.328125 L 759.660156 551.164062 C 759.554688 551.699219 759.875 552.074219 760.410156 552.019531 Z M 734.277344 515.332031 C 740.585938 515.761719 745.125 509.929688 747.53125 499.929688 C 747.90625 498.324219 748.332031 496.613281 748.761719 493.992188 C 748.867188 493.351562 748.546875 493.085938 747.960938 493.191406 L 737.859375 495.332031 C 737.433594 495.4375 737.164062 495.757812 737.113281 496.1875 L 736.523438 500.519531 C 736.417969 501.160156 736.738281 501.429688 737.324219 501.265625 L 738.554688 500.945312 C 738.769531 500.894531 738.929688 500.839844 739.140625 500.734375 L 742.402344 498.96875 C 743.308594 498.488281 743.789062 499.664062 743.097656 500.199219 L 740.050781 502.550781 C 739.730469 502.765625 739.570312 503.085938 739.460938 503.460938 C 738.5 507.578125 737.003906 509.34375 735.402344 509.289062 C 733.265625 509.234375 732.621094 504.796875 734.492188 496.722656 C 736.097656 489.769531 738.609375 485.917969 740.53125 486.027344 C 741.921875 486.078125 742.507812 488.324219 742.347656 491.535156 C 742.292969 492.121094 742.617188 492.441406 743.203125 492.28125 L 748.121094 491.160156 C 748.546875 491.054688 748.8125 490.785156 748.867188 490.304688 C 749.296875 484.261719 745.929688 479.875 740.476562 479.984375 C 734.546875 480.089844 730.164062 485.917969 727.867188 495.597656 C 725.195312 507.523438 727.492188 514.851562 734.277344 515.332031 Z M 744.433594 553.144531 L 750.203125 552.769531 C 750.632812 552.714844 750.898438 552.5 751.058594 552.074219 L 763.5625 518.808594 C 763.777344 518.273438 763.507812 517.847656 762.921875 517.898438 L 757.148438 518.273438 C 756.722656 518.328125 756.457031 518.542969 756.296875 518.96875 L 743.789062 552.234375 C 743.578125 552.769531 743.84375 553.195312 744.433594 553.144531 Z M 701.363281 517.097656 L 706.757812 516.777344 C 707.238281 516.722656 707.453125 516.457031 707.5625 516.027344 L 708.574219 510.734375 C 708.628906 510.414062 708.683594 510.089844 708.683594 509.769531 L 709.109375 496.292969 C 709.109375 495.492188 710.070312 495.382812 710.179688 496.1875 L 713.011719 515.601562 C 713.066406 516.132812 713.386719 516.347656 713.867188 516.296875 L 719.53125 515.921875 C 720.011719 515.867188 720.277344 515.601562 720.386719 515.171875 L 727.066406 482.28125 C 727.171875 481.746094 726.851562 481.371094 726.316406 481.425781 L 720.972656 481.800781 C 720.492188 481.855469 720.277344 482.121094 720.171875 482.550781 L 718.78125 489.875 C 718.730469 490.195312 718.675781 490.519531 718.675781 490.839844 L 718.300781 506.082031 C 718.300781 506.882812 717.285156 506.988281 717.179688 506.292969 L 713.707031 483.03125 C 713.652344 482.550781 713.332031 482.28125 712.851562 482.335938 L 708.148438 482.601562 C 707.667969 482.65625 707.402344 482.921875 707.292969 483.351562 L 700.613281 516.242188 C 700.507812 516.777344 700.828125 517.152344 701.363281 517.097656 Z M 729.84375 554.160156 L 735.507812 553.785156 C 735.9375 553.730469 736.203125 553.515625 736.363281 553.089844 L 747.105469 524.585938 L 751.003906 524.316406 C 751.433594 524.261719 751.699219 524.050781 751.859375 523.621094 L 753.355469 519.503906 C 753.570312 518.96875 753.304688 518.542969 752.714844 518.59375 L 737.433594 519.609375 C 737.003906 519.664062 736.738281 519.878906 736.578125 520.304688 L 735.082031 524.425781 C 734.867188 524.957031 735.1875 525.386719 735.777344 525.332031 L 739.730469 525.066406 L 729.203125 553.25 C 728.988281 553.785156 729.257812 554.210938 729.84375 554.160156 Z M 719.050781 554.855469 L 724.605469 554.480469 C 725.089844 554.425781 725.355469 554.160156 725.460938 553.730469 L 732.140625 520.839844 C 732.25 520.304688 731.929688 519.933594 731.394531 519.984375 L 725.835938 520.359375 C 725.355469 520.414062 725.089844 520.679688 724.980469 521.109375 L 718.300781 554 C 718.195312 554.53125 718.515625 554.90625 719.050781 554.855469 Z M 687.574219 507.257812 L 694.308594 493.726562 C 694.734375 492.871094 695.859375 493.136719 695.589844 494.101562 L 691.691406 506.9375 Z M 674.375 518.863281 L 680.148438 518.488281 C 680.574219 518.433594 680.84375 518.273438 681.054688 517.898438 L 684.15625 513.140625 L 689.925781 512.660156 C 689.875 512.820312 689.875 512.980469 689.820312 513.140625 L 689.019531 517.042969 C 688.910156 517.578125 689.230469 517.953125 689.765625 517.898438 L 694.949219 517.523438 C 695.378906 517.472656 695.699219 517.203125 695.804688 516.777344 L 702.484375 483.941406 C 702.589844 483.40625 702.269531 483.03125 701.734375 483.085938 L 696.019531 483.40625 C 695.589844 483.40625 695.324219 483.671875 695.109375 483.992188 L 673.789062 517.953125 C 673.46875 518.488281 673.734375 518.914062 674.375 518.863281 Z M 705.742188 556.191406 C 711.40625 556.511719 715.628906 551.589844 717.605469 542.445312 C 717.820312 541.429688 717.5 540.789062 716.644531 541.003906 L 711.730469 542.125 C 711.300781 542.234375 711.085938 542.5 710.980469 542.980469 C 709.964844 547.847656 708.308594 550.308594 706.707031 550.203125 C 704.78125 550.09375 704.085938 546.296875 706.066406 537.953125 C 707.828125 530.46875 710.070312 526.511719 712.050781 526.832031 C 713.386719 527.042969 713.652344 529.398438 712.742188 534.15625 C 712.636719 534.800781 712.957031 535.121094 713.492188 535.011719 L 718.675781 533.945312 C 719.101562 533.835938 719.371094 533.570312 719.476562 533.140625 C 720.277344 529.078125 719.746094 520.789062 712.210938 520.789062 C 706.332031 520.789062 701.628906 526.082031 699.171875 536.671875 C 696.390625 548.597656 699.0625 555.816406 705.742188 556.191406 Z M 654.445312 520.199219 L 659.789062 519.824219 C 660.214844 519.769531 660.535156 519.503906 660.644531 519.074219 L 663.046875 507.3125 L 668.125 506.132812 L 665.613281 518.542969 C 665.503906 519.074219 665.828125 519.449219 666.359375 519.398438 L 671.703125 519.023438 C 672.132812 518.96875 672.453125 518.703125 672.558594 518.273438 L 679.238281 485.4375 C 679.347656 484.902344 679.023438 484.527344 678.492188 484.582031 L 673.148438 484.902344 C 672.667969 484.957031 672.398438 485.222656 672.292969 485.652344 L 669.40625 499.875 L 664.332031 501 L 667.324219 486.1875 C 667.429688 485.652344 667.109375 485.277344 666.574219 485.332031 L 661.230469 485.703125 C 660.804688 485.757812 660.484375 486.027344 660.375 486.453125 L 653.695312 519.34375 C 653.589844 519.878906 653.910156 520.253906 654.445312 520.199219 Z M 641.03125 521.429688 C 646.695312 521.75 650.917969 516.828125 652.949219 507.363281 C 653.109375 506.667969 652.789062 506.027344 651.984375 506.1875 L 647.015625 507.363281 C 646.589844 507.472656 646.375 507.738281 646.320312 507.898438 C 645.253906 513.085938 643.597656 515.546875 641.992188 515.441406 C 640.070312 515.332031 639.375 511.535156 641.351562 503.191406 C 643.117188 495.707031 645.359375 491.746094 647.335938 492.070312 C 648.671875 492.28125 648.941406 494.636719 648.03125 499.394531 C 647.925781 500.039062 648.246094 500.359375 648.832031 500.25 L 653.964844 499.183594 C 654.390625 499.074219 654.65625 498.808594 654.765625 498.378906 C 655.566406 494.316406 655.03125 486.027344 647.496094 486.027344 C 641.621094 486.027344 636.917969 491.320312 634.457031 501.910156 C 631.679688 513.835938 634.351562 521.054688 641.03125 521.429688 Z M 758.699219 513.40625 L 764.472656 513.03125 C 764.898438 512.980469 765.164062 512.765625 765.324219 512.335938 L 767.625 505.972656 C 767.785156 505.597656 767.835938 505.4375 767.890625 505.171875 L 769.921875 492.871094 C 770.082031 491.910156 771.152344 491.910156 771.152344 492.871094 L 771.097656 511.804688 C 771.097656 512.335938 771.363281 512.605469 771.898438 512.550781 L 777.296875 512.230469 C 777.722656 512.230469 778.042969 511.964844 778.203125 511.589844 L 791.511719 478.164062 C 791.722656 477.628906 791.402344 477.203125 790.816406 477.253906 L 785.152344 477.683594 C 784.722656 477.734375 784.402344 477.949219 784.242188 478.324219 L 780.179688 488.644531 C 779.96875 489.179688 779.808594 489.609375 779.699219 490.25 L 777.617188 500.894531 C 777.457031 501.695312 776.441406 501.640625 776.441406 500.839844 L 776.65625 479.074219 C 776.65625 478.539062 776.386719 478.21875 775.851562 478.269531 L 771.152344 478.539062 C 770.722656 478.539062 770.457031 478.804688 770.296875 479.234375 L 758.058594 512.5 C 757.84375 513.03125 758.113281 513.460938 758.699219 513.40625 Z M 758.699219 513.40625 " fill-opacity="1" fill-rule="nonzero"/></g><g fill="#000000" fill-opacity="1"><g transform="translate(68.044645, 299.9785)"><g><path d="M -0.53125 0 C -2.113281 0 -2.6875 -0.796875 -2.25 -2.390625 L 20.65625 -91 C 20.925781 -92.144531 21.632812 -92.71875 22.78125 -92.71875 L 39.34375 -92.71875 C 45.78125 -92.71875 50.960938 -91.390625 54.890625 -88.734375 C 58.828125 -86.085938 61.523438 -82.625 62.984375 -78.34375 C 64.441406 -74.0625 64.59375 -69.445312 63.4375 -64.5 C 62.738281 -61.414062 61.679688 -58.347656 60.265625 -55.296875 C 58.847656 -52.253906 56.878906 -49.601562 54.359375 -47.34375 C 51.847656 -45.09375 48.648438 -43.53125 44.765625 -42.65625 C 44.328125 -42.5625 43.882812 -42.492188 43.4375 -42.453125 C 43 -42.410156 42.472656 -42.476562 41.859375 -42.65625 L 37.484375 -43.84375 C 36.515625 -44.195312 35.828125 -44 35.421875 -43.25 C 35.023438 -42.5 35.269531 -41.859375 36.15625 -41.328125 L 42.515625 -37.484375 C 43.304688 -36.953125 43.789062 -36.203125 43.96875 -35.234375 L 49 -2.25 C 49.175781 -1.457031 49.046875 -0.882812 48.609375 -0.53125 C 48.171875 -0.175781 47.640625 0 47.015625 0 L 33.109375 0 C 31.785156 0 31.082031 -0.617188 31 -1.859375 L 25.828125 -39.34375 C 25.742188 -40.488281 25.257812 -41.035156 24.375 -40.984375 C 23.488281 -40.941406 23.003906 -40.304688 22.921875 -39.078125 L 21.859375 -24.109375 C 21.859375 -23.660156 21.742188 -22.773438 21.515625 -21.453125 C 21.296875 -20.128906 21.097656 -19.25 20.921875 -18.8125 L 16.421875 -1.71875 C 16.160156 -0.570312 15.457031 0 14.3125 0 Z M -17.875 32.046875 C -19.46875 32.046875 -20.046875 31.296875 -19.609375 29.796875 L -16.296875 17.609375 C -16.023438 16.460938 -15.316406 15.890625 -14.171875 15.890625 L 48.078125 15.890625 C 49.671875 15.890625 50.242188 16.640625 49.796875 18.140625 L 46.484375 30.328125 C 46.222656 31.472656 45.519531 32.046875 44.375 32.046875 Z M 29.796875 -54.171875 L 34.703125 -54.171875 C 37.878906 -54.171875 40.414062 -55.117188 42.3125 -57.015625 C 44.21875 -58.921875 45.566406 -61.59375 46.359375 -65.03125 C 47.328125 -69.269531 47.125 -72.40625 45.75 -74.4375 C 44.382812 -76.46875 42.25 -77.484375 39.34375 -77.484375 L 35.765625 -77.484375 Z M 29.796875 -54.171875 "/></g></g></g><g fill="#000000" fill-opacity="1"><g transform="translate(126.588092, 299.9785)"><g><path d="M 21.859375 1.0625 C 17.441406 0.613281 13.53125 -1.039062 10.125 -3.90625 C 6.726562 -6.78125 4.171875 -10.734375 2.453125 -15.765625 C 0.734375 -20.796875 0.179688 -26.625 0.796875 -33.25 C 0.878906 -34.394531 1.539062 -35.054688 2.78125 -35.234375 L 15.765625 -37.359375 C 17.265625 -37.617188 17.925781 -36.953125 17.75 -35.359375 C 17.132812 -29.179688 17.460938 -24.414062 18.734375 -21.0625 C 20.015625 -17.707031 21.71875 -15.851562 23.84375 -15.5 C 25.34375 -15.320312 26.617188 -15.804688 27.671875 -16.953125 C 28.734375 -18.097656 29.441406 -20.128906 29.796875 -23.046875 C 30.242188 -27.367188 29.539062 -31.078125 27.6875 -34.171875 C 25.832031 -37.265625 23.578125 -40.707031 20.921875 -44.5 C 19.242188 -46.800781 17.675781 -49.296875 16.21875 -51.984375 C 14.769531 -54.679688 13.691406 -57.707031 12.984375 -61.0625 C 12.273438 -64.414062 12.273438 -68.125 12.984375 -72.1875 C 14.035156 -77.925781 15.863281 -82.382812 18.46875 -85.5625 C 21.082031 -88.738281 24.085938 -90.945312 27.484375 -92.1875 C 30.878906 -93.425781 34.300781 -93.957031 37.75 -93.78125 C 41.71875 -93.601562 45.09375 -92.5625 47.875 -90.65625 C 50.65625 -88.757812 52.863281 -86.3125 54.5 -83.3125 C 56.132812 -80.3125 57.28125 -77.019531 57.9375 -73.4375 C 58.601562 -69.863281 58.804688 -66.359375 58.546875 -62.921875 C 58.453125 -61.765625 57.789062 -61.097656 56.5625 -60.921875 L 44.90625 -59.203125 C 43.488281 -58.941406 42.78125 -59.601562 42.78125 -61.1875 C 42.957031 -66.40625 42.425781 -70.335938 41.1875 -72.984375 C 39.957031 -75.628906 38.457031 -77 36.6875 -77.09375 C 35.625 -77.269531 34.429688 -76.894531 33.109375 -75.96875 C 31.785156 -75.039062 30.945312 -73.425781 30.59375 -71.125 C 29.976562 -67.6875 30.3125 -64.816406 31.59375 -62.515625 C 32.875 -60.222656 34.617188 -57.578125 36.828125 -54.578125 C 38.765625 -52.015625 40.769531 -49.226562 42.84375 -46.21875 C 44.925781 -43.21875 46.5625 -39.84375 47.75 -36.09375 C 48.9375 -32.34375 49.132812 -27.953125 48.34375 -22.921875 C 47.726562 -18.328125 46.289062 -14.128906 44.03125 -10.328125 C 41.78125 -6.535156 38.800781 -3.578125 35.09375 -1.453125 C 31.382812 0.660156 26.972656 1.5 21.859375 1.0625 Z M -17.875 32.046875 C -19.46875 32.046875 -20.046875 31.296875 -19.609375 29.796875 L -16.296875 17.609375 C -16.023438 16.460938 -15.316406 15.890625 -14.171875 15.890625 L 43.3125 15.890625 C 44.90625 15.890625 45.476562 16.640625 45.03125 18.140625 L 41.71875 30.328125 C 41.457031 31.472656 40.753906 32.046875 39.609375 32.046875 Z M -17.875 32.046875 "/></g></g></g><g fill="#000000" fill-opacity="1"><g transform="translate(180.363299, 299.9785)"><g><path d="M 12.578125 0 C 11.429688 0 10.859375 -0.75 10.859375 -2.25 L 13.90625 -91 C 13.90625 -92.144531 14.613281 -92.71875 16.03125 -92.71875 L 31.125 -92.71875 C 32.445312 -92.71875 33.019531 -91.96875 32.84375 -90.46875 L 25.296875 -31.78125 C 25.210938 -30.726562 25.632812 -30.113281 26.5625 -29.9375 C 27.488281 -29.757812 28.128906 -30.242188 28.484375 -31.390625 L 49.140625 -91 C 49.578125 -92.144531 50.285156 -92.71875 51.265625 -92.71875 L 66.75 -92.71875 C 67.457031 -92.71875 68.007812 -92.519531 68.40625 -92.125 C 68.8125 -91.726562 68.835938 -91.175781 68.484375 -90.46875 L 30.328125 -1.71875 C 29.890625 -0.570312 29.1875 0 28.21875 0 Z M -17.875 32.046875 C -19.46875 32.046875 -20.046875 31.296875 -19.609375 29.796875 L -16.296875 17.609375 C -16.023438 16.460938 -15.316406 15.890625 -14.171875 15.890625 L 44.5 15.890625 C 46.09375 15.890625 46.664062 16.640625 46.21875 18.140625 L 42.921875 30.328125 C 42.648438 31.472656 41.941406 32.046875 40.796875 32.046875 Z M -17.875 32.046875 "/></g></g></g><g fill="#000000" fill-opacity="1"><g transform="translate(235.330564, 299.9785)"><g><path d="M -17.875 32.046875 C -19.46875 32.046875 -20.046875 31.296875 -19.609375 29.796875 L -16.296875 17.609375 C -16.023438 16.460938 -15.316406 15.890625 -14.171875 15.890625 L 13.375 15.890625 C 14.96875 15.890625 15.539062 16.640625 15.09375 18.140625 L 11.78125 30.328125 C 11.519531 31.472656 10.816406 32.046875 9.671875 32.046875 Z M -17.875 32.046875 "/></g></g></g><g fill="#000000" fill-opacity="1"><g transform="translate(259.171785, 299.9785)"><g><path d="M 24.765625 1.0625 C 17.796875 0.613281 12.609375 -1.859375 9.203125 -6.359375 C 5.804688 -10.859375 4.0625 -17.0625 3.96875 -24.96875 C 3.882812 -32.875 5.390625 -42.164062 8.484375 -52.84375 C 12.628906 -67.0625 17.75 -77.570312 23.84375 -84.375 C 29.9375 -91.175781 37.3125 -94.3125 45.96875 -93.78125 C 52.851562 -93.425781 57.992188 -90.992188 61.390625 -86.484375 C 64.785156 -81.984375 66.523438 -75.757812 66.609375 -67.8125 C 66.703125 -59.863281 65.207031 -50.550781 62.125 -39.875 C 53.90625 -11.519531 41.453125 2.125 24.765625 1.0625 Z M 26.359375 -15.09375 C 29.453125 -14.476562 32.363281 -16.707031 35.09375 -21.78125 C 37.832031 -26.863281 40.703125 -34.394531 43.703125 -44.375 C 46.972656 -55.582031 48.519531 -63.789062 48.34375 -69 C 48.164062 -74.21875 46.796875 -77.09375 44.234375 -77.625 C 41.234375 -78.238281 38.34375 -76.003906 35.5625 -70.921875 C 32.78125 -65.847656 29.890625 -58.320312 26.890625 -48.34375 C 23.617188 -37.132812 22.070312 -28.921875 22.25 -23.703125 C 22.425781 -18.492188 23.796875 -15.625 26.359375 -15.09375 Z M -17.875 32.046875 C -19.46875 32.046875 -20.046875 31.296875 -19.609375 29.796875 L -16.296875 17.609375 C -16.023438 16.460938 -15.316406 15.890625 -14.171875 15.890625 L 53.515625 15.890625 C 55.097656 15.890625 55.671875 16.640625 55.234375 18.140625 L 51.921875 30.328125 C 51.660156 31.472656 50.953125 32.046875 49.796875 32.046875 Z M -17.875 32.046875 "/></g></g></g><g fill="#000000" fill-opacity="1"><g transform="translate(323.145746, 299.9785)"><g><path d="M -0.53125 0 C -2.113281 0 -2.6875 -0.75 -2.25 -2.25 L 20.65625 -91 C 20.925781 -92.144531 21.632812 -92.71875 22.78125 -92.71875 L 33.78125 -92.71875 C 42.875 -92.71875 49.890625 -90.664062 54.828125 -86.5625 C 59.773438 -82.457031 62.800781 -76.601562 63.90625 -69 C 65.007812 -61.40625 64.28125 -52.445312 61.71875 -42.125 C 58.28125 -27.90625 53.09375 -17.328125 46.15625 -10.390625 C 39.226562 -3.460938 31.304688 0 22.390625 0 Z M -17.875 32.046875 C -19.46875 32.046875 -20.046875 31.296875 -19.609375 29.796875 L -16.296875 17.609375 C -16.023438 16.460938 -15.316406 15.890625 -14.171875 15.890625 L 52.453125 15.890625 C 54.035156 15.890625 54.609375 16.640625 54.171875 18.140625 L 50.859375 30.328125 C 50.597656 31.472656 49.894531 32.046875 48.75 32.046875 Z M 20.390625 -15.890625 L 22.921875 -15.890625 C 25.296875 -15.890625 27.675781 -16.679688 30.0625 -18.265625 C 32.445312 -19.859375 34.742188 -22.664062 36.953125 -26.6875 C 39.160156 -30.707031 41.238281 -36.425781 43.1875 -43.84375 C 49.007812 -65.832031 47.238281 -76.828125 37.875 -76.828125 L 36.15625 -76.828125 Z M 20.390625 -15.890625 "/></g></g></g><g fill="#000000" fill-opacity="1"><g transform="translate(386.060095, 299.9785)"><g><path d="M 0.125 0 C -1.8125 0 -2.5625 -0.96875 -2.125 -2.90625 L 20.53125 -91 C 20.789062 -92.144531 21.5 -92.71875 22.65625 -92.71875 L 61.0625 -92.71875 C 62.644531 -92.71875 63.21875 -91.96875 62.78125 -90.46875 L 59.609375 -78.28125 C 59.335938 -77.132812 58.628906 -76.5625 57.484375 -76.5625 L 36.296875 -76.5625 L 30.734375 -55.359375 L 46.75 -55.359375 C 48.34375 -55.359375 48.921875 -54.609375 48.484375 -53.109375 L 45.5625 -41.984375 C 45.300781 -40.835938 44.59375 -40.265625 43.4375 -40.265625 L 26.890625 -40.265625 L 20.65625 -16.15625 L 41.328125 -16.15625 C 42.910156 -16.15625 43.484375 -15.40625 43.046875 -13.90625 L 39.875 -1.71875 C 39.601562 -0.570312 38.894531 0 37.75 0 Z M -17.875 32.046875 C -19.46875 32.046875 -20.046875 31.296875 -19.609375 29.796875 L -16.296875 17.609375 C -16.023438 16.460938 -15.316406 15.890625 -14.171875 15.890625 L 39.34375 15.890625 C 40.925781 15.890625 41.5 16.640625 41.0625 18.140625 L 37.75 30.328125 C 37.488281 31.472656 36.78125 32.046875 35.625 32.046875 Z M -17.875 32.046875 "/></g></g></g><g fill="#000000" fill-opacity="1"><g transform="translate(435.86176, 299.9785)"><g><path d="M -0.53125 0 C -2.113281 0 -2.6875 -0.796875 -2.25 -2.390625 L 20.65625 -91 C 20.925781 -92.144531 21.632812 -92.71875 22.78125 -92.71875 L 39.34375 -92.71875 C 45.78125 -92.71875 50.960938 -91.390625 54.890625 -88.734375 C 58.828125 -86.085938 61.523438 -82.625 62.984375 -78.34375 C 64.441406 -74.0625 64.59375 -69.445312 63.4375 -64.5 C 62.738281 -61.414062 61.679688 -58.347656 60.265625 -55.296875 C 58.847656 -52.253906 56.878906 -49.601562 54.359375 -47.34375 C 51.847656 -45.09375 48.648438 -43.53125 44.765625 -42.65625 C 44.328125 -42.5625 43.882812 -42.492188 43.4375 -42.453125 C 43 -42.410156 42.472656 -42.476562 41.859375 -42.65625 L 37.484375 -43.84375 C 36.515625 -44.195312 35.828125 -44 35.421875 -43.25 C 35.023438 -42.5 35.269531 -41.859375 36.15625 -41.328125 L 42.515625 -37.484375 C 43.304688 -36.953125 43.789062 -36.203125 43.96875 -35.234375 L 49 -2.25 C 49.175781 -1.457031 49.046875 -0.882812 48.609375 -0.53125 C 48.171875 -0.175781 47.640625 0 47.015625 0 L 33.109375 0 C 31.785156 0 31.082031 -0.617188 31 -1.859375 L 25.828125 -39.34375 C 25.742188 -40.488281 25.257812 -41.035156 24.375 -40.984375 C 23.488281 -40.941406 23.003906 -40.304688 22.921875 -39.078125 L 21.859375 -24.109375 C 21.859375 -23.660156 21.742188 -22.773438 21.515625 -21.453125 C 21.296875 -20.128906 21.097656 -19.25 20.921875 -18.8125 L 16.421875 -1.71875 C 16.160156 -0.570312 15.457031 0 14.3125 0 Z M -17.875 32.046875 C -19.46875 32.046875 -20.046875 31.296875 -19.609375 29.796875 L -16.296875 17.609375 C -16.023438 16.460938 -15.316406 15.890625 -14.171875 15.890625 L 48.078125 15.890625 C 49.671875 15.890625 50.242188 16.640625 49.796875 18.140625 L 46.484375 30.328125 C 46.222656 31.472656 45.519531 32.046875 44.375 32.046875 Z M 29.796875 -54.171875 L 34.703125 -54.171875 C 37.878906 -54.171875 40.414062 -55.117188 42.3125 -57.015625 C 44.21875 -58.921875 45.566406 -61.59375 46.359375 -65.03125 C 47.328125 -69.269531 47.125 -72.40625 45.75 -74.4375 C 44.382812 -76.46875 42.25 -77.484375 39.34375 -77.484375 L 35.765625 -77.484375 Z M 29.796875 -54.171875 "/></g></g></g><g fill="#000000" fill-opacity="1"><g transform="translate(494.40523, 299.9785)"><g><path d="M -17.875 32.046875 C -19.46875 32.046875 -20.046875 31.296875 -19.609375 29.796875 L -16.296875 17.609375 C -16.023438 16.460938 -15.316406 15.890625 -14.171875 15.890625 L 13.375 15.890625 C 14.96875 15.890625 15.539062 16.640625 15.09375 18.140625 L 11.78125 30.328125 C 11.519531 31.472656 10.816406 32.046875 9.671875 32.046875 Z M -17.875 32.046875 "/></g></g></g><g fill="#000000" fill-opacity="1"><g transform="translate(518.246462, 299.9785)"><g><path d="M 21.859375 1.0625 C 17.441406 0.613281 13.53125 -1.039062 10.125 -3.90625 C 6.726562 -6.78125 4.171875 -10.734375 2.453125 -15.765625 C 0.734375 -20.796875 0.179688 -26.625 0.796875 -33.25 C 0.878906 -34.394531 1.539062 -35.054688 2.78125 -35.234375 L 15.765625 -37.359375 C 17.265625 -37.617188 17.925781 -36.953125 17.75 -35.359375 C 17.132812 -29.179688 17.460938 -24.414062 18.734375 -21.0625 C 20.015625 -17.707031 21.71875 -15.851562 23.84375 -15.5 C 25.34375 -15.320312 26.617188 -15.804688 27.671875 -16.953125 C 28.734375 -18.097656 29.441406 -20.128906 29.796875 -23.046875 C 30.242188 -27.367188 29.539062 -31.078125 27.6875 -34.171875 C 25.832031 -37.265625 23.578125 -40.707031 20.921875 -44.5 C 19.242188 -46.800781 17.675781 -49.296875 16.21875 -51.984375 C 14.769531 -54.679688 13.691406 -57.707031 12.984375 -61.0625 C 12.273438 -64.414062 12.273438 -68.125 12.984375 -72.1875 C 14.035156 -77.925781 15.863281 -82.382812 18.46875 -85.5625 C 21.082031 -88.738281 24.085938 -90.945312 27.484375 -92.1875 C 30.878906 -93.425781 34.300781 -93.957031 37.75 -93.78125 C 41.71875 -93.601562 45.09375 -92.5625 47.875 -90.65625 C 50.65625 -88.757812 52.863281 -86.3125 54.5 -83.3125 C 56.132812 -80.3125 57.28125 -77.019531 57.9375 -73.4375 C 58.601562 -69.863281 58.804688 -66.359375 58.546875 -62.921875 C 58.453125 -61.765625 57.789062 -61.097656 56.5625 -60.921875 L 44.90625 -59.203125 C 43.488281 -58.941406 42.78125 -59.601562 42.78125 -61.1875 C 42.957031 -66.40625 42.425781 -70.335938 41.1875 -72.984375 C 39.957031 -75.628906 38.457031 -77 36.6875 -77.09375 C 35.625 -77.269531 34.429688 -76.894531 33.109375 -75.96875 C 31.785156 -75.039062 30.945312 -73.425781 30.59375 -71.125 C 29.976562 -67.6875 30.3125 -64.816406 31.59375 -62.515625 C 32.875 -60.222656 34.617188 -57.578125 36.828125 -54.578125 C 38.765625 -52.015625 40.769531 -49.226562 42.84375 -46.21875 C 44.925781 -43.21875 46.5625 -39.84375 47.75 -36.09375 C 48.9375 -32.34375 49.132812 -27.953125 48.34375 -22.921875 C 47.726562 -18.328125 46.289062 -14.128906 44.03125 -10.328125 C 41.78125 -6.535156 38.800781 -3.578125 35.09375 -1.453125 C 31.382812 0.660156 26.972656 1.5 21.859375 1.0625 Z M -17.875 32.046875 C -19.46875 32.046875 -20.046875 31.296875 -19.609375 29.796875 L -16.296875 17.609375 C -16.023438 16.460938 -15.316406 15.890625 -14.171875 15.890625 L 43.3125 15.890625 C 44.90625 15.890625 45.476562 16.640625 45.03125 18.140625 L 41.71875 30.328125 C 41.457031 31.472656 40.753906 32.046875 39.609375 32.046875 Z M -17.875 32.046875 "/></g></g></g><g fill="#000000" fill-opacity="1"><g transform="translate(572.021681, 299.9785)"><g><path d="M 8.484375 0 C 6.890625 0 6.3125 -0.75 6.75 -2.25 L 26.21875 -77.484375 L 13.375 -77.484375 C 11.789062 -77.484375 11.21875 -78.234375 11.65625 -79.734375 L 14.5625 -91 C 14.832031 -92.144531 15.539062 -92.71875 16.6875 -92.71875 L 61.984375 -92.71875 C 63.578125 -92.71875 64.148438 -91.96875 63.703125 -90.46875 L 60.796875 -79.203125 C 60.535156 -78.054688 59.828125 -77.484375 58.671875 -77.484375 L 45.296875 -77.484375 L 25.703125 -1.71875 C 25.429688 -0.570312 24.722656 0 23.578125 0 Z M -17.875 32.046875 C -19.46875 32.046875 -20.046875 31.296875 -19.609375 29.796875 L -16.296875 17.609375 C -16.023438 16.460938 -15.316406 15.890625 -14.171875 15.890625 L 38.9375 15.890625 C 40.53125 15.890625 41.101562 16.640625 40.65625 18.140625 L 37.359375 30.328125 C 37.085938 31.472656 36.378906 32.046875 35.234375 32.046875 Z M -17.875 32.046875 "/></g></g></g><g fill="#000000" fill-opacity="1"><g transform="translate(621.425997, 299.9785)"><g><path d="M -7.421875 0 C -8.210938 0 -8.695312 -0.265625 -8.875 -0.796875 C -9.050781 -1.328125 -8.921875 -1.945312 -8.484375 -2.65625 L 53.78125 -91.53125 C 54.3125 -92.320312 55.148438 -92.71875 56.296875 -92.71875 L 71.921875 -92.71875 C 73.515625 -92.71875 74.085938 -91.96875 73.640625 -90.46875 L 50.734375 -1.71875 C 50.460938 -0.570312 49.753906 0 48.609375 0 L 33.25 0 C 32.625 0 32.113281 -0.195312 31.71875 -0.59375 C 31.320312 -0.988281 31.257812 -1.539062 31.53125 -2.25 L 36.421875 -16.421875 L 21.453125 -16.421875 L 11.78125 -1.1875 C 11.34375 -0.394531 10.550781 0 9.40625 0 Z M -17.875 32.046875 C -19.46875 32.046875 -20.046875 31.296875 -19.609375 29.796875 L -16.296875 17.609375 C -16.023438 16.460938 -15.316406 15.890625 -14.171875 15.890625 L 54.3125 15.890625 C 55.894531 15.890625 56.46875 16.640625 56.03125 18.140625 L 52.71875 30.328125 C 52.445312 31.472656 51.738281 32.046875 50.59375 32.046875 Z M 30.734375 -31.65625 L 41.984375 -31.65625 L 52.984375 -61.984375 C 53.421875 -63.128906 53.175781 -63.878906 52.25 -64.234375 C 51.320312 -64.585938 50.59375 -64.28125 50.0625 -63.3125 Z M 30.734375 -31.65625 "/></g></g></g><g fill="#000000" fill-opacity="1"><g transform="translate(686.194655, 299.9785)"><g><path d="M 24.109375 1.0625 C 19.335938 0.789062 15.40625 -0.378906 12.3125 -2.453125 C 9.226562 -4.523438 6.910156 -7.238281 5.359375 -10.59375 C 3.816406 -13.945312 2.976562 -17.65625 2.84375 -21.71875 C 2.71875 -25.78125 3.179688 -29.929688 4.234375 -34.171875 L 18.8125 -91 C 19.070312 -92.144531 19.773438 -92.71875 20.921875 -92.71875 L 36.03125 -92.71875 C 37.613281 -92.71875 38.1875 -91.96875 37.75 -90.46875 L 22.390625 -30.46875 C 21.765625 -27.988281 21.382812 -25.625 21.25 -23.375 C 21.125 -21.125 21.410156 -19.25 22.109375 -17.75 C 22.816406 -16.25 24.097656 -15.363281 25.953125 -15.09375 C 27.984375 -14.914062 29.640625 -15.46875 30.921875 -16.75 C 32.203125 -18.03125 33.238281 -19.726562 34.03125 -21.84375 C 34.832031 -23.96875 35.5 -26.046875 36.03125 -28.078125 L 52.1875 -91 C 52.445312 -92.144531 53.15625 -92.71875 54.3125 -92.71875 L 69.40625 -92.71875 C 71 -92.71875 71.570312 -91.96875 71.125 -90.46875 L 54.3125 -25.703125 C 52.976562 -20.398438 50.960938 -15.671875 48.265625 -11.515625 C 45.578125 -7.367188 42.222656 -4.171875 38.203125 -1.921875 C 34.191406 0.328125 29.492188 1.320312 24.109375 1.0625 Z M -17.875 32.046875 C -19.46875 32.046875 -20.046875 31.296875 -19.609375 29.796875 L -16.296875 17.609375 C -16.023438 16.460938 -15.316406 15.890625 -14.171875 15.890625 L 50.328125 15.890625 C 51.921875 15.890625 52.492188 16.640625 52.046875 18.140625 L 48.75 30.328125 C 48.476562 31.472656 47.769531 32.046875 46.625 32.046875 Z M -17.875 32.046875 "/></g></g></g><g fill="#000000" fill-opacity="1"><g transform="translate(746.989782, 299.9785)"><g><path d="M -2.90625 0 C -4.5 0 -5.078125 -0.75 -4.640625 -2.25 L -0.390625 -18.671875 C -0.128906 -19.816406 0.570312 -20.390625 1.71875 -20.390625 L 18.28125 -20.390625 C 19.863281 -20.390625 20.4375 -19.640625 20 -18.140625 L 15.765625 -1.71875 C 15.492188 -0.570312 14.785156 0 13.640625 0 Z M -17.875 32.046875 C -19.46875 32.046875 -20.046875 31.296875 -19.609375 29.796875 L -16.296875 17.609375 C -16.023438 16.460938 -15.316406 15.890625 -14.171875 15.890625 L 16.296875 15.890625 C 17.878906 15.890625 18.453125 16.640625 18.015625 18.140625 L 14.703125 30.328125 C 14.441406 31.472656 13.734375 32.046875 12.578125 32.046875 Z M -17.875 32.046875 "/></g></g></g><g clip-path="url(#2cd4329743)"><path fill="#000000" d="M -20.425781 435.816406 L -13.15625 413.269531 L -18.082031 397.25 C -18.453125 396.140625 -18.453125 395.402344 -18.082031 394.292969 L -9.457031 367.679688 L -15.125 367.925781 C -16.726562 368.046875 -17.46875 366.9375 -16.976562 365.460938 L -15.003906 359.300781 C -14.632812 358.066406 -13.894531 357.449219 -12.539062 357.328125 L 98.609375 351.78125 C 99.71875 351.78125 100.578125 352.027344 101.441406 352.644531 L 144.941406 387.761719 L 210.371094 395.03125 C 212.097656 395.277344 212.835938 396.265625 212.21875 397.988281 L 198.542969 437.050781 C 198.171875 438.28125 197.308594 438.898438 196.078125 438.898438 L 172.417969 438.898438 C 170.449219 452.082031 159.234375 461.9375 145.308594 461.9375 C 131.386719 461.9375 120.171875 452.082031 118.324219 438.898438 L 61.640625 438.898438 C 59.792969 452.082031 48.578125 461.9375 34.65625 461.9375 C 20.730469 461.9375 9.519531 452.082031 7.546875 438.898438 L -18.207031 438.898438 C -20.179688 438.898438 -21.042969 437.789062 -20.425781 435.816406 Z M 34.65625 408.09375 C 47.71875 408.09375 58.3125 416.71875 61.148438 428.546875 L 118.816406 428.546875 C 121.652344 416.71875 132.25 408.09375 145.308594 408.09375 C 158.371094 408.09375 169.09375 416.71875 171.925781 428.546875 L 189.792969 428.546875 L 198.417969 404.273438 L 142.476562 397.867188 L -5.390625 400.824219 L -1.570312 413.269531 L -6.5 428.546875 L 8.039062 428.546875 C 10.875 416.71875 21.59375 408.09375 34.65625 408.09375 Z M 28.371094 365.582031 L 2.371094 367.0625 L -5.269531 390.472656 L 26.03125 389.855469 Z M 50.796875 434.953125 C 50.796875 425.21875 44.144531 418.441406 34.65625 418.441406 C 25.167969 418.441406 18.390625 425.21875 18.390625 434.953125 C 18.390625 444.6875 25.042969 451.589844 34.65625 451.589844 C 44.265625 451.589844 50.796875 444.6875 50.796875 434.953125 Z M 69.15625 363.613281 L 39.707031 365.089844 L 37.242188 389.609375 L 74.703125 388.871094 Z M 128.058594 387.761719 L 96.265625 362.257812 L 80.371094 362.996094 L 86.039062 388.625 Z M 161.574219 434.953125 C 161.574219 425.21875 154.921875 418.441406 145.308594 418.441406 C 135.699219 418.441406 129.167969 425.21875 129.167969 434.953125 C 129.167969 444.6875 135.820312 451.589844 145.308594 451.589844 C 154.796875 451.589844 161.574219 444.6875 161.574219 434.953125 Z M 161.574219 434.953125 " fill-opacity="1" fill-rule="nonzero"/></g><g clip-path="url(#da8fe6478f)"><path fill="#000000" d="M 206.957031 433.203125 L 214.226562 410.65625 L 209.296875 394.636719 C 208.929688 393.527344 208.929688 392.789062 209.296875 391.679688 L 217.925781 365.0625 L 212.253906 365.3125 C 210.652344 365.433594 209.914062 364.324219 210.40625 362.847656 L 212.378906 356.683594 C 212.75 355.453125 213.488281 354.835938 214.84375 354.714844 L 325.992188 349.167969 C 327.101562 349.167969 327.960938 349.414062 328.824219 350.03125 L 372.324219 385.148438 L 437.753906 392.417969 C 439.480469 392.664062 440.21875 393.652344 439.601562 395.375 L 425.925781 434.433594 C 425.554688 435.667969 424.691406 436.285156 423.460938 436.285156 L 399.800781 436.285156 C 397.828125 449.46875 386.617188 459.324219 372.691406 459.324219 C 358.769531 459.324219 347.554688 449.46875 345.707031 436.285156 L 289.023438 436.285156 C 287.175781 449.46875 275.960938 459.324219 262.039062 459.324219 C 248.113281 459.324219 236.898438 449.46875 234.929688 436.285156 L 209.175781 436.285156 C 207.203125 436.285156 206.339844 435.175781 206.957031 433.203125 Z M 262.039062 405.480469 C 275.097656 405.480469 285.695312 414.105469 288.53125 425.933594 L 346.199219 425.933594 C 349.035156 414.105469 359.628906 405.480469 372.691406 405.480469 C 385.753906 405.480469 396.472656 414.105469 399.308594 425.933594 L 417.175781 425.933594 L 425.800781 401.660156 L 369.859375 395.253906 L 221.992188 398.210938 L 225.808594 410.65625 L 220.882812 425.933594 L 235.421875 425.933594 C 238.253906 414.105469 248.976562 405.480469 262.039062 405.480469 Z M 255.753906 362.96875 L 229.753906 364.449219 L 222.113281 387.859375 L 253.414062 387.242188 Z M 278.179688 432.339844 C 278.179688 422.605469 271.527344 415.828125 262.039062 415.828125 C 252.550781 415.828125 245.773438 422.605469 245.773438 432.339844 C 245.773438 442.074219 252.425781 448.976562 262.039062 448.976562 C 271.648438 448.976562 278.179688 442.074219 278.179688 432.339844 Z M 296.539062 360.996094 L 267.089844 362.476562 L 264.625 386.996094 L 302.085938 386.257812 Z M 355.441406 385.148438 L 323.648438 359.644531 L 307.753906 360.382812 L 313.421875 386.011719 Z M 388.957031 432.339844 C 388.957031 422.605469 382.304688 415.828125 372.691406 415.828125 C 363.082031 415.828125 356.550781 422.605469 356.550781 432.339844 C 356.550781 442.074219 363.203125 448.976562 372.691406 448.976562 C 382.179688 448.976562 388.957031 442.074219 388.957031 432.339844 Z M 388.957031 432.339844 " fill-opacity="1" fill-rule="nonzero"/></g><g clip-path="url(#36f8088069)"><path fill="#000000" d="M 431.535156 431.675781 L 438.804688 409.128906 L 433.875 393.109375 C 433.503906 392 433.503906 391.261719 433.875 390.152344 L 442.5 363.539062 L 436.832031 363.785156 C 435.230469 363.910156 434.492188 362.800781 434.984375 361.320312 L 436.957031 355.160156 C 437.324219 353.929688 438.066406 353.3125 439.421875 353.1875 L 550.566406 347.644531 C 551.675781 347.644531 552.539062 347.890625 553.402344 348.507812 L 596.898438 383.625 L 662.332031 390.894531 C 664.054688 391.140625 664.796875 392.125 664.179688 393.851562 L 650.5 432.910156 C 650.132812 434.140625 649.269531 434.757812 648.035156 434.757812 L 624.378906 434.757812 C 622.40625 447.941406 611.191406 457.800781 597.269531 457.800781 C 583.34375 457.800781 572.132812 447.941406 570.28125 434.757812 L 513.601562 434.757812 C 511.753906 447.941406 500.539062 457.800781 486.613281 457.800781 C 472.691406 457.800781 461.476562 447.941406 459.503906 434.757812 L 433.75 434.757812 C 431.78125 434.757812 430.917969 433.648438 431.535156 431.675781 Z M 486.613281 403.953125 C 499.675781 403.953125 510.273438 412.578125 513.109375 424.40625 L 570.777344 424.40625 C 573.609375 412.578125 584.207031 403.953125 597.269531 403.953125 C 610.332031 403.953125 621.050781 412.578125 623.886719 424.40625 L 641.753906 424.40625 L 650.378906 400.132812 L 594.433594 393.726562 L 446.566406 396.683594 L 450.386719 409.128906 L 445.457031 424.40625 L 460 424.40625 C 462.832031 412.578125 473.554688 403.953125 486.613281 403.953125 Z M 480.332031 361.445312 L 454.332031 362.921875 L 446.691406 386.332031 L 477.988281 385.71875 Z M 502.757812 430.816406 C 502.757812 421.082031 496.101562 414.304688 486.613281 414.304688 C 477.125 414.304688 470.347656 421.082031 470.347656 430.816406 C 470.347656 440.550781 477.003906 447.449219 486.613281 447.449219 C 496.226562 447.449219 502.757812 440.550781 502.757812 430.816406 Z M 521.117188 359.472656 L 491.667969 360.949219 L 489.203125 385.472656 L 526.660156 384.730469 Z M 580.019531 383.625 L 548.226562 358.117188 L 532.332031 358.855469 L 538 384.484375 Z M 613.535156 430.816406 C 613.535156 421.082031 606.878906 414.304688 597.269531 414.304688 C 587.65625 414.304688 581.125 421.082031 581.125 430.816406 C 581.125 440.550781 587.78125 447.449219 597.269531 447.449219 C 606.757812 447.449219 613.535156 440.550781 613.535156 430.816406 Z M 613.535156 430.816406 " fill-opacity="1" fill-rule="nonzero"/></g><g clip-path="url(#82a397f8e7)"><path fill="#000000" d="M 654.363281 435.816406 L 661.632812 413.269531 L 656.703125 397.25 C 656.335938 396.140625 656.335938 395.402344 656.703125 394.292969 L 665.332031 367.679688 L 659.660156 367.925781 C 658.058594 368.046875 657.320312 366.9375 657.8125 365.460938 L 659.785156 359.300781 C 660.15625 358.066406 660.894531 357.449219 662.25 357.328125 L 773.398438 351.78125 C 774.503906 351.78125 775.367188 352.027344 776.230469 352.644531 L 819.730469 387.761719 L 885.160156 395.03125 C 886.886719 395.277344 887.625 396.265625 887.007812 397.988281 L 873.332031 437.050781 C 872.960938 438.28125 872.097656 438.898438 870.867188 438.898438 L 847.207031 438.898438 C 845.234375 452.082031 834.023438 461.9375 820.097656 461.9375 C 806.175781 461.9375 794.960938 452.082031 793.113281 438.898438 L 736.429688 438.898438 C 734.582031 452.082031 723.367188 461.9375 709.445312 461.9375 C 695.519531 461.9375 684.304688 452.082031 682.335938 438.898438 L 656.582031 438.898438 C 654.609375 438.898438 653.746094 437.789062 654.363281 435.816406 Z M 709.445312 408.09375 C 722.503906 408.09375 733.101562 416.71875 735.9375 428.546875 L 793.605469 428.546875 C 796.441406 416.71875 807.035156 408.09375 820.097656 408.09375 C 833.160156 408.09375 843.878906 416.71875 846.714844 428.546875 L 864.582031 428.546875 L 873.207031 404.273438 L 817.265625 397.867188 L 669.394531 400.824219 L 673.214844 413.269531 L 668.289062 428.546875 L 682.828125 428.546875 C 685.660156 416.71875 696.382812 408.09375 709.445312 408.09375 Z M 703.160156 365.582031 L 677.160156 367.0625 L 669.519531 390.472656 L 700.816406 389.855469 Z M 725.585938 434.953125 C 725.585938 425.21875 718.933594 418.441406 709.445312 418.441406 C 699.957031 418.441406 693.179688 425.21875 693.179688 434.953125 C 693.179688 444.6875 699.832031 451.589844 709.445312 451.589844 C 719.054688 451.589844 725.585938 444.6875 725.585938 434.953125 Z M 743.945312 363.613281 L 714.496094 365.089844 L 712.03125 389.609375 L 749.492188 388.871094 Z M 802.847656 387.761719 L 771.054688 362.257812 L 755.160156 362.996094 L 760.828125 388.625 Z M 836.363281 434.953125 C 836.363281 425.21875 829.710938 418.441406 820.097656 418.441406 C 810.488281 418.441406 803.957031 425.21875 803.957031 434.953125 C 803.957031 444.6875 810.609375 451.589844 820.097656 451.589844 C 829.585938 451.589844 836.363281 444.6875 836.363281 434.953125 Z M 836.363281 434.953125 " fill-opacity="1" fill-rule="nonzero"/></g><g clip-path="url(#550fbb30c2)"><path fill="#000000" d="M -68.441406 552.738281 L -61.171875 530.1875 L -66.101562 514.171875 C -66.472656 513.0625 -66.472656 512.320312 -66.101562 511.214844 L -57.476562 484.597656 L -63.144531 484.84375 C -64.746094 484.96875 -65.484375 483.859375 -64.992188 482.378906 L -63.019531 476.21875 C -62.652344 474.988281 -61.914062 474.371094 -60.558594 474.25 L 50.589844 468.703125 C 51.699219 468.703125 52.5625 468.949219 53.425781 469.566406 L 96.921875 504.683594 L 162.355469 511.953125 C 164.078125 512.199219 164.816406 513.183594 164.203125 514.910156 L 150.523438 553.96875 C 150.15625 555.203125 149.292969 555.816406 148.058594 555.816406 L 124.402344 555.816406 C 122.429688 569.003906 111.214844 578.859375 97.292969 578.859375 C 83.367188 578.859375 72.15625 569.003906 70.304688 555.816406 L 13.625 555.816406 C 11.773438 569.003906 0.5625 578.859375 -13.363281 578.859375 C -27.285156 578.859375 -38.5 569.003906 -40.472656 555.816406 L -66.226562 555.816406 C -68.195312 555.816406 -69.058594 554.707031 -68.441406 552.738281 Z M -13.363281 525.011719 C -0.300781 525.011719 10.296875 533.640625 13.128906 545.46875 L 70.800781 545.46875 C 73.632812 533.640625 84.230469 525.011719 97.292969 525.011719 C 110.355469 525.011719 121.074219 533.640625 123.90625 545.46875 L 141.777344 545.46875 L 150.402344 521.195312 L 94.457031 514.785156 L -53.410156 517.742188 L -49.589844 530.1875 L -54.519531 545.46875 L -39.980469 545.46875 C -37.144531 533.640625 -26.425781 525.011719 -13.363281 525.011719 Z M -19.648438 482.503906 L -45.648438 483.980469 L -53.285156 507.394531 L -21.988281 506.777344 Z M 2.78125 551.875 C 2.78125 542.140625 -3.875 535.363281 -13.363281 535.363281 C -22.851562 535.363281 -29.628906 542.140625 -29.628906 551.875 C -29.628906 561.609375 -22.972656 568.507812 -13.363281 568.507812 C -3.75 568.507812 2.78125 561.609375 2.78125 551.875 Z M 21.140625 480.53125 L -8.308594 482.011719 L -10.773438 506.53125 L 26.683594 505.792969 Z M 80.039062 504.683594 L 48.25 479.175781 L 32.351562 479.917969 L 38.023438 505.546875 Z M 113.558594 551.875 C 113.558594 542.140625 106.902344 535.363281 97.292969 535.363281 C 87.679688 535.363281 81.148438 542.140625 81.148438 551.875 C 81.148438 561.609375 87.804688 568.507812 97.292969 568.507812 C 106.78125 568.507812 113.558594 561.609375 113.558594 551.875 Z M 113.558594 551.875 " fill-opacity="1" fill-rule="nonzero"/></g><g clip-path="url(#c441cd9b10)"><path fill="#000000" d="M 158.9375 550.125 L 166.207031 527.574219 L 161.277344 511.558594 C 160.910156 510.449219 160.910156 509.707031 161.277344 508.597656 L 169.902344 481.984375 L 164.234375 482.230469 C 162.632812 482.355469 161.894531 481.246094 162.386719 479.765625 L 164.359375 473.605469 C 164.726562 472.375 165.46875 471.757812 166.824219 471.632812 L 277.96875 466.089844 C 279.078125 466.089844 279.941406 466.335938 280.804688 466.953125 L 324.300781 502.070312 L 389.734375 509.339844 C 391.457031 509.585938 392.199219 510.570312 391.582031 512.296875 L 377.902344 551.355469 C 377.535156 552.589844 376.671875 553.203125 375.441406 553.203125 L 351.78125 553.203125 C 349.808594 566.386719 338.597656 576.246094 324.671875 576.246094 C 310.746094 576.246094 299.535156 566.386719 297.6875 553.203125 L 241.003906 553.203125 C 239.15625 566.386719 227.941406 576.246094 214.015625 576.246094 C 200.09375 576.246094 188.878906 566.386719 186.910156 553.203125 L 161.15625 553.203125 C 159.183594 553.203125 158.320312 552.09375 158.9375 550.125 Z M 214.015625 522.398438 C 227.078125 522.398438 237.675781 531.023438 240.511719 542.855469 L 298.179688 542.855469 C 301.011719 531.023438 311.609375 522.398438 324.671875 522.398438 C 337.734375 522.398438 348.453125 531.023438 351.289062 542.855469 L 369.15625 542.855469 L 377.78125 518.582031 L 321.835938 512.171875 L 173.96875 515.128906 L 177.789062 527.574219 L 172.859375 542.855469 L 187.402344 542.855469 C 190.234375 531.023438 200.957031 522.398438 214.015625 522.398438 Z M 207.734375 479.890625 L 181.734375 481.367188 L 174.09375 504.78125 L 205.390625 504.164062 Z M 230.160156 549.261719 C 230.160156 539.527344 223.503906 532.75 214.015625 532.75 C 204.527344 532.75 197.753906 539.527344 197.753906 549.261719 C 197.753906 558.996094 204.40625 565.894531 214.015625 565.894531 C 223.628906 565.894531 230.160156 558.996094 230.160156 549.261719 Z M 248.519531 477.917969 L 219.070312 479.398438 L 216.605469 503.917969 L 254.066406 503.179688 Z M 307.421875 502.070312 L 275.628906 476.5625 L 259.734375 477.300781 L 265.402344 502.929688 Z M 340.9375 549.261719 C 340.9375 539.527344 334.285156 532.75 324.671875 532.75 C 315.058594 532.75 308.53125 539.527344 308.53125 549.261719 C 308.53125 558.996094 315.183594 565.894531 324.671875 565.894531 C 334.160156 565.894531 340.9375 558.996094 340.9375 549.261719 Z M 340.9375 549.261719 " fill-opacity="1" fill-rule="nonzero"/></g><g clip-path="url(#76afb9ddf9)"><path fill="#000000" d="M 383.511719 548.597656 L 390.785156 526.050781 L 385.855469 510.03125 C 385.484375 508.921875 385.484375 508.183594 385.855469 507.074219 L 394.480469 480.460938 L 388.8125 480.707031 C 387.210938 480.828125 386.472656 479.71875 386.964844 478.242188 L 388.933594 472.082031 C 389.304688 470.847656 390.042969 470.230469 391.398438 470.109375 L 502.546875 464.5625 C 503.65625 464.5625 504.519531 464.8125 505.382812 465.425781 L 548.878906 500.542969 L 614.308594 507.8125 C 616.035156 508.058594 616.773438 509.046875 616.160156 510.769531 L 602.480469 549.832031 C 602.109375 551.0625 601.25 551.679688 600.015625 551.679688 L 576.359375 551.679688 C 574.386719 564.863281 563.171875 574.71875 549.25 574.71875 C 535.324219 574.71875 524.109375 564.863281 522.261719 551.679688 L 465.578125 551.679688 C 463.730469 564.863281 452.519531 574.71875 438.59375 574.71875 C 424.667969 574.71875 413.457031 564.863281 411.484375 551.679688 L 385.730469 551.679688 C 383.761719 551.679688 382.898438 550.570312 383.511719 548.597656 Z M 438.59375 520.875 C 451.65625 520.875 462.253906 529.5 465.085938 541.328125 L 522.753906 541.328125 C 525.589844 529.5 536.1875 520.875 549.25 520.875 C 562.308594 520.875 573.03125 529.5 575.863281 541.328125 L 593.730469 541.328125 L 602.359375 517.054688 L 546.414062 510.648438 L 398.546875 513.605469 L 402.367188 526.050781 L 397.4375 541.328125 L 411.976562 541.328125 C 414.8125 529.5 425.53125 520.875 438.59375 520.875 Z M 432.308594 478.363281 L 406.308594 479.84375 L 398.667969 503.253906 L 429.96875 502.636719 Z M 454.738281 547.734375 C 454.738281 538 448.082031 531.226562 438.59375 531.226562 C 429.105469 531.226562 422.328125 538 422.328125 547.734375 C 422.328125 557.46875 428.984375 564.371094 438.59375 564.371094 C 448.207031 564.371094 454.738281 557.46875 454.738281 547.734375 Z M 473.097656 476.394531 L 443.644531 477.871094 L 441.183594 502.390625 L 478.640625 501.652344 Z M 531.996094 500.542969 L 500.207031 475.039062 L 484.308594 475.777344 L 489.976562 501.40625 Z M 565.515625 547.734375 C 565.515625 538 558.859375 531.226562 549.25 531.226562 C 539.636719 531.226562 533.105469 538 533.105469 547.734375 C 533.105469 557.46875 539.761719 564.371094 549.25 564.371094 C 558.738281 564.371094 565.515625 557.46875 565.515625 547.734375 Z M 565.515625 547.734375 " fill-opacity="1" fill-rule="nonzero"/></g></svg>