<?xml version="1.0" encoding="UTF-8" standalone="no"?>
<!-- Created with Inkscape (http://www.inkscape.org/) -->

<svg
   width="580mm"
   height="340mm"
   viewBox="0 0 580 339.99999"
   version="1.1"
   id="svg5"
   inkscape:version="1.3.2 (091e20e, 2023-11-25)"
   sodipodi:docname="wir sind hier wir sind laut bis ihr uns den radweg baut cc - textpfade.svg"
   inkscape:export-filename="/home/benutzer/projekte/verkehrswende/wir-sind-hier-wir-sind-laut-bis-ihr-uns-den-radweg-baut-cc.png"
   inkscape:export-xdpi="90.709999"
   inkscape:export-ydpi="90.709999"
   xmlns:inkscape="http://www.inkscape.org/namespaces/inkscape"
   xmlns:sodipodi="http://sodipodi.sourceforge.net/DTD/sodipodi-0.dtd"
   xmlns="http://www.w3.org/2000/svg"
   xmlns:svg="http://www.w3.org/2000/svg">
  <sodipodi:namedview
     id="namedview7"
     pagecolor="#ffffff"
     bordercolor="#666666"
     borderopacity="1.0"
     inkscape:pageshadow="2"
     inkscape:pageopacity="1"
     inkscape:pagecheckerboard="0"
     inkscape:document-units="mm"
     showgrid="false"
     inkscape:zoom="0.33763328"
     inkscape:cx="1378.7148"
     inkscape:cy="540.52728"
     inkscape:window-width="1920"
     inkscape:window-height="1022"
     inkscape:window-x="0"
     inkscape:window-y="0"
     inkscape:window-maximized="1"
     inkscape:current-layer="layer1"
     fit-margin-top="0"
     fit-margin-left="0"
     fit-margin-right="0"
     fit-margin-bottom="0"
     lock-margins="true"
     inkscape:showpageshadow="2"
     inkscape:deskcolor="#d1d1d1"
     inkscape:export-bgcolor="#ffffffff" />
  <defs
     id="defs2">
    <rect
       x="19.825841"
       y="36.822761"
       width="834.99629"
       height="427.8566"
       id="rect29677" />
    <rect
       x="7.7981002"
       y="9.6019193"
       width="865.7218"
       height="435.99645"
       id="rect33465" />
    <rect
       x="15.158523"
       y="17.799285"
       width="728.1685"
       height="433.39685"
       id="rect15697" />
    <rect
       x="30.361147"
       y="37.128649"
       width="564.99454"
       height="252.69984"
       id="rect12347" />
    <rect
       x="60.939854"
       y="72.663816"
       width="332.88903"
       height="147.37886"
       id="rect6457" />
    <rect
       x="896.20905"
       y="423.40403"
       width="1929.9965"
       height="1280.5781"
       id="rect31069" />
    <rect
       x="49.451988"
       y="120.58521"
       width="206.80906"
       height="197.86333"
       id="rect192609" />
    <rect
       x="110.62282"
       y="180.02924"
       width="329.91223"
       height="540.383"
       id="rect186595" />
    <rect
       x="57.993843"
       y="84.360298"
       width="481.62823"
       height="454.23532"
       id="rect179193" />
    <rect
       x="155.79047"
       y="84.55127"
       width="691.06671"
       height="243.882"
       id="rect129457" />
    <rect
       x="95.625107"
       y="1394.6455"
       width="460.03046"
       height="333.86996"
       id="rect97027" />
    <rect
       x="18.583881"
       y="56.102528"
       width="480.80923"
       height="500.99414"
       id="rect68829" />
    <rect
       x="505.48889"
       y="183.66052"
       width="1467.9661"
       height="1508.9117"
       id="rect41567" />
    <rect
       x="129.73566"
       y="276.181"
       width="1853.0997"
       height="1345.1396"
       id="rect7105" />
  </defs>
  <g
     inkscape:label="Ebene 1"
     inkscape:groupmode="layer"
     id="layer1"
     transform="translate(-656.29768,-35.400468)"
     style="display:inline">
    <path
       d="m 98.38438,181.78578 14.66663,-9.06664 0.53333,-0.26667 2,12.5333 -16.399962,24.53327 c -4.666655,-2.26666 -9.733308,-3.59999 -15.466627,-3.59999 -18.933285,0 -33.733247,14.66663 -33.733247,33.46658 0,18.66662 14.933295,33.33325 33.86658,33.33325 18.933286,0 33.733246,-14.66663 33.733246,-33.46658 v -0.93333 l 11.19997,-1.33333 c 1.86666,-0.26667 2.8,-0.8 3.59999,-1.6 l 33.86658,-35.5999 2.26666,8.39997 c -12.5333,4.79999 -21.19994,16.79996 -21.19994,31.19992 0,18.66662 14.93329,33.33325 33.86658,33.33325 18.93328,0 33.73325,-14.66663 33.73325,-33.46658 0,-18.66662 -14.9333,-33.33325 -33.86658,-33.33325 l -2.53333,0.13334 -6.93332,-27.19993 c -0.4,-1.73333 -1.59999,-2.26667 -3.19999,-2 l -41.99989,6.53332 -2.26666,-14.66663 0.26666,-0.13334 39.5999,-1.59999 c 1.73333,-0.13333 2.53333,-1.33333 1.73333,-2.93333 L 125.18431,88.452686 c -0.93333,-1.733329 -2.26666,-1.866662 -3.19999,0 L 98.784379,133.11924 78.78443,145.38587 c -1.199997,0.8 -1.599996,1.86667 -0.933331,3.2 l 17.199956,32.39991 c 0.666665,1.33333 1.999995,1.6 3.333325,0.8 z m 92.79976,-25.33327 5.19999,2.8 c 1.33333,0.79999 2.53333,0.53333 3.33332,-0.8 l 11.59997,-20.13328 c 0.93334,-1.73333 0.26667,-3.06666 -1.73332,-2.8 l -35.59991,4.53332 c -1.6,0.26667 -2.26666,1.06667 -2.13333,2.66666 l 0.8,5.86666 c 0.13333,1.59999 1.06666,2.39999 2.66666,2.13332 l 18.26662,-2.66666 -3.33333,5.06666 c -0.93333,1.46666 -0.4,2.53332 0.93333,3.33332 z m -46.93321,-58.799847 6.13332,1.866662 c 1.46666,0.399999 2.53332,-0.133333 2.93332,-1.599996 l 10.39998,-33.066582 c 0.53333,-1.866662 -0.53334,-3.066659 -2.4,-2.266661 l -21.46661,8.533311 c -1.46666,0.533332 -1.86666,1.733329 -1.33333,3.199992 l 2,5.066654 c 0.53333,1.466663 1.86666,2.133328 3.19999,1.466663 l 4.26665,-1.999995 -5.33332,15.866626 c -0.53333,1.466663 0,2.399994 1.6,2.933326 z m 14.79996,26.666597 37.46657,-6.93331 c 1.46667,-0.26667 2.26666,-1.33333 2,-2.8 l -1.2,-5.73332 c -0.26667,-1.59999 -1.46666,-2.13332 -2.93333,-1.86666 l -10.1333,2.26666 28.13326,-28.533257 c 1.59999,-1.733329 0.8,-3.199992 -1.46666,-2.66666 l -34.66658,7.866646 c -1.46667,0.399999 -2.26666,1.33333 -1.86666,2.933326 l 1.33333,5.466653 c 0.39999,1.599996 1.46666,2.266661 2.93332,1.866662 l 5.59999,-1.733329 -26.6666,27.199929 c -1.6,1.73333 -0.8,3.06666 1.46666,2.66666 z m 21.99995,137.46632 c -12.9333,0 -21.99995,-9.06665 -21.99995,-22.13328 0,-9.73331 4.79999,-17.19996 12.39997,-20.79995 l 5.33332,19.46662 c 0.4,1.46666 1.33333,2.26666 2.93333,1.86666 l 4.79998,-1.33333 c 1.6,-0.4 2.13333,-1.2 1.73333,-2.93332 l -4.93332,-19.06662 c 13.06663,0.4 21.86661,9.33331 21.86661,22.26661 0,13.3333 -9.06664,22.66661 -22.13327,22.66661 z m -99.066418,-19.59995 23.866608,-2.66666 c -0.26667,13.06663 -9.199979,22.26661 -22.133279,22.26661 -12.9333,0 -21.999944,-9.06665 -21.999944,-22.13328 0,-13.46663 9.066644,-22.79994 21.999944,-22.79994 3.466658,0 6.66665,0.66666 9.466642,1.86666 l -13.199966,19.86662 c -1.33333,2.13332 0,3.86665 1.999995,3.59999 z m 9.733309,-91.19977 9.599979,-5.99998 8.66664,16.39995 -9.59997,5.86665 z m 3.866656,80.66646 5.199983,-7.33331 c 1.33333,1.73332 2.53333,3.73332 3.33333,5.99998 z m 11.733303,-16.39996 10.66664,-15.46662 4.26666,27.06659 -6.66665,1.06667 c -1.73333,-4.93332 -4.66666,-9.19998 -8.26665,-12.66664 z m 2.39999,-78.26646 14.1333,-27.33327 25.19994,47.33321 -27.99993,1.2 z m 18.39996,56.53318 35.86657,-6.39998 -31.59992,33.19992 z"
       id="text192607"
       style="font-weight:bold;font-size:133.333px;line-height:1.25;font-family:'Changing Cities';-inkscape-font-specification:'Changing Cities Bold';font-variant-ligatures:none;letter-spacing:-0.1px;word-spacing:-0.01px;white-space:pre"
       transform="matrix(0.91687842,0,0,0.91687842,649.87321,100.05977)"
       aria-label="W" />
    <g
       id="text31067"
       style="font-size:144.405px;line-height:1;font-family:'Changing Cities';-inkscape-font-specification:'Changing Cities';font-variant-ligatures:none;letter-spacing:0px;word-spacing:-0.013538px;white-space:pre"
       transform="matrix(0.43729677,0,0,0.47588873,498.14577,-165.72218)"
       aria-label="WIR SIND HIER.&#10;WIR SIND LAUT !&#10;  BIS IHR UNS&#10;     DEN RADWEG&#10;                BAUT !">
      <path
         d="m 902.12959,538.9283 h 15.59574 c 1.29964,0 1.87726,-0.72203 2.31048,-1.87727 l 24.26004,-60.21688 c 1.01083,-2.45489 3.61012,-2.45489 3.17691,0.43321 l -7.50906,59.20605 c -0.14441,1.58846 0.43321,2.45489 1.87726,2.45489 h 15.59574 c 1.29965,0 1.87727,-0.72203 2.31048,-1.87727 l 38.70054,-96.75135 c 0.57762,-1.58845 -0.43321,-2.45488 -1.87726,-2.45488 H 980.5415 c -1.29964,0 -2.02167,0.72202 -2.31048,1.87726 l -17.3286,58.05081 c -0.57762,2.02167 -3.46572,1.87727 -3.17691,-0.72202 l 7.65347,-56.75117 c 0.28881,-1.73286 -0.57762,-2.45488 -2.02167,-2.45488 h -16.46217 c -1.29965,0 -1.87727,0.72202 -2.31048,1.87726 l -21.94956,58.05081 c -0.72203,2.02167 -3.75453,1.73286 -3.17691,-0.72202 l 11.98561,-56.75117 c 0.28881,-1.58845 -0.43321,-2.45488 -1.87726,-2.45488 h -15.01812 c -1.29965,0 -2.16608,0.72202 -2.31048,1.87726 l -11.98562,96.75135 c -0.1444,1.58846 0.43322,2.45489 1.87727,2.45489 z m 81.29983,0 h 16.46217 c 1.29961,0 2.02171,-0.72203 2.31051,-1.87727 l 24.982,-96.75135 c 0.4333,-1.58845 -0.4332,-2.45488 -1.8772,-2.45488 h -16.4622 c -1.2996,0 -2.0217,0.72202 -2.3105,1.87726 l -24.98204,96.75135 c -0.43322,1.58846 0.43321,2.45489 1.87726,2.45489 z m 34.22378,0 h 16.1734 c 1.2996,0 2.0216,-0.72203 2.3105,-1.87727 l 4.9097,-18.62824 c 0.2888,-0.86643 1.0109,-4.76537 1.0109,-5.7762 l 1.1552,-16.31777 c 0.1444,-2.59929 2.8881,-2.74369 3.1769,-0.28881 l 5.6318,40.86662 c 0.1444,1.44405 1.0108,2.02167 2.3105,2.02167 h 15.1625 c 1.2997,0 2.4549,-0.72203 2.1661,-2.45489 l -5.4874,-35.95684 c -0.1444,-1.01084 -0.722,-1.87727 -1.5885,-2.45489 l -6.9314,-4.18774 c -2.0217,-1.15524 -0.722,-3.46572 1.444,-2.7437 l 4.7654,1.29965 c 1.2997,0.43321 2.1661,0.28881 3.1769,0 12.7077,-2.7437 18.0506,-13.57407 20.3611,-23.82683 3.6102,-16.02895 -5.1986,-30.75826 -26.2817,-30.75826 h -18.0506 c -1.2997,0 -2.0217,0.72202 -2.3105,1.87726 l -24.9821,96.60695 c -0.4332,1.58845 0.4333,2.59929 1.8773,2.59929 z m 33.0688,-59.06165 6.4982,-25.41528 h 3.8989 c 6.3538,0 9.8196,4.33215 7.6535,13.57407 -1.7329,7.50906 -5.7762,11.84121 -12.7077,11.84121 z m 81.1417,60.21689 c 16.751,1.44405 26.7149,-11.11919 28.881,-26.13731 2.5993,-16.31776 -6.3538,-25.9929 -12.5632,-34.51279 -4.7654,-6.49823 -8.0867,-10.54157 -6.787,-18.05063 0.722,-5.05417 4.3321,-6.93144 6.6426,-6.49822 3.8989,0.28881 7.0758,5.9206 6.6426,17.3286 0,1.58845 0.8664,2.45488 2.3105,2.16607 l 12.7076,-1.87726 c 1.1553,-0.14441 2.0217,-0.86643 2.1661,-2.16608 1.1552,-15.16252 -5.343,-32.77993 -22.6716,-33.64636 -11.1192,-0.57762 -23.6824,4.90977 -27.0037,23.53801 -2.3105,13.28526 3.1769,22.81599 8.6643,30.18065 5.7762,8.23108 10.5416,14.00728 9.6751,23.39361 -0.722,6.35382 -3.3213,8.6643 -6.4982,8.23108 -4.621,-0.72202 -7.9423,-8.08668 -6.6426,-21.66075 0.1444,-1.58845 -0.7221,-2.45488 -2.1661,-2.16607 l -14.1517,2.31048 c -1.1552,0.1444 -2.0217,0.86643 -2.1661,2.16607 -2.0216,21.80516 8.3755,36.10125 22.9604,37.4009 z m 34.9458,-1.15524 h 16.4621 c 1.2997,0 2.0217,-0.72203 2.3105,-1.87727 l 24.9821,-96.75135 c 0.4332,-1.58845 -0.4332,-2.45488 -1.8773,-2.45488 h -16.4621 c -1.2997,0 -2.0217,0.72202 -2.3105,1.87726 l -24.9821,96.75135 c -0.4332,1.58846 0.4332,2.45489 1.8773,2.45489 z m 34.5126,0 h 14.5849 c 1.444,0 2.1661,-0.86643 2.4549,-2.02167 l 6.787,-27.58136 c 0.2888,-0.86643 0.722,-3.0325 0.8664,-3.89893 l 2.4549,-27.14814 c 0.1444,-1.87727 2.7437,-2.31048 3.0325,0 l 6.2095,58.33962 c 0.1444,1.87726 0.8664,2.31048 2.3104,2.31048 h 13.4297 c 1.444,0 2.4549,-0.72203 2.7437,-1.87727 l 24.9821,-96.60694 c 0.4332,-1.58846 -0.4333,-2.7437 -2.0217,-2.7437 l -14.5849,0.14441 c -1.4441,0 -2.3105,0.86643 -2.5993,2.16607 l -7.2203,29.02541 c -0.2888,1.01083 -0.2888,2.02167 -0.4332,2.8881 l -2.4549,26.42611 c -0.1444,2.31048 -2.8881,2.16608 -3.0325,0.28881 l -6.2094,-58.48402 c -0.1444,-1.44405 -1.0108,-2.31048 -2.4549,-2.31048 l -13.4296,-0.14441 c -1.4441,0 -2.3105,0.86643 -2.5993,2.16608 l -24.9821,96.31813 c -0.4332,1.58846 0.5776,2.7437 2.1661,2.7437 z m 69.6031,0 h 24.9821 c 19.3502,0 35.3792,-14.87372 42.8882,-45.92079 8.2311,-33.79077 -0.722,-55.16271 -30.4694,-55.16271 h -11.9856 c -1.2997,0 -2.0217,0.72202 -2.3105,1.87726 l -24.9821,96.75135 c -0.4332,1.58846 0.4332,2.45489 1.8773,2.45489 z m 22.816,-17.3286 17.1842,-66.4263 h 1.8772 c 9.964,0 12.1301,11.84121 5.7762,35.95684 -6.3538,24.11564 -14.2961,30.46946 -22.0939,30.46946 z m 107.4233,17.3286 h 16.4622 c 1.2996,0 2.0217,-0.72203 2.3105,-1.87727 l 24.982,-96.75135 c 0.4332,-1.58845 -0.4332,-2.45488 -1.8772,-2.45488 h -16.4622 c -1.2997,0 -2.0217,0.72202 -2.3105,1.87726 l -10.686,41.44424 -15.5957,2.74369 11.2636,-43.61031 c 0.4332,-1.58845 -0.4332,-2.45488 -1.8773,-2.45488 h -16.4621 c -1.2997,0 -2.0217,0.72202 -2.3105,1.87726 l -24.9821,96.75135 c -0.4332,1.58846 0.4332,2.45489 1.8773,2.45489 h 16.4621 c 1.2997,0 2.0217,-0.72203 2.3105,-1.87727 l 9.0975,-35.09041 15.5958,-2.7437 -9.6752,37.25649 c -0.4332,1.58846 0.4333,2.45489 1.8773,2.45489 z m 34.2237,0 h 16.4622 c 1.2997,0 2.0217,-0.72203 2.3105,-1.87727 l 24.9821,-96.75135 c 0.4332,-1.58845 -0.4333,-2.45488 -1.8773,-2.45488 h -16.4622 c -1.2996,0 -2.0216,0.72202 -2.3105,1.87726 l -24.982,96.75135 c -0.4332,1.58846 0.4332,2.45489 1.8772,2.45489 z m 34.9458,0 h 41.0111 c 1.2996,0 2.0216,-0.72203 2.3104,-1.87727 l 3.4658,-13.28526 c 0.4332,-1.58845 -0.4333,-2.45488 -1.8773,-2.45488 h -22.5272 l 6.7871,-26.28171 h 18.0506 c 1.2996,0 2.0216,-0.72203 2.3105,-1.87727 l 3.1769,-12.13002 c 0.4332,-1.58845 -0.4332,-2.45488 -1.8773,-2.45488 h -17.473 l 6.065,-23.1048 h 23.1048 c 1.2997,0 2.0217,-0.72203 2.3105,-1.87727 l 3.4657,-13.28526 c 0.4332,-1.58845 -0.4332,-2.45488 -1.8773,-2.45488 h -41.8774 c -1.2997,0 -2.0217,0.72202 -2.3105,1.87726 l -24.6932,96.02933 c -0.4333,1.87726 0.4332,3.17691 2.4548,3.17691 z m 53.5742,0 h 16.1734 c 1.2996,0 2.0216,-0.72203 2.3105,-1.87727 l 4.9097,-18.62824 c 0.2888,-0.86643 1.0109,-4.76537 1.0109,-5.7762 l 1.1552,-16.31777 c 0.1444,-2.59929 2.8881,-2.74369 3.1769,-0.28881 l 5.6318,40.86662 c 0.1444,1.44405 1.0108,2.02167 2.3105,2.02167 h 15.1625 c 1.2997,0 2.4549,-0.72203 2.1661,-2.45489 l -5.4874,-35.95684 c -0.1444,-1.01084 -0.722,-1.87727 -1.5885,-2.45489 l -6.9314,-4.18774 c -2.0217,-1.15524 -0.722,-3.46572 1.4441,-2.7437 l 4.7653,1.29965 c 1.2997,0.43321 2.1661,0.28881 3.1769,0 12.7077,-2.7437 18.0507,-13.57407 20.3611,-23.82683 3.6102,-16.02895 -5.1985,-30.75826 -26.2817,-30.75826 h -18.0506 c -1.2996,0 -2.0217,0.72202 -2.3105,1.87726 l -24.982,96.60695 c -0.4333,1.58845 0.4332,2.59929 1.8772,2.59929 z m 33.0688,-59.06165 6.4982,-25.41528 h 3.8989 c 6.3538,0 9.8196,4.33215 7.6535,13.57407 -1.7329,7.50906 -5.7762,11.84121 -12.7077,11.84121 z m 28.1588,59.06165 h 18.0507 c 1.2996,0 2.0216,-0.72203 2.3104,-1.87727 l 4.621,-17.90622 c 0.4332,-1.58845 -0.4332,-2.45488 -1.8773,-2.45488 H 1590.19 c -1.2996,0 -2.0217,0.72202 -2.3105,1.87726 l -4.6209,17.90622 c -0.4332,1.58846 0.4332,2.45489 1.8772,2.45489 z"
         id="path15" />
      <path
         d="m 902.12959,683.33333 h 15.59574 c 1.29964,0 1.87726,-0.72203 2.31048,-1.87727 l 24.26004,-60.21688 c 1.01083,-2.45489 3.61012,-2.45489 3.17691,0.43321 l -7.50906,59.20605 c -0.14441,1.58846 0.43321,2.45489 1.87726,2.45489 h 15.59574 c 1.29965,0 1.87727,-0.72203 2.31048,-1.87727 l 38.70054,-96.75135 c 0.57762,-1.58845 -0.43321,-2.45488 -1.87726,-2.45488 H 980.5415 c -1.29964,0 -2.02167,0.72202 -2.31048,1.87726 l -17.3286,58.05081 c -0.57762,2.02167 -3.46572,1.87727 -3.17691,-0.72202 l 7.65347,-56.75117 c 0.28881,-1.73286 -0.57762,-2.45488 -2.02167,-2.45488 h -16.46217 c -1.29965,0 -1.87727,0.72202 -2.31048,1.87726 L 922.6351,642.1779 c -0.72203,2.02167 -3.75453,1.73286 -3.17691,-0.72202 l 11.98561,-56.75117 c 0.28881,-1.58845 -0.43321,-2.45488 -1.87726,-2.45488 h -15.01812 c -1.29965,0 -2.16608,0.72202 -2.31048,1.87726 l -11.98562,96.75135 c -0.1444,1.58846 0.43322,2.45489 1.87727,2.45489 z m 81.29983,0 h 16.46217 c 1.29961,0 2.02171,-0.72203 2.31051,-1.87727 l 24.982,-96.75135 c 0.4333,-1.58845 -0.4332,-2.45488 -1.8772,-2.45488 h -16.4622 c -1.2996,0 -2.0217,0.72202 -2.3105,1.87726 l -24.98204,96.75135 c -0.43322,1.58846 0.43321,2.45489 1.87726,2.45489 z m 34.22378,0 h 16.1734 c 1.2996,0 2.0216,-0.72203 2.3105,-1.87727 l 4.9097,-18.62824 c 0.2888,-0.86643 1.0109,-4.76537 1.0109,-5.7762 l 1.1552,-16.31777 c 0.1444,-2.59929 2.8881,-2.74369 3.1769,-0.28881 l 5.6318,40.86662 c 0.1444,1.44405 1.0108,2.02167 2.3105,2.02167 h 15.1625 c 1.2997,0 2.4549,-0.72203 2.1661,-2.45489 l -5.4874,-35.95684 c -0.1444,-1.01084 -0.722,-1.87727 -1.5885,-2.45489 l -6.9314,-4.18774 c -2.0217,-1.15524 -0.722,-3.46572 1.444,-2.7437 l 4.7654,1.29965 c 1.2997,0.43321 2.1661,0.28881 3.1769,0 12.7077,-2.7437 18.0506,-13.57407 20.3611,-23.82683 3.6102,-16.02895 -5.1986,-30.75826 -26.2817,-30.75826 h -18.0506 c -1.2997,0 -2.0217,0.72202 -2.3105,1.87726 l -24.9821,96.60695 c -0.4332,1.58845 0.4333,2.59929 1.8773,2.59929 z m 33.0688,-59.06165 6.4982,-25.41528 h 3.8989 c 6.3538,0 9.8196,4.33215 7.6535,13.57407 -1.7329,7.50906 -5.7762,11.84121 -12.7077,11.84121 z m 81.1417,60.21689 c 16.751,1.44405 26.7149,-11.11919 28.881,-26.13731 2.5993,-16.31776 -6.3538,-25.9929 -12.5632,-34.51279 -4.7654,-6.49823 -8.0867,-10.54157 -6.787,-18.05063 0.722,-5.05417 4.3321,-6.93144 6.6426,-6.49822 3.8989,0.28881 7.0758,5.9206 6.6426,17.3286 0,1.58845 0.8664,2.45488 2.3105,2.16607 l 12.7076,-1.87726 c 1.1553,-0.14441 2.0217,-0.86643 2.1661,-2.16608 1.1552,-15.16252 -5.343,-32.77993 -22.6716,-33.64636 -11.1192,-0.57762 -23.6824,4.90977 -27.0037,23.53801 -2.3105,13.28526 3.1769,22.81599 8.6643,30.18065 5.7762,8.23108 10.5416,14.00728 9.6751,23.39361 -0.722,6.35382 -3.3213,8.6643 -6.4982,8.23108 -4.621,-0.72202 -7.9423,-8.08668 -6.6426,-21.66075 0.1444,-1.58845 -0.7221,-2.45488 -2.1661,-2.16607 l -14.1517,2.31048 c -1.1552,0.1444 -2.0217,0.86643 -2.1661,2.16607 -2.0216,21.80516 8.3755,36.10125 22.9604,37.4009 z m 34.9458,-1.15524 h 16.4621 c 1.2997,0 2.0217,-0.72203 2.3105,-1.87727 l 24.9821,-96.75135 c 0.4332,-1.58845 -0.4332,-2.45488 -1.8773,-2.45488 h -16.4621 c -1.2997,0 -2.0217,0.72202 -2.3105,1.87726 l -24.9821,96.75135 c -0.4332,1.58846 0.4332,2.45489 1.8773,2.45489 z m 34.5126,0 h 14.5849 c 1.444,0 2.1661,-0.86643 2.4549,-2.02167 l 6.787,-27.58136 c 0.2888,-0.86643 0.722,-3.0325 0.8664,-3.89893 l 2.4549,-27.14814 c 0.1444,-1.87727 2.7437,-2.31048 3.0325,0 l 6.2095,58.33962 c 0.1444,1.87726 0.8664,2.31048 2.3104,2.31048 h 13.4297 c 1.444,0 2.4549,-0.72203 2.7437,-1.87727 l 24.9821,-96.60694 c 0.4332,-1.58846 -0.4333,-2.7437 -2.0217,-2.7437 l -14.5849,0.14441 c -1.4441,0 -2.3105,0.86643 -2.5993,2.16607 l -7.2203,29.02541 c -0.2888,1.01083 -0.2888,2.02167 -0.4332,2.8881 l -2.4549,26.42611 c -0.1444,2.31048 -2.8881,2.16608 -3.0325,0.28881 l -6.2094,-58.48402 c -0.1444,-1.44405 -1.0108,-2.31048 -2.4549,-2.31048 l -13.4296,-0.14441 c -1.4441,0 -2.3105,0.86643 -2.5993,2.16608 l -24.9821,96.31813 c -0.4332,1.58846 0.5776,2.7437 2.1661,2.7437 z m 69.6031,0 h 24.9821 c 19.3502,0 35.3792,-14.87372 42.8882,-45.92079 8.2311,-33.79077 -0.722,-55.16271 -30.4694,-55.16271 h -11.9856 c -1.2997,0 -2.0217,0.72202 -2.3105,1.87726 l -24.9821,96.75135 c -0.4332,1.58846 0.4332,2.45489 1.8773,2.45489 z m 22.816,-17.3286 17.1842,-66.4263 h 1.8772 c 9.964,0 12.1301,11.84121 5.7762,35.95684 -6.3538,24.11564 -14.2961,30.46946 -22.0939,30.46946 z"
         id="path16" />
      <path
         style="font-weight:500;-inkscape-font-specification:'Changing Cities Medium'"
         d="m 1365.4965,683.33333 h 40.1446 c 1.2996,0 2.0216,-0.72203 2.3104,-1.87727 l 3.4658,-12.99645 c 0.4332,-1.58845 -0.4332,-2.45488 -1.8773,-2.45488 h -21.2275 l 20.9387,-81.30002 c 0.4332,-1.58845 -0.4332,-2.45488 -1.8773,-2.45488 h -16.4621 c -1.2997,0 -2.0217,0.72202 -2.3105,1.87726 l -24.9821,96.75135 c -0.4332,1.58846 0.4332,2.45489 1.8773,2.45489 z m -18.9171,34.946 h 55.4515 c 1.2997,0 2.0217,-0.72202 2.3105,-1.87726 l 3.6101,-13.28526 c 0.4333,-1.58845 -0.4332,-2.45488 -1.8772,-2.45488 h -55.4515 c -1.2997,0 -2.0217,0.72202 -2.3105,1.87726 l -3.6101,13.28526 c -0.4333,1.58845 0.4332,2.45488 1.8772,2.45488 z m 64.9821,-34.946 h 18.3394 c 1.1552,0 2.0217,-0.28881 2.5993,-1.29965 l 10.5415,-16.60657 h 16.3178 l -5.343,15.45133 c -0.5776,1.58846 0.4332,2.45489 1.8773,2.45489 h 16.751 c 1.2996,0 2.0216,-0.72203 2.3104,-1.87727 l 24.9821,-96.75135 c 0.4332,-1.58845 -0.4332,-2.45488 -1.8773,-2.45488 h -17.0397 c -1.1553,0 -2.1661,0.43321 -2.7437,1.29964 l -67.8704,96.89576 c -1.0108,1.58845 -0.5776,2.8881 1.1553,2.8881 z m -11.408,34.946 h 74.6573 c 1.2997,0 2.0217,-0.72202 2.3105,-1.87726 l 3.6101,-13.28526 c 0.4333,-1.58845 -0.4332,-2.45488 -1.8772,-2.45488 h -74.6574 c -1.2996,0 -2.0217,0.72202 -2.3105,1.87726 l -3.6101,13.28526 c -0.4332,1.58845 0.4332,2.45488 1.8773,2.45488 z m 52.9966,-69.4588 21.0831,-34.51279 c 1.1553,-2.02167 4.0434,-1.01084 3.1769,1.44405 l -11.9856,33.06874 z m 63.3935,35.66804 c 17.6174,0.86643 28.4478,-11.84121 32.9244,-29.16981 l 18.3394,-70.61405 c 0.4332,-1.58845 -0.4332,-2.45488 -1.8773,-2.45488 h -16.4621 c -1.2997,0 -2.0217,0.72202 -2.3105,1.87726 l -17.6174,68.59238 c -1.7329,6.78703 -4.4766,14.87371 -10.9748,14.15169 -6.065,-0.72203 -6.065,-8.6643 -3.899,-16.75098 l 16.751,-65.41547 c 0.4332,-1.58845 -0.4332,-2.45488 -1.8772,-2.45488 h -16.4622 c -1.2997,0 -2.0217,0.72202 -2.3105,1.87726 l -15.8845,61.94975 c -4.7654,18.33943 0.8664,37.40089 21.6607,38.41173 z m -45.7764,33.79076 h 70.3253 c 1.2996,0 2.0216,-0.72202 2.3104,-1.87726 l 3.6102,-13.28526 c 0.4332,-1.58845 -0.4332,-2.45488 -1.8773,-2.45488 h -70.3252 c -1.2997,0 -2.0217,0.72202 -2.3105,1.87726 l -3.6101,13.28526 c -0.4333,1.58845 0.4332,2.45488 1.8772,2.45488 z m 95.0185,-34.946 h 16.4622 c 1.2996,0 2.0216,-0.72203 2.3104,-1.87727 l 21.372,-82.59966 h 14.5849 c 1.2996,0 2.0216,-0.72202 2.3105,-1.87726 l 3.1769,-12.27443 c 0.4332,-1.58845 -0.4332,-2.45488 -1.8773,-2.45488 h -49.3865 c -1.2997,0 -2.0217,0.72202 -2.3105,1.87726 l -3.1769,12.27443 c -0.4332,1.58845 0.4332,2.45488 1.8773,2.45488 h 14.0073 l -21.2276,82.02204 c -0.4332,1.58846 0.4332,2.45489 1.8773,2.45489 z m -28.7366,34.946 h 57.9064 c 1.2996,0 2.0217,-0.72202 2.3105,-1.87726 l 3.6101,-13.28526 c 0.4332,-1.58845 -0.4332,-2.45488 -1.8773,-2.45488 h -57.9064 c -1.2996,0 -2.0216,0.72202 -2.3105,1.87726 l -3.6101,13.28526 c -0.4332,1.58845 0.4332,2.45488 1.8773,2.45488 z"
         id="path17" />
      <path
         d="m 1645.339,652.43066 h 16.4621 c 1.2997,0 2.0217,-0.72203 2.3105,-1.87727 l 16.8954,-65.84868 c 0.4332,-1.58845 -0.4332,-2.45488 -1.8773,-2.45488 h -16.4621 c -1.2997,0 -2.0217,0.72202 -2.3105,1.87726 l -16.8954,65.84868 c -0.4332,1.58846 0.4332,2.45489 1.8773,2.45489 z m -8.8087,30.90267 h 18.0506 c 1.2996,0 2.0217,-0.72203 2.3105,-1.87727 l 4.6209,-17.90622 c 0.4332,-1.58845 -0.4332,-2.45488 -1.8772,-2.45488 h -18.0507 c -1.2996,0 -2.0216,0.72202 -2.3104,1.87726 l -4.621,17.90622 c -0.4332,1.58846 0.4332,2.45489 1.8773,2.45489 z"
         id="path18" />
      <path
         d="M 948.02284,827.73835 H 975.893 c 17.1842,0 29.3142,-9.24192 32.6355,-25.55968 3.0325,-14.87372 -4.9097,-21.66075 -8.3755,-24.54885 -1.73282,-1.44405 -1.58841,-2.31048 0.8665,-3.32132 5.343,-2.16607 12.7076,-7.94227 15.1625,-18.33943 3.1769,-13.86288 -3.6101,-29.31421 -25.41528,-29.31421 H 972.8605 c -1.29965,0 -2.02167,0.72202 -2.31048,1.87726 l -24.69326,95.88492 c -0.43321,1.58845 0.43322,3.32131 2.16608,3.32131 z m 20.64991,-16.02895 7.22025,-27.72576 h 4.90977 c 7.65347,0 9.24192,5.7762 7.50906,14.15169 -1.58845,7.79787 -5.63179,13.57407 -13.14085,13.57407 z m 11.69681,-44.76555 6.20941,-24.11563 h 4.62096 c 6.35382,0 8.23109,6.49822 6.49823,13.42966 -1.73286,6.93144 -4.90977,10.68597 -13.28526,10.68597 z m 33.35744,60.7945 h 16.4622 c 1.2996,0 2.0216,-0.72202 2.3104,-1.87726 l 24.9821,-96.75135 c 0.4332,-1.58845 -0.4332,-2.45488 -1.8773,-2.45488 h -16.4621 c -1.2997,0 -2.0217,0.72202 -2.3105,1.87726 l -24.9821,96.75135 c -0.4332,1.58845 0.4332,2.45488 1.8773,2.45488 z m 58.6282,1.15524 c 16.751,1.44405 26.7149,-11.11918 28.881,-26.1373 2.5993,-16.31777 -6.3538,-25.9929 -12.5632,-34.5128 -4.7654,-6.49822 -8.0867,-10.54156 -6.787,-18.05062 0.722,-5.05417 4.3321,-6.93144 6.6426,-6.49822 3.8989,0.28881 7.0758,5.9206 6.6426,17.3286 0,1.58845 0.8664,2.45488 2.3105,2.16607 l 12.7076,-1.87726 c 1.1553,-0.14441 2.0217,-0.86643 2.1661,-2.16608 1.1552,-15.16252 -5.343,-32.77993 -22.6716,-33.64636 -11.1192,-0.57762 -23.6824,4.90977 -27.0037,23.53801 -2.3105,13.28526 3.1769,22.81599 8.6643,30.18064 5.7762,8.23109 10.5416,14.00729 9.6751,23.39361 -0.722,6.35382 -3.3213,8.6643 -6.4982,8.23109 -4.621,-0.72203 -7.9423,-8.08668 -6.6426,-21.66075 0.1444,-1.58846 -0.7221,-2.45489 -2.1661,-2.16608 l -14.1517,2.31048 c -1.1552,0.14441 -2.0217,0.86643 -2.1661,2.16608 -2.0216,21.80515 8.3755,36.10125 22.9604,37.40089 z m 60.9249,-1.15524 h 16.4622 c 1.2996,0 2.0217,-0.72202 2.3105,-1.87726 l 24.982,-96.75135 c 0.4332,-1.58845 -0.4332,-2.45488 -1.8772,-2.45488 h -16.4622 c -1.2996,0 -2.0217,0.72202 -2.3105,1.87726 l -24.982,96.75135 c -0.4333,1.58845 0.4332,2.45488 1.8772,2.45488 z m 69.8918,0 h 16.4622 c 1.2996,0 2.0217,-0.72202 2.3105,-1.87726 l 24.982,-96.75135 c 0.4333,-1.58845 -0.4332,-2.45488 -1.8772,-2.45488 h -16.4622 c -1.2996,0 -2.0217,0.72202 -2.3105,1.87726 l -10.6859,41.44423 -15.5958,2.7437 11.2636,-43.61031 c 0.4332,-1.58845 -0.4332,-2.45488 -1.8773,-2.45488 h -16.4621 c -1.2997,0 -2.0217,0.72202 -2.3105,1.87726 l -24.9821,96.75135 c -0.4332,1.58845 0.4332,2.45488 1.8773,2.45488 h 16.4622 c 1.2996,0 2.0216,-0.72202 2.3104,-1.87726 l 9.0976,-35.09042 15.5957,-2.74369 -9.6751,37.25649 c -0.4333,1.58845 0.4332,2.45488 1.8772,2.45488 z m 33.5017,0 h 16.1734 c 1.2996,0 2.0217,-0.72202 2.3105,-1.87726 l 4.9097,-18.62825 c 0.2889,-0.86643 1.0109,-4.76536 1.0109,-5.7762 l 1.1552,-16.31776 c 0.1444,-2.59929 2.8881,-2.7437 3.1769,-0.28881 l 5.6318,40.86661 c 0.1444,1.44405 1.0109,2.02167 2.3105,2.02167 h 15.1625 c 1.2997,0 2.4549,-0.72202 2.1661,-2.45488 l -5.4874,-35.95685 c -0.1444,-1.01083 -0.722,-1.87726 -1.5884,-2.45488 l -6.9315,-4.18775 c -2.0217,-1.15524 -0.722,-3.46572 1.4441,-2.74369 l 4.7653,1.29964 c 1.2997,0.43322 2.1661,0.28881 3.1769,0 12.7077,-2.74369 18.0507,-13.57407 20.3611,-23.82682 3.6102,-16.02895 -5.1985,-30.75826 -26.2817,-30.75826 h -18.0506 c -1.2996,0 -2.0217,0.72202 -2.3105,1.87726 l -24.982,96.60694 c -0.4332,1.58846 0.4332,2.59929 1.8772,2.59929 z m 33.0688,-59.06164 6.4982,-25.41528 h 3.8989 c 6.3539,0 9.8196,4.33215 7.6535,13.57407 -1.7329,7.50906 -5.7762,11.84121 -12.7076,11.84121 z m 83.5966,60.21688 c 17.6174,0.86643 28.4478,-11.84121 32.9244,-29.16981 l 18.3394,-70.61404 c 0.4332,-1.58845 -0.4332,-2.45488 -1.8773,-2.45488 h -16.4621 c -1.2997,0 -2.0217,0.72202 -2.3105,1.87726 l -17.6174,68.59237 c -1.7329,6.78704 -4.4766,14.87372 -10.9748,14.15169 -6.065,-0.72202 -6.065,-8.6643 -3.8989,-16.75098 l 16.7509,-65.41546 c 0.4333,-1.58845 -0.4332,-2.45488 -1.8772,-2.45488 h -16.4622 c -1.2996,0 -2.0217,0.72202 -2.3105,1.87726 l -15.8845,61.94974 c -4.7654,18.33944 0.8664,37.4009 21.6607,38.41173 z m 39.7114,-1.15524 h 14.5849 c 1.444,0 2.166,-0.86643 2.4549,-2.02167 l 6.787,-27.58135 c 0.2888,-0.86643 0.722,-3.03251 0.8664,-3.89894 l 2.4549,-27.14813 c 0.1444,-1.87727 2.7437,-2.31048 3.0325,0 l 6.2094,58.33961 c 0.1444,1.87727 0.8665,2.31048 2.3105,2.31048 h 13.4297 c 1.444,0 2.4549,-0.72202 2.7437,-1.87726 l 24.982,-96.60694 c 0.4332,-1.58846 -0.4332,-2.7437 -2.0216,-2.7437 l -14.5849,0.14441 c -1.4441,0 -2.3105,0.86643 -2.5993,2.16607 l -7.2203,29.02541 c -0.2888,1.01083 -0.2888,2.02167 -0.4332,2.8881 l -2.4549,26.42611 c -0.1444,2.31048 -2.8881,2.16607 -3.0325,0.28881 l -6.2094,-58.48402 c -0.1444,-1.44405 -1.0108,-2.31048 -2.4549,-2.31048 l -13.4297,-0.14441 c -1.444,0 -2.3104,0.86643 -2.5992,2.16608 l -24.9821,96.31813 c -0.4332,1.58845 0.5776,2.74369 2.1661,2.74369 z m 94.0075,1.15524 c 16.751,1.44405 26.7149,-11.11918 28.881,-26.1373 2.5993,-16.31777 -6.3538,-25.9929 -12.5632,-34.5128 -4.7654,-6.49822 -8.0867,-10.54156 -6.7871,-18.05062 0.7221,-5.05417 4.3322,-6.93144 6.6427,-6.49822 3.8989,0.28881 7.0758,5.9206 6.6426,17.3286 0,1.58845 0.8664,2.45488 2.3105,2.16607 l 12.7076,-1.87726 c 1.1553,-0.14441 2.0217,-0.86643 2.1661,-2.16608 1.1552,-15.16252 -5.343,-32.77993 -22.6716,-33.64636 -11.1192,-0.57762 -23.6824,4.90977 -27.0037,23.53801 -2.3105,13.28526 3.1769,22.81599 8.6643,30.18064 5.7762,8.23109 10.5415,14.00729 9.6751,23.39361 -0.722,6.35382 -3.3213,8.6643 -6.4982,8.23109 -4.621,-0.72203 -7.9423,-8.08668 -6.6427,-21.66075 0.1445,-1.58846 -0.722,-2.45489 -2.166,-2.16608 l -14.1517,2.31048 c -1.1553,0.14441 -2.0217,0.86643 -2.1661,2.16608 -2.0217,21.80515 8.3755,36.10125 22.9604,37.40089 z"
         id="path19" />
      <path
         d="m 1025.527,972.14338 h 24.9821 c 19.3502,0 35.3792,-14.87371 42.8883,-45.92079 8.231,-33.79077 -0.7221,-55.16271 -30.4695,-55.16271 h -11.9856 c -1.2997,0 -2.0217,0.72203 -2.3105,1.87727 l -24.9821,96.75135 c -0.4332,1.58845 0.4333,2.45488 1.8773,2.45488 z m 22.816,-17.3286 17.1842,-66.4263 h 1.8773 c 9.9639,0 12.13,11.84121 5.7762,35.95685 -6.3539,24.11563 -14.2961,30.46945 -22.094,30.46945 z m 46.4982,17.3286 h 41.011 c 1.2997,0 2.0217,-0.72202 2.3105,-1.87726 l 3.4657,-13.28526 c 0.4332,-1.58846 -0.4332,-2.45489 -1.8772,-2.45489 h -22.5272 l 6.787,-26.28171 h 18.0506 c 1.2997,0 2.0217,-0.72202 2.3105,-1.87726 l 3.1769,-12.13002 c 0.4332,-1.58846 -0.4332,-2.45489 -1.8772,-2.45489 h -17.473 l 6.065,-23.1048 h 23.1048 c 1.2996,0 2.0216,-0.72202 2.3104,-1.87726 l 3.4658,-13.28526 c 0.4332,-1.58846 -0.4333,-2.45489 -1.8773,-2.45489 H 1119.39 c -1.2996,0 -2.0216,0.72203 -2.3104,1.87727 l -24.6933,96.02932 c -0.4332,1.87727 0.4332,3.17691 2.4549,3.17691 z m 53.863,0 h 14.5849 c 1.444,0 2.1661,-0.86643 2.4549,-2.02167 l 6.787,-27.58135 c 0.2888,-0.86643 0.722,-3.03251 0.8664,-3.89894 l 2.4549,-27.14814 c 0.1444,-1.87726 2.7437,-2.31048 3.0325,0 l 6.2094,58.33962 c 0.1445,1.87727 0.8665,2.31048 2.3105,2.31048 h 13.4297 c 1.444,0 2.4549,-0.72202 2.7437,-1.87726 l 24.9821,-96.60695 c 0.4332,-1.58845 -0.4333,-2.74369 -2.0217,-2.74369 l -14.5849,0.1444 c -1.4441,0 -2.3105,0.86643 -2.5993,2.16608 l -7.2203,29.0254 c -0.2888,1.01084 -0.2888,2.02167 -0.4332,2.8881 l -2.4549,26.42612 c -0.1444,2.31048 -2.8881,2.16607 -3.0325,0.28881 l -6.2094,-58.48403 c -0.1444,-1.44405 -1.0108,-2.31048 -2.4549,-2.31048 l -13.4296,-0.1444 c -1.4441,0 -2.3105,0.86643 -2.5993,2.16607 l -24.9821,96.31814 c -0.4332,1.58845 0.5776,2.74369 2.1661,2.74369 z"
         id="path20" />
      <path
         style="font-weight:500;-inkscape-font-specification:'Changing Cities Medium'"
         d="m 1244.2864,972.14338 h 16.1734 c 1.2996,0 2.0217,-0.72202 2.3105,-1.87726 l 4.9097,-18.62825 c 0.2888,-0.86643 1.0109,-4.76536 1.0109,-5.7762 l 1.1552,-16.31776 c 0.1444,-2.59929 2.8881,-2.7437 3.1769,-0.28881 l 5.6318,40.86661 c 0.1444,1.44405 1.0108,2.02167 2.3105,2.02167 h 15.1625 c 1.2997,0 2.4549,-0.72202 2.1661,-2.45488 l -5.4874,-35.95685 c -0.1444,-1.01083 -0.722,-1.87726 -1.5885,-2.45488 l -6.9314,-4.18775 c -2.0217,-1.15524 -0.722,-3.46572 1.4441,-2.74369 l 4.7653,1.29964 c 1.2997,0.43322 2.1661,0.28881 3.1769,0 12.7077,-2.74369 18.0507,-13.57407 20.3611,-23.82682 3.6102,-16.02896 -5.1985,-30.75827 -26.2817,-30.75827 h -18.0506 c -1.2996,0 -2.0217,0.72203 -2.3105,1.87727 l -24.982,96.60694 c -0.4333,1.58846 0.4332,2.59929 1.8772,2.59929 z m -18.917,34.94602 h 67.8703 c 1.2997,0 2.0217,-0.722 2.3105,-1.8773 l 3.6101,-13.28523 c 0.4332,-1.58846 -0.4332,-2.45489 -1.8772,-2.45489 h -67.8704 c -1.2996,0 -2.0217,0.72203 -2.3105,1.87727 l -3.6101,13.28525 c -0.4332,1.5885 0.4332,2.4549 1.8773,2.4549 z m 51.9858,-94.00766 6.4982,-25.41528 h 3.8989 c 6.3538,0 9.8196,4.33215 7.6535,13.57407 -1.7329,7.50906 -5.7762,11.84121 -12.7076,11.84121 z m 23.1045,59.06164 h 18.3394 c 1.1553,0 2.0217,-0.28881 2.5993,-1.29964 l 10.5416,-16.60658 h 16.3177 l -5.343,15.45134 c -0.5776,1.58845 0.4333,2.45488 1.8773,2.45488 h 16.751 c 1.2996,0 2.0217,-0.72202 2.3105,-1.87726 l 24.982,-96.75135 c 0.4333,-1.58846 -0.4332,-2.45489 -1.8772,-2.45489 h -17.0398 c -1.1553,0 -2.1661,0.43322 -2.7437,1.29965 l -67.8704,96.89575 c -1.0108,1.58846 -0.5776,2.8881 1.1553,2.8881 z m -11.408,34.94602 h 74.6574 c 1.2996,0 2.0216,-0.722 2.3104,-1.8773 l 3.6102,-13.28523 c 0.4332,-1.58846 -0.4332,-2.45489 -1.8773,-2.45489 h -74.6574 c -1.2996,0 -2.0216,0.72203 -2.3105,1.87727 l -3.6101,13.28525 c -0.4332,1.5885 0.4332,2.4549 1.8773,2.4549 z m 52.9966,-69.45881 21.0831,-34.5128 c 1.1553,-2.02167 4.0434,-1.01083 3.177,1.44405 l -11.9857,33.06875 z m 36.5343,34.51279 h 24.982 c 19.3503,0 35.3793,-14.87371 42.8883,-45.92079 8.2311,-33.79077 -0.722,-55.16271 -30.4694,-55.16271 h -11.9857 c -1.2996,0 -2.0216,0.72203 -2.3104,1.87727 l -24.9821,96.75135 c -0.4332,1.58845 0.4332,2.45488 1.8773,2.45488 z m -18.9171,34.94602 h 72.6357 c 1.2997,0 2.0217,-0.722 2.3105,-1.8773 l 3.6101,-13.28523 c 0.4332,-1.58846 -0.4332,-2.45489 -1.8772,-2.45489 h -72.6357 c -1.2997,0 -2.0217,0.72203 -2.3105,1.87727 l -3.6102,13.28525 c -0.4332,1.5885 0.4333,2.4549 1.8773,2.4549 z m 41.7331,-52.27462 17.1842,-66.4263 h 1.8772 c 9.964,0 12.13,11.84121 5.7762,35.95685 -6.3538,24.11563 -14.2961,30.46945 -22.0939,30.46945 z m 52.2743,17.3286 h 15.5958 c 1.2996,0 1.8772,-0.72202 2.3104,-1.87726 l 24.2601,-60.21689 c 1.0108,-2.45488 3.6101,-2.45488 3.1769,0.43322 l -7.5091,59.20605 c -0.1444,1.58845 0.4332,2.45488 1.8773,2.45488 h 15.5957 c 1.2997,0 1.8773,-0.72202 2.3105,-1.87726 l 38.7006,-96.75135 c 0.5776,-1.58846 -0.4333,-2.45489 -1.8773,-2.45489 h -16.029 c -1.2996,0 -2.0216,0.72203 -2.3104,1.87727 l -17.3286,58.05081 c -0.5777,2.02167 -3.4658,1.87726 -3.177,-0.72203 l 7.6535,-56.75116 c 0.2888,-1.73286 -0.5776,-2.45489 -2.0217,-2.45489 h -16.4621 c -1.2997,0 -1.8773,0.72203 -2.3105,1.87727 l -21.9496,58.05081 c -0.722,2.02167 -3.7545,1.73286 -3.1769,-0.72203 l 11.9856,-56.75116 c 0.2888,-1.58846 -0.4332,-2.45489 -1.8772,-2.45489 h -15.0181 c -1.2997,0 -2.1661,0.72203 -2.3105,1.87727 l -11.9856,96.75135 c -0.1444,1.58845 0.4332,2.45488 1.8772,2.45488 z m -25.4153,34.94602 h 91.1196 c 1.2996,0 2.0217,-0.722 2.3105,-1.8773 l 3.6101,-13.28523 c 0.4332,-1.58846 -0.4332,-2.45489 -1.8773,-2.45489 h -91.1195 c -1.2997,0 -2.0217,0.72203 -2.3105,1.87727 l -3.6101,13.28525 c -0.4332,1.5885 0.4332,2.4549 1.8772,2.4549 z m 106.7152,-34.94602 h 41.011 c 1.2996,0 2.0217,-0.72202 2.3105,-1.87726 l 3.4657,-13.28526 c 0.4332,-1.58846 -0.4332,-2.45489 -1.8773,-2.45489 h -22.5272 l 6.7871,-26.28171 h 18.0506 c 1.2997,0 2.0217,-0.72202 2.3105,-1.87726 l 3.1769,-12.13002 c 0.4332,-1.58846 -0.4332,-2.45489 -1.8773,-2.45489 h -17.473 l 6.065,-23.1048 h 23.1048 c 1.2997,0 2.0217,-0.72202 2.3105,-1.87726 l 3.4657,-13.28526 c 0.4333,-1.58846 -0.4332,-2.45489 -1.8772,-2.45489 h -41.8775 c -1.2996,0 -2.0216,0.72203 -2.3105,1.87727 l -24.6932,96.02932 c -0.4332,1.87727 0.4332,3.17691 2.4549,3.17691 z m -19.6391,34.94602 h 58.3396 c 1.2997,0 2.0217,-0.722 2.3105,-1.8773 l 3.6101,-13.28523 c 0.4332,-1.58846 -0.4332,-2.45489 -1.8772,-2.45489 h -58.3397 c -1.2996,0 -2.0216,0.72203 -2.3104,1.87727 l -3.6102,13.28525 c -0.4332,1.5885 0.4332,2.4549 1.8773,2.4549 z m 97.7621,-33.79078 c 18.4838,2.16608 32.9243,-14.4405 41.2998,-43.4659 1.444,-4.76537 3.0325,-9.67514 4.621,-17.61741 0.4332,-1.87727 -0.4333,-2.59929 -2.1661,-2.31048 l -29.7475,4.62096 c -1.2996,0.1444 -2.0216,1.29964 -2.4548,2.59929 l -2.3105,12.70764 c -0.4332,1.87726 0.4332,2.59929 2.1661,2.31048 l 4.3321,-0.72203 c 0.5776,-0.1444 1.4441,-0.57762 2.0217,-0.86643 l 8.9531,-4.47655 c 1.5884,-0.86643 2.7437,1.29964 1.2996,2.45488 l -9.6751,7.94228 c -0.4332,0.43321 -0.8664,0.86643 -1.2996,2.16607 -3.6102,12.85205 -8.2311,17.3286 -12.8521,17.03979 -6.3538,-0.57762 -7.5091,-13.86288 -0.722,-37.40089 5.7762,-20.36111 13.7185,-31.19148 19.4947,-30.75827 4.3321,0.43322 5.7762,6.20942 4.9097,15.59574 -0.4332,1.87727 0.5776,2.7437 2.3105,2.45489 l 14.5849,-2.59929 c 1.2997,-0.28881 2.3105,-1.01084 2.4549,-2.31048 2.0217,-17.03979 -7.2203,-30.46946 -23.538,-30.90267 -17.473,-0.57762 -31.3359,15.88455 -39.7114,44.04352 -9.5307,35.09042 -4.0433,56.89557 16.029,59.49486 z m -44.91,33.79078 h 73.3577 c 1.2997,0 2.0217,-0.722 2.3105,-1.8773 l 3.6102,-13.28523 c 0.4332,-1.58846 -0.4333,-2.45489 -1.8773,-2.45489 h -73.3578 c -1.2996,0 -2.0216,0.72203 -2.3104,1.87727 l -3.6102,13.28525 c -0.4332,1.5885 0.4333,2.4549 1.8773,2.4549 z"
         id="path21" />
      <path
         d="m 1311.7307,1116.5484 h 27.8701 c 17.1842,0 29.3142,-9.2419 32.6356,-25.5597 3.0325,-14.8737 -4.9098,-21.6607 -8.3755,-24.5488 -1.7329,-1.4441 -1.5885,-2.3105 0.8664,-3.3213 5.343,-2.1661 12.7076,-7.9423 15.1625,-18.3395 3.1769,-13.8629 -3.6101,-29.3142 -25.4153,-29.3142 h -17.9062 c -1.2996,0 -2.0217,0.722 -2.3105,1.8773 l -24.6932,95.8849 c -0.4332,1.5885 0.4332,3.3213 2.1661,3.3213 z m 20.6499,-16.0289 7.2202,-27.7258 h 4.9098 c 7.6535,0 9.2419,5.7762 7.5091,14.1517 -1.5885,7.7979 -5.6318,13.5741 -13.1409,13.5741 z m 11.6968,-44.7656 6.2094,-24.1156 h 4.621 c 6.3538,0 8.231,6.4982 6.4982,13.4296 -1.7329,6.9315 -4.9098,10.686 -13.2853,10.686 z m 24.4042,60.7945 h 18.3394 c 1.1552,0 2.0217,-0.2888 2.5993,-1.2996 l 10.5415,-16.6066 h 16.3178 l -5.343,15.4513 c -0.5776,1.5885 0.4332,2.4549 1.8773,2.4549 h 16.751 c 1.2996,0 2.0216,-0.722 2.3105,-1.8773 l 24.982,-96.7513 c 0.4332,-1.5885 -0.4332,-2.4549 -1.8772,-2.4549 h -17.0398 c -1.1553,0 -2.1661,0.4332 -2.7437,1.2997 l -67.8704,96.8957 c -1.0108,1.5885 -0.5776,2.8881 1.1553,2.8881 z m 41.5886,-34.5128 21.0831,-34.5128 c 1.1553,-2.0216 4.0434,-1.0108 3.1769,1.4441 l -11.9856,33.0687 z m 63.3936,35.6681 c 17.6174,0.8664 28.4478,-11.8413 32.9243,-29.1699 l 18.3395,-70.614 c 0.4332,-1.5885 -0.4333,-2.4549 -1.8773,-2.4549 h -16.4622 c -1.2996,0 -2.0217,0.722 -2.3105,1.8773 l -17.6174,68.5924 c -1.7328,6.787 -4.4765,14.8737 -10.9748,14.1516 -6.065,-0.722 -6.065,-8.6643 -3.8989,-16.7509 l 16.751,-65.4155 c 0.4332,-1.5885 -0.4332,-2.4549 -1.8773,-2.4549 h -16.4621 c -1.2997,0 -2.0217,0.722 -2.3105,1.8773 l -15.8846,61.9497 c -4.7653,18.3395 0.8665,37.4009 21.6608,38.4118 z m 49.242,-1.1553 h 16.4622 c 1.2996,0 2.0216,-0.722 2.3104,-1.8773 l 21.372,-82.5996 h 14.5849 c 1.2996,0 2.0217,-0.722 2.3105,-1.8773 l 3.1769,-12.2744 c 0.4332,-1.5885 -0.4332,-2.4549 -1.8773,-2.4549 h -49.3865 c -1.2996,0 -2.0217,0.722 -2.3105,1.8773 l -3.1769,12.2744 c -0.4332,1.5885 0.4332,2.4549 1.8773,2.4549 h 14.0073 l -21.2276,82.022 c -0.4332,1.5885 0.4332,2.4549 1.8773,2.4549 z m 79.5533,-30.9027 h 16.4621 c 1.2997,0 2.0217,-0.722 2.3105,-1.8772 l 16.8954,-65.8487 c 0.4332,-1.5885 -0.4332,-2.4549 -1.8773,-2.4549 h -16.4621 c -1.2997,0 -2.0217,0.722 -2.3105,1.8773 l -16.8954,65.8487 c -0.4332,1.5884 0.4332,2.4548 1.8773,2.4548 z m -8.8087,30.9027 h 18.0506 c 1.2996,0 2.0217,-0.722 2.3105,-1.8773 l 4.6209,-17.9062 c 0.4333,-1.5884 -0.4332,-2.4549 -1.8772,-2.4549 h -18.0507 c -1.2996,0 -2.0216,0.7221 -2.3104,1.8773 l -4.621,17.9062 c -0.4332,1.5885 0.4332,2.4549 1.8773,2.4549 z"
         id="path22" />
    </g>
    <path
       style="font-weight:bold;font-size:54.8844px;line-height:1.25;font-family:'Changing Cities';-inkscape-font-specification:'Changing Cities Bold';font-variant-ligatures:none;letter-spacing:0px;word-spacing:-0.00205816px;stroke-width:0.205816"
       d="m 858.98772,93.519649 5.92752,-0.384191 c 0.43907,-0.05488 0.71349,-0.274422 0.87815,-0.713497 l 3.73214,-10.208498 0.16465,-0.658613 1.09769,-9.659654 c 0.0549,-0.603729 0.7135,-0.49396 0.7135,0.05488 l 0.21953,19.923037 c 0,0.548844 0.27443,0.823266 0.82327,0.768382 l 5.54332,-0.329307 c 0.43908,0 0.76839,-0.274422 0.93304,-0.658613 L 892.68674,57.35083 c 0.21954,-0.548844 -0.10977,-0.987919 -0.71349,-0.933035 l -5.81775,0.439075 c -0.43907,0.05488 -0.76838,0.274422 -0.93303,0.658613 l -5.70798,14.324828 c -0.10977,0.329307 -0.16466,0.658613 -0.21954,0.987919 l -1.26234,9.495002 c -0.10977,0.658612 -0.7135,0.713497 -0.7135,0 l 0.10977,-24.039367 c 0,-0.548844 -0.27442,-0.878151 -0.82327,-0.823266 l -4.82982,0.274422 c -0.43908,0 -0.7135,0.274422 -0.87815,0.713497 l -12.56853,34.138096 c -0.21954,0.548844 0.0549,0.987919 0.65861,0.933035 z m -115.25724,8.013121 c 5.87263,0.32931 10.31827,-4.720057 12.34899,-14.160174 0.21954,-0.987919 -0.10977,-1.646532 -0.87815,-1.481879 l -5.15913,1.207457 c -0.43908,0.109769 -0.65861,0.384191 -0.76838,0.878151 -1.04281,4.99448 -2.85399,7.519162 -4.55541,7.409394 -1.97584,-0.109769 -2.68933,-4.006562 -0.65861,-12.623412 1.81119,-7.628932 4.11633,-11.690377 6.14705,-11.361071 1.37211,0.219538 1.64653,2.634451 0.7135,7.519163 -0.10977,0.658613 0.21954,0.987919 0.82327,0.87815 l 5.2689,-1.097688 c 0.43907,-0.109769 0.7135,-0.384191 0.82326,-0.87815 0.82327,-4.11633 0.27443,-12.623412 -7.46427,-12.623412 -6.03729,0 -10.86711,5.433555 -13.3918,16.245782 -2.85399,12.294106 -0.10977,19.703499 6.75078,20.087689 z m 12.78807,-1.31722 5.48844,-0.384195 c 0.43907,-0.05488 0.76838,-0.329306 0.87815,-0.768382 l 2.4698,-12.074568 5.21402,-1.207456 -2.57957,12.73318 c -0.10977,0.548844 0.21954,0.933035 0.76838,0.878151 l 5.48844,-0.384191 c 0.43908,-0.05488 0.76838,-0.329306 0.87815,-0.768382 l 6.86055,-33.699021 c 0.10977,-0.548844 -0.21954,-0.933035 -0.76838,-0.87815 l -5.48844,0.329306 c -0.49396,0.05489 -0.76838,0.329306 -0.87815,0.768382 l -2.96376,14.59925 -5.21402,1.152572 3.07353,-15.202978 c 0.10977,-0.548844 -0.21954,-0.933035 -0.76838,-0.878151 l -5.48844,0.384191 c -0.43908,0.05488 -0.76838,0.329306 -0.87815,0.768382 l -6.86055,33.753905 c -0.10977,0.548844 0.21953,0.933035 0.76838,0.878155 z m 50.87784,35.72974 c 5.87263,0.32931 10.31826,-4.72006 12.34899,-14.10529 0.21953,-1.0428 -0.10977,-1.70142 -0.87815,-1.53676 l -5.15914,1.20745 c -0.43907,0.10977 -0.65861,0.38419 -0.76838,0.87815 -1.0428,4.99448 -2.85399,7.51917 -4.5554,7.4094 -1.97584,-0.10977 -2.68934,-4.00656 -0.65862,-12.56853 1.81119,-7.68382 4.11633,-11.74526 6.14706,-11.41596 1.37211,0.21954 1.64653,2.63446 0.71349,7.51917 -0.10977,0.65861 0.21954,0.98792 0.82327,0.87815 l 5.2689,-1.09769 c 0.43908,-0.10977 0.7135,-0.38419 0.82327,-0.82327 0.82326,-4.17121 0.27442,-12.678293 -7.46428,-12.678293 -6.03728,0 -10.86711,5.433553 -13.39179,16.300663 -2.85399,12.23923 -0.10977,19.64862 6.75078,20.03281 z m -30.51573,-37.101854 5.92752,-0.384191 c 0.43907,-0.05488 0.71349,-0.219538 0.93303,-0.603728 l 3.1833,-4.884712 5.92751,-0.49396 c -0.0549,0.164654 -0.0549,0.329307 -0.10977,0.49396 l -0.82326,4.006561 c -0.10977,0.548844 0.21953,0.933035 0.76838,0.878151 l 5.32378,-0.384191 c 0.43908,-0.05488 0.76839,-0.329307 0.87816,-0.768382 l 6.86055,-33.699021 c 0.10976,-0.548844 -0.21954,-0.933035 -0.76839,-0.87815 l -5.87263,0.329306 c -0.43907,0 -0.71349,0.274422 -0.93303,0.603728 l -21.89888,34.851594 c -0.3293,0.548844 -0.0549,0.987919 0.60373,0.933035 z M 790.43711,86.933521 797.133,74.6943 c 0.32931,-0.658613 0.93304,-0.384191 0.7135,0.329306 l -3.18329,11.580609 z m 29.912,47.694539 5.70797,-0.38419 c 0.49396,-0.0549 0.76838,-0.3293 0.87815,-0.76838 l 6.86055,-33.753904 c 0.10977,-0.548844 -0.21953,-0.933035 -0.76838,-0.87815 l -5.70798,0.384191 c -0.49396,0.05488 -0.76838,0.329306 -0.87815,0.768381 l -6.86055,33.753902 c -0.10977,0.54885 0.21954,0.93304 0.76839,0.87815 z m 10.20849,-0.65861 5.81775,-0.38419 c 0.43908,-0.0549 0.7135,-0.27442 0.87815,-0.7135 l 11.03176,-29.25338 4.00657,-0.27442 c 0.43907,-0.0549 0.71349,-0.27443 0.87815,-0.7135 l 1.53676,-4.226099 c 0.21954,-0.548844 -0.0549,-0.98792 -0.65861,-0.933035 l -15.69694,1.042803 c -0.43908,0.05488 -0.7135,0.274422 -0.87815,0.713498 l -1.53677,4.226103 c -0.21953,0.54884 0.10977,0.98791 0.7135,0.93303 l 4.06145,-0.27442 -10.81223,28.92408 c -0.21954,0.54884 0.0549,0.98792 0.65861,0.93303 z m -27.4422,-36.827431 5.54333,-0.329306 c 0.49396,-0.05488 0.7135,-0.329306 0.82326,-0.768382 l 1.75631,-9.330348 c 0.0549,-0.329306 0.10976,-0.658612 0.10976,-0.987919 l -0.27442,-9.98896 c 0,-0.439076 0.49396,-0.548844 0.60373,-0.05488 l 3.40283,19.923037 c 0.10977,0.548844 0.38419,0.768382 0.87815,0.713497 l 5.81775,-0.38419 c 0.49396,-0.05488 0.76838,-0.329307 0.87815,-0.768382 l 6.86055,-33.753906 c 0.10977,-0.548844 -0.21954,-0.933034 -0.76838,-0.87815 l -5.48844,0.384191 c -0.49396,0.05488 -0.7135,0.329306 -0.82327,0.768381 l -2.25026,12.129453 c -0.0549,0.329306 -0.10977,0.658612 -0.10977,0.987919 l 0.10977,11.196417 c 0,0.658613 -0.54884,0.658613 -0.65861,0.109769 L 815.7937,62.180657 c -0.0549,-0.49396 -0.38419,-0.768382 -0.87815,-0.713497 l -4.82983,0.274422 c -0.49396,0.05488 -0.76838,0.329306 -0.87815,0.768381 l -6.86055,33.753906 c -0.10977,0.548844 0.21954,0.933035 0.76838,0.87815 z m 41.43773,35.894401 5.92751,-0.38419 c 0.43908,-0.0549 0.7135,-0.27443 0.87815,-0.7135 l 12.84295,-34.138098 c 0.21954,-0.548844 -0.0549,-0.987919 -0.65861,-0.933035 l -5.92752,0.384191 c -0.43907,0.05488 -0.71349,0.274422 -0.87815,0.713497 l -12.84295,34.138095 c -0.21953,0.54885 0.0549,0.98792 0.65862,0.93304 z m -8.94616,-37.595817 c 6.47636,0.439075 11.14153,-5.543324 13.61133,-15.806707 0.38419,-1.646532 0.82327,-3.402833 1.26234,-6.092168 0.10977,-0.658613 -0.21954,-0.933035 -0.82327,-0.823266 l -10.5378,2.25026 c -0.43908,0.109769 -0.7135,0.439075 -0.76838,0.87815 l -0.60373,4.445637 c -0.10977,0.658613 0.21954,0.933035 0.82327,0.768381 l 1.42699,-0.38419 c 0.21954,-0.05488 0.38419,-0.109769 0.60373,-0.219538 l 3.18329,-1.646532 c 0.32931,-0.164653 0.60373,0.219538 0.32931,0.49396 l -2.52468,2.140491 c -0.21954,0.164653 -0.32931,0.384191 -0.38419,0.658613 -1.04281,4.884711 -2.57957,7.189856 -4.44564,7.134972 -2.19538,-0.05488 -2.85399,-4.61029 -0.93303,-12.897834 1.64653,-7.134972 4.22609,-11.086649 6.20193,-10.97688 1.48188,0.05488 2.14049,2.74422 1.86607,6.311706 -0.0549,0.603728 0.27442,0.933035 0.87815,0.768382 l 5.04937,-1.152573 c 0.43907,-0.109769 0.76838,-0.384191 0.76838,-0.87815 0.43907,-6.915434 -2.96376,-11.361071 -8.61685,-11.251302 -6.09217,0.109769 -10.59269,6.092168 -12.95272,16.026245 -2.74422,12.239221 -0.38419,19.758383 6.58613,20.252343 z m 24.91752,36.498127 13.11737,-0.82327 c 0.49396,-0.0549 0.76838,-0.3293 0.87815,-0.76838 l 0.87815,-4.44564 c 0.10977,-0.54884 -0.21954,-0.93303 -0.76838,-0.87815 l -6.42148,0.43908 1.86607,-9.11081 6.14705,-0.38419 c 0.49396,-0.0549 0.76839,-0.32931 0.87815,-0.76838 l 0.87815,-4.44564 c 0.10977,-0.54884 -0.16465,-0.93303 -0.71349,-0.87815 l -5.9824,0.38419 1.64653,-7.95824 6.64101,-0.43907 c 0.49396,-0.0549 0.76838,-0.32931 0.87815,-0.76838 l 0.87815,-4.500525 c 0.10977,-0.548844 -0.16465,-0.933034 -0.71349,-0.87815 l -13.11738,0.87815 c -0.49396,0.05488 -0.76838,0.329307 -0.87815,0.768382 l -6.86055,33.699023 c -0.10976,0.54884 0.21954,0.93303 0.76839,0.87815 z m -10.86712,-37.815353 5.70798,-0.38419 c 0.43908,-0.05488 0.76838,-0.329307 0.87815,-0.768382 l 4.99448,-24.478442 c 0.10977,-0.548844 -0.21953,-0.933035 -0.76838,-0.878151 l -5.70798,0.329307 c -0.49396,0.05488 -0.76838,0.329306 -0.87815,0.768381 l -4.99448,24.533327 c -0.10977,0.548844 0.21954,0.933035 0.76838,0.87815 z m 37.15674,36.607893 c 5.76286,0.16465 9.00104,-4.33587 9.495,-9.60477 0.54885,-5.65309 -2.68933,-8.83639 -4.99448,-11.69038 -1.7563,-2.19537 -2.96375,-3.5126 -2.68933,-6.14705 0.16465,-1.7563 1.37211,-2.41491 2.19537,-2.36003 1.31723,0.0549 2.74422,1.86607 2.74422,6.53125 0,0.60372 0.38419,0.87815 0.93304,0.76838 l 4.06144,-0.87815 c 0.43908,-0.10977 0.7135,-0.38419 0.76839,-0.87815 0.21953,-5.9824 -2.41492,-11.800149 -8.4522,-11.800149 -3.84191,0 -8.06801,2.140492 -8.89127,8.616849 -0.54885,4.61029 1.53676,7.79359 3.5126,10.26338 2.19537,2.74422 3.95167,4.66518 3.78702,7.90336 -0.10977,2.19537 -0.98792,3.01864 -2.08561,2.96376 -1.7563,-0.10977 -3.12841,-2.79911 -2.63445,-7.7387 0.0549,-0.65862 -0.3293,-0.93304 -0.87815,-0.82327 l -4.66517,0.98792 c -0.43908,0.10977 -0.7135,0.38419 -0.76838,0.87815 -0.49396,7.90335 3.45771,12.84295 8.56196,13.0076 z m -32.49156,-64.818474 7.7387,-0.49396 c 0.43907,-0.05488 0.76838,-0.329306 0.87815,-0.768381 l 1.48188,-7.025203 c 0.10977,-0.603729 -0.21954,-0.933035 -0.82327,-0.768382 l -8.12289,2.140492 c -0.43907,0.109769 -0.65861,0.329306 -0.76838,0.823266 l -1.09769,5.214018 c -0.10977,0.548844 0.16465,0.933034 0.7135,0.87815 z m 42.37075,25.57613 c 6.47636,0.439075 11.14154,-5.543324 13.61134,-15.806707 0.38419,-1.646532 0.82326,-3.402833 1.26234,-6.092168 0.10977,-0.658613 -0.21954,-0.933035 -0.82327,-0.823266 l -10.5378,2.25026 c -0.43908,0.109769 -0.7135,0.439075 -0.76839,0.878151 l -0.60372,4.445636 c -0.10977,0.658613 0.21953,0.933035 0.82326,0.768382 l 1.427,-0.384191 c 0.21953,-0.05488 0.38419,-0.109769 0.60373,-0.219538 l 3.18329,-1.646532 c 0.32931,-0.164653 0.60373,0.219538 0.32931,0.49396 l -2.52469,2.140491 c -0.21953,0.164654 -0.3293,0.384191 -0.38419,0.658613 -1.0428,4.884712 -2.57956,7.189856 -4.44563,7.134972 -2.19538,-0.05488 -2.85399,-4.610289 -0.93304,-12.897834 1.64653,-7.134972 4.2261,-11.086648 6.20194,-10.97688 1.48188,0.05488 2.14049,2.74422 1.86607,6.311706 -0.0549,0.603729 0.27442,0.933035 0.87815,0.768382 l 5.04936,-1.152573 c 0.43908,-0.109768 0.76839,-0.38419 0.76839,-0.87815 0.43907,-6.915434 -2.96376,-11.361071 -8.61685,-11.251302 -6.09217,0.109769 -10.59269,6.092169 -12.95272,16.026245 -2.74422,12.239221 -0.38419,19.758384 6.58612,20.252343 z"
       id="text31135"
       transform="scale(0.93566569,1.0687578)"
       aria-label="0" />
  </g>
</svg>
